<svg width="219" height="100" viewBox="0 0 219 100" fill="none" xmlns="http://www.w3.org/2000/svg">
<g style="mix-blend-mode:color-dodge" filter="url(#filter0_f_901_3729)">
<path d="M106.638 36.6429C106.657 36.5264 106.698 36.4146 106.76 36.3139C106.821 36.2133 106.902 36.1258 106.998 36.0564C107.093 35.987 107.201 35.9372 107.316 35.9096C107.431 35.8821 107.55 35.8774 107.666 35.8959C109.368 36.1539 110.97 36.8609 112.307 37.9439C113.645 39.0269 114.669 40.4469 115.276 42.0576C115.318 42.1678 115.338 42.2852 115.335 42.4032C115.332 42.5212 115.306 42.6374 115.258 42.7452C115.21 42.853 115.141 42.9502 115.055 43.0314C114.97 43.1126 114.869 43.1762 114.759 43.2184C114.685 43.2462 114.609 43.2645 114.531 43.2729C114.334 43.2935 114.136 43.2486 113.967 43.1451C113.798 43.0415 113.668 42.8852 113.598 42.7003C113.103 41.3854 112.267 40.2261 111.175 39.3421C110.083 38.458 108.776 37.881 107.387 37.6707C107.27 37.6525 107.158 37.6114 107.057 37.5498C106.957 37.4882 106.869 37.4074 106.799 37.3119C106.73 37.2165 106.68 37.1083 106.652 36.9935C106.625 36.8787 106.62 36.7596 106.638 36.6429ZM106.869 41.338C108.452 41.5871 109.545 42.4725 110.118 43.9692C110.189 44.1541 110.319 44.3105 110.487 44.414C110.656 44.5176 110.854 44.5625 111.051 44.5418C111.129 44.5334 111.206 44.5151 111.279 44.4873C111.389 44.4451 111.49 44.3816 111.576 44.3004C111.661 44.2192 111.73 44.1219 111.778 44.0141C111.826 43.9063 111.852 43.7901 111.855 43.6721C111.859 43.5541 111.838 43.4367 111.796 43.3266C110.999 41.2471 109.348 39.91 107.149 39.5631C107.032 39.5448 106.913 39.5495 106.798 39.5772C106.684 39.6048 106.576 39.6547 106.48 39.7242C106.385 39.7936 106.304 39.8811 106.242 39.9818C106.181 40.0824 106.14 40.1942 106.121 40.3107C106.103 40.4272 106.108 40.5463 106.135 40.661C106.163 40.7757 106.213 40.8838 106.282 40.9792C106.352 41.0746 106.439 41.1554 106.54 41.2169C106.641 41.2785 106.752 41.3196 106.869 41.338ZM117.138 51.0239C117.098 52.5579 116.501 54.0249 115.458 55.1509C114.416 56.2769 112.999 56.9848 111.472 57.1425C102.606 58.0744 94.6338 51.6189 93.7019 42.7524C93.5388 41.2265 93.9367 39.6934 94.8213 38.4394C95.7059 37.1855 97.0167 36.2964 98.5089 35.9382C98.8866 35.8513 99.2823 35.8888 99.6369 36.0453C99.9916 36.2017 100.286 36.4686 100.477 36.8062L103.388 41.8235L103.39 41.8369C103.536 42.0953 103.615 42.3858 103.621 42.6825C103.627 42.9791 103.56 43.2726 103.425 43.5369C103.408 43.5691 103.39 43.5993 103.37 43.6296L101.335 46.6299C102.35 48.2416 104.313 49.8168 106.123 50.4745L108.598 47.8762C108.623 47.8509 108.648 47.8271 108.675 47.8048C108.905 47.614 109.179 47.4836 109.472 47.4252C109.765 47.3668 110.068 47.3823 110.353 47.4705L110.368 47.4756L115.877 49.28C116.247 49.3955 116.57 49.6278 116.797 49.9421C117.025 50.2565 117.144 50.636 117.138 51.0239ZM115.341 50.9869C115.341 50.9869 115.334 50.9877 115.329 50.9882L109.834 49.1892L107.358 51.7876C107.334 51.8128 107.308 51.8365 107.281 51.8589C107.042 52.0574 106.756 52.1906 106.45 52.2453C106.144 52.3 105.829 52.2744 105.536 52.171C103.338 51.3803 101.036 49.5302 99.8068 47.5673C99.6437 47.3043 99.5513 47.0036 99.5386 46.6944C99.5259 46.3852 99.5932 46.0779 99.7342 45.8024C99.7499 45.7701 99.7682 45.7391 99.7888 45.7097L101.826 42.7058L98.9293 37.7038C98.9284 37.6994 98.9279 37.6949 98.9279 37.6904C97.8598 37.9455 96.9214 38.5812 96.2883 39.4784C95.6552 40.3756 95.3709 41.4728 95.4886 42.5646C95.8911 46.3538 97.7802 49.8286 100.741 52.2266C103.703 54.6246 107.494 55.75 111.284 55.3558C112.376 55.2449 113.39 54.7401 114.137 53.9358C114.883 53.1315 115.312 52.0828 115.341 50.9858L115.341 50.9869Z" stroke="#FF9E9E" stroke-width="6.4495" stroke-linecap="round" stroke-linejoin="round"/>
</g>
<g style="mix-blend-mode:color-dodge" filter="url(#filter1_f_901_3729)">
<path d="M106.638 36.6429C106.657 36.5264 106.698 36.4146 106.76 36.3139C106.821 36.2133 106.902 36.1258 106.998 36.0564C107.093 35.987 107.201 35.9372 107.316 35.9096C107.431 35.8821 107.55 35.8774 107.666 35.8959C109.368 36.1539 110.97 36.8609 112.307 37.9439C113.645 39.0269 114.669 40.4469 115.276 42.0576C115.318 42.1678 115.338 42.2852 115.335 42.4032C115.332 42.5212 115.306 42.6374 115.258 42.7452C115.21 42.853 115.141 42.9502 115.055 43.0314C114.97 43.1126 114.869 43.1762 114.759 43.2184C114.685 43.2462 114.609 43.2645 114.531 43.2729C114.334 43.2935 114.136 43.2486 113.967 43.1451C113.798 43.0415 113.668 42.8852 113.598 42.7003C113.103 41.3854 112.267 40.2261 111.175 39.3421C110.083 38.458 108.776 37.881 107.387 37.6707C107.27 37.6525 107.158 37.6114 107.057 37.5498C106.957 37.4882 106.869 37.4074 106.799 37.3119C106.73 37.2165 106.68 37.1083 106.652 36.9935C106.625 36.8787 106.62 36.7596 106.638 36.6429ZM106.869 41.338C108.452 41.5871 109.545 42.4725 110.118 43.9692C110.189 44.1541 110.319 44.3105 110.487 44.414C110.656 44.5176 110.854 44.5625 111.051 44.5418C111.129 44.5334 111.206 44.5151 111.279 44.4873C111.389 44.4451 111.49 44.3816 111.576 44.3004C111.661 44.2192 111.73 44.1219 111.778 44.0141C111.826 43.9063 111.852 43.7901 111.855 43.6721C111.859 43.5541 111.838 43.4367 111.796 43.3266C110.999 41.2471 109.348 39.91 107.149 39.5631C107.032 39.5448 106.913 39.5495 106.798 39.5772C106.684 39.6048 106.576 39.6547 106.48 39.7242C106.385 39.7936 106.304 39.8811 106.242 39.9818C106.181 40.0824 106.14 40.1942 106.121 40.3107C106.103 40.4272 106.108 40.5463 106.135 40.661C106.163 40.7757 106.213 40.8838 106.282 40.9792C106.352 41.0746 106.439 41.1554 106.54 41.2169C106.641 41.2785 106.752 41.3196 106.869 41.338ZM117.138 51.0239C117.098 52.5579 116.501 54.0249 115.458 55.1509C114.416 56.2769 112.999 56.9848 111.472 57.1425C102.606 58.0744 94.6338 51.6189 93.7019 42.7524C93.5388 41.2265 93.9367 39.6934 94.8213 38.4394C95.7059 37.1855 97.0167 36.2964 98.5089 35.9382C98.8866 35.8513 99.2823 35.8888 99.6369 36.0453C99.9916 36.2017 100.286 36.4686 100.477 36.8062L103.388 41.8235L103.39 41.8369C103.536 42.0953 103.615 42.3858 103.621 42.6825C103.627 42.9791 103.56 43.2726 103.425 43.5369C103.408 43.5691 103.39 43.5993 103.37 43.6296L101.335 46.6299C102.35 48.2416 104.313 49.8168 106.123 50.4745L108.598 47.8762C108.623 47.8509 108.648 47.8271 108.675 47.8048C108.905 47.614 109.179 47.4836 109.472 47.4252C109.765 47.3668 110.068 47.3823 110.353 47.4705L110.368 47.4756L115.877 49.28C116.247 49.3955 116.57 49.6278 116.797 49.9421C117.025 50.2565 117.144 50.636 117.138 51.0239ZM115.341 50.9869C115.341 50.9869 115.334 50.9877 115.329 50.9882L109.834 49.1892L107.358 51.7876C107.334 51.8128 107.308 51.8365 107.281 51.8589C107.042 52.0574 106.756 52.1906 106.45 52.2453C106.144 52.3 105.829 52.2744 105.536 52.171C103.338 51.3803 101.036 49.5302 99.8068 47.5673C99.6437 47.3043 99.5513 47.0036 99.5386 46.6944C99.5259 46.3852 99.5932 46.0779 99.7342 45.8024C99.7499 45.7701 99.7682 45.7391 99.7888 45.7097L101.826 42.7058L98.9293 37.7038C98.9284 37.6994 98.9279 37.6949 98.9279 37.6904C97.8598 37.9455 96.9214 38.5812 96.2883 39.4784C95.6552 40.3756 95.3709 41.4728 95.4886 42.5646C95.8911 46.3538 97.7802 49.8286 100.741 52.2266C103.703 54.6246 107.494 55.75 111.284 55.3558C112.376 55.2449 113.39 54.7401 114.137 53.9358C114.883 53.1315 115.312 52.0828 115.341 50.9858L115.341 50.9869Z" fill="#B1280F"/>
<path d="M106.638 36.6429C106.657 36.5264 106.698 36.4146 106.76 36.3139C106.821 36.2133 106.902 36.1258 106.998 36.0564C107.093 35.987 107.201 35.9372 107.316 35.9096C107.431 35.8821 107.55 35.8774 107.666 35.8959C109.368 36.1539 110.97 36.8609 112.307 37.9439C113.645 39.0269 114.669 40.4469 115.276 42.0576C115.318 42.1678 115.338 42.2852 115.335 42.4032C115.332 42.5212 115.306 42.6374 115.258 42.7452C115.21 42.853 115.141 42.9502 115.055 43.0314C114.97 43.1126 114.869 43.1762 114.759 43.2184C114.685 43.2462 114.609 43.2645 114.531 43.2729C114.334 43.2935 114.136 43.2486 113.967 43.1451C113.798 43.0415 113.668 42.8852 113.598 42.7003C113.103 41.3854 112.267 40.2261 111.175 39.3421C110.083 38.458 108.776 37.881 107.387 37.6707C107.27 37.6525 107.158 37.6114 107.057 37.5498C106.957 37.4882 106.869 37.4074 106.799 37.3119C106.73 37.2165 106.68 37.1083 106.652 36.9935C106.625 36.8787 106.62 36.7596 106.638 36.6429ZM106.869 41.338C108.452 41.5871 109.545 42.4725 110.118 43.9692C110.189 44.1541 110.319 44.3105 110.487 44.414C110.656 44.5176 110.854 44.5625 111.051 44.5418C111.129 44.5334 111.206 44.5151 111.279 44.4873C111.389 44.4451 111.49 44.3816 111.576 44.3004C111.661 44.2192 111.73 44.1219 111.778 44.0141C111.826 43.9063 111.852 43.7901 111.855 43.6721C111.859 43.5541 111.838 43.4367 111.796 43.3266C110.999 41.2471 109.348 39.91 107.149 39.5631C107.032 39.5448 106.913 39.5495 106.798 39.5772C106.684 39.6048 106.576 39.6547 106.48 39.7242C106.385 39.7936 106.304 39.8811 106.242 39.9818C106.181 40.0824 106.14 40.1942 106.121 40.3107C106.103 40.4272 106.108 40.5463 106.135 40.661C106.163 40.7757 106.213 40.8838 106.282 40.9792C106.352 41.0746 106.439 41.1554 106.54 41.2169C106.641 41.2785 106.752 41.3196 106.869 41.338ZM117.138 51.0239C117.098 52.5579 116.501 54.0249 115.458 55.1509C114.416 56.2769 112.999 56.9848 111.472 57.1425C102.606 58.0744 94.6338 51.6189 93.7019 42.7524C93.5388 41.2265 93.9367 39.6934 94.8213 38.4394C95.7059 37.1855 97.0167 36.2964 98.5089 35.9382C98.8866 35.8513 99.2823 35.8888 99.6369 36.0453C99.9916 36.2017 100.286 36.4686 100.477 36.8062L103.388 41.8235L103.39 41.8369C103.536 42.0953 103.615 42.3858 103.621 42.6825C103.627 42.9791 103.56 43.2726 103.425 43.5369C103.408 43.5691 103.39 43.5993 103.37 43.6296L101.335 46.6299C102.35 48.2416 104.313 49.8168 106.123 50.4745L108.598 47.8762C108.623 47.8509 108.648 47.8271 108.675 47.8048C108.905 47.614 109.179 47.4836 109.472 47.4252C109.765 47.3668 110.068 47.3823 110.353 47.4705L110.368 47.4756L115.877 49.28C116.247 49.3955 116.57 49.6278 116.797 49.9421C117.025 50.2565 117.144 50.636 117.138 51.0239ZM115.341 50.9869C115.341 50.9869 115.334 50.9877 115.329 50.9882L109.834 49.1892L107.358 51.7876C107.334 51.8128 107.308 51.8365 107.281 51.8589C107.042 52.0574 106.756 52.1906 106.45 52.2453C106.144 52.3 105.829 52.2744 105.536 52.171C103.338 51.3803 101.036 49.5302 99.8068 47.5673C99.6437 47.3043 99.5513 47.0036 99.5386 46.6944C99.5259 46.3852 99.5932 46.0779 99.7342 45.8024C99.7499 45.7701 99.7682 45.7391 99.7888 45.7097L101.826 42.7058L98.9293 37.7038C98.9284 37.6994 98.9279 37.6949 98.9279 37.6904C97.8598 37.9455 96.9214 38.5812 96.2883 39.4784C95.6552 40.3756 95.3709 41.4728 95.4886 42.5646C95.8911 46.3538 97.7802 49.8286 100.741 52.2266C103.703 54.6246 107.494 55.75 111.284 55.3558C112.376 55.2449 113.39 54.7401 114.137 53.9358C114.883 53.1315 115.312 52.0828 115.341 50.9858L115.341 50.9869Z" stroke="#B1280F" stroke-width="8.48581" stroke-linecap="round" stroke-linejoin="round"/>
</g>
<g style="mix-blend-mode:multiply" opacity="0.2" filter="url(#filter2_f_901_3729)">
<path d="M106.638 36.6429C106.657 36.5264 106.698 36.4146 106.76 36.3139C106.821 36.2133 106.902 36.1258 106.998 36.0564C107.093 35.987 107.201 35.9372 107.316 35.9096C107.431 35.8821 107.55 35.8774 107.666 35.8959C109.368 36.1539 110.97 36.8609 112.307 37.9439C113.645 39.0269 114.669 40.4469 115.276 42.0576C115.318 42.1678 115.338 42.2852 115.335 42.4032C115.332 42.5212 115.306 42.6374 115.258 42.7452C115.21 42.853 115.141 42.9502 115.055 43.0314C114.97 43.1126 114.869 43.1762 114.759 43.2184C114.685 43.2462 114.609 43.2645 114.531 43.2729C114.334 43.2935 114.136 43.2486 113.967 43.1451C113.798 43.0415 113.668 42.8852 113.598 42.7003C113.103 41.3854 112.267 40.2261 111.175 39.3421C110.083 38.458 108.776 37.881 107.387 37.6707C107.27 37.6525 107.158 37.6114 107.057 37.5498C106.957 37.4882 106.869 37.4074 106.799 37.3119C106.73 37.2165 106.68 37.1083 106.652 36.9935C106.625 36.8787 106.62 36.7596 106.638 36.6429ZM106.869 41.338C108.452 41.5871 109.545 42.4725 110.118 43.9692C110.189 44.1541 110.319 44.3105 110.487 44.414C110.656 44.5176 110.854 44.5625 111.051 44.5418C111.129 44.5334 111.206 44.5151 111.279 44.4873C111.389 44.4451 111.49 44.3816 111.576 44.3004C111.661 44.2192 111.73 44.1219 111.778 44.0141C111.826 43.9063 111.852 43.7901 111.855 43.6721C111.859 43.5541 111.838 43.4367 111.796 43.3266C110.999 41.2471 109.348 39.91 107.149 39.5631C107.032 39.5448 106.913 39.5495 106.798 39.5772C106.684 39.6048 106.576 39.6547 106.48 39.7242C106.385 39.7936 106.304 39.8811 106.242 39.9818C106.181 40.0824 106.14 40.1942 106.121 40.3107C106.103 40.4272 106.108 40.5463 106.135 40.661C106.163 40.7757 106.213 40.8838 106.282 40.9792C106.352 41.0746 106.439 41.1554 106.54 41.2169C106.641 41.2785 106.752 41.3196 106.869 41.338ZM117.138 51.0239C117.098 52.5579 116.501 54.0249 115.458 55.1509C114.416 56.2769 112.999 56.9848 111.472 57.1425C102.606 58.0744 94.6338 51.6189 93.7019 42.7524C93.5388 41.2265 93.9367 39.6934 94.8213 38.4394C95.7059 37.1855 97.0167 36.2964 98.5089 35.9382C98.8866 35.8513 99.2823 35.8888 99.6369 36.0453C99.9916 36.2017 100.286 36.4686 100.477 36.8062L103.388 41.8235L103.39 41.8369C103.536 42.0953 103.615 42.3858 103.621 42.6825C103.627 42.9791 103.56 43.2726 103.425 43.5369C103.408 43.5691 103.39 43.5993 103.37 43.6296L101.335 46.6299C102.35 48.2416 104.313 49.8168 106.123 50.4745L108.598 47.8762C108.623 47.8509 108.648 47.8271 108.675 47.8048C108.905 47.614 109.179 47.4836 109.472 47.4252C109.765 47.3668 110.068 47.3823 110.353 47.4705L110.368 47.4756L115.877 49.28C116.247 49.3955 116.57 49.6278 116.797 49.9421C117.025 50.2565 117.144 50.636 117.138 51.0239ZM115.341 50.9869C115.341 50.9869 115.334 50.9877 115.329 50.9882L109.834 49.1892L107.358 51.7876C107.334 51.8128 107.308 51.8365 107.281 51.8589C107.042 52.0574 106.756 52.1906 106.45 52.2453C106.144 52.3 105.829 52.2744 105.536 52.171C103.338 51.3803 101.036 49.5302 99.8068 47.5673C99.6437 47.3043 99.5513 47.0036 99.5386 46.6944C99.5259 46.3852 99.5932 46.0779 99.7342 45.8024C99.7499 45.7701 99.7682 45.7391 99.7888 45.7097L101.826 42.7058L98.9293 37.7038C98.9284 37.6994 98.9279 37.6949 98.9279 37.6904C97.8598 37.9455 96.9214 38.5812 96.2883 39.4784C95.6552 40.3756 95.3709 41.4728 95.4886 42.5646C95.8911 46.3538 97.7802 49.8286 100.741 52.2266C103.703 54.6246 107.494 55.75 111.284 55.3558C112.376 55.2449 113.39 54.7401 114.137 53.9358C114.883 53.1315 115.312 52.0828 115.341 50.9858L115.341 50.9869Z" stroke="#ED2A07" stroke-width="1.93485" stroke-linecap="round" stroke-linejoin="round"/>
</g>
<g style="mix-blend-mode:hard-light" filter="url(#filter3_dddii_901_3729)">
<path d="M106.638 36.6429C106.657 36.5264 106.698 36.4146 106.76 36.3139C106.821 36.2133 106.902 36.1258 106.998 36.0564C107.093 35.987 107.201 35.9372 107.316 35.9096C107.431 35.8821 107.55 35.8774 107.666 35.8959C109.368 36.1539 110.97 36.8609 112.307 37.9439C113.645 39.0269 114.669 40.4469 115.276 42.0576C115.318 42.1678 115.338 42.2852 115.335 42.4032C115.332 42.5212 115.306 42.6374 115.258 42.7452C115.21 42.853 115.141 42.9502 115.055 43.0314C114.97 43.1126 114.869 43.1762 114.759 43.2184C114.685 43.2462 114.609 43.2645 114.531 43.2729C114.334 43.2935 114.136 43.2486 113.967 43.1451C113.798 43.0415 113.668 42.8852 113.598 42.7003C113.103 41.3854 112.267 40.2261 111.175 39.3421C110.083 38.458 108.776 37.881 107.387 37.6707C107.27 37.6525 107.158 37.6114 107.057 37.5498C106.957 37.4882 106.869 37.4074 106.799 37.3119C106.73 37.2165 106.68 37.1083 106.652 36.9935C106.625 36.8787 106.62 36.7596 106.638 36.6429ZM106.869 41.338C108.452 41.5871 109.545 42.4725 110.118 43.9692C110.189 44.1541 110.319 44.3105 110.487 44.414C110.656 44.5176 110.854 44.5625 111.051 44.5418C111.129 44.5334 111.206 44.5151 111.279 44.4873C111.389 44.4451 111.49 44.3816 111.576 44.3004C111.661 44.2192 111.73 44.1219 111.778 44.0141C111.826 43.9063 111.852 43.7901 111.855 43.6721C111.859 43.5541 111.838 43.4367 111.796 43.3266C110.999 41.2471 109.348 39.91 107.149 39.5631C107.032 39.5448 106.913 39.5495 106.798 39.5772C106.684 39.6048 106.576 39.6547 106.48 39.7242C106.385 39.7936 106.304 39.8811 106.242 39.9818C106.181 40.0824 106.14 40.1942 106.121 40.3107C106.103 40.4272 106.108 40.5463 106.135 40.661C106.163 40.7757 106.213 40.8838 106.282 40.9792C106.352 41.0746 106.439 41.1554 106.54 41.2169C106.641 41.2785 106.752 41.3196 106.869 41.338ZM117.138 51.0239C117.098 52.5579 116.501 54.0249 115.458 55.1509C114.416 56.2769 112.999 56.9848 111.472 57.1425C102.606 58.0744 94.6338 51.6189 93.7019 42.7524C93.5388 41.2265 93.9367 39.6934 94.8213 38.4394C95.7059 37.1855 97.0167 36.2964 98.5089 35.9382C98.8866 35.8513 99.2823 35.8888 99.6369 36.0453C99.9916 36.2017 100.286 36.4686 100.477 36.8062L103.388 41.8235L103.39 41.8369C103.536 42.0953 103.615 42.3858 103.621 42.6825C103.627 42.9791 103.56 43.2726 103.425 43.5369C103.408 43.5691 103.39 43.5993 103.37 43.6296L101.335 46.6299C102.35 48.2416 104.313 49.8168 106.123 50.4745L108.598 47.8762C108.623 47.8509 108.648 47.8271 108.675 47.8048C108.905 47.614 109.179 47.4836 109.472 47.4252C109.765 47.3668 110.068 47.3823 110.353 47.4705L110.368 47.4756L115.877 49.28C116.247 49.3955 116.57 49.6278 116.797 49.9421C117.025 50.2565 117.144 50.636 117.138 51.0239ZM115.341 50.9869C115.341 50.9869 115.334 50.9877 115.329 50.9882L109.834 49.1892L107.358 51.7876C107.334 51.8128 107.308 51.8365 107.281 51.8589C107.042 52.0574 106.756 52.1906 106.45 52.2453C106.144 52.3 105.829 52.2744 105.536 52.171C103.338 51.3803 101.036 49.5302 99.8068 47.5673C99.6437 47.3043 99.5513 47.0036 99.5386 46.6944C99.5259 46.3852 99.5932 46.0779 99.7342 45.8024C99.7499 45.7701 99.7682 45.7391 99.7888 45.7097L101.826 42.7058L98.9293 37.7038C98.9284 37.6994 98.9279 37.6949 98.9279 37.6904C97.8598 37.9455 96.9214 38.5812 96.2883 39.4784C95.6552 40.3756 95.3709 41.4728 95.4886 42.5646C95.8911 46.3538 97.7802 49.8286 100.741 52.2266C103.703 54.6246 107.494 55.75 111.284 55.3558C112.376 55.2449 113.39 54.7401 114.137 53.9358C114.883 53.1315 115.312 52.0828 115.341 50.9858L115.341 50.9869Z" stroke="#ED2A07" stroke-opacity="0.2" stroke-width="6.4495" stroke-linecap="round" stroke-linejoin="round"/>
</g>
<g filter="url(#filter4_f_901_3729)">
<path d="M106.638 36.6429C106.657 36.5264 106.698 36.4146 106.76 36.3139C106.821 36.2133 106.902 36.1258 106.998 36.0564C107.093 35.987 107.201 35.9372 107.316 35.9096C107.431 35.8821 107.55 35.8774 107.666 35.8959C109.368 36.1539 110.97 36.8609 112.307 37.9439C113.645 39.0269 114.669 40.4469 115.276 42.0576C115.318 42.1678 115.338 42.2852 115.335 42.4032C115.332 42.5212 115.306 42.6374 115.258 42.7452C115.21 42.853 115.141 42.9502 115.055 43.0314C114.97 43.1126 114.869 43.1762 114.759 43.2184C114.685 43.2462 114.609 43.2645 114.531 43.2729C114.334 43.2935 114.136 43.2486 113.967 43.1451C113.798 43.0415 113.668 42.8852 113.598 42.7003C113.103 41.3854 112.267 40.2261 111.175 39.3421C110.083 38.458 108.776 37.881 107.387 37.6707C107.27 37.6525 107.158 37.6114 107.057 37.5498C106.957 37.4882 106.869 37.4074 106.799 37.3119C106.73 37.2165 106.68 37.1083 106.652 36.9935C106.625 36.8787 106.62 36.7596 106.638 36.6429ZM106.869 41.338C108.452 41.5871 109.545 42.4725 110.118 43.9692C110.189 44.1541 110.319 44.3105 110.487 44.414C110.656 44.5176 110.854 44.5625 111.051 44.5418C111.129 44.5334 111.206 44.5151 111.279 44.4873C111.389 44.4451 111.49 44.3816 111.576 44.3004C111.661 44.2192 111.73 44.1219 111.778 44.0141C111.826 43.9063 111.852 43.7901 111.855 43.6721C111.859 43.5541 111.838 43.4367 111.796 43.3266C110.999 41.2471 109.348 39.91 107.149 39.5631C107.032 39.5448 106.913 39.5495 106.798 39.5772C106.684 39.6048 106.576 39.6547 106.48 39.7242C106.385 39.7936 106.304 39.8811 106.242 39.9818C106.181 40.0824 106.14 40.1942 106.121 40.3107C106.103 40.4272 106.108 40.5463 106.135 40.661C106.163 40.7757 106.213 40.8838 106.282 40.9792C106.352 41.0746 106.439 41.1554 106.54 41.2169C106.641 41.2785 106.752 41.3196 106.869 41.338ZM117.138 51.0239C117.098 52.5579 116.501 54.0249 115.458 55.1509C114.416 56.2769 112.999 56.9848 111.472 57.1425C102.606 58.0744 94.6338 51.6189 93.7019 42.7524C93.5388 41.2265 93.9367 39.6934 94.8213 38.4394C95.7059 37.1855 97.0167 36.2964 98.5089 35.9382C98.8866 35.8513 99.2823 35.8888 99.6369 36.0453C99.9916 36.2017 100.286 36.4686 100.477 36.8062L103.388 41.8235L103.39 41.8369C103.536 42.0953 103.615 42.3858 103.621 42.6825C103.627 42.9791 103.56 43.2726 103.425 43.5369C103.408 43.5691 103.39 43.5993 103.37 43.6296L101.335 46.6299C102.35 48.2416 104.313 49.8168 106.123 50.4745L108.598 47.8762C108.623 47.8509 108.648 47.8271 108.675 47.8048C108.905 47.614 109.179 47.4836 109.472 47.4252C109.765 47.3668 110.068 47.3823 110.353 47.4705L110.368 47.4756L115.877 49.28C116.247 49.3955 116.57 49.6278 116.797 49.9421C117.025 50.2565 117.144 50.636 117.138 51.0239ZM115.341 50.9869C115.341 50.9869 115.334 50.9877 115.329 50.9882L109.834 49.1892L107.358 51.7876C107.334 51.8128 107.308 51.8365 107.281 51.8589C107.042 52.0574 106.756 52.1906 106.45 52.2453C106.144 52.3 105.829 52.2744 105.536 52.171C103.338 51.3803 101.036 49.5302 99.8068 47.5673C99.6437 47.3043 99.5513 47.0036 99.5386 46.6944C99.5259 46.3852 99.5932 46.0779 99.7342 45.8024C99.7499 45.7701 99.7682 45.7391 99.7888 45.7097L101.826 42.7058L98.9293 37.7038C98.9284 37.6994 98.9279 37.6949 98.9279 37.6904C97.8598 37.9455 96.9214 38.5812 96.2883 39.4784C95.6552 40.3756 95.3709 41.4728 95.4886 42.5646C95.8911 46.3538 97.7802 49.8286 100.741 52.2266C103.703 54.6246 107.494 55.75 111.284 55.3558C112.376 55.2449 113.39 54.7401 114.137 53.9358C114.883 53.1315 115.312 52.0828 115.341 50.9858L115.341 50.9869Z" stroke="#F78672" stroke-width="3.8697" stroke-linecap="round" stroke-linejoin="round"/>
</g>
<g filter="url(#filter5_f_901_3729)">
<path d="M106.638 36.6429C106.657 36.5264 106.698 36.4146 106.76 36.3139C106.821 36.2133 106.902 36.1258 106.998 36.0564C107.093 35.987 107.201 35.9372 107.316 35.9096C107.431 35.8821 107.55 35.8774 107.666 35.8959C109.368 36.1539 110.97 36.8609 112.307 37.9439C113.645 39.0269 114.669 40.4469 115.276 42.0576C115.318 42.1678 115.338 42.2852 115.335 42.4032C115.332 42.5212 115.306 42.6374 115.258 42.7452C115.21 42.853 115.141 42.9502 115.055 43.0314C114.97 43.1126 114.869 43.1762 114.759 43.2184C114.685 43.2462 114.609 43.2645 114.531 43.2729C114.334 43.2935 114.136 43.2486 113.967 43.1451C113.798 43.0415 113.668 42.8852 113.598 42.7003C113.103 41.3854 112.267 40.2261 111.175 39.3421C110.083 38.458 108.776 37.881 107.387 37.6707C107.27 37.6525 107.158 37.6114 107.057 37.5498C106.957 37.4882 106.869 37.4074 106.799 37.3119C106.73 37.2165 106.68 37.1083 106.652 36.9935C106.625 36.8787 106.62 36.7596 106.638 36.6429ZM106.869 41.338C108.452 41.5871 109.545 42.4725 110.118 43.9692C110.189 44.1541 110.319 44.3105 110.487 44.414C110.656 44.5176 110.854 44.5625 111.051 44.5418C111.129 44.5334 111.206 44.5151 111.279 44.4873C111.389 44.4451 111.49 44.3816 111.576 44.3004C111.661 44.2192 111.73 44.1219 111.778 44.0141C111.826 43.9063 111.852 43.7901 111.855 43.6721C111.859 43.5541 111.838 43.4367 111.796 43.3266C110.999 41.2471 109.348 39.91 107.149 39.5631C107.032 39.5448 106.913 39.5495 106.798 39.5772C106.684 39.6048 106.576 39.6547 106.48 39.7242C106.385 39.7936 106.304 39.8811 106.242 39.9818C106.181 40.0824 106.14 40.1942 106.121 40.3107C106.103 40.4272 106.108 40.5463 106.135 40.661C106.163 40.7757 106.213 40.8838 106.282 40.9792C106.352 41.0746 106.439 41.1554 106.54 41.2169C106.641 41.2785 106.752 41.3196 106.869 41.338ZM117.138 51.0239C117.098 52.5579 116.501 54.0249 115.458 55.1509C114.416 56.2769 112.999 56.9848 111.472 57.1425C102.606 58.0744 94.6338 51.6189 93.7019 42.7524C93.5388 41.2265 93.9367 39.6934 94.8213 38.4394C95.7059 37.1855 97.0167 36.2964 98.5089 35.9382C98.8866 35.8513 99.2823 35.8888 99.6369 36.0453C99.9916 36.2017 100.286 36.4686 100.477 36.8062L103.388 41.8235L103.39 41.8369C103.536 42.0953 103.615 42.3858 103.621 42.6825C103.627 42.9791 103.56 43.2726 103.425 43.5369C103.408 43.5691 103.39 43.5993 103.37 43.6296L101.335 46.6299C102.35 48.2416 104.313 49.8168 106.123 50.4745L108.598 47.8762C108.623 47.8509 108.648 47.8271 108.675 47.8048C108.905 47.614 109.179 47.4836 109.472 47.4252C109.765 47.3668 110.068 47.3823 110.353 47.4705L110.368 47.4756L115.877 49.28C116.247 49.3955 116.57 49.6278 116.797 49.9421C117.025 50.2565 117.144 50.636 117.138 51.0239ZM115.341 50.9869C115.341 50.9869 115.334 50.9877 115.329 50.9882L109.834 49.1892L107.358 51.7876C107.334 51.8128 107.308 51.8365 107.281 51.8589C107.042 52.0574 106.756 52.1906 106.45 52.2453C106.144 52.3 105.829 52.2744 105.536 52.171C103.338 51.3803 101.036 49.5302 99.8068 47.5673C99.6437 47.3043 99.5513 47.0036 99.5386 46.6944C99.5259 46.3852 99.5932 46.0779 99.7342 45.8024C99.7499 45.7701 99.7682 45.7391 99.7888 45.7097L101.826 42.7058L98.9293 37.7038C98.9284 37.6994 98.9279 37.6949 98.9279 37.6904C97.8598 37.9455 96.9214 38.5812 96.2883 39.4784C95.6552 40.3756 95.3709 41.4728 95.4886 42.5646C95.8911 46.3538 97.7802 49.8286 100.741 52.2266C103.703 54.6246 107.494 55.75 111.284 55.3558C112.376 55.2449 113.39 54.7401 114.137 53.9358C114.883 53.1315 115.312 52.0828 115.341 50.9858L115.341 50.9869Z" fill="white"/>
<path d="M106.638 36.6429C106.657 36.5264 106.698 36.4146 106.76 36.3139C106.821 36.2133 106.902 36.1258 106.998 36.0564C107.093 35.987 107.201 35.9372 107.316 35.9096C107.431 35.8821 107.55 35.8774 107.666 35.8959C109.368 36.1539 110.97 36.8609 112.307 37.9439C113.645 39.0269 114.669 40.4469 115.276 42.0576C115.318 42.1678 115.338 42.2852 115.335 42.4032C115.332 42.5212 115.306 42.6374 115.258 42.7452C115.21 42.853 115.141 42.9502 115.055 43.0314C114.97 43.1126 114.869 43.1762 114.759 43.2184C114.685 43.2462 114.609 43.2645 114.531 43.2729C114.334 43.2935 114.136 43.2486 113.967 43.1451C113.798 43.0415 113.668 42.8852 113.598 42.7003C113.103 41.3854 112.267 40.2261 111.175 39.3421C110.083 38.458 108.776 37.881 107.387 37.6707C107.27 37.6525 107.158 37.6114 107.057 37.5498C106.957 37.4882 106.869 37.4074 106.799 37.3119C106.73 37.2165 106.68 37.1083 106.652 36.9935C106.625 36.8787 106.62 36.7596 106.638 36.6429ZM106.869 41.338C108.452 41.5871 109.545 42.4725 110.118 43.9692C110.189 44.1541 110.319 44.3105 110.487 44.414C110.656 44.5176 110.854 44.5625 111.051 44.5418C111.129 44.5334 111.206 44.5151 111.279 44.4873C111.389 44.4451 111.49 44.3816 111.576 44.3004C111.661 44.2192 111.73 44.1219 111.778 44.0141C111.826 43.9063 111.852 43.7901 111.855 43.6721C111.859 43.5541 111.838 43.4367 111.796 43.3266C110.999 41.2471 109.348 39.91 107.149 39.5631C107.032 39.5448 106.913 39.5495 106.798 39.5772C106.684 39.6048 106.576 39.6547 106.48 39.7242C106.385 39.7936 106.304 39.8811 106.242 39.9818C106.181 40.0824 106.14 40.1942 106.121 40.3107C106.103 40.4272 106.108 40.5463 106.135 40.661C106.163 40.7757 106.213 40.8838 106.282 40.9792C106.352 41.0746 106.439 41.1554 106.54 41.2169C106.641 41.2785 106.752 41.3196 106.869 41.338ZM117.138 51.0239C117.098 52.5579 116.501 54.0249 115.458 55.1509C114.416 56.2769 112.999 56.9848 111.472 57.1425C102.606 58.0744 94.6338 51.6189 93.7019 42.7524C93.5388 41.2265 93.9367 39.6934 94.8213 38.4394C95.7059 37.1855 97.0167 36.2964 98.5089 35.9382C98.8866 35.8513 99.2823 35.8888 99.6369 36.0453C99.9916 36.2017 100.286 36.4686 100.477 36.8062L103.388 41.8235L103.39 41.8369C103.536 42.0953 103.615 42.3858 103.621 42.6825C103.627 42.9791 103.56 43.2726 103.425 43.5369C103.408 43.5691 103.39 43.5993 103.37 43.6296L101.335 46.6299C102.35 48.2416 104.313 49.8168 106.123 50.4745L108.598 47.8762C108.623 47.8509 108.648 47.8271 108.675 47.8048C108.905 47.614 109.179 47.4836 109.472 47.4252C109.765 47.3668 110.068 47.3823 110.353 47.4705L110.368 47.4756L115.877 49.28C116.247 49.3955 116.57 49.6278 116.797 49.9421C117.025 50.2565 117.144 50.636 117.138 51.0239ZM115.341 50.9869C115.341 50.9869 115.334 50.9877 115.329 50.9882L109.834 49.1892L107.358 51.7876C107.334 51.8128 107.308 51.8365 107.281 51.8589C107.042 52.0574 106.756 52.1906 106.45 52.2453C106.144 52.3 105.829 52.2744 105.536 52.171C103.338 51.3803 101.036 49.5302 99.8068 47.5673C99.6437 47.3043 99.5513 47.0036 99.5386 46.6944C99.5259 46.3852 99.5932 46.0779 99.7342 45.8024C99.7499 45.7701 99.7682 45.7391 99.7888 45.7097L101.826 42.7058L98.9293 37.7038C98.9284 37.6994 98.9279 37.6949 98.9279 37.6904C97.8598 37.9455 96.9214 38.5812 96.2883 39.4784C95.6552 40.3756 95.3709 41.4728 95.4886 42.5646C95.8911 46.3538 97.7802 49.8286 100.741 52.2266C103.703 54.6246 107.494 55.75 111.284 55.3558C112.376 55.2449 113.39 54.7401 114.137 53.9358C114.883 53.1315 115.312 52.0828 115.341 50.9858L115.341 50.9869Z" stroke="#EEEEEE" stroke-width="0.718613" stroke-linecap="round" stroke-linejoin="round"/>
</g>
<rect x="183" y="93.1327" width="35.4619" height="7.30025" rx="3.65013" transform="rotate(-20.0069 183 93.1327)" fill="#888888"/>
<rect x="89" y="78.4977" width="7.30025" height="7.30025" rx="3.65013" transform="rotate(-20.0069 89 78.4977)" fill="#888888"/>
<rect x="43" y="5.95032" width="8.62336" height="8.62336" rx="4.31168" transform="rotate(-20.0069 43 5.95032)" fill="#ED2A07"/>
<rect x="155" y="77.9503" width="3" height="3" rx="1.5" transform="rotate(-20.0069 155 77.9503)" fill="#ED2A07"/>
<rect x="161.644" y="33" width="10.108" height="10.108" rx="1.64715" transform="rotate(15.1613 161.644 33)" fill="#333333"/>
<rect width="7.02955" height="7.02954" rx="1.1455" transform="matrix(0.965193 -0.261538 -0.261538 -0.965193 1.83838 97.7243)" fill="#333333"/>
<defs>
<filter id="filter0_f_901_3729" x="58.1939" y="0.41254" width="94.4166" height="92.2919" filterUnits="userSpaceOnUse" color-interpolation-filters="sRGB">
<feFlood flood-opacity="0" result="BackgroundImageFix"/>
<feBlend mode="normal" in="SourceGraphic" in2="BackgroundImageFix" result="shape"/>
<feGaussianBlur stdDeviation="16.1237" result="effect1_foregroundBlur_901_3729"/>
</filter>
<filter id="filter1_f_901_3729" x="79.7488" y="21.9677" width="51.3067" height="49.1818" filterUnits="userSpaceOnUse" color-interpolation-filters="sRGB">
<feFlood flood-opacity="0" result="BackgroundImageFix"/>
<feBlend mode="normal" in="SourceGraphic" in2="BackgroundImageFix" result="shape"/>
<feGaussianBlur stdDeviation="4.83712" result="effect1_foregroundBlur_901_3729"/>
</filter>
<filter id="filter2_f_901_3729" x="91.4088" y="33.6275" width="27.9868" height="25.8619" filterUnits="userSpaceOnUse" color-interpolation-filters="sRGB">
<feFlood flood-opacity="0" result="BackgroundImageFix"/>
<feBlend mode="normal" in="SourceGraphic" in2="BackgroundImageFix" result="shape"/>
<feGaussianBlur stdDeviation="0.64495" result="effect1_foregroundBlur_901_3729"/>
</filter>
<filter id="filter3_dddii_901_3729" x="68.883" y="18.2878" width="73.0384" height="70.9137" filterUnits="userSpaceOnUse" color-interpolation-filters="sRGB">
<feFlood flood-opacity="0" result="BackgroundImageFix"/>
<feColorMatrix in="SourceAlpha" type="matrix" values="0 0 0 0 0 0 0 0 0 0 0 0 0 0 0 0 0 0 127 0" result="hardAlpha"/>
<feOffset dy="6.4495"/>
<feGaussianBlur stdDeviation="2.5798"/>
<feColorMatrix type="matrix" values="0 0 0 0 0.0833333 0 0 0 0 0.02 0 0 0 0 0 0 0 0 0.7 0"/>
<feBlend mode="multiply" in2="BackgroundImageFix" result="effect1_dropShadow_901_3729"/>
<feColorMatrix in="SourceAlpha" type="matrix" values="0 0 0 0 0 0 0 0 0 0 0 0 0 0 0 0 0 0 127 0" result="hardAlpha"/>
<feOffset dy="12.899"/>
<feGaussianBlur stdDeviation="6.4495"/>
<feColorMatrix type="matrix" values="0 0 0 0 0.175 0 0 0 0 0.0965125 0 0 0 0 0.004375 0 0 0 0.8 0"/>
<feBlend mode="multiply" in2="effect1_dropShadow_901_3729" result="effect2_dropShadow_901_3729"/>
<feColorMatrix in="SourceAlpha" type="matrix" values="0 0 0 0 0 0 0 0 0 0 0 0 0 0 0 0 0 0 127 0" result="hardAlpha"/>
<feOffset dy="7.18613"/>
<feGaussianBlur stdDeviation="10.7792"/>
<feColorMatrix type="matrix" values="0 0 0 0 1 0 0 0 0 0.289333 0 0 0 0 0.133333 0 0 0 1 0"/>
<feBlend mode="color-dodge" in2="effect2_dropShadow_901_3729" result="effect3_dropShadow_901_3729"/>
<feBlend mode="normal" in="SourceGraphic" in2="effect3_dropShadow_901_3729" result="shape"/>
<feColorMatrix in="SourceAlpha" type="matrix" values="0 0 0 0 0 0 0 0 0 0 0 0 0 0 0 0 0 0 127 0" result="hardAlpha"/>
<feOffset dx="-0.64495" dy="1.2899"/>
<feGaussianBlur stdDeviation="0.322475"/>
<feComposite in2="hardAlpha" operator="arithmetic" k2="-1" k3="1"/>
<feColorMatrix type="matrix" values="0 0 0 0 1 0 0 0 0 1 0 0 0 0 1 0 0 0 0.5 0"/>
<feBlend mode="normal" in2="shape" result="effect4_innerShadow_901_3729"/>
<feColorMatrix in="SourceAlpha" type="matrix" values="0 0 0 0 0 0 0 0 0 0 0 0 0 0 0 0 0 0 127 0" result="hardAlpha"/>
<feOffset dx="-0.64495" dy="-1.2899"/>
<feGaussianBlur stdDeviation="0.322475"/>
<feComposite in2="hardAlpha" operator="arithmetic" k2="-1" k3="1"/>
<feColorMatrix type="matrix" values="0 0 0 0 1 0 0 0 0 1 0 0 0 0 1 0 0 0 0.4 0"/>
<feBlend mode="normal" in2="effect4_innerShadow_901_3729" result="effect5_innerShadow_901_3729"/>
</filter>
<filter id="filter4_f_901_3729" x="90.8826" y="33.1014" width="29.0392" height="26.9142" filterUnits="userSpaceOnUse" color-interpolation-filters="sRGB">
<feFlood flood-opacity="0" result="BackgroundImageFix"/>
<feBlend mode="normal" in="SourceGraphic" in2="BackgroundImageFix" result="shape"/>
<feGaussianBlur stdDeviation="0.424291" result="effect1_foregroundBlur_901_3729"/>
</filter>
<filter id="filter5_f_901_3729" x="92.6619" y="34.8806" width="25.4806" height="23.3557" filterUnits="userSpaceOnUse" color-interpolation-filters="sRGB">
<feFlood flood-opacity="0" result="BackgroundImageFix"/>
<feBlend mode="normal" in="SourceGraphic" in2="BackgroundImageFix" result="shape"/>
<feGaussianBlur stdDeviation="0.322475" result="effect1_foregroundBlur_901_3729"/>
</filter>
</defs>
</svg>
