<svg width="21" height="20" viewBox="0 0 21 20" fill="none" xmlns="http://www.w3.org/2000/svg">
<path d="M19.6539 10.3095C18.0794 10.6359 16.3175 10.9015 14.3683 11.1064C14.094 11.1755 13.6585 11.2413 13.0618 11.3041C13.1559 11.817 13.2615 12.6304 13.3786 13.7443C13.3786 13.7443 13.3807 13.7642 13.3849 13.804C13.4246 13.7998 13.4445 13.7977 13.4445 13.7977L13.5795 14.5075C13.5962 14.6666 13.5899 14.989 13.5605 15.4748C13.6924 15.5816 13.7688 15.7344 13.7897 15.9333C13.8148 16.172 13.754 16.3594 13.6074 16.4955C13.4608 16.6315 13.2661 16.6922 13.0233 16.6775L12.2821 16.5141L12.2884 16.5738C12.5667 17.3087 12.6986 17.7976 12.6839 18.0405C12.7089 18.2792 12.6503 18.4864 12.5079 18.6623C12.3613 18.7983 12.1687 18.8789 11.93 18.904C11.6515 18.9333 11.4422 18.8547 11.3019 18.6684C11.0402 18.8568 10.7502 18.9677 10.4319 19.0011C9.95457 19.0513 9.54213 18.9539 9.19461 18.7089C8.84292 18.4241 8.60429 18.067 8.47874 17.6378C8.31758 17.2526 8.19101 16.6223 8.09903 15.7472L7.88274 13.1153C7.82839 12.5982 7.80856 12.2182 7.82325 11.9753L4.1299 12.4238C3.85144 12.4531 3.37825 12.5431 2.71033 12.6937C2.07802 12.8004 1.48131 12.8631 0.920195 12.8818C0.790459 12.4128 0.677448 12.103 0.581162 11.9522C0.484996 11.0372 0.372045 10.3452 0.24231 9.87624C3.55882 9.28634 6.03049 8.88578 7.65732 8.67458L7.63224 8.43589C4.60889 8.75366 2.34347 9.01187 0.835977 9.21054C0.716634 9.22308 0.613001 9.19375 0.525077 9.12255C0.437153 9.05135 0.38901 8.97597 0.380648 8.89641C0.355561 8.65773 0.46236 8.52584 0.701045 8.50075C2.78016 8.00069 5.06655 7.55928 7.5602 7.17652C7.52711 4.56568 7.64992 2.48142 7.92863 0.923758C7.98728 0.716491 8.10979 0.542733 8.29615 0.402484C8.51811 0.218275 8.74844 0.113627 8.98712 0.0885397C9.26559 0.0592717 9.49275 0.115837 9.66859 0.258235L9.80048 0.365034C10.1961 0.685432 10.3615 1.11048 10.2965 1.64017L10.3717 2.35623C10.3864 2.11336 10.4524 1.78466 10.5698 1.37013C10.6284 1.16286 10.7572 1.04878 10.9561 1.02787C11.155 1.00697 11.3047 1.09178 11.4052 1.28233C11.6584 1.77857 11.8363 2.32296 11.9388 2.91549C12.0769 3.46406 12.1574 4.03879 12.1803 4.63969C12.2389 5.19662 12.2828 5.61432 12.312 5.89279C12.3686 6.04773 12.4114 6.26443 12.4407 6.5429C14.6287 6.31294 16.2618 6.1614 17.34 6.08829C17.7378 6.04648 17.9597 6.24437 18.0057 6.68196C18.0308 6.92064 17.9742 7.1478 17.836 7.36343C17.6936 7.53928 17.501 7.61985 17.2581 7.60516L16.8404 7.64906C16.92 7.6407 17.0435 7.66794 17.211 7.73078C17.3743 7.75383 17.5481 7.87634 17.7323 8.0983L19.1047 7.95405C19.5025 7.91224 19.8354 8.01802 20.1034 8.2714C20.4111 8.5206 20.5817 8.80432 20.6151 9.12257C20.6444 9.40104 20.57 9.65017 20.392 9.86999C20.2538 10.0856 20.0078 10.2321 19.6539 10.3095ZM13.0749 7.98451L13.8443 7.84331L12.6509 7.96874L12.6572 8.02841L13.0749 7.98451Z" fill="#888888"/>
</svg>
