<svg width="33" height="33" viewBox="0 0 33 33" fill="none" xmlns="http://www.w3.org/2000/svg">
<path d="M11.5097 25.5424L11.5097 25.5424L20.5205 16.5328L11.5097 7.52314L11.5097 7.52313C11.247 7.26047 11.0995 6.90423 11.0995 6.53278C11.0995 6.16133 11.247 5.8051 11.5097 5.54244C11.7723 5.27978 12.1286 5.13223 12.5 5.13223C12.8715 5.13223 13.2277 5.27978 13.4903 5.54244L23.4902 15.5423L23.4903 15.5424L23.2075 15.8253C23.3005 15.9182 23.3742 16.0284 23.4246 16.1498C23.4749 16.2712 23.5008 16.4014 23.5008 16.5328C23.5008 16.6642 23.4749 16.7943 23.4246 16.9157C23.3742 17.0371 23.3005 17.1474 23.2075 17.2403L11.5097 25.5424ZM11.5097 25.5424C11.3796 25.6725 11.2764 25.8269 11.2061 25.9968C11.1357 26.1667 11.0995 26.3489 11.0995 26.5328C11.0995 26.7167 11.1357 26.8988 11.2061 27.0688C11.2764 27.2387 11.3796 27.3931 11.5097 27.5231C11.6397 27.6532 11.7941 27.7563 11.964 27.8267C12.134 27.8971 12.3161 27.9333 12.5 27.9333C12.6839 27.9333 12.8661 27.8971 13.036 27.8267C13.2059 27.7563 13.3603 27.6532 13.4903 27.5231L23.4902 17.5233L11.5097 25.5424Z" fill="white" stroke="white" stroke-width="0.8"/>
<path d="M23.2075 17.2403L13.2075 27.2403C13.1146 27.3332 13.0043 27.4069 12.8829 27.4572C12.7615 27.5075 12.6314 27.5333 12.5 27.5333C12.3686 27.5333 12.2385 27.5075 12.1171 27.4572C11.9957 27.4069 11.8854 27.3332 11.7925 27.2403C11.6996 27.1474 11.6259 27.0371 11.5756 26.9157C11.5253 26.7943 11.4995 26.6642 11.4995 26.5328C11.4995 26.4014 11.5253 26.2713 11.5756 26.1499C11.6259 26.0285 11.6996 25.9182 11.7925 25.8253L21.0863 16.5328L11.7925 7.24028C11.6049 7.05264 11.4995 6.79815 11.4995 6.53278C11.4995 6.26742 11.6049 6.01292 11.7925 5.82528C11.9801 5.63764 12.2346 5.53223 12.5 5.53223C12.7654 5.53223 13.0199 5.63764 13.2075 5.82528L23.2075 15.8253C23.3005 15.9182 23.3742 16.0284 23.4246 16.1498C23.4749 16.2712 23.5008 16.4014 23.5008 16.5328C23.5008 16.6642 23.4749 16.7943 23.4246 16.9157C23.3742 17.0371 23.3005 17.1474 23.2075 17.2403Z" fill="white"/>
</svg>
