<svg width="391" height="306" viewBox="0 0 391 306" fill="none" xmlns="http://www.w3.org/2000/svg">
<path d="M224.144 20.4069C223.28 13.7764 222.288 7.15411 220.893 0.631832L220.441 0.761314C221.786 7.31166 222.7 13.9132 223.437 20.5509C224.174 27.1886 224.706 33.8128 225.06 40.4728C225.77 53.7936 225.666 67.1874 224.84 80.4708C224.042 93.8036 222.472 107.054 220.023 120.152C218.813 126.725 217.37 133.236 215.741 139.655C214.113 146.074 212.229 152.507 210.133 158.801L208.503 163.505L206.794 168.188C205.629 171.303 204.435 174.369 203.114 177.442C202.219 179.67 201.228 181.851 200.239 184.027C199.855 184.872 199.471 185.716 199.094 186.562C197.666 189.564 196.238 192.567 194.704 195.499L193.563 197.742C193.381 198.111 193.179 198.475 192.977 198.839C192.776 199.203 192.574 199.567 192.393 199.936L189.974 204.303C188.334 207.164 186.693 210.026 184.896 212.845C183.558 215.057 182.138 217.196 180.713 219.342C180.308 219.953 179.903 220.564 179.498 221.177L176.654 225.262C175.943 226.342 175.196 227.361 174.432 228.404C174.216 228.699 173.999 228.996 173.781 229.297C173.271 229.954 172.781 230.616 172.291 231.278C171.801 231.941 171.311 232.604 170.801 233.261L167.715 237.156C167.01 238.127 166.236 239.037 165.47 239.938C165.161 240.302 164.853 240.664 164.551 241.029C163.503 242.294 162.455 243.559 161.33 244.803L158.03 248.556C157.42 249.245 156.784 249.928 156.143 250.616C155.654 251.142 155.161 251.671 154.674 252.21C153.288 253.758 151.807 255.23 150.324 256.704C149.45 257.572 148.576 258.442 147.719 259.328C140.2 266.713 132.219 273.657 123.848 280.115C122.506 277.738 121.724 275.034 121.636 272.206L121.583 270.523L121.201 270.545C114.274 280.261 106.484 289.481 98.1268 297.994C109.296 293.794 120.877 290.539 132.58 288.201L132.763 287.833L131.297 287.12C128.611 285.815 126.367 283.862 124.719 281.5C133.387 275.249 141.693 268.491 149.492 261.143C150.287 260.353 151.095 259.572 151.902 258.791C153.517 257.227 155.132 255.665 156.652 254.039C157.193 253.453 157.736 252.894 158.274 252.339C158.904 251.69 159.528 251.048 160.135 250.377L163.513 246.645C167.987 241.619 172.22 236.403 176.211 230.996C192.253 209.39 204.16 184.957 212.345 159.438C214.384 153.046 216.268 146.612 217.839 140.094C219.41 133.576 220.825 127.016 221.957 120.421C224.271 107.204 225.734 93.8826 226.376 80.5082C227.018 67.1334 226.916 53.7256 226.051 40.3632C225.618 33.6819 224.959 27.0655 224.144 20.4069Z" fill="#252525"/>
<path d="M218.317 15.8232C218.982 10.7218 219.745 5.62675 220.818 0.608629L221.166 0.708252C220.131 5.74797 219.428 10.8271 218.861 15.934C218.294 21.041 217.885 26.1375 217.612 31.2615C217.066 41.5103 217.146 51.8153 217.782 62.0353C218.396 72.2933 219.603 82.4879 221.487 92.565C222.418 97.6223 223.529 102.632 224.782 107.57C226.035 112.509 227.484 117.459 229.097 122.301L230.351 125.92L231.666 129.523C232.562 131.92 233.48 134.279 234.497 136.643C235.186 138.357 235.948 140.036 236.709 141.709C237.004 142.359 237.299 143.009 237.59 143.66C238.688 145.97 239.787 148.28 240.967 150.536L241.846 152.262C241.986 152.546 242.141 152.826 242.296 153.106C242.451 153.386 242.606 153.666 242.746 153.95L244.606 157.309C245.869 159.511 247.131 161.713 248.513 163.882C249.543 165.584 250.635 167.229 251.732 168.88C252.043 169.35 252.355 169.82 252.666 170.292L254.855 173.435C255.402 174.266 255.976 175.05 256.564 175.852C256.73 176.079 256.897 176.308 257.065 176.539C257.457 177.045 257.834 177.555 258.212 178.064C258.589 178.574 258.966 179.084 259.358 179.59L261.732 182.586C262.275 183.333 262.87 184.034 263.459 184.726C263.698 185.007 263.935 185.285 264.167 185.566C264.973 186.539 265.779 187.512 266.645 188.469L269.183 191.357C269.653 191.887 270.142 192.412 270.635 192.942C271.012 193.347 271.391 193.754 271.766 194.168C272.832 195.359 273.971 196.492 275.113 197.626C275.785 198.294 276.458 198.963 277.117 199.645C282.902 205.326 289.043 210.669 295.483 215.638C296.516 213.809 297.117 211.728 297.185 209.553L297.225 208.258L297.519 208.275C302.849 215.75 308.843 222.844 315.272 229.393C306.679 226.162 297.769 223.658 288.764 221.859L288.624 221.576L289.752 221.027C291.818 220.023 293.544 218.521 294.812 216.704C288.144 211.894 281.753 206.695 275.753 201.041C275.141 200.434 274.52 199.833 273.898 199.231C272.656 198.029 271.414 196.826 270.244 195.575C269.828 195.124 269.41 194.694 268.996 194.268C268.511 193.769 268.031 193.274 267.564 192.758L264.966 189.886C261.523 186.02 258.266 182.007 255.196 177.847C242.853 161.224 233.692 142.425 227.395 122.791C225.826 117.873 224.377 112.923 223.168 107.908C221.959 102.893 220.87 97.846 219.999 92.7723C218.219 82.603 217.094 72.3541 216.6 62.0641C216.106 51.7737 216.184 41.458 216.85 31.1772C217.183 26.0368 217.69 20.9462 218.317 15.8232Z" fill="#252525"/>
</svg>
