<svg width="247" height="159" viewBox="0 0 247 159" fill="none" xmlns="http://www.w3.org/2000/svg">
<rect x="74.7599" y="76.634" width="39.7441" height="39.744" rx="5.78552" transform="rotate(-5.99999 74.7599 76.634)" fill="#151515" stroke="#252525" stroke-width="0.503089"/>
<rect x="127.714" y="72.4801" width="39.7441" height="39.744" rx="5.78552" transform="rotate(5.99999 127.714 72.4801)" fill="#151515" stroke="#252525" stroke-width="0.503089"/>
<rect x="88.1049" y="59.6706" width="59.7613" height="59.7612" rx="13.6636" transform="rotate(-5.99999 88.1049 59.6706)" fill="#151515"/>
<rect x="88.1049" y="59.6706" width="59.7613" height="59.7612" rx="13.6636" transform="rotate(-5.99999 88.1049 59.6706)" stroke="#252525" stroke-width="0.609406"/>
<g style="mix-blend-mode:color-dodge" filter="url(#filter0_f_1019_3825)">
<path d="M135.86 81.8385C135.861 81.7324 135.846 81.6267 135.817 81.5246L133.769 74.3609C133.632 73.8856 133.344 73.4675 132.949 73.1692C132.554 72.8709 132.074 72.7082 131.579 72.7056L110.459 72.7056C109.964 72.7082 109.483 72.8709 109.088 73.1692C108.694 73.4675 108.406 73.8856 108.268 74.3609L106.222 81.5246C106.192 81.6266 106.178 81.7323 106.178 81.8385V84.1218C106.178 85.0079 106.384 85.8819 106.78 86.6745C107.177 87.4671 107.752 88.1566 108.461 88.6883L108.461 97.8213C108.461 98.4268 108.702 99.0076 109.13 99.4358C109.558 99.8639 110.139 100.104 110.744 100.104L131.293 100.104C131.899 100.104 132.48 99.8639 132.908 99.4358C133.336 99.0076 133.577 98.4268 133.577 97.8213V88.6883C134.286 88.1566 134.861 87.4671 135.257 86.6745C135.654 85.8819 135.86 85.0079 135.86 84.1218V81.8385ZM110.459 74.9888L131.579 74.9888L133.209 80.6969L108.833 80.6969L110.459 74.9888ZM117.594 82.9802H124.444V84.1218C124.444 85.0301 124.083 85.9012 123.441 86.5435C122.798 87.1858 121.927 87.5467 121.019 87.5467C120.111 87.5467 119.239 87.1858 118.597 86.5435C117.955 85.9012 117.594 85.0301 117.594 84.1218V82.9802ZM115.311 82.9802V84.1218C115.311 85.0301 114.95 85.9012 114.308 86.5435C113.665 87.1858 112.794 87.5467 111.886 87.5467C110.978 87.5467 110.106 87.1858 109.464 86.5435C108.822 85.9012 108.461 85.0301 108.461 84.1218V82.9802H115.311ZM131.293 97.8213L110.744 97.8213L110.744 89.7157C111.12 89.7915 111.502 89.8297 111.886 89.8299C112.772 89.8299 113.646 89.6236 114.439 89.2273C115.231 88.831 115.921 88.2556 116.452 87.5467C116.984 88.2556 117.674 88.831 118.466 89.2273C119.259 89.6236 120.133 89.8299 121.019 89.8299C121.905 89.8299 122.779 89.6236 123.572 89.2273C124.364 88.831 125.054 88.2556 125.585 87.5467C126.117 88.2556 126.806 88.831 127.599 89.2273C128.392 89.6236 129.266 89.8299 130.152 89.8299C130.535 89.8297 130.918 89.7915 131.293 89.7157V97.8213ZM130.152 87.5467C129.244 87.5467 128.372 87.1858 127.73 86.5435C127.088 85.9012 126.727 85.0301 126.727 84.1218V82.9802H133.577V84.1218C133.577 85.0301 133.216 85.9012 132.574 86.5435C131.931 87.1858 131.06 87.5467 130.152 87.5467Z" stroke="#FF9E9E" stroke-width="5.46937" stroke-linecap="round" stroke-linejoin="round"/>
</g>
<g style="mix-blend-mode:color-dodge" filter="url(#filter1_f_1019_3825)">
<path d="M135.86 81.8385C135.861 81.7324 135.846 81.6267 135.817 81.5246L133.769 74.3609C133.632 73.8856 133.344 73.4675 132.949 73.1692C132.554 72.8709 132.074 72.7082 131.579 72.7056L110.459 72.7056C109.964 72.7082 109.483 72.8709 109.088 73.1692C108.694 73.4675 108.406 73.8856 108.268 74.3609L106.222 81.5246C106.192 81.6266 106.178 81.7323 106.178 81.8385L106.178 84.1218C106.178 85.0079 106.384 85.8819 106.78 86.6745C107.177 87.4671 107.752 88.1566 108.461 88.6883V97.8213C108.461 98.4268 108.702 99.0076 109.13 99.4358C109.558 99.8639 110.139 100.104 110.744 100.104L131.293 100.104C131.899 100.104 132.48 99.8639 132.908 99.4358C133.336 99.0076 133.577 98.4268 133.577 97.8213L133.577 88.6883C134.286 88.1566 134.861 87.4671 135.257 86.6745C135.654 85.8819 135.86 85.0079 135.86 84.1218V81.8385ZM110.459 74.9888L131.579 74.9888L133.209 80.6969L108.833 80.6969L110.459 74.9888ZM117.594 82.9802L124.444 82.9802V84.1218C124.444 85.0301 124.083 85.9012 123.441 86.5435C122.798 87.1858 121.927 87.5467 121.019 87.5467C120.111 87.5467 119.239 87.1858 118.597 86.5435C117.955 85.9012 117.594 85.0301 117.594 84.1218V82.9802ZM115.311 82.9802V84.1218C115.311 85.0301 114.95 85.9012 114.308 86.5435C113.665 87.1858 112.794 87.5467 111.886 87.5467C110.978 87.5467 110.106 87.1858 109.464 86.5435C108.822 85.9012 108.461 85.0301 108.461 84.1218L108.461 82.9802H115.311ZM131.293 97.8213L110.744 97.8213V89.7157C111.12 89.7915 111.502 89.8297 111.886 89.8299C112.772 89.8299 113.646 89.6236 114.439 89.2273C115.231 88.831 115.921 88.2556 116.452 87.5467C116.984 88.2556 117.674 88.831 118.466 89.2273C119.259 89.6236 120.133 89.8299 121.019 89.8299C121.905 89.8299 122.779 89.6236 123.572 89.2273C124.364 88.831 125.054 88.2556 125.585 87.5467C126.117 88.2556 126.806 88.831 127.599 89.2273C128.392 89.6236 129.266 89.8299 130.152 89.8299C130.535 89.8297 130.918 89.7915 131.293 89.7157L131.293 97.8213ZM130.152 87.5467C129.244 87.5467 128.372 87.1858 127.73 86.5435C127.088 85.9012 126.727 85.0301 126.727 84.1218V82.9802H133.577V84.1218C133.577 85.0301 133.216 85.9012 132.574 86.5435C131.931 87.1858 131.06 87.5467 130.152 87.5467Z" fill="#B1280F"/>
<path d="M135.86 81.8385C135.861 81.7324 135.846 81.6267 135.817 81.5246L133.769 74.3609C133.632 73.8856 133.344 73.4675 132.949 73.1692C132.554 72.8709 132.074 72.7082 131.579 72.7056L110.459 72.7056C109.964 72.7082 109.483 72.8709 109.088 73.1692C108.694 73.4675 108.406 73.8856 108.268 74.3609L106.222 81.5246C106.192 81.6266 106.178 81.7323 106.178 81.8385L106.178 84.1218C106.178 85.0079 106.384 85.8819 106.78 86.6745C107.177 87.4671 107.752 88.1566 108.461 88.6883V97.8213C108.461 98.4268 108.702 99.0076 109.13 99.4358C109.558 99.8639 110.139 100.104 110.744 100.104L131.293 100.104C131.899 100.104 132.48 99.8639 132.908 99.4358C133.336 99.0076 133.577 98.4268 133.577 97.8213L133.577 88.6883C134.286 88.1566 134.861 87.4671 135.257 86.6745C135.654 85.8819 135.86 85.0079 135.86 84.1218V81.8385ZM110.459 74.9888L131.579 74.9888L133.209 80.6969L108.833 80.6969L110.459 74.9888ZM117.594 82.9802L124.444 82.9802V84.1218C124.444 85.0301 124.083 85.9012 123.441 86.5435C122.798 87.1858 121.927 87.5467 121.019 87.5467C120.111 87.5467 119.239 87.1858 118.597 86.5435C117.955 85.9012 117.594 85.0301 117.594 84.1218V82.9802ZM115.311 82.9802V84.1218C115.311 85.0301 114.95 85.9012 114.308 86.5435C113.665 87.1858 112.794 87.5467 111.886 87.5467C110.978 87.5467 110.106 87.1858 109.464 86.5435C108.822 85.9012 108.461 85.0301 108.461 84.1218L108.461 82.9802H115.311ZM131.293 97.8213L110.744 97.8213V89.7157C111.12 89.7915 111.502 89.8297 111.886 89.8299C112.772 89.8299 113.646 89.6236 114.439 89.2273C115.231 88.831 115.921 88.2556 116.452 87.5467C116.984 88.2556 117.674 88.831 118.466 89.2273C119.259 89.6236 120.133 89.8299 121.019 89.8299C121.905 89.8299 122.779 89.6236 123.572 89.2273C124.364 88.831 125.054 88.2556 125.585 87.5467C126.117 88.2556 126.806 88.831 127.599 89.2273C128.392 89.6236 129.266 89.8299 130.152 89.8299C130.535 89.8297 130.918 89.7915 131.293 89.7157L131.293 97.8213ZM130.152 87.5467C129.244 87.5467 128.372 87.1858 127.73 86.5435C127.088 85.9012 126.727 85.0301 126.727 84.1218V82.9802H133.577V84.1218C133.577 85.0301 133.216 85.9012 132.574 86.5435C131.931 87.1858 131.06 87.5467 130.152 87.5467Z" stroke="#B1280F" stroke-width="7.19622" stroke-linecap="round" stroke-linejoin="round"/>
</g>
<g style="mix-blend-mode:multiply" opacity="0.2" filter="url(#filter2_f_1019_3825)">
<path d="M135.86 81.8385C135.861 81.7324 135.846 81.6267 135.817 81.5246L133.769 74.3609C133.632 73.8856 133.344 73.4675 132.949 73.1692C132.554 72.8709 132.074 72.7082 131.579 72.7056L110.459 72.7056C109.964 72.7082 109.483 72.8709 109.088 73.1692C108.694 73.4675 108.406 73.8856 108.268 74.3609L106.222 81.5246C106.192 81.6266 106.178 81.7323 106.178 81.8385V84.1218C106.178 85.0079 106.384 85.8819 106.78 86.6745C107.177 87.4671 107.752 88.1566 108.461 88.6883L108.461 97.8213C108.461 98.4268 108.702 99.0076 109.13 99.4358C109.558 99.8639 110.139 100.104 110.744 100.104L131.293 100.104C131.899 100.104 132.48 99.8639 132.908 99.4358C133.336 99.0076 133.577 98.4268 133.577 97.8213L133.577 88.6883C134.286 88.1566 134.861 87.4671 135.257 86.6745C135.654 85.8819 135.86 85.0079 135.86 84.1218V81.8385ZM110.459 74.9888L131.579 74.9888L133.209 80.6969L108.833 80.6969L110.459 74.9888ZM117.594 82.9802H124.444V84.1218C124.444 85.0301 124.083 85.9012 123.441 86.5435C122.798 87.1858 121.927 87.5467 121.019 87.5467C120.111 87.5467 119.239 87.1858 118.597 86.5435C117.955 85.9012 117.594 85.0301 117.594 84.1218V82.9802ZM115.311 82.9802V84.1218C115.311 85.0301 114.95 85.9012 114.308 86.5435C113.665 87.1858 112.794 87.5467 111.886 87.5467C110.978 87.5467 110.106 87.1858 109.464 86.5435C108.822 85.9012 108.461 85.0301 108.461 84.1218V82.9802H115.311ZM131.293 97.8213L110.744 97.8213L110.744 89.7157C111.12 89.7915 111.502 89.8297 111.886 89.8299C112.772 89.8299 113.646 89.6236 114.439 89.2273C115.231 88.831 115.921 88.2556 116.452 87.5467C116.984 88.2556 117.674 88.831 118.466 89.2273C119.259 89.6236 120.133 89.8299 121.019 89.8299C121.905 89.8299 122.779 89.6236 123.572 89.2273C124.364 88.831 125.054 88.2556 125.585 87.5467C126.117 88.2556 126.806 88.831 127.599 89.2273C128.392 89.6236 129.266 89.8299 130.152 89.8299C130.535 89.8297 130.918 89.7915 131.293 89.7157L131.293 97.8213ZM130.152 87.5467C129.244 87.5467 128.372 87.1858 127.73 86.5435C127.088 85.9012 126.727 85.0301 126.727 84.1218V82.9802L133.577 82.9802V84.1218C133.577 85.0301 133.216 85.9012 132.574 86.5435C131.931 87.1858 131.06 87.5467 130.152 87.5467Z" stroke="#ED2A07" stroke-width="1.64081" stroke-linecap="round" stroke-linejoin="round"/>
</g>
<g style="mix-blend-mode:hard-light" filter="url(#filter3_dddii_1019_3825)">
<path d="M135.86 81.8385C135.861 81.7324 135.846 81.6267 135.817 81.5246L133.769 74.3609C133.632 73.8856 133.344 73.4675 132.949 73.1692C132.554 72.8709 132.074 72.7082 131.579 72.7056L110.459 72.7056C109.964 72.7082 109.483 72.8709 109.088 73.1692C108.694 73.4675 108.406 73.8856 108.268 74.3609L106.222 81.5246C106.192 81.6266 106.178 81.7323 106.178 81.8385V84.1218C106.178 85.0079 106.384 85.8819 106.78 86.6745C107.177 87.4671 107.752 88.1566 108.461 88.6883L108.461 97.8213C108.461 98.4268 108.702 99.0076 109.13 99.4358C109.558 99.8639 110.139 100.104 110.744 100.104L131.293 100.104C131.899 100.104 132.48 99.8639 132.908 99.4358C133.336 99.0076 133.577 98.4268 133.577 97.8213V88.6883C134.286 88.1566 134.861 87.4671 135.257 86.6745C135.654 85.8819 135.86 85.0079 135.86 84.1218V81.8385ZM110.459 74.9888L131.579 74.9888L133.209 80.6969L108.833 80.6969L110.459 74.9888ZM117.594 82.9802H124.444V84.1218C124.444 85.0301 124.083 85.9012 123.441 86.5435C122.798 87.1858 121.927 87.5467 121.019 87.5467C120.111 87.5467 119.239 87.1858 118.597 86.5435C117.955 85.9012 117.594 85.0301 117.594 84.1218V82.9802ZM115.311 82.9802V84.1218C115.311 85.0301 114.95 85.9012 114.308 86.5435C113.665 87.1858 112.794 87.5467 111.886 87.5467C110.978 87.5467 110.106 87.1858 109.464 86.5435C108.822 85.9012 108.461 85.0301 108.461 84.1218V82.9802L115.311 82.9802ZM131.293 97.8213L110.744 97.8213L110.744 89.7157C111.12 89.7915 111.502 89.8297 111.886 89.8299C112.772 89.8299 113.646 89.6236 114.439 89.2273C115.231 88.831 115.921 88.2556 116.452 87.5467C116.984 88.2556 117.674 88.831 118.466 89.2273C119.259 89.6236 120.133 89.8299 121.019 89.8299C121.905 89.8299 122.779 89.6236 123.572 89.2273C124.364 88.831 125.054 88.2556 125.585 87.5467C126.117 88.2556 126.806 88.831 127.599 89.2273C128.392 89.6236 129.266 89.8299 130.152 89.8299C130.535 89.8297 130.918 89.7915 131.293 89.7157V97.8213ZM130.152 87.5467C129.244 87.5467 128.372 87.1858 127.73 86.5435C127.088 85.9012 126.727 85.0301 126.727 84.1218V82.9802H133.577V84.1218C133.577 85.0301 133.216 85.9012 132.574 86.5435C131.931 87.1858 131.06 87.5467 130.152 87.5467Z" stroke="#ED2A07" stroke-opacity="0.2" stroke-width="5.46937" stroke-linecap="round" stroke-linejoin="round"/>
</g>
<g filter="url(#filter4_f_1019_3825)">
<path d="M135.86 81.8385C135.861 81.7324 135.846 81.6267 135.817 81.5246L133.769 74.3609C133.632 73.8856 133.344 73.4675 132.949 73.1692C132.554 72.8709 132.074 72.7082 131.579 72.7056L110.459 72.7056C109.964 72.7082 109.483 72.8709 109.088 73.1692C108.694 73.4675 108.406 73.8856 108.268 74.3609L106.222 81.5246C106.192 81.6266 106.178 81.7323 106.178 81.8385V84.1218C106.178 85.0079 106.384 85.8819 106.78 86.6745C107.177 87.4671 107.752 88.1566 108.461 88.6883L108.461 97.8213C108.461 98.4268 108.702 99.0076 109.13 99.4358C109.558 99.8639 110.139 100.104 110.744 100.104L131.293 100.104C131.899 100.104 132.48 99.8639 132.908 99.4358C133.336 99.0076 133.577 98.4268 133.577 97.8213V88.6883C134.286 88.1566 134.861 87.4671 135.257 86.6745C135.654 85.8819 135.86 85.0079 135.86 84.1218V81.8385ZM110.459 74.9888L131.579 74.9888L133.209 80.6969L108.833 80.6969L110.459 74.9888ZM117.594 82.9802L124.444 82.9802V84.1218C124.444 85.0301 124.083 85.9012 123.441 86.5435C122.798 87.1858 121.927 87.5467 121.019 87.5467C120.111 87.5467 119.239 87.1858 118.597 86.5435C117.955 85.9012 117.594 85.0301 117.594 84.1218V82.9802ZM115.311 82.9802V84.1218C115.311 85.0301 114.95 85.9012 114.308 86.5435C113.665 87.1858 112.794 87.5467 111.886 87.5467C110.978 87.5467 110.106 87.1858 109.464 86.5435C108.822 85.9012 108.461 85.0301 108.461 84.1218V82.9802L115.311 82.9802ZM131.293 97.8213L110.744 97.8213V89.7157C111.12 89.7915 111.502 89.8297 111.886 89.8299C112.772 89.8299 113.646 89.6236 114.439 89.2273C115.231 88.831 115.921 88.2556 116.452 87.5467C116.984 88.2556 117.674 88.831 118.466 89.2273C119.259 89.6236 120.133 89.8299 121.019 89.8299C121.905 89.8299 122.779 89.6236 123.572 89.2273C124.364 88.831 125.054 88.2556 125.585 87.5467C126.117 88.2556 126.806 88.831 127.599 89.2273C128.392 89.6236 129.266 89.8299 130.152 89.8299C130.535 89.8297 130.918 89.7915 131.293 89.7157V97.8213ZM130.152 87.5467C129.244 87.5467 128.372 87.1858 127.73 86.5435C127.088 85.9012 126.727 85.0301 126.727 84.1218V82.9802H133.577V84.1218C133.577 85.0301 133.216 85.9012 132.574 86.5435C131.931 87.1858 131.06 87.5467 130.152 87.5467Z" stroke="#F78672" stroke-width="3.28162" stroke-linecap="round" stroke-linejoin="round"/>
</g>
<g filter="url(#filter5_f_1019_3825)">
<path d="M135.86 81.8385C135.861 81.7324 135.846 81.6267 135.817 81.5246L133.769 74.3609C133.632 73.8856 133.344 73.4675 132.949 73.1692C132.554 72.8709 132.074 72.7082 131.579 72.7056L110.459 72.7056C109.964 72.7082 109.483 72.8709 109.088 73.1692C108.694 73.4675 108.406 73.8856 108.268 74.3609L106.222 81.5246C106.192 81.6266 106.178 81.7323 106.178 81.8385V84.1218C106.178 85.0079 106.384 85.8819 106.78 86.6745C107.177 87.4671 107.752 88.1566 108.461 88.6883L108.461 97.8213C108.461 98.4268 108.702 99.0076 109.13 99.4358C109.558 99.8639 110.139 100.104 110.744 100.104L131.293 100.104C131.899 100.104 132.48 99.8639 132.908 99.4358C133.336 99.0076 133.577 98.4268 133.577 97.8213V88.6883C134.286 88.1566 134.861 87.4671 135.257 86.6745C135.654 85.8819 135.86 85.0079 135.86 84.1218L135.86 81.8385ZM110.459 74.9888L131.579 74.9888L133.209 80.6969L108.833 80.6969L110.459 74.9888ZM117.594 82.9802L124.444 82.9802V84.1218C124.444 85.0301 124.083 85.9012 123.441 86.5435C122.798 87.1858 121.927 87.5467 121.019 87.5467C120.111 87.5467 119.239 87.1858 118.597 86.5435C117.955 85.9012 117.594 85.0301 117.594 84.1218V82.9802ZM115.311 82.9802V84.1218C115.311 85.0301 114.95 85.9012 114.308 86.5435C113.665 87.1858 112.794 87.5467 111.886 87.5467C110.978 87.5467 110.106 87.1858 109.464 86.5435C108.822 85.9012 108.461 85.0301 108.461 84.1218V82.9802L115.311 82.9802ZM131.293 97.8213L110.744 97.8213L110.744 89.7157C111.12 89.7915 111.502 89.8297 111.886 89.8299C112.772 89.8299 113.646 89.6236 114.439 89.2273C115.231 88.831 115.921 88.2556 116.452 87.5467C116.984 88.2556 117.674 88.831 118.466 89.2273C119.259 89.6236 120.133 89.8299 121.019 89.8299C121.905 89.8299 122.779 89.6236 123.572 89.2273C124.364 88.831 125.054 88.2556 125.585 87.5467C126.117 88.2556 126.806 88.831 127.599 89.2273C128.392 89.6236 129.266 89.8299 130.152 89.8299C130.535 89.8297 130.918 89.7915 131.293 89.7157V97.8213ZM130.152 87.5467C129.244 87.5467 128.372 87.1858 127.73 86.5435C127.088 85.9012 126.727 85.0301 126.727 84.1218V82.9802L133.577 82.9802L133.577 84.1218C133.577 85.0301 133.216 85.9012 132.574 86.5435C131.931 87.1858 131.06 87.5467 130.152 87.5467Z" fill="white"/>
<path d="M135.86 81.8385C135.861 81.7324 135.846 81.6267 135.817 81.5246L133.769 74.3609C133.632 73.8856 133.344 73.4675 132.949 73.1692C132.554 72.8709 132.074 72.7082 131.579 72.7056L110.459 72.7056C109.964 72.7082 109.483 72.8709 109.088 73.1692C108.694 73.4675 108.406 73.8856 108.268 74.3609L106.222 81.5246C106.192 81.6266 106.178 81.7323 106.178 81.8385V84.1218C106.178 85.0079 106.384 85.8819 106.78 86.6745C107.177 87.4671 107.752 88.1566 108.461 88.6883L108.461 97.8213C108.461 98.4268 108.702 99.0076 109.13 99.4358C109.558 99.8639 110.139 100.104 110.744 100.104L131.293 100.104C131.899 100.104 132.48 99.8639 132.908 99.4358C133.336 99.0076 133.577 98.4268 133.577 97.8213V88.6883C134.286 88.1566 134.861 87.4671 135.257 86.6745C135.654 85.8819 135.86 85.0079 135.86 84.1218L135.86 81.8385ZM110.459 74.9888L131.579 74.9888L133.209 80.6969L108.833 80.6969L110.459 74.9888ZM117.594 82.9802L124.444 82.9802V84.1218C124.444 85.0301 124.083 85.9012 123.441 86.5435C122.798 87.1858 121.927 87.5467 121.019 87.5467C120.111 87.5467 119.239 87.1858 118.597 86.5435C117.955 85.9012 117.594 85.0301 117.594 84.1218V82.9802ZM115.311 82.9802V84.1218C115.311 85.0301 114.95 85.9012 114.308 86.5435C113.665 87.1858 112.794 87.5467 111.886 87.5467C110.978 87.5467 110.106 87.1858 109.464 86.5435C108.822 85.9012 108.461 85.0301 108.461 84.1218V82.9802L115.311 82.9802ZM131.293 97.8213L110.744 97.8213L110.744 89.7157C111.12 89.7915 111.502 89.8297 111.886 89.8299C112.772 89.8299 113.646 89.6236 114.439 89.2273C115.231 88.831 115.921 88.2556 116.452 87.5467C116.984 88.2556 117.674 88.831 118.466 89.2273C119.259 89.6236 120.133 89.8299 121.019 89.8299C121.905 89.8299 122.779 89.6236 123.572 89.2273C124.364 88.831 125.054 88.2556 125.585 87.5467C126.117 88.2556 126.806 88.831 127.599 89.2273C128.392 89.6236 129.266 89.8299 130.152 89.8299C130.535 89.8297 130.918 89.7915 131.293 89.7157V97.8213ZM130.152 87.5467C129.244 87.5467 128.372 87.1858 127.73 86.5435C127.088 85.9012 126.727 85.0301 126.727 84.1218V82.9802L133.577 82.9802L133.577 84.1218C133.577 85.0301 133.216 85.9012 132.574 86.5435C131.931 87.1858 131.06 87.5467 130.152 87.5467Z" stroke="#EEEEEE" stroke-width="0.609405" stroke-linecap="round" stroke-linejoin="round"/>
</g>
<rect width="2.16299" height="10.3695" rx="1.0815" transform="matrix(0.866026 0.499999 0.500001 -0.866025 99.6379 53.0107)" fill="#888888"/>
<rect width="7.81289" height="7.81288" rx="3.90644" transform="matrix(0.958355 -0.285579 -0.28558 -0.958355 126.708 52.7188)" fill="#ED2A07"/>
<rect width="4.02471" height="4.02471" rx="2.01235" transform="matrix(0.958355 -0.285579 -0.28558 -0.958355 80.1606 94.4751)" fill="#ED2A07"/>
<rect width="5.11079" height="5.11078" rx="2.55539" transform="matrix(0.939652 0.342133 0.342134 -0.939651 86.7449 67.4229)" fill="#888888"/>
<rect width="4.40981" height="11.068" rx="2.20491" transform="matrix(0.469321 -0.883028 -0.883029 -0.469319 140.287 133.589)" fill="#888888"/>
<rect width="4.92127" height="4.92126" rx="0.801946" transform="matrix(0.965193 0.261537 -0.261539 0.965193 109.162 121.482)" fill="#252525"/>
<rect width="2.53064" height="2.53064" rx="1.26532" transform="matrix(0.958355 -0.285579 -0.28558 -0.958355 152.366 102.997)" fill="#888888"/>
<rect width="10.1458" height="10.1458" rx="1.15314" transform="matrix(0.965193 -0.261537 -0.261538 -0.965193 155.619 63.4951)" fill="#252525"/>
<path d="M0.822566 6.14785C1.09134 4.0865 1.39959 2.0277 1.83321 0L1.97375 0.040256C1.55558 2.07668 1.27154 4.12902 1.04241 6.19261C0.813273 8.2562 0.648003 10.3156 0.537746 12.3861C0.317041 16.5274 0.349424 20.6913 0.606351 24.821C0.854426 28.966 1.34248 33.0854 2.10367 37.1573C2.47987 39.2009 2.92871 41.225 3.43498 43.2206C3.94125 45.2161 4.52674 47.2164 5.17844 49.1729L5.68539 50.6353L6.21663 52.0912C6.57883 53.0597 6.94988 54.0128 7.36058 54.9682C7.63891 55.6609 7.94696 56.339 8.25434 57.0153C8.37375 57.278 8.49306 57.5405 8.61047 57.8035C9.05432 58.7369 9.49817 59.6704 9.97507 60.582L10.33 61.2794C10.3867 61.394 10.4493 61.5072 10.512 61.6203C10.5746 61.7334 10.6373 61.8465 10.6938 61.9614L11.4456 63.3189C11.9557 64.2086 12.4657 65.0983 13.0244 65.9747C13.4403 66.6624 13.8818 67.3273 14.3247 67.9945C14.4507 68.1843 14.5768 68.3743 14.7024 68.5649L15.5868 69.8348C15.8079 70.1705 16.0399 70.4875 16.2774 70.8118C16.3446 70.9034 16.4121 70.9957 16.48 71.0892C16.6384 71.2935 16.7907 71.4995 16.9432 71.7053C17.0955 71.9114 17.2479 72.1174 17.4063 72.3218L18.3657 73.5325C18.5851 73.8344 18.8257 74.1175 19.0637 74.3974C19.1599 74.5107 19.2557 74.6233 19.3495 74.7366C19.6752 75.1299 20.0009 75.5231 20.3509 75.91L21.3766 77.0768C21.5665 77.291 21.764 77.5032 21.9633 77.7173C22.1155 77.8807 22.2686 78.0453 22.4201 78.2127C22.8509 78.6939 23.3113 79.1515 23.7724 79.6097C24.0442 79.8798 24.316 80.1502 24.5822 80.4256C26.9198 82.7215 29.4012 84.8802 32.0037 86.888C32.4209 86.1491 32.6638 85.3083 32.6913 84.4291L32.7076 83.9061L32.8264 83.913C34.98 86.9333 37.402 89.7999 40 92.4464C36.5275 91.1408 32.9273 90.1288 29.2888 89.4021L29.2321 89.2874L29.6878 89.0659C30.5227 88.6601 31.2203 88.053 31.7327 87.3187C29.0381 85.3754 26.4556 83.2744 24.0312 80.9898C23.7839 80.7444 23.5329 80.5015 23.2818 80.2586C22.7799 79.7726 22.2778 79.2867 21.8053 78.7812C21.637 78.5991 21.4682 78.4253 21.3009 78.2529C21.1049 78.0512 20.911 77.8514 20.7222 77.6428L19.6723 76.4825C18.2811 74.9202 16.9652 73.2985 15.7245 71.6176C10.7372 64.9006 7.03538 57.3046 4.49074 49.371C3.85684 47.3837 3.27136 45.3835 2.78288 43.3571C2.29438 41.3307 1.85441 39.2913 1.50249 37.2411C0.783283 33.1319 0.328386 28.9906 0.128718 24.8326C-0.0708446 20.6746 -0.0392763 16.5062 0.229837 12.352C0.364384 10.2749 0.569228 8.21791 0.822566 6.14785Z" fill="#252525"/>
<path d="M210.902 90.2809C209.525 89.3872 208.129 88.5188 206.686 87.7427L206.637 87.8488C208.077 88.6389 209.457 89.5187 210.815 90.4376C212.173 91.3566 213.495 92.3123 214.796 93.3071C217.397 95.2968 219.88 97.452 222.226 99.7263C224.586 102.003 226.806 104.413 228.855 106.964C229.887 108.241 230.869 109.552 231.804 110.884C232.739 112.215 233.636 113.597 234.472 114.997L235.087 116.055L235.685 117.125C236.078 117.842 236.458 118.557 236.818 119.296C237.089 119.821 237.336 120.356 237.583 120.89C237.678 121.097 237.774 121.305 237.871 121.511C238.201 122.26 238.531 123.008 238.83 123.766L239.064 124.34C239.104 124.433 239.139 124.529 239.175 124.625C239.21 124.721 239.245 124.817 239.285 124.911L239.709 126.064C239.979 126.831 240.248 127.597 240.484 128.387C240.681 128.992 240.85 129.602 241.021 130.213C241.069 130.387 241.118 130.562 241.167 130.736L241.47 131.925C241.557 132.232 241.626 132.535 241.698 132.846C241.718 132.934 241.738 133.022 241.759 133.112C241.799 133.313 241.844 133.511 241.888 133.709C241.933 133.908 241.977 134.106 242.018 134.307L242.246 135.512C242.314 135.8 242.359 136.092 242.403 136.38C242.421 136.497 242.439 136.613 242.458 136.728C242.525 137.128 242.592 137.527 242.642 137.939L242.81 139.161C242.84 139.386 242.865 139.615 242.89 139.847C242.909 140.023 242.928 140.2 242.95 140.378C243.015 140.887 243.05 141.402 243.086 141.918C243.107 142.221 243.128 142.525 243.155 142.829C243.319 145.428 243.326 148.045 243.179 150.657C242.519 150.532 241.888 150.249 241.345 149.815L241.023 149.556L240.965 149.632C241.66 152.491 242.122 155.435 242.362 158.372C243.382 155.59 244.645 152.881 246.099 150.295L246.06 150.202L245.69 150.366C245.013 150.665 244.286 150.778 243.578 150.713C243.812 148.078 243.892 145.429 243.78 142.783C243.761 142.506 243.746 142.229 243.73 141.952C243.699 141.397 243.669 140.843 243.611 140.296C243.589 140.1 243.572 139.908 243.555 139.718C243.536 139.496 243.517 139.275 243.49 139.053L243.339 137.82C243.123 136.172 242.833 134.54 242.469 132.923C241.027 126.444 238.39 120.297 234.948 114.68C234.085 113.275 233.188 111.893 232.225 110.557C231.262 109.22 230.266 107.907 229.218 106.641C227.125 104.096 224.874 101.696 222.482 99.4417C220.089 97.1878 217.569 95.0692 214.935 93.1023C213.618 92.1189 212.277 91.1885 210.902 90.2809Z" fill="#252525"/>
<defs>
<filter id="filter0_f_1019_3825" x="76.0963" y="42.6239" width="89.8453" height="87.5623" filterUnits="userSpaceOnUse" color-interpolation-filters="sRGB">
<feFlood flood-opacity="0" result="BackgroundImageFix"/>
<feBlend mode="normal" in="SourceGraphic" in2="BackgroundImageFix" result="shape"/>
<feGaussianBlur stdDeviation="13.6734" result="effect1_foregroundBlur_1019_3825"/>
</filter>
<filter id="filter1_f_1019_3825" x="94.3755" y="60.9034" width="53.2865" height="51.0033" filterUnits="userSpaceOnUse" color-interpolation-filters="sRGB">
<feFlood flood-opacity="0" result="BackgroundImageFix"/>
<feBlend mode="normal" in="SourceGraphic" in2="BackgroundImageFix" result="shape"/>
<feGaussianBlur stdDeviation="4.10203" result="effect1_foregroundBlur_1019_3825"/>
</filter>
<filter id="filter2_f_1019_3825" x="104.264" y="70.7914" width="33.5107" height="31.2273" filterUnits="userSpaceOnUse" color-interpolation-filters="sRGB">
<feFlood flood-opacity="0" result="BackgroundImageFix"/>
<feBlend mode="normal" in="SourceGraphic" in2="BackgroundImageFix" result="shape"/>
<feGaussianBlur stdDeviation="0.546937" result="effect1_foregroundBlur_1019_3825"/>
</filter>
<filter id="filter3_dddii_1019_3825" x="85.161" y="57.7826" width="71.7159" height="69.433" filterUnits="userSpaceOnUse" color-interpolation-filters="sRGB">
<feFlood flood-opacity="0" result="BackgroundImageFix"/>
<feColorMatrix in="SourceAlpha" type="matrix" values="0 0 0 0 0 0 0 0 0 0 0 0 0 0 0 0 0 0 127 0" result="hardAlpha"/>
<feOffset dy="5.46937"/>
<feGaussianBlur stdDeviation="2.18775"/>
<feColorMatrix type="matrix" values="0 0 0 0 0.0833333 0 0 0 0 0.02 0 0 0 0 0 0 0 0 0.7 0"/>
<feBlend mode="multiply" in2="BackgroundImageFix" result="effect1_dropShadow_1019_3825"/>
<feColorMatrix in="SourceAlpha" type="matrix" values="0 0 0 0 0 0 0 0 0 0 0 0 0 0 0 0 0 0 127 0" result="hardAlpha"/>
<feOffset dy="10.9387"/>
<feGaussianBlur stdDeviation="5.46937"/>
<feColorMatrix type="matrix" values="0 0 0 0 0.175 0 0 0 0 0.0965125 0 0 0 0 0.004375 0 0 0 0.8 0"/>
<feBlend mode="multiply" in2="effect1_dropShadow_1019_3825" result="effect2_dropShadow_1019_3825"/>
<feColorMatrix in="SourceAlpha" type="matrix" values="0 0 0 0 0 0 0 0 0 0 0 0 0 0 0 0 0 0 127 0" result="hardAlpha"/>
<feOffset dy="6.09405"/>
<feGaussianBlur stdDeviation="9.14108"/>
<feColorMatrix type="matrix" values="0 0 0 0 1 0 0 0 0 0.289333 0 0 0 0 0.133333 0 0 0 1 0"/>
<feBlend mode="color-dodge" in2="effect2_dropShadow_1019_3825" result="effect3_dropShadow_1019_3825"/>
<feBlend mode="normal" in="SourceGraphic" in2="effect3_dropShadow_1019_3825" result="shape"/>
<feColorMatrix in="SourceAlpha" type="matrix" values="0 0 0 0 0 0 0 0 0 0 0 0 0 0 0 0 0 0 127 0" result="hardAlpha"/>
<feOffset dx="-0.546937" dy="1.09387"/>
<feGaussianBlur stdDeviation="0.273468"/>
<feComposite in2="hardAlpha" operator="arithmetic" k2="-1" k3="1"/>
<feColorMatrix type="matrix" values="0 0 0 0 1 0 0 0 0 1 0 0 0 0 1 0 0 0 0.5 0"/>
<feBlend mode="normal" in2="shape" result="effect4_innerShadow_1019_3825"/>
<feColorMatrix in="SourceAlpha" type="matrix" values="0 0 0 0 0 0 0 0 0 0 0 0 0 0 0 0 0 0 127 0" result="hardAlpha"/>
<feOffset dx="-0.546937" dy="-1.09387"/>
<feGaussianBlur stdDeviation="0.273468"/>
<feComposite in2="hardAlpha" operator="arithmetic" k2="-1" k3="1"/>
<feColorMatrix type="matrix" values="0 0 0 0 1 0 0 0 0 1 0 0 0 0 1 0 0 0 0.4 0"/>
<feBlend mode="normal" in2="effect4_innerShadow_1019_3825" result="effect5_innerShadow_1019_3825"/>
</filter>
<filter id="filter4_f_1019_3825" x="103.817" y="70.3453" width="34.4031" height="32.1194" filterUnits="userSpaceOnUse" color-interpolation-filters="sRGB">
<feFlood flood-opacity="0" result="BackgroundImageFix"/>
<feBlend mode="normal" in="SourceGraphic" in2="BackgroundImageFix" result="shape"/>
<feGaussianBlur stdDeviation="0.359811" result="effect1_foregroundBlur_1019_3825"/>
</filter>
<filter id="filter5_f_1019_3825" x="105.326" y="71.8539" width="31.3856" height="29.1022" filterUnits="userSpaceOnUse" color-interpolation-filters="sRGB">
<feFlood flood-opacity="0" result="BackgroundImageFix"/>
<feBlend mode="normal" in="SourceGraphic" in2="BackgroundImageFix" result="shape"/>
<feGaussianBlur stdDeviation="0.273468" result="effect1_foregroundBlur_1019_3825"/>
</filter>
</defs>
</svg>
