<svg width="185" height="182" viewBox="0 0 185 182" fill="none" xmlns="http://www.w3.org/2000/svg">
<rect x="0.549525" y="68.3884" width="79" height="79" rx="11.5" transform="rotate(-6 0.549525 68.3884)" fill="#151515" stroke="#252525"/>
<rect x="105.807" y="60.1316" width="79" height="79" rx="11.5" transform="rotate(6 105.807 60.1316)" fill="#151515" stroke="#252525"/>
<rect x="27.0761" y="34.667" width="118.789" height="118.789" rx="27.1595" transform="rotate(-6 27.0761 34.667)" fill="#151515"/>
<rect x="27.0761" y="34.667" width="118.789" height="118.789" rx="27.1595" transform="rotate(-6 27.0761 34.667)" stroke="#252525" stroke-width="1.21133"/>
<g style="mix-blend-mode:color-dodge" filter="url(#filter0_f_182_24938)">
<path d="M122 78.731C122.001 78.52 121.973 78.3099 121.915 78.1069L117.844 63.8675C117.571 62.9227 116.999 62.0918 116.214 61.4987C115.429 60.9057 114.474 60.5824 113.49 60.5771L71.5096 60.5771C70.526 60.5824 69.5705 60.9057 68.7857 61.4987C68.001 62.0918 67.4291 62.9227 67.1555 63.8675L63.0879 78.1069C63.0293 78.3098 62.9997 78.5199 63 78.731V83.2694C63 85.0309 63.4101 86.7681 64.1978 88.3436C64.9856 89.9191 66.1293 91.2895 67.5385 92.3464L67.5385 110.5C67.5385 111.704 68.0166 112.858 68.8677 113.709C69.7189 114.56 70.8732 115.039 72.0769 115.039L112.923 115.039C114.127 115.039 115.281 114.56 116.132 113.709C116.983 112.858 117.462 111.704 117.462 110.5L117.462 92.3464C118.871 91.2895 120.014 89.9191 120.802 88.3436C121.59 86.7681 122 85.0309 122 83.2694V78.731ZM71.5096 65.1156L113.49 65.1156L116.73 76.4618L68.2788 76.4618L71.5096 65.1156ZM85.6923 81.0002H99.3077V83.2694C99.3077 85.075 98.5904 86.8065 97.3137 88.0832C96.0371 89.3599 94.3055 90.0771 92.5 90.0771C90.6945 90.0771 88.9629 89.3599 87.6862 88.0832C86.4095 86.8065 85.6923 85.075 85.6923 83.2694L85.6923 81.0002ZM81.1538 81.0002L81.1538 83.2694C81.1538 85.075 80.4366 86.8065 79.1599 88.0832C77.8832 89.3599 76.1517 90.0771 74.3461 90.0771C72.5406 90.0771 70.8091 89.3599 69.5324 88.0832C68.2557 86.8065 67.5385 85.075 67.5385 83.2694V81.0002H81.1538ZM112.923 110.5L72.0769 110.5L72.0769 94.3887C72.8239 94.5393 73.5841 94.6153 74.3461 94.6156C76.1076 94.6156 77.8448 94.2055 79.4203 93.4177C80.9958 92.63 82.3662 91.4863 83.4231 90.0771C84.4799 91.4863 85.8504 92.63 87.4258 93.4177C89.0013 94.2055 90.7385 94.6156 92.5 94.6156C94.2614 94.6156 95.9987 94.2055 97.5741 93.4177C99.1496 92.63 100.52 91.4863 101.577 90.0771C102.634 91.4863 104.004 92.63 105.58 93.4177C107.155 94.2055 108.892 94.6156 110.654 94.6156C111.416 94.6153 112.176 94.5393 112.923 94.3887L112.923 110.5ZM110.654 90.0771C108.848 90.0771 107.117 89.3599 105.84 88.0832C104.563 86.8065 103.846 85.075 103.846 83.2694V81.0002L117.462 81.0002V83.2694C117.462 85.075 116.744 86.8065 115.468 88.0832C114.191 89.3599 112.459 90.0771 110.654 90.0771Z" stroke="#FF9E9E" stroke-width="10.8716" stroke-linecap="round" stroke-linejoin="round"/>
</g>
<g style="mix-blend-mode:color-dodge" filter="url(#filter1_f_182_24938)">
<path d="M122 78.731C122.001 78.52 121.972 78.3099 121.915 78.1069L117.844 63.8675C117.571 62.9227 116.999 62.0918 116.214 61.4987C115.429 60.9057 114.474 60.5824 113.49 60.5771L71.5096 60.5771C70.526 60.5824 69.5705 60.9057 68.7857 61.4987C68.001 62.0918 67.4291 62.9227 67.1555 63.8675L63.0879 78.1069C63.0293 78.3098 62.9997 78.5199 63 78.731V83.2694C63 85.0309 63.4101 86.7681 64.1978 88.3436C64.9856 89.9191 66.1293 91.2895 67.5385 92.3464L67.5385 110.5C67.5385 111.704 68.0166 112.858 68.8677 113.709C69.7189 114.56 70.8732 115.039 72.0769 115.039L112.923 115.039C114.127 115.039 115.281 114.56 116.132 113.709C116.983 112.858 117.462 111.704 117.462 110.5V92.3464C118.871 91.2895 120.014 89.9191 120.802 88.3436C121.59 86.7681 122 85.0309 122 83.2694V78.731ZM71.5096 65.1156L113.49 65.1156L116.73 76.4618L68.2788 76.4618L71.5096 65.1156ZM85.6923 81.0002L99.3077 81.0002V83.2694C99.3077 85.075 98.5904 86.8065 97.3137 88.0832C96.0371 89.3599 94.3055 90.0771 92.5 90.0771C90.6945 90.0771 88.9629 89.3599 87.6862 88.0832C86.4095 86.8065 85.6923 85.075 85.6923 83.2694V81.0002ZM81.1538 81.0002V83.2694C81.1538 85.075 80.4366 86.8065 79.1599 88.0832C77.8832 89.3599 76.1517 90.0771 74.3461 90.0771C72.5406 90.0771 70.8091 89.3599 69.5324 88.0832C68.2557 86.8065 67.5385 85.075 67.5385 83.2694V81.0002L81.1538 81.0002ZM112.923 110.5L72.0769 110.5V94.3887C72.8239 94.5393 73.5841 94.6153 74.3461 94.6156C76.1076 94.6156 77.8448 94.2055 79.4203 93.4177C80.9958 92.63 82.3662 91.4863 83.4231 90.0771C84.4799 91.4863 85.8504 92.63 87.4258 93.4177C89.0013 94.2055 90.7385 94.6156 92.5 94.6156C94.2614 94.6156 95.9987 94.2055 97.5741 93.4177C99.1496 92.63 100.52 91.4863 101.577 90.0771C102.634 91.4863 104.004 92.63 105.58 93.4177C107.155 94.2055 108.892 94.6156 110.654 94.6156C111.416 94.6153 112.176 94.5393 112.923 94.3887V110.5ZM110.654 90.0771C108.848 90.0771 107.117 89.3599 105.84 88.0832C104.563 86.8065 103.846 85.075 103.846 83.2694V81.0002H117.462V83.2694C117.461 85.075 116.744 86.8065 115.468 88.0832C114.191 89.3599 112.459 90.0771 110.654 90.0771Z" fill="#B1280F"/>
<path d="M122 78.731C122.001 78.52 121.972 78.3099 121.915 78.1069L117.844 63.8675C117.571 62.9227 116.999 62.0918 116.214 61.4987C115.429 60.9057 114.474 60.5824 113.49 60.5771L71.5096 60.5771C70.526 60.5824 69.5705 60.9057 68.7857 61.4987C68.001 62.0918 67.4291 62.9227 67.1555 63.8675L63.0879 78.1069C63.0293 78.3098 62.9997 78.5199 63 78.731V83.2694C63 85.0309 63.4101 86.7681 64.1978 88.3436C64.9856 89.9191 66.1293 91.2895 67.5385 92.3464L67.5385 110.5C67.5385 111.704 68.0166 112.858 68.8677 113.709C69.7189 114.56 70.8732 115.039 72.0769 115.039L112.923 115.039C114.127 115.039 115.281 114.56 116.132 113.709C116.983 112.858 117.462 111.704 117.462 110.5V92.3464C118.871 91.2895 120.014 89.9191 120.802 88.3436C121.59 86.7681 122 85.0309 122 83.2694V78.731ZM71.5096 65.1156L113.49 65.1156L116.73 76.4618L68.2788 76.4618L71.5096 65.1156ZM85.6923 81.0002L99.3077 81.0002V83.2694C99.3077 85.075 98.5904 86.8065 97.3137 88.0832C96.0371 89.3599 94.3055 90.0771 92.5 90.0771C90.6945 90.0771 88.9629 89.3599 87.6862 88.0832C86.4095 86.8065 85.6923 85.075 85.6923 83.2694V81.0002ZM81.1538 81.0002V83.2694C81.1538 85.075 80.4366 86.8065 79.1599 88.0832C77.8832 89.3599 76.1517 90.0771 74.3461 90.0771C72.5406 90.0771 70.8091 89.3599 69.5324 88.0832C68.2557 86.8065 67.5385 85.075 67.5385 83.2694V81.0002L81.1538 81.0002ZM112.923 110.5L72.0769 110.5V94.3887C72.8239 94.5393 73.5841 94.6153 74.3461 94.6156C76.1076 94.6156 77.8448 94.2055 79.4203 93.4177C80.9958 92.63 82.3662 91.4863 83.4231 90.0771C84.4799 91.4863 85.8504 92.63 87.4258 93.4177C89.0013 94.2055 90.7385 94.6156 92.5 94.6156C94.2614 94.6156 95.9987 94.2055 97.5741 93.4177C99.1496 92.63 100.52 91.4863 101.577 90.0771C102.634 91.4863 104.004 92.63 105.58 93.4177C107.155 94.2055 108.892 94.6156 110.654 94.6156C111.416 94.6153 112.176 94.5393 112.923 94.3887V110.5ZM110.654 90.0771C108.848 90.0771 107.117 89.3599 105.84 88.0832C104.563 86.8065 103.846 85.075 103.846 83.2694V81.0002H117.462V83.2694C117.461 85.075 116.744 86.8065 115.468 88.0832C114.191 89.3599 112.459 90.0771 110.654 90.0771Z" stroke="#B1280F" stroke-width="14.3041" stroke-linecap="round" stroke-linejoin="round"/>
</g>
<g style="mix-blend-mode:multiply" opacity="0.2" filter="url(#filter2_f_182_24938)">
<path d="M122 78.731C122.001 78.52 121.973 78.3099 121.915 78.1069L117.844 63.8675C117.571 62.9227 116.999 62.0918 116.214 61.4987C115.429 60.9057 114.474 60.5824 113.49 60.5771L71.5096 60.5771C70.526 60.5824 69.5705 60.9057 68.7857 61.4987C68.001 62.0918 67.4291 62.9227 67.1555 63.8675L63.0879 78.1069C63.0293 78.3098 62.9997 78.5199 63 78.731L63 83.2694C63 85.0309 63.4101 86.7681 64.1978 88.3436C64.9856 89.9191 66.1293 91.2895 67.5385 92.3464L67.5385 110.5C67.5385 111.704 68.0166 112.858 68.8677 113.709C69.7189 114.56 70.8732 115.039 72.0769 115.039L112.923 115.039C114.127 115.039 115.281 114.56 116.132 113.709C116.983 112.858 117.462 111.704 117.462 110.5L117.462 92.3464C118.871 91.2895 120.014 89.9191 120.802 88.3436C121.59 86.7681 122 85.0309 122 83.2694L122 78.731ZM71.5096 65.1156L113.49 65.1156L116.73 76.4618L68.2788 76.4618L71.5096 65.1156ZM85.6923 81.0002H99.3077L99.3077 83.2694C99.3077 85.075 98.5904 86.8065 97.3137 88.0832C96.0371 89.3599 94.3055 90.0771 92.5 90.0771C90.6945 90.0771 88.9629 89.3599 87.6862 88.0832C86.4095 86.8065 85.6923 85.075 85.6923 83.2694L85.6923 81.0002ZM81.1538 81.0002L81.1538 83.2694C81.1538 85.075 80.4366 86.8065 79.1599 88.0832C77.8832 89.3599 76.1517 90.0771 74.3461 90.0771C72.5406 90.0771 70.8091 89.3599 69.5324 88.0832C68.2557 86.8065 67.5385 85.075 67.5385 83.2694V81.0002L81.1538 81.0002ZM112.923 110.5L72.0769 110.5L72.0769 94.3887C72.8239 94.5393 73.5841 94.6153 74.3461 94.6156C76.1076 94.6156 77.8448 94.2055 79.4203 93.4177C80.9958 92.63 82.3662 91.4863 83.4231 90.0771C84.4799 91.4863 85.8504 92.63 87.4258 93.4177C89.0013 94.2055 90.7385 94.6156 92.5 94.6156C94.2614 94.6156 95.9987 94.2055 97.5741 93.4177C99.1496 92.63 100.52 91.4863 101.577 90.0771C102.634 91.4863 104.004 92.63 105.58 93.4177C107.155 94.2055 108.892 94.6156 110.654 94.6156C111.416 94.6153 112.176 94.5393 112.923 94.3887L112.923 110.5ZM110.654 90.0771C108.848 90.0771 107.117 89.3599 105.84 88.0832C104.563 86.8065 103.846 85.075 103.846 83.2694L103.846 81.0002L117.462 81.0002L117.462 83.2694C117.462 85.075 116.744 86.8065 115.468 88.0832C114.191 89.3599 112.459 90.0771 110.654 90.0771Z" stroke="#ED2A07" stroke-width="3.26147" stroke-linecap="round" stroke-linejoin="round"/>
</g>
<g style="mix-blend-mode:hard-light" filter="url(#filter3_dddii_182_24938)">
<path d="M122 78.731C122.001 78.52 121.973 78.3099 121.915 78.1069L117.844 63.8675C117.571 62.9227 116.999 62.0918 116.214 61.4987C115.429 60.9057 114.474 60.5824 113.49 60.5771L71.5096 60.5771C70.526 60.5824 69.5705 60.9057 68.7857 61.4987C68.001 62.0918 67.4291 62.9227 67.1555 63.8675L63.0879 78.1069C63.0293 78.3098 62.9997 78.5199 63 78.731L63 83.2694C63 85.0309 63.4101 86.7681 64.1978 88.3436C64.9856 89.9191 66.1293 91.2895 67.5385 92.3464L67.5385 110.5C67.5385 111.704 68.0166 112.858 68.8677 113.709C69.7189 114.56 70.8732 115.039 72.0769 115.039L112.923 115.039C114.127 115.039 115.281 114.56 116.132 113.709C116.983 112.858 117.462 111.704 117.462 110.5L117.462 92.3464C118.871 91.2895 120.014 89.9191 120.802 88.3436C121.59 86.7681 122 85.0309 122 83.2694V78.731ZM71.5096 65.1156L113.49 65.1156L116.73 76.4618L68.2788 76.4618L71.5096 65.1156ZM85.6923 81.0002L99.3077 81.0002V83.2694C99.3077 85.075 98.5904 86.8065 97.3137 88.0832C96.0371 89.3599 94.3055 90.0771 92.5 90.0771C90.6945 90.0771 88.9629 89.3599 87.6862 88.0832C86.4095 86.8065 85.6923 85.075 85.6923 83.2694V81.0002ZM81.1538 81.0002V83.2694C81.1538 85.075 80.4366 86.8065 79.1599 88.0832C77.8832 89.3599 76.1517 90.0771 74.3461 90.0771C72.5406 90.0771 70.8091 89.3599 69.5324 88.0832C68.2557 86.8065 67.5385 85.075 67.5385 83.2694V81.0002L81.1538 81.0002ZM112.923 110.5L72.0769 110.5L72.0769 94.3887C72.8239 94.5393 73.5841 94.6153 74.3461 94.6156C76.1076 94.6156 77.8448 94.2055 79.4203 93.4177C80.9958 92.63 82.3662 91.4863 83.4231 90.0771C84.4799 91.4863 85.8504 92.63 87.4258 93.4177C89.0013 94.2055 90.7385 94.6156 92.5 94.6156C94.2614 94.6156 95.9987 94.2055 97.5741 93.4177C99.1496 92.63 100.52 91.4863 101.577 90.0771C102.634 91.4863 104.004 92.63 105.58 93.4177C107.155 94.2055 108.892 94.6156 110.654 94.6156C111.416 94.6153 112.176 94.5393 112.923 94.3887L112.923 110.5ZM110.654 90.0771C108.848 90.0771 107.117 89.3599 105.84 88.0832C104.563 86.8065 103.846 85.075 103.846 83.2694V81.0002L117.462 81.0002V83.2694C117.462 85.075 116.744 86.8065 115.468 88.0832C114.191 89.3599 112.459 90.0771 110.654 90.0771Z" stroke="#ED2A07" stroke-opacity="0.2" stroke-width="10.8716" stroke-linecap="round" stroke-linejoin="round"/>
</g>
<g filter="url(#filter4_f_182_24938)">
<path d="M122 78.731C122.001 78.52 121.973 78.3099 121.915 78.1069L117.844 63.8675C117.571 62.9227 116.999 62.0918 116.214 61.4987C115.429 60.9057 114.474 60.5824 113.49 60.5771L71.5096 60.5771C70.526 60.5824 69.5705 60.9057 68.7857 61.4987C68.001 62.0918 67.4291 62.9227 67.1555 63.8675L63.0879 78.1069C63.0293 78.3098 62.9997 78.5199 63 78.731L63 83.2694C63 85.0309 63.4101 86.7681 64.1978 88.3436C64.9856 89.9191 66.1293 91.2895 67.5385 92.3464L67.5385 110.5C67.5385 111.704 68.0166 112.858 68.8677 113.709C69.7189 114.56 70.8732 115.039 72.0769 115.039L112.923 115.039C114.127 115.039 115.281 114.56 116.132 113.709C116.983 112.858 117.462 111.704 117.462 110.5L117.462 92.3464C118.871 91.2895 120.014 89.9191 120.802 88.3436C121.59 86.7681 122 85.0309 122 83.2694V78.731ZM71.5096 65.1156L113.49 65.1156L116.73 76.4618L68.2788 76.4618L71.5096 65.1156ZM85.6923 81.0002L99.3077 81.0002V83.2694C99.3077 85.075 98.5904 86.8065 97.3137 88.0832C96.0371 89.3599 94.3055 90.0771 92.5 90.0771C90.6945 90.0771 88.9629 89.3599 87.6862 88.0832C86.4095 86.8065 85.6923 85.075 85.6923 83.2694V81.0002ZM81.1538 81.0002V83.2694C81.1538 85.075 80.4366 86.8065 79.1599 88.0832C77.8832 89.3599 76.1517 90.0771 74.3461 90.0771C72.5406 90.0771 70.8091 89.3599 69.5324 88.0832C68.2557 86.8065 67.5385 85.075 67.5385 83.2694V81.0002L81.1538 81.0002ZM112.923 110.5L72.0769 110.5L72.0769 94.3887C72.8239 94.5393 73.5841 94.6153 74.3461 94.6156C76.1076 94.6156 77.8448 94.2055 79.4203 93.4177C80.9958 92.63 82.3662 91.4863 83.4231 90.0771C84.4799 91.4863 85.8504 92.63 87.4258 93.4177C89.0013 94.2055 90.7385 94.6156 92.5 94.6156C94.2614 94.6156 95.9987 94.2055 97.5741 93.4177C99.1496 92.63 100.52 91.4863 101.577 90.0771C102.634 91.4863 104.004 92.63 105.58 93.4177C107.155 94.2055 108.892 94.6156 110.654 94.6156C111.416 94.6153 112.176 94.5393 112.923 94.3887L112.923 110.5ZM110.654 90.0771C108.848 90.0771 107.117 89.3599 105.84 88.0832C104.563 86.8065 103.846 85.075 103.846 83.2694V81.0002L117.462 81.0002V83.2694C117.462 85.075 116.744 86.8065 115.468 88.0832C114.191 89.3599 112.459 90.0771 110.654 90.0771Z" stroke="#F78672" stroke-width="6.52295" stroke-linecap="round" stroke-linejoin="round"/>
</g>
<g filter="url(#filter5_f_182_24938)">
<path d="M122 78.731C122.001 78.52 121.972 78.3099 121.915 78.1069L117.844 63.8675C117.571 62.9227 116.999 62.0918 116.214 61.4987C115.429 60.9057 114.474 60.5824 113.49 60.5771L71.5096 60.5771C70.526 60.5824 69.5705 60.9057 68.7857 61.4987C68.001 62.0918 67.4291 62.9227 67.1555 63.8675L63.0879 78.1069C63.0293 78.3098 62.9997 78.5199 63 78.731L63 83.2694C63 85.0309 63.4101 86.7681 64.1978 88.3436C64.9856 89.9191 66.1293 91.2895 67.5385 92.3464L67.5385 110.5C67.5385 111.704 68.0166 112.858 68.8677 113.709C69.7189 114.56 70.8732 115.039 72.0769 115.039L112.923 115.039C114.127 115.039 115.281 114.56 116.132 113.709C116.983 112.858 117.462 111.704 117.462 110.5L117.462 92.3464C118.871 91.2895 120.014 89.9191 120.802 88.3436C121.59 86.7681 122 85.0309 122 83.2694V78.731ZM71.5096 65.1156L113.49 65.1156L116.73 76.4618L68.2788 76.4618L71.5096 65.1156ZM85.6923 81.0002L99.3077 81.0002V83.2694C99.3077 85.075 98.5904 86.8065 97.3137 88.0832C96.0371 89.3599 94.3055 90.0771 92.5 90.0771C90.6945 90.0771 88.9629 89.3599 87.6862 88.0832C86.4095 86.8065 85.6923 85.075 85.6923 83.2694V81.0002ZM81.1538 81.0002V83.2694C81.1538 85.075 80.4366 86.8065 79.1599 88.0832C77.8832 89.3599 76.1517 90.0771 74.3461 90.0771C72.5406 90.0771 70.8091 89.3599 69.5324 88.0832C68.2557 86.8065 67.5385 85.075 67.5385 83.2694V81.0002L81.1538 81.0002ZM112.923 110.5L72.0769 110.5L72.0769 94.3887C72.8239 94.5393 73.5841 94.6153 74.3461 94.6156C76.1076 94.6156 77.8448 94.2055 79.4203 93.4177C80.9958 92.63 82.3662 91.4863 83.4231 90.0771C84.4799 91.4863 85.8504 92.63 87.4258 93.4177C89.0013 94.2055 90.7385 94.6156 92.5 94.6156C94.2614 94.6156 95.9987 94.2055 97.5741 93.4177C99.1496 92.63 100.52 91.4863 101.577 90.0771C102.634 91.4863 104.004 92.63 105.58 93.4177C107.155 94.2055 108.892 94.6156 110.654 94.6156C111.416 94.6153 112.176 94.5393 112.923 94.3887L112.923 110.5ZM110.654 90.0771C108.848 90.0771 107.117 89.3599 105.84 88.0832C104.563 86.8065 103.846 85.075 103.846 83.2694V81.0002L117.462 81.0002V83.2694C117.461 85.075 116.744 86.8065 115.468 88.0832C114.191 89.3599 112.459 90.0771 110.654 90.0771Z" fill="white"/>
<path d="M122 78.731C122.001 78.52 121.972 78.3099 121.915 78.1069L117.844 63.8675C117.571 62.9227 116.999 62.0918 116.214 61.4987C115.429 60.9057 114.474 60.5824 113.49 60.5771L71.5096 60.5771C70.526 60.5824 69.5705 60.9057 68.7857 61.4987C68.001 62.0918 67.4291 62.9227 67.1555 63.8675L63.0879 78.1069C63.0293 78.3098 62.9997 78.5199 63 78.731L63 83.2694C63 85.0309 63.4101 86.7681 64.1978 88.3436C64.9856 89.9191 66.1293 91.2895 67.5385 92.3464L67.5385 110.5C67.5385 111.704 68.0166 112.858 68.8677 113.709C69.7189 114.56 70.8732 115.039 72.0769 115.039L112.923 115.039C114.127 115.039 115.281 114.56 116.132 113.709C116.983 112.858 117.462 111.704 117.462 110.5L117.462 92.3464C118.871 91.2895 120.014 89.9191 120.802 88.3436C121.59 86.7681 122 85.0309 122 83.2694V78.731ZM71.5096 65.1156L113.49 65.1156L116.73 76.4618L68.2788 76.4618L71.5096 65.1156ZM85.6923 81.0002L99.3077 81.0002V83.2694C99.3077 85.075 98.5904 86.8065 97.3137 88.0832C96.0371 89.3599 94.3055 90.0771 92.5 90.0771C90.6945 90.0771 88.9629 89.3599 87.6862 88.0832C86.4095 86.8065 85.6923 85.075 85.6923 83.2694V81.0002ZM81.1538 81.0002V83.2694C81.1538 85.075 80.4366 86.8065 79.1599 88.0832C77.8832 89.3599 76.1517 90.0771 74.3461 90.0771C72.5406 90.0771 70.8091 89.3599 69.5324 88.0832C68.2557 86.8065 67.5385 85.075 67.5385 83.2694V81.0002L81.1538 81.0002ZM112.923 110.5L72.0769 110.5L72.0769 94.3887C72.8239 94.5393 73.5841 94.6153 74.3461 94.6156C76.1076 94.6156 77.8448 94.2055 79.4203 93.4177C80.9958 92.63 82.3662 91.4863 83.4231 90.0771C84.4799 91.4863 85.8504 92.63 87.4258 93.4177C89.0013 94.2055 90.7385 94.6156 92.5 94.6156C94.2614 94.6156 95.9987 94.2055 97.5741 93.4177C99.1496 92.63 100.52 91.4863 101.577 90.0771C102.634 91.4863 104.004 92.63 105.58 93.4177C107.155 94.2055 108.892 94.6156 110.654 94.6156C111.416 94.6153 112.176 94.5393 112.923 94.3887L112.923 110.5ZM110.654 90.0771C108.848 90.0771 107.117 89.3599 105.84 88.0832C104.563 86.8065 103.846 85.075 103.846 83.2694V81.0002L117.462 81.0002V83.2694C117.461 85.075 116.744 86.8065 115.468 88.0832C114.191 89.3599 112.459 90.0771 110.654 90.0771Z" stroke="#EEEEEE" stroke-width="1.21133" stroke-linecap="round" stroke-linejoin="round"/>
</g>
<rect width="4.29943" height="20.6117" rx="2.14971" transform="matrix(0.866025 0.5 0.5 -0.866025 50 21.4316)" fill="#888888"/>
<rect width="15.5298" height="15.5298" rx="7.76492" transform="matrix(0.958355 -0.28558 -0.28558 -0.958355 103.807 20.8516)" fill="#ED2A07"/>
<rect width="8" height="8" rx="4" transform="matrix(0.958355 -0.28558 -0.28558 -0.958355 11.2847 103.852)" fill="#ED2A07"/>
<rect width="10.1588" height="10.1588" rx="5.0794" transform="matrix(0.939651 0.342133 0.342133 -0.939651 24.3723 50.0791)" fill="#888888"/>
<rect width="8.76549" height="22" rx="4.38274" transform="matrix(0.46932 -0.883028 -0.883028 -0.46932 130.799 181.599)" fill="#888888"/>
<rect x="68.9307" y="157.533" width="9.7821" height="9.7821" rx="1.59404" transform="rotate(15.1613 68.9307 157.533)" fill="#252525"/>
<rect width="5.0302" height="5.0302" rx="2.5151" transform="matrix(0.958355 -0.28558 -0.28558 -0.958355 154.809 120.791)" fill="#888888"/>
<rect width="20.167" height="20.167" rx="2.29213" transform="matrix(0.965193 -0.261538 -0.261538 -0.965193 161.274 42.2725)" fill="#252525"/>
<defs>
<filter id="filter0_f_182_24938" x="3.20631" y="0.783699" width="178.587" height="174.049" filterUnits="userSpaceOnUse" color-interpolation-filters="sRGB">
<feFlood flood-opacity="0" result="BackgroundImageFix"/>
<feBlend mode="normal" in="SourceGraphic" in2="BackgroundImageFix" result="shape"/>
<feGaussianBlur stdDeviation="27.179" result="effect1_foregroundBlur_182_24938"/>
</filter>
<filter id="filter1_f_182_24938" x="39.5406" y="37.1174" width="105.919" height="101.38" filterUnits="userSpaceOnUse" color-interpolation-filters="sRGB">
<feFlood flood-opacity="0" result="BackgroundImageFix"/>
<feBlend mode="normal" in="SourceGraphic" in2="BackgroundImageFix" result="shape"/>
<feGaussianBlur stdDeviation="8.15368" result="effect1_foregroundBlur_182_24938"/>
</filter>
<filter id="filter2_f_182_24938" x="59.1949" y="56.772" width="66.6101" height="62.0713" filterUnits="userSpaceOnUse" color-interpolation-filters="sRGB">
<feFlood flood-opacity="0" result="BackgroundImageFix"/>
<feBlend mode="normal" in="SourceGraphic" in2="BackgroundImageFix" result="shape"/>
<feGaussianBlur stdDeviation="1.08716" result="effect1_foregroundBlur_182_24938"/>
</filter>
<filter id="filter3_dddii_182_24938" x="21.2244" y="30.915" width="142.551" height="138.013" filterUnits="userSpaceOnUse" color-interpolation-filters="sRGB">
<feFlood flood-opacity="0" result="BackgroundImageFix"/>
<feColorMatrix in="SourceAlpha" type="matrix" values="0 0 0 0 0 0 0 0 0 0 0 0 0 0 0 0 0 0 127 0" result="hardAlpha"/>
<feOffset dy="10.8716"/>
<feGaussianBlur stdDeviation="4.34863"/>
<feColorMatrix type="matrix" values="0 0 0 0 0.0833333 0 0 0 0 0.02 0 0 0 0 0 0 0 0 0.7 0"/>
<feBlend mode="multiply" in2="BackgroundImageFix" result="effect1_dropShadow_182_24938"/>
<feColorMatrix in="SourceAlpha" type="matrix" values="0 0 0 0 0 0 0 0 0 0 0 0 0 0 0 0 0 0 127 0" result="hardAlpha"/>
<feOffset dy="21.7432"/>
<feGaussianBlur stdDeviation="10.8716"/>
<feColorMatrix type="matrix" values="0 0 0 0 0.175 0 0 0 0 0.0965125 0 0 0 0 0.004375 0 0 0 0.8 0"/>
<feBlend mode="multiply" in2="effect1_dropShadow_182_24938" result="effect2_dropShadow_182_24938"/>
<feColorMatrix in="SourceAlpha" type="matrix" values="0 0 0 0 0 0 0 0 0 0 0 0 0 0 0 0 0 0 127 0" result="hardAlpha"/>
<feOffset dy="12.1133"/>
<feGaussianBlur stdDeviation="18.1699"/>
<feColorMatrix type="matrix" values="0 0 0 0 1 0 0 0 0 0.289333 0 0 0 0 0.133333 0 0 0 1 0"/>
<feBlend mode="color-dodge" in2="effect2_dropShadow_182_24938" result="effect3_dropShadow_182_24938"/>
<feBlend mode="normal" in="SourceGraphic" in2="effect3_dropShadow_182_24938" result="shape"/>
<feColorMatrix in="SourceAlpha" type="matrix" values="0 0 0 0 0 0 0 0 0 0 0 0 0 0 0 0 0 0 127 0" result="hardAlpha"/>
<feOffset dx="-1.08716" dy="2.17432"/>
<feGaussianBlur stdDeviation="0.543579"/>
<feComposite in2="hardAlpha" operator="arithmetic" k2="-1" k3="1"/>
<feColorMatrix type="matrix" values="0 0 0 0 1 0 0 0 0 1 0 0 0 0 1 0 0 0 0.5 0"/>
<feBlend mode="normal" in2="shape" result="effect4_innerShadow_182_24938"/>
<feColorMatrix in="SourceAlpha" type="matrix" values="0 0 0 0 0 0 0 0 0 0 0 0 0 0 0 0 0 0 127 0" result="hardAlpha"/>
<feOffset dx="-1.08716" dy="-2.17432"/>
<feGaussianBlur stdDeviation="0.543579"/>
<feComposite in2="hardAlpha" operator="arithmetic" k2="-1" k3="1"/>
<feColorMatrix type="matrix" values="0 0 0 0 1 0 0 0 0 1 0 0 0 0 1 0 0 0 0.4 0"/>
<feBlend mode="normal" in2="effect4_innerShadow_182_24938" result="effect5_innerShadow_182_24938"/>
</filter>
<filter id="filter4_f_182_24938" x="58.3081" y="55.885" width="68.3838" height="63.8452" filterUnits="userSpaceOnUse" color-interpolation-filters="sRGB">
<feFlood flood-opacity="0" result="BackgroundImageFix"/>
<feBlend mode="normal" in="SourceGraphic" in2="BackgroundImageFix" result="shape"/>
<feGaussianBlur stdDeviation="0.715204" result="effect1_foregroundBlur_182_24938"/>
</filter>
<filter id="filter5_f_182_24938" x="61.3072" y="58.8845" width="62.3856" height="57.8472" filterUnits="userSpaceOnUse" color-interpolation-filters="sRGB">
<feFlood flood-opacity="0" result="BackgroundImageFix"/>
<feBlend mode="normal" in="SourceGraphic" in2="BackgroundImageFix" result="shape"/>
<feGaussianBlur stdDeviation="0.543579" result="effect1_foregroundBlur_182_24938"/>
</filter>
</defs>
</svg>
