<svg width="66" height="33" viewBox="0 0 66 33" fill="none" xmlns="http://www.w3.org/2000/svg">
<g id="yes">
<path d="M23.15 5.98039C22.6155 6.72862 21.7371 7.81608 20.5146 9.24278L18.528 11.6885C18.3466 11.884 18.2238 12.0319 18.1596 12.1324C18.3426 12.6879 18.4131 13.1646 18.3713 13.5624C18.3156 14.0928 18.0721 14.4962 17.6408 14.7727L17.4733 14.8355C17.3924 15.0951 17.2787 15.2843 17.1321 15.403C16.6953 15.7324 16.1349 15.8344 15.4509 15.7089L14.2683 17.3945C12.8867 19.314 11.5673 21.2801 10.31 23.2931C10.0909 23.5918 9.913 23.8815 9.77625 24.162C9.23063 25.0164 8.75756 25.6906 8.35705 26.1848C7.76953 26.9274 7.168 27.2932 6.55245 27.2822C6.41985 27.2682 6.35912 27.2082 6.37027 27.1021C6.14696 27.1859 5.87618 27.2111 5.55793 27.1776C5.05404 27.1247 4.61992 26.9182 4.25556 26.5581C3.89398 26.1715 3.73968 25.7263 3.79264 25.2224C3.801 25.1428 3.84564 24.9732 3.92655 24.7136C4.10097 24.3297 4.53493 23.5173 5.22845 22.2763L6.93019 19.4789C6.81709 19.2793 6.76194 19.1663 6.76473 19.1397C6.28609 19.867 5.86745 20.5336 5.50883 21.1394C4.82925 22.2478 4.19084 23.3471 3.59361 24.4373C3.63264 24.066 3.67935 23.7492 3.73374 23.4867C3.79092 23.1978 3.84253 22.9619 3.88856 22.779C4.88209 20.9797 5.78423 19.4121 6.59497 18.0762L6.6117 17.917C6.64236 17.6253 6.76724 17.3301 6.98633 17.0314L8.04763 15.7352L8.14392 15.5844L10.189 12.5818C9.78696 12.325 9.33746 12.0096 8.8405 11.6356C7.99455 11.0104 7.37474 10.5297 6.98107 10.1933L4.66936 8.46223C4.52138 8.33942 4.40901 8.26057 4.33223 8.22569C4.07818 8.09173 3.7264 7.86707 3.27691 7.55169C3.07868 7.39678 2.75203 7.18816 2.29696 6.92583L2.2027 6.6746L2.05194 6.57831C1.36232 5.99637 0.851385 5.50025 0.519121 5.08993C0.186857 4.67962 0.0897735 4.20018 0.227871 3.65161C0.305999 3.4185 0.375765 3.26495 0.437169 3.19096C0.268249 3.01233 0.200514 2.76389 0.233963 2.44564C0.270199 2.10087 0.397864 1.77912 0.616957 1.48039C0.836051 1.18165 1.06773 1.01831 1.31199 0.990352C1.52973 0.959611 1.67838 0.948422 1.75794 0.956784L2.03641 0.986052C2.5403 1.03901 3.19427 1.32226 3.99833 1.83578C5.72368 2.7679 6.98839 3.49073 7.79245 4.00426C9.95615 5.35784 11.803 6.66471 13.333 7.92488L14.4508 6.47377L16.4855 3.95264C16.579 3.8284 16.8274 3.50593 17.2307 2.98524C17.6605 2.46733 18.0938 2.04363 18.5307 1.71416C18.56 1.69042 18.6144 1.68274 18.694 1.6911C18.8531 1.70783 18.9403 1.77062 18.9557 1.87949C19.112 1.92274 19.223 2.01484 19.2886 2.15581C19.3808 2.29956 19.3669 2.43216 19.2468 2.55362C17.4829 4.54011 16.028 6.26415 14.8823 7.72573C14.7302 7.89744 14.5257 8.18431 14.269 8.58634C14.269 8.58634 14.2543 8.5982 14.225 8.62194C14.2543 8.5982 14.3534 8.67566 14.5224 8.85429L15.3073 7.89107L16.6491 6.22218L17.1578 5.5919C17.8039 4.80178 18.3698 4.13729 18.8555 3.59843C19.3676 3.06237 19.9259 2.59818 20.5302 2.20586C20.7061 2.06346 20.8708 2.02715 21.0243 2.09691C21.3537 2.02428 21.6112 1.99772 21.7969 2.01723C22.4068 2.08134 22.9017 2.34786 23.2814 2.81679C23.6374 3.25641 23.7848 3.76795 23.7234 4.3514C23.6761 4.80225 23.5296 5.17565 23.2839 5.4716L23.3028 5.67468C23.2945 5.75424 23.2435 5.85614 23.15 5.98039Z" fill="#888888"/>
<path d="M23.2191 7.83778C24.4794 7.32672 25.8095 6.91684 27.2094 6.60815C28.6122 6.27294 30.1991 5.9705 31.9704 5.70083L32.9104 5.55831C35.1297 5.36255 36.8137 5.28482 37.9625 5.32512C38.2039 5.32368 38.5634 5.34805 39.0407 5.39823C37.1606 5.68326 35.5555 5.90336 34.2253 6.0585C32.3801 6.26676 30.8441 6.4673 29.6172 6.66011C28.3931 6.82641 27.1767 7.04713 25.968 7.32229C25.1473 7.47736 24.2226 7.72875 23.194 8.07646C23.1702 8.04715 23.1612 8.00598 23.1667 7.95294C23.1723 7.8999 23.1898 7.86151 23.2191 7.83778ZM43.8344 26.3742C43.7563 26.6073 43.6097 26.726 43.3948 26.7302C40.2306 26.9875 37.2457 27.4514 34.4403 28.1218C32.57 28.5688 31.1777 28.9319 30.2635 29.2112L30.2237 29.207L29.9327 29.2971L28.5614 29.7161L28.5175 29.7517C28.2914 29.862 27.8224 29.987 27.1106 30.1266C26.4225 30.2956 25.9563 30.3941 25.712 30.4221L25.31 30.4201C25.2012 30.4354 25.0274 30.4306 24.7887 30.4055C24.2318 30.3469 23.8695 30.0944 23.7019 29.6477C23.6391 29.4802 23.6454 29.2932 23.7207 29.0866C23.3396 28.8857 23.036 28.5856 22.8098 28.1865C22.5864 27.7608 22.497 27.3358 22.5416 26.9115C22.5695 26.6462 22.6169 26.4501 22.6839 26.3231C22.6265 25.5931 22.6229 24.48 22.6729 22.9837L22.6853 22.1001L22.7097 17.2762L22.709 12.691C22.3348 12.1691 22.1812 11.5898 22.2481 10.9533C22.3428 10.0516 22.7496 9.37043 23.4684 8.90971L23.6609 8.60819C24.437 8.36799 25.3191 8.13894 26.3073 7.92104C28.313 7.46151 31.064 7.0535 34.5604 6.69702C35.9995 6.52651 38.1371 6.21491 40.9733 5.76223C41.339 5.85429 41.5986 5.93521 41.7522 6.00497L42.3636 6.31055L42.9457 6.89461C43.091 7.5534 43.1371 8.13474 43.0842 8.63863C43.0647 8.82428 43.0117 9.07343 42.9252 9.38611L40.8734 9.77376C39.8029 10.0098 38.8733 10.1803 38.0847 10.2851C37.973 10.327 37.8907 10.3451 37.8376 10.3395C36.608 10.5589 35.2548 10.8054 33.7781 11.0793C32.3014 11.3531 31.4514 11.5319 31.228 11.6156C29.8281 11.9243 28.5182 12.2693 27.2983 12.6505L27.2104 12.7217L27.2294 13.689L27.2756 14.7798C30.5472 13.7562 32.8711 13.0754 34.2473 12.7374C35.3625 12.5865 36.685 12.3769 38.2148 12.1087L38.7445 12.0437C39.0948 12.0269 39.5645 12.0226 40.1535 12.0309C40.7663 12.0685 41.2646 12.1745 41.6485 12.3489C42.0617 12.4996 42.3653 12.7996 42.5594 13.249L42.6851 13.584C42.7688 13.8073 42.8184 13.9734 42.8338 14.0823L42.9092 14.1304C43.1102 14.2588 43.2631 14.4626 43.3678 14.7417C43.4753 14.9943 43.5151 15.2532 43.4872 15.5185C43.451 15.8632 43.3101 16.1836 43.0645 16.4795C42.8482 16.7517 42.5725 16.9507 42.2376 17.0764C41.9026 17.202 41.5467 17.2719 41.1698 17.2859C40.7929 17.2999 40.5647 17.3027 40.4852 17.2944C40.0553 17.3028 39.7447 17.3238 39.5535 17.3573C38.5024 17.4078 37.5135 17.5049 36.5868 17.6488C34.4038 18.0093 32.4539 18.4479 30.7372 18.9646C30.0993 19.1657 28.9297 19.579 27.2283 20.2046L27.1952 22.8155L27.1785 22.9746L27.3062 22.9076C27.9176 22.7037 28.8318 22.4244 30.0488 22.0696L33.5682 21.1123C34.3973 20.8776 35.0177 20.7149 35.4294 20.6242C36.7526 20.2806 37.7435 20.0362 38.4023 19.8909L40.004 19.5766C40.2217 19.5458 40.4408 19.5018 40.6614 19.4446C40.8847 19.3608 41.1052 19.3035 41.323 19.2728C41.6468 19.2532 41.8882 19.2518 42.0474 19.2685C43.1347 19.3828 43.8613 19.9954 44.2272 21.1064C44.6224 22.1937 44.8005 23.4324 44.7617 24.8226C44.7157 25.515 44.4066 26.0322 43.8344 26.3742ZM31.273 17.6936C29.9875 17.9339 29.1947 18.0785 28.8946 18.1274C28.7676 18.5699 28.5165 18.9189 28.141 19.1744C29.2311 18.7527 30.908 18.2318 33.1719 17.6117L34.4155 17.2597L35.1211 17.0524L35.0938 16.9288L31.273 17.6936ZM24.8556 29.769C24.9854 29.8094 25.1829 29.8436 25.4481 29.8715C26.0316 29.9328 26.3791 29.9425 26.4908 29.9006C26.5438 29.9062 26.585 29.8971 26.6143 29.8734L29.5097 28.7298L29.5181 28.6502C28.5243 28.9212 27.7671 29.1097 27.2465 29.2159C27.0553 29.2494 26.7112 29.3339 26.2144 29.4694C25.7175 29.6048 25.2645 29.7047 24.8556 29.769Z" fill="#888888"/>
<path d="M64.5222 18.8153C64.5153 19.1363 64.5307 19.4999 64.5685 19.9061C64.6062 20.3123 64.6286 20.6096 64.6356 20.798C64.6873 21.0716 64.6196 21.3326 64.4326 21.5811C64.275 21.8058 64.0593 21.944 63.7858 21.9957C63.6769 22.0111 63.5296 22.009 63.344 21.9895C62.0975 21.8585 61.4308 20.4209 61.3438 17.6768L61.2684 17.6287C60.3721 15.9524 58.9014 14.5108 56.8563 13.3038C55.896 12.747 54.8979 12.2935 53.8622 11.9433L55.3301 13.6662C56.6619 15.281 57.7746 16.6849 58.6681 17.8782C60.1731 19.8865 61.1678 21.2647 61.6523 22.0128C62.342 23.1042 62.7413 24.1517 62.8504 25.1552C63.1353 26.0164 63.2359 26.8448 63.1523 27.6404C63.1188 27.9587 63.0819 28.1827 63.0414 28.3125C62.9285 29.1319 62.5706 29.8584 61.9677 30.4922C61.3913 31.1288 60.6712 31.6028 59.8072 31.9142C58.9698 32.2284 58.1239 32.3674 57.2697 32.3312L57.1504 32.3187C56.6144 32.316 56.2005 32.2993 55.9088 32.2686C54.9541 32.1683 54 31.9339 53.0466 31.5656C52.1909 31.288 51.405 30.8568 50.6889 30.2721C50.4196 31.0482 50.0401 31.5982 49.5502 31.9221C49.3157 32.1119 49.0659 32.1929 48.8007 32.1651C48.5355 32.1372 48.3079 32.006 48.1181 31.7715C47.6434 31.1854 47.3893 30.542 47.3557 29.8413C47.1686 29.5803 47.059 29.2202 47.0268 28.761C47.0167 26.5612 46.8251 24.3021 46.452 21.9838C46.3263 21.1393 46.2465 19.8573 46.2128 18.1377C46.1498 16.9513 46.142 16.1326 46.1893 15.6818C46.2284 15.3105 46.3058 14.9567 46.4216 14.6203C46.5402 14.2573 46.762 13.9321 47.0872 13.6445C47.4124 13.3569 47.7634 13.2061 48.1403 13.1921C48.6497 13.192 49.0657 13.3162 49.3882 13.5646C49.74 13.7892 49.9717 14.1354 50.0835 14.6029C50.265 15.4264 50.423 16.7301 50.5572 18.5139C50.665 20.2949 50.8474 21.7486 51.1044 22.875C51.4326 24.0893 51.855 25.0453 52.3715 25.7431C52.8699 26.3586 53.2657 26.8024 53.5589 27.0745C53.9692 27.2517 54.4369 27.3947 54.9617 27.5035C55.2506 27.5607 55.6736 27.6186 56.2305 27.6771C56.7874 27.7356 57.2132 27.767 57.5077 27.7711C58.3912 27.7835 58.9558 27.6418 59.2014 27.3458C59.2893 27.2746 59.3417 27.1595 59.3584 27.0003C59.5244 26.696 59.4713 26.181 59.199 25.4552C59.1809 25.3729 59.1508 25.2759 59.1089 25.1642C59.067 25.0526 59.0266 24.9276 58.9874 24.7895C58.7822 24.4461 58.4478 23.9283 57.9843 23.2361C56.8228 21.532 55.687 19.9647 54.5771 18.5342C54.2742 18.1001 53.7904 17.4728 53.1259 16.6522L52.5794 16.1121C50.7604 14.2853 49.2547 12.411 48.0624 10.4891C47.7468 9.9197 47.5053 9.41167 47.3377 8.96504C47.1729 8.49189 47.1156 8.01663 47.1658 7.53926C47.2467 6.77016 47.5655 6.16015 48.1224 5.70922C48.7057 5.26108 49.3687 5.07603 50.1113 5.15408C50.8539 5.23212 51.7744 5.52998 52.873 6.04765L53.0761 6.02878C53.1291 6.03435 53.2589 6.07481 53.4655 6.15015C55.5733 7.01521 57.4662 8.13923 59.1442 9.5222C60.1325 10.3232 60.9157 11.0357 61.4936 11.6595L61.6716 11.8793C61.7664 10.9776 61.8242 10.2999 61.8451 9.8463C61.9008 9.31589 62.1339 8.88455 62.5442 8.55228C62.9838 8.19629 63.4688 8.04616 63.9992 8.10191C64.5562 8.16045 64.9875 8.39348 65.2932 8.801C65.599 9.20853 65.7491 9.69354 65.7436 10.256C65.7409 10.792 65.7242 11.2059 65.6936 11.4976C65.6267 12.1341 65.4468 13.0805 65.1538 14.3368L64.8275 15.9113L64.633 17.379L64.5222 18.8153Z" fill="#888888"/>
</g>
</svg>
