<svg width="66" height="44" viewBox="0 0 66 44" fill="none" xmlns="http://www.w3.org/2000/svg">
<g id="=D">
<path d="M3.90729 11.8889C4.35922 11.6571 4.86161 11.5163 5.41448 11.4665C5.96734 11.4167 6.55859 11.3931 7.18821 11.3959C7.85905 11.4043 8.38279 11.4134 8.75943 11.4233C9.51838 11.4019 10.6511 11.4109 12.1577 11.4505C13.0758 11.4929 13.8085 11.5099 14.3557 11.5013L19.6258 11.6603L22.2566 11.7707L23.007 11.8111C23.5016 11.8792 24.3146 12.0752 25.446 12.3991C26.2476 12.6775 26.8624 13.2452 27.2904 14.1022C27.7595 14.9648 27.9373 15.8083 27.8238 16.6326C27.7045 17.4982 27.3024 18.2828 26.6175 18.9865C25.9795 19.6546 25.2369 20.0143 24.3898 20.0656C23.3722 20.1354 22.1215 20.0681 20.6377 19.8637C19.3599 19.6876 17.9876 19.4356 16.5208 19.1075C15.0952 18.7851 14.1998 18.5778 13.8345 18.4855C11.5377 18.085 9.84135 17.7464 8.74551 17.4694L6.18286 16.8644C5.98245 16.7947 5.70244 16.6932 5.34284 16.5596C4.98324 16.4261 4.69755 16.3657 4.48578 16.3786C3.98549 16.3516 3.53136 16.1421 3.12339 15.7499C2.7211 15.3165 2.48936 14.8645 2.42817 14.3941C2.40966 14.2235 2.42028 13.994 2.46003 13.7055C2.56792 12.9224 3.05034 12.3168 3.90729 11.8889ZM23.692 28.7894C21.7449 28.8992 19.844 28.8263 17.9892 28.5708L8.01803 27.3232C5.87471 27.0279 4.09877 26.6572 2.69022 26.2112C2.04777 25.9967 1.57514 25.6166 1.27232 25.0709C0.969496 24.5251 0.863511 23.9225 0.954363 23.2631C1.05089 22.5624 1.32155 21.9696 1.76632 21.4849C2.21678 20.959 2.7831 20.659 3.4653 20.585C4.61793 20.4498 6.48335 20.4757 9.06156 20.6629C9.7324 20.6713 10.7742 20.7309 12.187 20.8415L13.8115 20.9393L16.6192 21.1371C18.7028 21.2561 20.2393 21.3838 21.2285 21.5201C21.8055 21.5996 22.6242 21.7543 23.6845 21.9844C24.6624 22.2031 25.4179 22.6642 25.951 23.3676C26.5253 24.0768 26.7471 24.9053 26.6165 25.8533C26.5143 26.5952 26.1705 27.2619 25.585 27.8532C25.0408 28.4502 24.4098 28.7623 23.692 28.7894Z" fill="#888888"/>
<path d="M64.4665 39.3206C63.7546 40.5245 62.6562 41.4862 61.171 42.2056C59.7328 42.8895 58.2257 43.3119 56.6495 43.4727C54.9909 43.6222 53.3578 43.5863 51.7504 43.3648C50.4314 43.1831 48.8232 42.8145 46.9257 42.2591C45.3523 41.7904 43.8698 41.2712 42.4783 40.7015C42.1046 41.28 41.6619 41.597 41.1502 41.6525L40.9029 41.6184C40.7381 41.5957 40.5377 41.5261 40.3017 41.4096C39.9734 41.6584 39.6238 41.7572 39.2529 41.7061C38.2935 41.658 37.5537 41.388 37.0334 40.8964C36.4364 40.3521 36.0277 39.8128 35.8073 39.2785C35.5869 38.7441 35.4511 38.0534 35.3998 37.2063C33.4524 36.0981 31.6373 34.945 29.9543 33.7471C29.4227 33.3379 29.0317 32.8221 28.7815 32.1996C28.5313 31.5771 28.4516 30.9361 28.5424 30.2766C28.6333 29.6172 28.9068 29.0038 29.3629 28.4367C29.7721 27.905 30.288 27.5141 30.9105 27.2639C31.5741 27.0193 32.2357 26.9424 32.8952 27.0333C33.5135 27.1185 34.0884 27.3657 34.6201 27.7749L34.8418 27.9945C34.8374 27.1118 34.7925 26.3707 34.7071 25.7709C34.4363 21.0296 33.9832 13.9532 33.3477 4.54163L33.1941 3.82747C33.1699 3.69814 33.1749 3.50982 33.2089 3.26251C33.2771 2.7679 33.4987 2.37843 33.8739 2.09412C34.2547 1.76859 34.6981 1.59867 35.2041 1.58437C35.6276 1.55872 35.9218 1.55725 36.0867 1.57996C36.3837 0.948869 37.0082 0.530912 37.9604 0.326093C38.9127 0.121272 39.8422 0.0813213 40.749 0.206242C42.6862 0.473119 44.3492 1.20622 45.738 2.40554C47.1324 3.56364 48.6855 5.24759 50.397 7.45737C53.9382 11.9352 56.6278 15.5817 58.466 18.397C59.5208 19.8863 60.3688 21.2001 61.01 22.3384C62.4942 24.9789 63.5947 27.3565 64.3114 29.4712C65.3081 32.2966 65.6759 34.6572 65.4147 36.5532C65.2841 37.5012 64.968 38.4237 64.4665 39.3206ZM34.6426 9.31901C34.6241 9.14846 34.526 8.94595 34.3483 8.71147C34.1706 8.47699 34.0974 8.55091 34.1287 8.93322L34.669 14.6147C34.9937 18.3554 35.2357 20.8667 35.3951 22.1487L36.1531 28.9941L37.1808 29.7657C36.8792 28.2961 36.6943 27.1997 36.626 26.4762C36.4737 25.4473 36.3357 24.3153 36.2118 23.0802C36.0936 21.8039 35.9698 20.5688 35.8402 19.375L34.6426 9.31901ZM58.2593 31.7875C57.2839 29.7211 56.529 28.1891 55.9944 27.1915C54.3794 24.281 52.5924 21.7038 50.6335 19.46C48.6561 17.0455 46.3384 14.8152 43.6803 12.7691L42.5908 11.989C42.8956 16.483 43.1339 21.7658 43.3054 27.8374L43.5281 33.5381C45.646 34.6279 47.5449 35.4775 49.225 36.0869C50.581 36.6097 51.895 36.9797 53.167 37.197C53.8678 37.2935 54.5095 37.3609 55.0922 37.3992C55.7161 37.4431 56.328 37.4224 56.9277 37.3371C58.1216 37.2075 59.0411 36.9352 59.6863 36.5201C59.672 36.0141 59.4857 35.2324 59.1273 34.1751C58.715 32.9003 58.4256 32.1044 58.2593 31.7875Z" fill="#888888"/>
</g>
</svg>
