<svg width="60" height="32" viewBox="0 0 60 32" fill="none" xmlns="http://www.w3.org/2000/svg">
<g id="our">
<path d="M14.5883 13.2289C15.0584 14.8956 15.3743 16.498 15.5359 18.0362C15.5945 18.5931 15.632 19.4606 15.6486 20.6387C15.6581 22.0051 15.5861 23.2327 15.4324 24.3214C15.2787 25.4101 14.9547 26.4095 14.4604 27.3195C14.0527 28.0326 13.6192 28.6279 13.1599 29.1052C12.448 29.9844 11.5699 30.5593 10.5258 30.83L9.89349 30.9366L9.21304 30.9679C8.90037 31.0544 8.67773 31.1046 8.54513 31.1186C7.40474 31.2384 6.30211 30.9521 5.23722 30.2597C3.55966 29.0953 2.31701 27.0942 1.50929 24.2564C1.15497 22.9262 0.912304 21.6378 0.781295 20.3914C0.360393 16.3868 0.946517 12.6517 2.53967 9.18618C2.53967 9.18618 2.5634 9.15687 2.61087 9.09825C2.89718 7.99562 3.32724 6.98513 3.90106 6.06678C3.922 6.01096 3.94713 5.99491 3.97644 6.01864C4.00296 6.01585 4.00575 6.04238 3.9848 6.09821C3.7223 6.66207 3.55195 7.08217 3.47374 7.35853C3.3718 7.66419 3.24541 8.1199 3.09457 8.72565C3.14482 8.69356 3.19786 8.68798 3.25369 8.70893C3.33325 8.70056 3.38629 8.69499 3.41282 8.6922C4.02446 6.85822 4.88794 5.76196 6.00323 5.40341C6.61464 5.09783 7.12064 4.93739 7.52124 4.9221C7.83391 4.83561 8.06981 4.78401 8.22893 4.76728C8.62674 4.72547 8.96661 4.77019 9.24854 4.90144C9.64492 5.1011 10.0957 5.56318 10.6009 6.28768C10.6511 6.25558 10.7425 6.23256 10.8751 6.21863C11.1403 6.19075 11.3651 6.2878 11.5493 6.50976C12.4103 7.81357 13.0312 8.87447 13.4121 9.69247C13.8042 10.6165 14.1963 11.7954 14.5883 13.2289ZM10.8324 25.3278C11.2639 23.5664 11.3654 21.5983 11.1369 19.4236L10.9486 18.3977C10.5609 16.2397 10.2157 14.6135 9.91298 13.5192L9.41077 11.8023C8.99217 10.881 8.66636 10.2047 8.43333 9.77334C8.17099 9.31827 8.00773 9.04048 7.94353 8.93997L7.77605 8.87714L7.57714 8.89804C7.44868 9.20649 7.32368 9.67546 7.20215 10.3049C6.89203 11.9464 6.71522 13.4531 6.67174 14.8252C6.6492 16.1414 6.70761 17.4625 6.84698 18.7885C7.03374 20.5654 7.34195 22.2223 7.77162 23.7591C7.8065 23.8359 7.8337 23.9671 7.85321 24.1528C7.88108 24.418 7.84265 24.6901 7.73793 24.9693C7.02362 22.7652 6.56055 20.6554 6.34871 18.6398C5.98077 15.1391 6.30161 11.9414 7.31122 9.04665C7.18698 9.14015 7.02782 9.41161 6.83373 9.86102C6.26541 11.3419 5.90085 12.9756 5.74005 14.7622L5.67721 14.9297C5.63524 15.5508 5.62533 16.4769 5.64747 17.708C5.80898 20.2651 6.35432 22.9026 7.28349 25.6203C7.16204 25.7404 7.02314 25.822 6.86681 25.8652C6.79003 25.9001 6.65882 25.9273 6.47318 25.9468C6.12841 25.9831 5.78715 25.9251 5.44939 25.7729C5.84011 26.429 6.32716 26.9811 6.91053 27.4292C7.51764 27.8481 8.1527 28.0226 8.81571 27.953C9.08092 27.9251 9.29029 27.8763 9.44384 27.8065C9.87797 27.6 10.2025 27.2441 10.4176 26.7389C10.6298 26.2071 10.7681 25.7367 10.8324 25.3278Z" fill="#888888"/>
<path d="M36.4171 20.4266C35.9463 22.8357 35.1239 24.7052 33.9498 26.0352L33.6964 26.3032C33.2036 26.9717 32.6675 27.4839 32.0882 27.8397C31.3191 28.43 30.4438 28.7767 29.4626 28.8799C28.4283 28.9886 27.3675 28.8453 26.2802 28.4501C25.1902 28.0284 24.2439 27.4442 23.4415 26.6973C22.6976 25.9979 22.0501 25.1945 21.4989 24.2871C21.2365 24.3415 20.9803 24.3282 20.7305 24.2472C20.4779 24.1397 20.2832 23.9457 20.1465 23.6651C18.6994 20.8677 17.8059 17.8512 17.4658 14.6157C17.2512 12.5736 17.2788 10.4122 17.5485 8.13155C17.6701 6.9926 17.9809 5.99465 18.4807 5.13771C19.0043 4.25146 19.7434 3.75816 20.6981 3.65782C21.2816 3.59649 21.8287 3.69987 22.3396 3.96794C22.8504 4.23601 23.2383 4.61085 23.5035 5.09244C23.6402 5.37301 23.7267 5.68569 23.7629 6.03045C23.802 6.40174 23.7782 6.94052 23.6915 7.64678C23.6789 7.78217 23.6614 7.99851 23.6391 8.29581C23.6139 8.5666 23.6125 8.80807 23.6348 9.02023C23.6403 9.58274 23.7015 10.4209 23.8186 11.5348C23.9106 12.41 23.9935 13.0716 24.0674 13.5197C24.5597 16.4174 25.5349 19.318 26.9931 22.2215C27.6825 22.6585 28.3336 22.8582 28.9464 22.8206C29.6988 22.5807 30.3283 22.1927 30.8351 21.6568C31.1269 21.1167 31.2882 20.483 31.319 19.7558C31.3471 19.0021 31.3409 18.3056 31.3005 17.6663C31.2601 17.027 31.2274 16.588 31.2023 16.3494C31.1426 14.5055 30.9775 12.2973 30.7072 9.72482L30.2367 5.63158C30.1893 5.18073 30.3227 4.79132 30.6368 4.46336C30.9481 4.10887 31.3159 3.90933 31.7403 3.86473C31.9524 3.84243 32.1981 3.88365 32.4772 3.98838L32.4354 3.59057C32.4131 3.3784 32.4732 3.1844 32.6156 3.00855C32.7552 2.80618 32.9325 2.70711 33.1474 2.71133C33.9514 2.70727 34.5062 3.01094 34.8118 3.62235C35.1411 4.20445 35.4013 5.02173 35.5923 6.07419C35.69 6.49294 35.7499 6.8084 35.7722 7.02057C35.9675 7.85808 36.0874 8.489 36.132 8.91332L36.2993 10.5046C36.376 10.9791 36.4645 11.6938 36.5649 12.6485C36.8687 15.5393 36.8194 18.132 36.4171 20.4266ZM23.3293 7.64463C23.279 7.67672 23.2274 7.69556 23.1744 7.70113C23.145 7.6774 23.1143 7.6404 23.0822 7.59015C23.0263 8.07867 22.9565 8.43459 22.8727 8.6579C22.8432 9.6531 22.9024 10.8535 23.0501 12.2591C23.2174 13.8503 23.5074 15.3348 23.9204 16.7125C24.018 17.1313 24.1771 17.624 24.3975 18.1907C24.4506 18.1852 24.4917 18.1942 24.521 18.218C23.9672 16.2652 23.6011 14.4401 23.4227 12.7428C23.2527 11.125 23.2215 9.42565 23.3293 7.64463Z" fill="#888888"/>
<path d="M59.3791 11.2964C59.3916 11.6705 59.2541 12.0201 58.9665 12.3453C58.6789 12.6705 58.3732 12.8232 58.0494 12.8037C56.7946 12.8551 54.9095 12.9057 52.3943 12.9556C53.6517 14.4591 54.7792 16.003 55.777 17.5874C55.9081 17.8149 56.2333 18.3572 56.7524 19.2143C57.298 20.0687 57.7334 20.8943 58.0585 21.6914C58.3836 22.4884 58.5837 23.245 58.659 23.9611C58.6952 24.3058 58.7085 24.5592 58.6987 24.7211C58.7028 25.0156 58.6071 25.2536 58.4117 25.435C58.2163 25.6164 57.9727 25.7224 57.681 25.7531C57.4953 25.7726 57.2922 25.7537 57.0717 25.6965L56.7178 25.7739C56.4526 25.8018 56.2084 25.7738 55.9851 25.69C55.932 25.6956 55.9041 25.6851 55.9013 25.6586C55.8273 25.72 55.7387 25.7695 55.6354 25.8072C55.5586 25.8421 55.4791 25.8505 55.3967 25.8323C54.6865 24.4322 53.7223 22.6566 52.5041 20.5055C51.0794 17.9202 50.1437 16.2891 49.6972 15.6121C49.4349 15.157 49.1795 14.7682 48.9311 14.4458L48.9269 14.406L48.1336 13.3632L44.9741 13.5344C45.3954 15.5011 45.7322 17.3025 45.9845 18.9384L46.2188 20.4019C46.4754 21.8229 46.64 22.8781 46.7124 23.5677C46.771 24.1246 46.8023 24.5503 46.8064 24.8448C46.8497 25.0012 46.8866 25.2252 46.9173 25.5169C46.7051 26.0487 46.4419 26.4785 46.1278 26.8065C45.8849 27.0465 45.6043 27.1833 45.286 27.2167C44.9148 27.2558 44.5958 27.1552 44.3293 26.9151C44.1744 26.7169 44.0725 26.5131 44.0237 26.3037L43.9043 26.3162C43.7452 26.333 43.5938 26.2952 43.45 26.2031C43.33 26.0816 43.2602 25.9281 43.2407 25.7425C43.0873 25.3028 42.9757 24.7514 42.906 24.0884C42.8586 23.6375 42.8105 23.3074 42.7617 23.098L42.1277 20.5101L40.5834 15.0014L40.1984 13.6341L39.9597 13.6592C39.943 13.5001 39.8537 13.4156 39.6918 13.4058C39.3917 13.3569 38.9388 13.2571 38.333 13.1062L39.2354 12.8907C38.8209 12.7734 38.4008 12.6031 37.9751 12.3797C37.5229 12.1591 37.2675 11.7703 37.209 11.2134C37.1672 10.8155 37.237 10.4596 37.4185 10.1456C37.6265 9.82879 37.9029 9.65226 38.2477 9.61603C38.404 9.57278 38.6413 9.53443 38.9596 9.50098C38.3234 7.53002 37.8881 6.19487 37.6537 5.49554C37.9706 5.1941 38.2184 4.8731 38.3972 4.53256C38.0803 4.32453 37.8257 4.06976 37.6331 3.76824C37.4377 3.44019 37.3219 3.10379 37.2857 2.75902C37.2522 2.44077 37.2774 2.16999 37.3612 1.94668C37.6363 1.24743 38.3307 0.839267 39.4446 0.722195C39.975 0.666447 40.7406 0.679827 41.7414 0.762335C41.874 0.748398 41.9989 0.788896 42.1161 0.883829L42.985 1.11427L43.1085 1.14151C45.1086 1.548 47.0382 2.17641 48.8973 3.02674C50.7536 3.85056 53.1304 5.03527 56.0279 6.58087C56.3154 6.76516 56.5317 7.03737 56.6768 7.39751L58.4374 8.45929C59.0096 8.80135 59.332 9.31715 59.4044 10.0067L59.4107 10.4485L59.3791 11.2964ZM42.7287 6.32963C42.7999 6.2417 42.9018 6.19077 43.0344 6.17684C43.2201 6.15732 43.3359 6.239 43.382 6.42185C43.7642 7.50784 44.0377 8.32373 44.2023 8.86951L44.8472 8.88218C44.8751 8.63792 44.9735 8.42647 45.1425 8.24783C45.3379 8.06641 45.6213 7.95619 45.9926 7.91716C46.3904 7.87535 46.8007 7.95288 47.2236 8.14976C47.673 8.34384 48.1573 8.6147 48.6765 8.96234L52.5854 9.03414C48.8604 7.01244 45.4764 5.81292 42.4337 5.43557L42.6199 6.05952L42.7287 6.32963ZM47.1816 22.6737C47.1216 22.3583 46.9382 21.2514 46.6314 19.353C46.3484 17.4254 45.9823 15.6003 45.5331 13.8778L45.8513 13.8444C46.2782 15.3547 46.7915 17.6872 47.3912 20.8418L47.4937 21.4343C47.5272 21.7525 47.5313 22.0471 47.5061 22.3178C47.481 22.5886 47.4593 22.7652 47.4411 22.8475C47.3685 23.1769 47.3301 23.4491 47.3259 23.6641L47.1816 22.6737Z" fill="#888888"/>
</g>
</svg>
