<svg width="32" height="32" viewBox="0 0 32 32" fill="none" xmlns="http://www.w3.org/2000/svg">
<g id="Frame">
<path id="Line 1" d="M6 15.2402C5.44772 15.2402 5 15.6879 5 16.2402C5 16.7925 5.44772 17.2402 6 17.2402V15.2402ZM26.7071 16.9473C27.0976 16.5568 27.0976 15.9237 26.7071 15.5331L20.3431 9.16917C19.9526 8.77864 19.3195 8.77864 18.9289 9.16917C18.5384 9.55969 18.5384 10.1929 18.9289 10.5834L24.5858 16.2402L18.9289 21.8971C18.5384 22.2876 18.5384 22.9208 18.9289 23.3113C19.3195 23.7018 19.9526 23.7018 20.3431 23.3113L26.7071 16.9473ZM6 17.2402H26V15.2402H6V17.2402Z" fill="white"/>
</g>
</svg>
