<svg width="185" height="182" viewBox="0 0 185 182" fill="none" xmlns="http://www.w3.org/2000/svg">
<rect x="0.549525" y="67.8552" width="79" height="79" rx="11.5" transform="rotate(-6 0.549525 67.8552)" fill="#151515" stroke="#252525"/>
<rect x="105.807" y="59.5984" width="79" height="79" rx="11.5" transform="rotate(6 105.807 59.5984)" fill="#151515" stroke="#252525"/>
<rect x="27.0758" y="34.1357" width="118.789" height="118.789" rx="27.1595" transform="rotate(-6 27.0758 34.1357)" fill="#151515"/>
<rect x="27.0758" y="34.1357" width="118.789" height="118.789" rx="27.1595" transform="rotate(-6 27.0758 34.1357)" stroke="#252525" stroke-width="1.21133"/>
<g style="mix-blend-mode:color-dodge" filter="url(#filter0_f_271_4071)">
<path d="M121.999 78.1997C122.001 77.9887 121.972 77.7787 121.914 77.5757L117.844 63.3363C117.57 62.3915 116.998 61.5605 116.214 60.9675C115.429 60.3744 114.473 60.0512 113.49 60.0459L71.5091 60.0459C70.5255 60.0512 69.57 60.3744 68.7852 60.9675C68.0005 61.5605 67.4286 62.3915 67.155 63.3363L63.0874 77.5757C63.0288 77.7785 62.9992 77.9886 62.9995 78.1997V82.7382C62.9995 84.4996 63.4096 86.2369 64.1974 87.8123C64.9851 89.3878 66.1288 90.7582 67.538 91.8151L67.538 109.969C67.538 111.173 68.0161 112.327 68.8673 113.178C69.7184 114.029 70.8728 114.507 72.0764 114.507L112.923 114.507C114.126 114.507 115.281 114.029 116.132 113.178C116.983 112.327 117.461 111.173 117.461 109.969L117.461 91.8151C118.87 90.7582 120.014 89.3878 120.802 87.8123C121.589 86.2369 121.999 84.4996 121.999 82.7382V78.1997ZM71.5091 64.5844L113.49 64.5844L116.729 75.9305L68.2783 75.9305L71.5091 64.5844ZM85.6918 80.469H99.3072V82.7382C99.3072 84.5437 98.5899 86.2753 97.3133 87.552C96.0366 88.8286 94.305 89.5459 92.4995 89.5459C90.694 89.5459 88.9624 88.8286 87.6857 87.552C86.409 86.2753 85.6918 84.5437 85.6918 82.7382L85.6918 80.469ZM81.1533 80.469L81.1533 82.7382C81.1533 84.5437 80.4361 86.2753 79.1594 87.552C77.8827 88.8286 76.1512 89.5459 74.3457 89.5459C72.5401 89.5459 70.8086 88.8286 69.5319 87.552C68.2552 86.2753 67.538 84.5437 67.538 82.7382V80.469H81.1533ZM112.923 109.969L72.0764 109.969L72.0764 93.8574C72.8235 94.008 73.5836 94.084 74.3457 94.0843C76.1071 94.0843 77.8443 93.6742 79.4198 92.8865C80.9953 92.0988 82.3657 90.955 83.4226 89.5459C84.4794 90.955 85.8499 92.0988 87.4253 92.8865C89.0008 93.6742 90.7381 94.0843 92.4995 94.0843C94.2609 94.0843 95.9982 93.6742 97.5736 92.8865C99.1491 92.0988 100.52 90.955 101.576 89.5459C102.633 90.955 104.004 92.0988 105.579 92.8865C107.155 93.6742 108.892 94.0843 110.653 94.0843C111.415 94.084 112.176 94.008 112.923 93.8574L112.923 109.969ZM110.653 89.5459C108.848 89.5459 107.116 88.8286 105.84 87.552C104.563 86.2753 103.846 84.5437 103.846 82.7382V80.469L117.461 80.469V82.7382C117.461 84.5437 116.744 86.2753 115.467 87.552C114.19 88.8286 112.459 89.5459 110.653 89.5459Z" stroke="#FF9E9E" stroke-width="10.8716" stroke-linecap="round" stroke-linejoin="round"/>
</g>
<g style="mix-blend-mode:color-dodge" filter="url(#filter1_f_271_4071)">
<path d="M121.999 78.1997C122.001 77.9887 121.972 77.7787 121.914 77.5757L117.844 63.3363C117.57 62.3915 116.998 61.5605 116.214 60.9675C115.429 60.3744 114.473 60.0512 113.49 60.0459L71.5091 60.0459C70.5255 60.0512 69.57 60.3744 68.7852 60.9675C68.0005 61.5605 67.4286 62.3915 67.155 63.3363L63.0874 77.5757C63.0288 77.7785 62.9992 77.9886 62.9995 78.1997V82.7382C62.9995 84.4996 63.4096 86.2369 64.1974 87.8123C64.9851 89.3878 66.1288 90.7582 67.538 91.8151L67.538 109.969C67.538 111.173 68.0161 112.327 68.8673 113.178C69.7184 114.029 70.8728 114.507 72.0764 114.507L112.923 114.507C114.126 114.507 115.281 114.029 116.132 113.178C116.983 112.327 117.461 111.173 117.461 109.969V91.8151C118.87 90.7582 120.014 89.3878 120.802 87.8123C121.589 86.2369 121.999 84.4996 121.999 82.7382V78.1997ZM71.5091 64.5844L113.49 64.5844L116.729 75.9305L68.2783 75.9305L71.5091 64.5844ZM85.6918 80.469L99.3072 80.469V82.7382C99.3072 84.5437 98.5899 86.2753 97.3133 87.552C96.0366 88.8286 94.305 89.5459 92.4995 89.5459C90.694 89.5459 88.9624 88.8286 87.6857 87.552C86.409 86.2753 85.6918 84.5437 85.6918 82.7382V80.469ZM81.1533 80.469V82.7382C81.1533 84.5437 80.4361 86.2753 79.1594 87.552C77.8827 88.8286 76.1512 89.5459 74.3457 89.5459C72.5401 89.5459 70.8086 88.8286 69.5319 87.552C68.2552 86.2753 67.538 84.5437 67.538 82.7382V80.469L81.1533 80.469ZM112.923 109.969L72.0764 109.969V93.8574C72.8235 94.008 73.5836 94.084 74.3457 94.0843C76.1071 94.0843 77.8443 93.6742 79.4198 92.8865C80.9953 92.0988 82.3657 90.955 83.4226 89.5459C84.4794 90.955 85.8499 92.0988 87.4253 92.8865C89.0008 93.6742 90.7381 94.0843 92.4995 94.0843C94.2609 94.0843 95.9982 93.6742 97.5736 92.8865C99.1491 92.0988 100.52 90.955 101.576 89.5459C102.633 90.955 104.004 92.0988 105.579 92.8865C107.155 93.6742 108.892 94.0843 110.653 94.0843C111.415 94.084 112.176 94.008 112.923 93.8574V109.969ZM110.653 89.5459C108.848 89.5459 107.116 88.8286 105.84 87.552C104.563 86.2753 103.846 84.5437 103.846 82.7382V80.469H117.461V82.7382C117.461 84.5437 116.744 86.2753 115.467 87.552C114.19 88.8286 112.459 89.5459 110.653 89.5459Z" fill="#B1280F"/>
<path d="M121.999 78.1997C122.001 77.9887 121.972 77.7787 121.914 77.5757L117.844 63.3363C117.57 62.3915 116.998 61.5605 116.214 60.9675C115.429 60.3744 114.473 60.0512 113.49 60.0459L71.5091 60.0459C70.5255 60.0512 69.57 60.3744 68.7852 60.9675C68.0005 61.5605 67.4286 62.3915 67.155 63.3363L63.0874 77.5757C63.0288 77.7785 62.9992 77.9886 62.9995 78.1997V82.7382C62.9995 84.4996 63.4096 86.2369 64.1974 87.8123C64.9851 89.3878 66.1288 90.7582 67.538 91.8151L67.538 109.969C67.538 111.173 68.0161 112.327 68.8673 113.178C69.7184 114.029 70.8728 114.507 72.0764 114.507L112.923 114.507C114.126 114.507 115.281 114.029 116.132 113.178C116.983 112.327 117.461 111.173 117.461 109.969V91.8151C118.87 90.7582 120.014 89.3878 120.802 87.8123C121.589 86.2369 121.999 84.4996 121.999 82.7382V78.1997ZM71.5091 64.5844L113.49 64.5844L116.729 75.9305L68.2783 75.9305L71.5091 64.5844ZM85.6918 80.469L99.3072 80.469V82.7382C99.3072 84.5437 98.5899 86.2753 97.3133 87.552C96.0366 88.8286 94.305 89.5459 92.4995 89.5459C90.694 89.5459 88.9624 88.8286 87.6857 87.552C86.409 86.2753 85.6918 84.5437 85.6918 82.7382V80.469ZM81.1533 80.469V82.7382C81.1533 84.5437 80.4361 86.2753 79.1594 87.552C77.8827 88.8286 76.1512 89.5459 74.3457 89.5459C72.5401 89.5459 70.8086 88.8286 69.5319 87.552C68.2552 86.2753 67.538 84.5437 67.538 82.7382V80.469L81.1533 80.469ZM112.923 109.969L72.0764 109.969V93.8574C72.8235 94.008 73.5836 94.084 74.3457 94.0843C76.1071 94.0843 77.8443 93.6742 79.4198 92.8865C80.9953 92.0988 82.3657 90.955 83.4226 89.5459C84.4794 90.955 85.8499 92.0988 87.4253 92.8865C89.0008 93.6742 90.7381 94.0843 92.4995 94.0843C94.2609 94.0843 95.9982 93.6742 97.5736 92.8865C99.1491 92.0988 100.52 90.955 101.576 89.5459C102.633 90.955 104.004 92.0988 105.579 92.8865C107.155 93.6742 108.892 94.0843 110.653 94.0843C111.415 94.084 112.176 94.008 112.923 93.8574V109.969ZM110.653 89.5459C108.848 89.5459 107.116 88.8286 105.84 87.552C104.563 86.2753 103.846 84.5437 103.846 82.7382V80.469H117.461V82.7382C117.461 84.5437 116.744 86.2753 115.467 87.552C114.19 88.8286 112.459 89.5459 110.653 89.5459Z" stroke="#B1280F" stroke-width="14.3041" stroke-linecap="round" stroke-linejoin="round"/>
</g>
<g style="mix-blend-mode:multiply" opacity="0.2" filter="url(#filter2_f_271_4071)">
<path d="M121.999 78.1997C122.001 77.9887 121.972 77.7787 121.914 77.5757L117.844 63.3363C117.57 62.3915 116.998 61.5605 116.214 60.9675C115.429 60.3744 114.473 60.0512 113.49 60.0459L71.5091 60.0459C70.5255 60.0512 69.57 60.3744 68.7852 60.9675C68.0005 61.5605 67.4286 62.3915 67.155 63.3363L63.0874 77.5757C63.0288 77.7785 62.9992 77.9886 62.9995 78.1997L62.9995 82.7382C62.9995 84.4996 63.4096 86.2369 64.1974 87.8123C64.9851 89.3878 66.1288 90.7582 67.538 91.8151L67.538 109.969C67.538 111.173 68.0161 112.327 68.8673 113.178C69.7184 114.029 70.8728 114.507 72.0764 114.507L112.923 114.507C114.126 114.507 115.281 114.029 116.132 113.178C116.983 112.327 117.461 111.173 117.461 109.969L117.461 91.8151C118.87 90.7582 120.014 89.3878 120.802 87.8123C121.589 86.2369 121.999 84.4996 121.999 82.7382L121.999 78.1997ZM71.5091 64.5844L113.49 64.5844L116.729 75.9305L68.2783 75.9305L71.5091 64.5844ZM85.6918 80.469H99.3072L99.3072 82.7382C99.3072 84.5437 98.5899 86.2753 97.3133 87.552C96.0366 88.8286 94.305 89.5459 92.4995 89.5459C90.694 89.5459 88.9624 88.8286 87.6857 87.552C86.409 86.2753 85.6918 84.5437 85.6918 82.7382L85.6918 80.469ZM81.1533 80.469L81.1533 82.7382C81.1533 84.5437 80.4361 86.2753 79.1594 87.552C77.8827 88.8286 76.1512 89.5459 74.3457 89.5459C72.5401 89.5459 70.8086 88.8286 69.5319 87.552C68.2552 86.2753 67.538 84.5437 67.538 82.7382V80.469L81.1533 80.469ZM112.923 109.969L72.0764 109.969L72.0764 93.8574C72.8235 94.008 73.5836 94.084 74.3457 94.0843C76.1071 94.0843 77.8443 93.6742 79.4198 92.8865C80.9953 92.0988 82.3657 90.955 83.4226 89.5459C84.4794 90.955 85.8499 92.0988 87.4253 92.8865C89.0008 93.6742 90.7381 94.0843 92.4995 94.0843C94.2609 94.0843 95.9982 93.6742 97.5736 92.8865C99.1491 92.0988 100.52 90.955 101.576 89.5459C102.633 90.955 104.004 92.0988 105.579 92.8865C107.155 93.6742 108.892 94.0843 110.653 94.0843C111.415 94.084 112.176 94.008 112.923 93.8574L112.923 109.969ZM110.653 89.5459C108.848 89.5459 107.116 88.8286 105.84 87.552C104.563 86.2753 103.846 84.5437 103.846 82.7382L103.846 80.469L117.461 80.469L117.461 82.7382C117.461 84.5437 116.744 86.2753 115.467 87.552C114.19 88.8286 112.459 89.5459 110.653 89.5459Z" stroke="#ED2A07" stroke-width="3.26147" stroke-linecap="round" stroke-linejoin="round"/>
</g>
<g style="mix-blend-mode:hard-light" filter="url(#filter3_dddii_271_4071)">
<path d="M121.999 78.1997C122.001 77.9887 121.972 77.7787 121.914 77.5757L117.844 63.3363C117.57 62.3915 116.998 61.5605 116.214 60.9675C115.429 60.3744 114.473 60.0512 113.49 60.0459L71.5091 60.0459C70.5255 60.0512 69.57 60.3744 68.7852 60.9675C68.0005 61.5605 67.4286 62.3915 67.155 63.3363L63.0874 77.5757C63.0288 77.7785 62.9992 77.9886 62.9995 78.1997L62.9995 82.7382C62.9995 84.4996 63.4096 86.2369 64.1974 87.8123C64.9851 89.3878 66.1288 90.7582 67.538 91.8151L67.538 109.969C67.538 111.173 68.0161 112.327 68.8673 113.178C69.7184 114.029 70.8728 114.507 72.0764 114.507L112.923 114.507C114.126 114.507 115.281 114.029 116.132 113.178C116.983 112.327 117.461 111.173 117.461 109.969L117.461 91.8151C118.87 90.7582 120.014 89.3878 120.802 87.8123C121.589 86.2369 121.999 84.4996 121.999 82.7382V78.1997ZM71.5091 64.5844L113.49 64.5844L116.729 75.9305L68.2783 75.9305L71.5091 64.5844ZM85.6918 80.469L99.3072 80.469V82.7382C99.3072 84.5437 98.5899 86.2753 97.3133 87.552C96.0366 88.8286 94.305 89.5459 92.4995 89.5459C90.694 89.5459 88.9624 88.8286 87.6857 87.552C86.409 86.2753 85.6918 84.5437 85.6918 82.7382V80.469ZM81.1533 80.469V82.7382C81.1533 84.5437 80.4361 86.2753 79.1594 87.552C77.8827 88.8286 76.1512 89.5459 74.3457 89.5459C72.5401 89.5459 70.8086 88.8286 69.5319 87.552C68.2552 86.2753 67.538 84.5437 67.538 82.7382V80.469L81.1533 80.469ZM112.923 109.969L72.0764 109.969L72.0764 93.8574C72.8235 94.008 73.5836 94.084 74.3457 94.0843C76.1071 94.0843 77.8443 93.6742 79.4198 92.8865C80.9953 92.0988 82.3657 90.955 83.4226 89.5459C84.4794 90.955 85.8499 92.0988 87.4253 92.8865C89.0008 93.6742 90.7381 94.0843 92.4995 94.0843C94.2609 94.0843 95.9982 93.6742 97.5736 92.8865C99.1491 92.0988 100.52 90.955 101.576 89.5459C102.633 90.955 104.004 92.0988 105.579 92.8865C107.155 93.6742 108.892 94.0843 110.653 94.0843C111.415 94.084 112.176 94.008 112.923 93.8574L112.923 109.969ZM110.653 89.5459C108.848 89.5459 107.116 88.8286 105.84 87.552C104.563 86.2753 103.846 84.5437 103.846 82.7382V80.469L117.461 80.469V82.7382C117.461 84.5437 116.744 86.2753 115.467 87.552C114.19 88.8286 112.459 89.5459 110.653 89.5459Z" stroke="#ED2A07" stroke-opacity="0.2" stroke-width="10.8716" stroke-linecap="round" stroke-linejoin="round"/>
</g>
<g filter="url(#filter4_f_271_4071)">
<path d="M121.999 78.1997C122.001 77.9887 121.972 77.7787 121.914 77.5757L117.844 63.3363C117.57 62.3915 116.998 61.5605 116.214 60.9675C115.429 60.3744 114.473 60.0512 113.49 60.0459L71.5091 60.0459C70.5255 60.0512 69.57 60.3744 68.7852 60.9675C68.0005 61.5605 67.4286 62.3915 67.155 63.3363L63.0874 77.5757C63.0288 77.7785 62.9992 77.9886 62.9995 78.1997L62.9995 82.7382C62.9995 84.4996 63.4096 86.2369 64.1974 87.8123C64.9851 89.3878 66.1288 90.7582 67.538 91.8151L67.538 109.969C67.538 111.173 68.0161 112.327 68.8673 113.178C69.7184 114.029 70.8728 114.507 72.0764 114.507L112.923 114.507C114.126 114.507 115.281 114.029 116.132 113.178C116.983 112.327 117.461 111.173 117.461 109.969L117.461 91.8151C118.87 90.7582 120.014 89.3878 120.802 87.8123C121.589 86.2369 121.999 84.4996 121.999 82.7382V78.1997ZM71.5091 64.5844L113.49 64.5844L116.729 75.9305L68.2783 75.9305L71.5091 64.5844ZM85.6918 80.469L99.3072 80.469V82.7382C99.3072 84.5437 98.5899 86.2753 97.3133 87.552C96.0366 88.8286 94.305 89.5459 92.4995 89.5459C90.694 89.5459 88.9624 88.8286 87.6857 87.552C86.409 86.2753 85.6918 84.5437 85.6918 82.7382V80.469ZM81.1533 80.469V82.7382C81.1533 84.5437 80.4361 86.2753 79.1594 87.552C77.8827 88.8286 76.1512 89.5459 74.3457 89.5459C72.5401 89.5459 70.8086 88.8286 69.5319 87.552C68.2552 86.2753 67.538 84.5437 67.538 82.7382V80.469L81.1533 80.469ZM112.923 109.969L72.0764 109.969L72.0764 93.8574C72.8235 94.008 73.5836 94.084 74.3457 94.0843C76.1071 94.0843 77.8443 93.6742 79.4198 92.8865C80.9953 92.0988 82.3657 90.955 83.4226 89.5459C84.4794 90.955 85.8499 92.0988 87.4253 92.8865C89.0008 93.6742 90.7381 94.0843 92.4995 94.0843C94.2609 94.0843 95.9982 93.6742 97.5736 92.8865C99.1491 92.0988 100.52 90.955 101.576 89.5459C102.633 90.955 104.004 92.0988 105.579 92.8865C107.155 93.6742 108.892 94.0843 110.653 94.0843C111.415 94.084 112.176 94.008 112.923 93.8574L112.923 109.969ZM110.653 89.5459C108.848 89.5459 107.116 88.8286 105.84 87.552C104.563 86.2753 103.846 84.5437 103.846 82.7382V80.469L117.461 80.469V82.7382C117.461 84.5437 116.744 86.2753 115.467 87.552C114.19 88.8286 112.459 89.5459 110.653 89.5459Z" stroke="#F78672" stroke-width="6.52295" stroke-linecap="round" stroke-linejoin="round"/>
</g>
<g filter="url(#filter5_f_271_4071)">
<path d="M121.999 78.1997C122.001 77.9887 121.972 77.7787 121.914 77.5757L117.844 63.3363C117.57 62.3915 116.998 61.5605 116.214 60.9675C115.429 60.3744 114.473 60.0512 113.49 60.0459L71.5091 60.0459C70.5255 60.0512 69.57 60.3744 68.7852 60.9675C68.0005 61.5605 67.4286 62.3915 67.155 63.3363L63.0874 77.5757C63.0288 77.7785 62.9992 77.9886 62.9995 78.1997L62.9995 82.7382C62.9995 84.4996 63.4096 86.2369 64.1974 87.8123C64.9851 89.3878 66.1288 90.7582 67.538 91.8151L67.538 109.969C67.538 111.173 68.0161 112.327 68.8673 113.178C69.7184 114.029 70.8728 114.507 72.0764 114.507L112.923 114.507C114.126 114.507 115.281 114.029 116.132 113.178C116.983 112.327 117.461 111.173 117.461 109.969L117.461 91.8151C118.87 90.7582 120.014 89.3878 120.802 87.8123C121.589 86.2369 121.999 84.4996 121.999 82.7382V78.1997ZM71.5091 64.5844L113.49 64.5844L116.729 75.9305L68.2783 75.9305L71.5091 64.5844ZM85.6918 80.469L99.3072 80.469V82.7382C99.3072 84.5437 98.5899 86.2753 97.3133 87.552C96.0366 88.8286 94.305 89.5459 92.4995 89.5459C90.694 89.5459 88.9624 88.8286 87.6857 87.552C86.409 86.2753 85.6918 84.5437 85.6918 82.7382V80.469ZM81.1533 80.469V82.7382C81.1533 84.5437 80.4361 86.2753 79.1594 87.552C77.8827 88.8286 76.1512 89.5459 74.3457 89.5459C72.5401 89.5459 70.8086 88.8286 69.5319 87.552C68.2552 86.2753 67.538 84.5437 67.538 82.7382V80.469L81.1533 80.469ZM112.923 109.969L72.0764 109.969L72.0764 93.8574C72.8235 94.008 73.5836 94.084 74.3457 94.0843C76.1071 94.0843 77.8443 93.6742 79.4198 92.8865C80.9953 92.0988 82.3657 90.955 83.4226 89.5459C84.4794 90.955 85.8499 92.0988 87.4253 92.8865C89.0008 93.6742 90.7381 94.0843 92.4995 94.0843C94.2609 94.0843 95.9982 93.6742 97.5736 92.8865C99.1491 92.0988 100.52 90.955 101.576 89.5459C102.633 90.955 104.004 92.0988 105.579 92.8865C107.155 93.6742 108.892 94.0843 110.653 94.0843C111.415 94.084 112.176 94.008 112.923 93.8574L112.923 109.969ZM110.653 89.5459C108.848 89.5459 107.116 88.8286 105.84 87.552C104.563 86.2753 103.846 84.5437 103.846 82.7382V80.469L117.461 80.469V82.7382C117.461 84.5437 116.744 86.2753 115.467 87.552C114.19 88.8286 112.459 89.5459 110.653 89.5459Z" fill="white"/>
<path d="M121.999 78.1997C122.001 77.9887 121.972 77.7787 121.914 77.5757L117.844 63.3363C117.57 62.3915 116.998 61.5605 116.214 60.9675C115.429 60.3744 114.473 60.0512 113.49 60.0459L71.5091 60.0459C70.5255 60.0512 69.57 60.3744 68.7852 60.9675C68.0005 61.5605 67.4286 62.3915 67.155 63.3363L63.0874 77.5757C63.0288 77.7785 62.9992 77.9886 62.9995 78.1997L62.9995 82.7382C62.9995 84.4996 63.4096 86.2369 64.1974 87.8123C64.9851 89.3878 66.1288 90.7582 67.538 91.8151L67.538 109.969C67.538 111.173 68.0161 112.327 68.8673 113.178C69.7184 114.029 70.8728 114.507 72.0764 114.507L112.923 114.507C114.126 114.507 115.281 114.029 116.132 113.178C116.983 112.327 117.461 111.173 117.461 109.969L117.461 91.8151C118.87 90.7582 120.014 89.3878 120.802 87.8123C121.589 86.2369 121.999 84.4996 121.999 82.7382V78.1997ZM71.5091 64.5844L113.49 64.5844L116.729 75.9305L68.2783 75.9305L71.5091 64.5844ZM85.6918 80.469L99.3072 80.469V82.7382C99.3072 84.5437 98.5899 86.2753 97.3133 87.552C96.0366 88.8286 94.305 89.5459 92.4995 89.5459C90.694 89.5459 88.9624 88.8286 87.6857 87.552C86.409 86.2753 85.6918 84.5437 85.6918 82.7382V80.469ZM81.1533 80.469V82.7382C81.1533 84.5437 80.4361 86.2753 79.1594 87.552C77.8827 88.8286 76.1512 89.5459 74.3457 89.5459C72.5401 89.5459 70.8086 88.8286 69.5319 87.552C68.2552 86.2753 67.538 84.5437 67.538 82.7382V80.469L81.1533 80.469ZM112.923 109.969L72.0764 109.969L72.0764 93.8574C72.8235 94.008 73.5836 94.084 74.3457 94.0843C76.1071 94.0843 77.8443 93.6742 79.4198 92.8865C80.9953 92.0988 82.3657 90.955 83.4226 89.5459C84.4794 90.955 85.8499 92.0988 87.4253 92.8865C89.0008 93.6742 90.7381 94.0843 92.4995 94.0843C94.2609 94.0843 95.9982 93.6742 97.5736 92.8865C99.1491 92.0988 100.52 90.955 101.576 89.5459C102.633 90.955 104.004 92.0988 105.579 92.8865C107.155 93.6742 108.892 94.0843 110.653 94.0843C111.415 94.084 112.176 94.008 112.923 93.8574L112.923 109.969ZM110.653 89.5459C108.848 89.5459 107.116 88.8286 105.84 87.552C104.563 86.2753 103.846 84.5437 103.846 82.7382V80.469L117.461 80.469V82.7382C117.461 84.5437 116.744 86.2753 115.467 87.552C114.19 88.8286 112.459 89.5459 110.653 89.5459Z" stroke="#EEEEEE" stroke-width="1.21133" stroke-linecap="round" stroke-linejoin="round"/>
</g>
<rect width="4.29943" height="20.6117" rx="2.14971" transform="matrix(0.866025 0.5 0.5 -0.866025 50 20.8984)" fill="#888888"/>
<rect width="15.5298" height="15.5298" rx="7.76492" transform="matrix(0.958355 -0.28558 -0.28558 -0.958355 103.808 20.3184)" fill="#ED2A07"/>
<rect width="8" height="8" rx="4" transform="matrix(0.958355 -0.28558 -0.28558 -0.958355 11.2847 103.318)" fill="#ED2A07"/>
<rect width="10.1588" height="10.1588" rx="5.0794" transform="matrix(0.939651 0.342133 0.342133 -0.939651 24.3721 49.5459)" fill="#888888"/>
<rect width="8.76549" height="22" rx="4.38274" transform="matrix(0.46932 -0.883028 -0.883028 -0.46932 130.799 181.065)" fill="#888888"/>
<rect x="68.9307" y="157" width="9.7821" height="9.7821" rx="1.59404" transform="rotate(15.1613 68.9307 157)" fill="#252525"/>
<rect width="5.0302" height="5.0302" rx="2.5151" transform="matrix(0.958355 -0.28558 -0.28558 -0.958355 154.809 120.258)" fill="#888888"/>
<rect width="20.167" height="20.167" rx="2.29213" transform="matrix(0.965193 -0.261538 -0.261538 -0.965193 161.274 41.7393)" fill="#252525"/>
<defs>
<filter id="filter0_f_271_4071" x="3.20606" y="0.252449" width="178.587" height="174.049" filterUnits="userSpaceOnUse" color-interpolation-filters="sRGB">
<feFlood flood-opacity="0" result="BackgroundImageFix"/>
<feBlend mode="normal" in="SourceGraphic" in2="BackgroundImageFix" result="shape"/>
<feGaussianBlur stdDeviation="27.179" result="effect1_foregroundBlur_271_4071"/>
</filter>
<filter id="filter1_f_271_4071" x="39.5403" y="36.5862" width="105.918" height="101.38" filterUnits="userSpaceOnUse" color-interpolation-filters="sRGB">
<feFlood flood-opacity="0" result="BackgroundImageFix"/>
<feBlend mode="normal" in="SourceGraphic" in2="BackgroundImageFix" result="shape"/>
<feGaussianBlur stdDeviation="8.15368" result="effect1_foregroundBlur_271_4071"/>
</filter>
<filter id="filter2_f_271_4071" x="59.1943" y="56.2407" width="66.6104" height="62.0713" filterUnits="userSpaceOnUse" color-interpolation-filters="sRGB">
<feFlood flood-opacity="0" result="BackgroundImageFix"/>
<feBlend mode="normal" in="SourceGraphic" in2="BackgroundImageFix" result="shape"/>
<feGaussianBlur stdDeviation="1.08716" result="effect1_foregroundBlur_271_4071"/>
</filter>
<filter id="filter3_dddii_271_4071" x="21.2241" y="30.3838" width="142.551" height="138.013" filterUnits="userSpaceOnUse" color-interpolation-filters="sRGB">
<feFlood flood-opacity="0" result="BackgroundImageFix"/>
<feColorMatrix in="SourceAlpha" type="matrix" values="0 0 0 0 0 0 0 0 0 0 0 0 0 0 0 0 0 0 127 0" result="hardAlpha"/>
<feOffset dy="10.8716"/>
<feGaussianBlur stdDeviation="4.34863"/>
<feColorMatrix type="matrix" values="0 0 0 0 0.0833333 0 0 0 0 0.02 0 0 0 0 0 0 0 0 0.7 0"/>
<feBlend mode="multiply" in2="BackgroundImageFix" result="effect1_dropShadow_271_4071"/>
<feColorMatrix in="SourceAlpha" type="matrix" values="0 0 0 0 0 0 0 0 0 0 0 0 0 0 0 0 0 0 127 0" result="hardAlpha"/>
<feOffset dy="21.7432"/>
<feGaussianBlur stdDeviation="10.8716"/>
<feColorMatrix type="matrix" values="0 0 0 0 0.175 0 0 0 0 0.0965125 0 0 0 0 0.004375 0 0 0 0.8 0"/>
<feBlend mode="multiply" in2="effect1_dropShadow_271_4071" result="effect2_dropShadow_271_4071"/>
<feColorMatrix in="SourceAlpha" type="matrix" values="0 0 0 0 0 0 0 0 0 0 0 0 0 0 0 0 0 0 127 0" result="hardAlpha"/>
<feOffset dy="12.1133"/>
<feGaussianBlur stdDeviation="18.1699"/>
<feColorMatrix type="matrix" values="0 0 0 0 1 0 0 0 0 0.289333 0 0 0 0 0.133333 0 0 0 1 0"/>
<feBlend mode="color-dodge" in2="effect2_dropShadow_271_4071" result="effect3_dropShadow_271_4071"/>
<feBlend mode="normal" in="SourceGraphic" in2="effect3_dropShadow_271_4071" result="shape"/>
<feColorMatrix in="SourceAlpha" type="matrix" values="0 0 0 0 0 0 0 0 0 0 0 0 0 0 0 0 0 0 127 0" result="hardAlpha"/>
<feOffset dx="-1.08716" dy="2.17432"/>
<feGaussianBlur stdDeviation="0.543579"/>
<feComposite in2="hardAlpha" operator="arithmetic" k2="-1" k3="1"/>
<feColorMatrix type="matrix" values="0 0 0 0 1 0 0 0 0 1 0 0 0 0 1 0 0 0 0.5 0"/>
<feBlend mode="normal" in2="shape" result="effect4_innerShadow_271_4071"/>
<feColorMatrix in="SourceAlpha" type="matrix" values="0 0 0 0 0 0 0 0 0 0 0 0 0 0 0 0 0 0 127 0" result="hardAlpha"/>
<feOffset dx="-1.08716" dy="-2.17432"/>
<feGaussianBlur stdDeviation="0.543579"/>
<feComposite in2="hardAlpha" operator="arithmetic" k2="-1" k3="1"/>
<feColorMatrix type="matrix" values="0 0 0 0 1 0 0 0 0 1 0 0 0 0 1 0 0 0 0.4 0"/>
<feBlend mode="normal" in2="effect4_innerShadow_271_4071" result="effect5_innerShadow_271_4071"/>
</filter>
<filter id="filter4_f_271_4071" x="58.3079" y="55.3538" width="68.3833" height="63.8452" filterUnits="userSpaceOnUse" color-interpolation-filters="sRGB">
<feFlood flood-opacity="0" result="BackgroundImageFix"/>
<feBlend mode="normal" in="SourceGraphic" in2="BackgroundImageFix" result="shape"/>
<feGaussianBlur stdDeviation="0.715204" result="effect1_foregroundBlur_271_4071"/>
</filter>
<filter id="filter5_f_271_4071" x="61.3069" y="58.3533" width="62.3853" height="57.8472" filterUnits="userSpaceOnUse" color-interpolation-filters="sRGB">
<feFlood flood-opacity="0" result="BackgroundImageFix"/>
<feBlend mode="normal" in="SourceGraphic" in2="BackgroundImageFix" result="shape"/>
<feGaussianBlur stdDeviation="0.543579" result="effect1_foregroundBlur_271_4071"/>
</filter>
</defs>
</svg>
