<svg width="186" height="181" viewBox="0 0 186 181" fill="none" xmlns="http://www.w3.org/2000/svg">
<rect x="184.912" y="127.781" width="79" height="79" rx="11.5" transform="rotate(174 184.912 127.781)" fill="#151515" stroke="#252525"/>
<rect x="79.6546" y="136.037" width="79" height="79" rx="11.5" transform="rotate(-174 79.6546 136.037)" fill="#151515" stroke="#252525"/>
<rect x="27.6139" y="43.7519" width="118.789" height="118.789" rx="27.1595" transform="rotate(-6 27.6139 43.7519)" fill="#151515"/>
<rect x="27.6139" y="43.7519" width="118.789" height="118.789" rx="27.1595" transform="rotate(-6 27.6139 43.7519)" stroke="#252525" stroke-width="1.21133"/>
<g style="mix-blend-mode:color-dodge" filter="url(#filter0_f_271_5135)">
<path d="M119.911 82.6059L114.286 77.084C113.583 76.3841 112.632 75.9912 111.64 75.9912C110.648 75.9912 109.696 76.3841 108.994 77.084L87.267 98.4871L87.2412 98.4614L78.6537 90.195C77.9492 89.4977 76.9972 89.1077 76.0059 89.1103C75.0146 89.113 74.0647 89.508 73.3639 90.209L67.7389 95.834C67.0369 96.5371 66.6426 97.4901 66.6426 98.4836C66.6426 99.4772 67.0369 100.43 67.7389 101.133L84.5248 118.008C84.8731 118.357 85.2865 118.633 85.7415 118.821C86.1965 119.01 86.6842 119.107 87.1768 119.107C87.6693 119.107 88.157 119.01 88.612 118.821C89.0671 118.633 89.4805 118.357 89.8287 118.008L119.922 87.9192C120.271 87.57 120.548 87.1554 120.736 86.6991C120.925 86.2427 121.021 85.7537 121.02 85.2601C121.019 84.7665 120.92 84.2779 120.73 83.8224C120.54 83.3669 120.261 82.9535 119.911 82.6059ZM87.178 115.362L70.392 98.4871L76.017 92.8621L76.0428 92.8879L84.6303 101.154C85.3325 101.85 86.2809 102.24 87.2694 102.24C88.2578 102.24 89.2062 101.85 89.9084 101.154L111.656 79.7371L117.267 85.2684L87.178 115.362Z" stroke="#FF9E9E" stroke-width="10.8716" stroke-linecap="round" stroke-linejoin="round"/>
</g>
<g style="mix-blend-mode:color-dodge" filter="url(#filter1_f_271_5135)">
<path d="M119.911 82.6059L114.286 77.084C113.583 76.3841 112.632 75.9912 111.64 75.9912C110.648 75.9912 109.696 76.3841 108.994 77.084L87.267 98.4871L87.2412 98.4614L78.6537 90.195C77.9492 89.4977 76.9972 89.1077 76.0059 89.1103C75.0146 89.113 74.0647 89.508 73.3639 90.209L67.7389 95.834C67.0369 96.5371 66.6426 97.4901 66.6426 98.4836C66.6426 99.4772 67.0369 100.43 67.7389 101.133L84.5248 118.008C84.8731 118.357 85.2865 118.633 85.7415 118.821C86.1965 119.01 86.6842 119.107 87.1768 119.107C87.6693 119.107 88.157 119.01 88.612 118.821C89.0671 118.633 89.4805 118.357 89.8287 118.008L119.922 87.9192C120.271 87.57 120.548 87.1554 120.736 86.6991C120.925 86.2427 121.021 85.7537 121.02 85.2601C121.019 84.7664 120.92 84.2779 120.73 83.8224C120.54 83.3669 120.261 82.9535 119.911 82.6059ZM87.178 115.362L70.392 98.4871L76.017 92.8621L76.0428 92.8879L84.6303 101.154C85.3325 101.85 86.2809 102.24 87.2694 102.24C88.2578 102.24 89.2062 101.85 89.9084 101.154L111.656 79.7371L117.267 85.2684L87.178 115.362Z" fill="#B1280F"/>
<path d="M119.911 82.6059L114.286 77.084C113.583 76.3841 112.632 75.9912 111.64 75.9912C110.648 75.9912 109.696 76.3841 108.994 77.084L87.267 98.4871L87.2412 98.4614L78.6537 90.195C77.9492 89.4977 76.9972 89.1077 76.0059 89.1103C75.0146 89.113 74.0647 89.508 73.3639 90.209L67.7389 95.834C67.0369 96.5371 66.6426 97.4901 66.6426 98.4836C66.6426 99.4772 67.0369 100.43 67.7389 101.133L84.5248 118.008C84.8731 118.357 85.2865 118.633 85.7415 118.821C86.1965 119.01 86.6842 119.107 87.1768 119.107C87.6693 119.107 88.157 119.01 88.612 118.821C89.0671 118.633 89.4805 118.357 89.8287 118.008L119.922 87.9192C120.271 87.57 120.548 87.1554 120.736 86.6991C120.925 86.2427 121.021 85.7537 121.02 85.2601C121.019 84.7664 120.92 84.2779 120.73 83.8224C120.54 83.3669 120.261 82.9535 119.911 82.6059ZM87.178 115.362L70.392 98.4871L76.017 92.8621L76.0428 92.8879L84.6303 101.154C85.3325 101.85 86.2809 102.24 87.2694 102.24C88.2578 102.24 89.2062 101.85 89.9084 101.154L111.656 79.7371L117.267 85.2684L87.178 115.362Z" stroke="#B1280F" stroke-width="14.3041" stroke-linecap="round" stroke-linejoin="round"/>
</g>
<g style="mix-blend-mode:multiply" opacity="0.2" filter="url(#filter2_f_271_5135)">
<path d="M119.911 82.6059L114.286 77.084C113.583 76.3841 112.632 75.9912 111.64 75.9912C110.648 75.9912 109.696 76.3841 108.994 77.084L87.267 98.4871L87.2412 98.4614L78.6537 90.195C77.9492 89.4977 76.9972 89.1077 76.0059 89.1103C75.0146 89.113 74.0647 89.508 73.3639 90.209L67.7389 95.834C67.0369 96.5371 66.6426 97.4901 66.6426 98.4836C66.6426 99.4772 67.0369 100.43 67.7389 101.133L84.5248 118.008C84.8731 118.357 85.2865 118.633 85.7415 118.821C86.1965 119.01 86.6842 119.107 87.1768 119.107C87.6693 119.107 88.157 119.01 88.612 118.821C89.0671 118.633 89.4805 118.357 89.8287 118.008L119.922 87.9192C120.271 87.57 120.548 87.1554 120.736 86.6991C120.925 86.2427 121.021 85.7537 121.02 85.2601C121.019 84.7665 120.92 84.2779 120.73 83.8224C120.54 83.3669 120.261 82.9535 119.911 82.6059ZM87.178 115.362L70.392 98.4871L76.017 92.8621L76.0428 92.8879L84.6303 101.154C85.3325 101.85 86.2809 102.24 87.2694 102.24C88.2578 102.24 89.2062 101.85 89.9084 101.154L111.656 79.7371L117.267 85.2684L87.178 115.362Z" stroke="#ED2A07" stroke-width="3.26147" stroke-linecap="round" stroke-linejoin="round"/>
</g>
<g style="mix-blend-mode:hard-light" filter="url(#filter3_dddii_271_5135)">
<path d="M119.911 82.6059L114.286 77.084C113.583 76.3841 112.632 75.9912 111.64 75.9912C110.648 75.9912 109.696 76.3841 108.994 77.084L87.267 98.4871L87.2412 98.4614L78.6537 90.195C77.9492 89.4977 76.9972 89.1077 76.0059 89.1103C75.0146 89.113 74.0647 89.508 73.3639 90.209L67.7389 95.834C67.0369 96.5371 66.6426 97.4901 66.6426 98.4836C66.6426 99.4772 67.0369 100.43 67.7389 101.133L84.5248 118.008C84.8731 118.357 85.2865 118.633 85.7415 118.821C86.1965 119.01 86.6842 119.107 87.1768 119.107C87.6693 119.107 88.157 119.01 88.612 118.821C89.0671 118.633 89.4805 118.357 89.8287 118.008L119.922 87.9192C120.271 87.57 120.548 87.1554 120.736 86.6991C120.925 86.2427 121.021 85.7537 121.02 85.2601C121.019 84.7665 120.92 84.2779 120.73 83.8224C120.54 83.3669 120.261 82.9535 119.911 82.6059ZM87.178 115.362L70.392 98.4871L76.017 92.8621L76.0428 92.8879L84.6303 101.154C85.3325 101.85 86.2809 102.24 87.2694 102.24C88.2578 102.24 89.2062 101.85 89.9084 101.154L111.656 79.7371L117.267 85.2684L87.178 115.362Z" stroke="#ED2A07" stroke-opacity="0.2" stroke-width="10.8716" stroke-linecap="round" stroke-linejoin="round"/>
</g>
<g filter="url(#filter4_f_271_5135)">
<path d="M119.911 82.6059L114.286 77.084C113.583 76.3841 112.632 75.9912 111.64 75.9912C110.648 75.9912 109.696 76.3841 108.994 77.084L87.267 98.4871L87.2412 98.4614L78.6537 90.195C77.9492 89.4977 76.9972 89.1077 76.0059 89.1103C75.0146 89.113 74.0647 89.508 73.3639 90.209L67.7389 95.834C67.0369 96.5371 66.6426 97.4901 66.6426 98.4836C66.6426 99.4772 67.0369 100.43 67.7389 101.133L84.5248 118.008C84.8731 118.357 85.2865 118.633 85.7415 118.821C86.1965 119.01 86.6842 119.107 87.1768 119.107C87.6693 119.107 88.157 119.01 88.612 118.821C89.0671 118.633 89.4805 118.357 89.8287 118.008L119.922 87.9192C120.271 87.57 120.548 87.1554 120.736 86.6991C120.925 86.2427 121.021 85.7537 121.02 85.2601C121.019 84.7665 120.92 84.2779 120.73 83.8224C120.54 83.3669 120.261 82.9535 119.911 82.6059ZM87.178 115.362L70.392 98.4871L76.017 92.8621L76.0428 92.8879L84.6303 101.154C85.3325 101.85 86.2809 102.24 87.2694 102.24C88.2578 102.24 89.2062 101.85 89.9084 101.154L111.656 79.7371L117.267 85.2684L87.178 115.362Z" stroke="#F78672" stroke-width="6.52295" stroke-linecap="round" stroke-linejoin="round"/>
</g>
<g filter="url(#filter5_f_271_5135)">
<path d="M119.911 82.6059L114.286 77.084C113.583 76.3841 112.632 75.9912 111.64 75.9912C110.648 75.9912 109.696 76.3841 108.994 77.084L87.267 98.4871L87.2412 98.4614L78.6537 90.195C77.9492 89.4977 76.9972 89.1077 76.0059 89.1103C75.0146 89.113 74.0647 89.508 73.3639 90.209L67.7389 95.834C67.0369 96.5371 66.6426 97.4901 66.6426 98.4836C66.6426 99.4772 67.0369 100.43 67.7389 101.133L84.5248 118.008C84.8731 118.357 85.2865 118.633 85.7415 118.821C86.1965 119.01 86.6842 119.107 87.1768 119.107C87.6693 119.107 88.157 119.01 88.612 118.821C89.0671 118.633 89.4805 118.357 89.8287 118.008L119.922 87.9192C120.271 87.57 120.548 87.1554 120.736 86.6991C120.925 86.2427 121.021 85.7537 121.02 85.2601C121.019 84.7664 120.92 84.2779 120.73 83.8224C120.54 83.3669 120.261 82.9535 119.911 82.6059ZM87.178 115.362L70.392 98.4871L76.017 92.8621L76.0428 92.8879L84.6303 101.154C85.3325 101.85 86.2809 102.24 87.2694 102.24C88.2578 102.24 89.2062 101.85 89.9084 101.154L111.656 79.7371L117.267 85.2684L87.178 115.362Z" fill="white"/>
<path d="M119.911 82.6059L114.286 77.084C113.583 76.3841 112.632 75.9912 111.64 75.9912C110.648 75.9912 109.696 76.3841 108.994 77.084L87.267 98.4871L87.2412 98.4614L78.6537 90.195C77.9492 89.4977 76.9972 89.1077 76.0059 89.1103C75.0146 89.113 74.0647 89.508 73.3639 90.209L67.7389 95.834C67.0369 96.5371 66.6426 97.4901 66.6426 98.4836C66.6426 99.4772 67.0369 100.43 67.7389 101.133L84.5248 118.008C84.8731 118.357 85.2865 118.633 85.7415 118.821C86.1965 119.01 86.6842 119.107 87.1768 119.107C87.6693 119.107 88.157 119.01 88.612 118.821C89.0671 118.633 89.4805 118.357 89.8287 118.008L119.922 87.9192C120.271 87.57 120.548 87.1554 120.736 86.6991C120.925 86.2427 121.021 85.7537 121.02 85.2601C121.019 84.7664 120.92 84.2779 120.73 83.8224C120.54 83.3669 120.261 82.9535 119.911 82.6059ZM87.178 115.362L70.392 98.4871L76.017 92.8621L76.0428 92.8879L84.6303 101.154C85.3325 101.85 86.2809 102.24 87.2694 102.24C88.2578 102.24 89.2062 101.85 89.9084 101.154L111.656 79.7371L117.267 85.2684L87.178 115.362Z" stroke="#EEEEEE" stroke-width="1.21133" stroke-linecap="round" stroke-linejoin="round"/>
</g>
<rect x="50.5381" y="160.782" width="4.29943" height="20.6117" rx="2.14971" transform="rotate(-30 50.5381 160.782)" fill="#888888"/>
<rect x="104.346" y="161.362" width="15.5298" height="15.5298" rx="7.76492" transform="rotate(16.5935 104.346 161.362)" fill="#ED2A07"/>
<rect x="11.8223" y="78.3623" width="8" height="8" rx="4" transform="rotate(16.5935 11.8223 78.3623)" fill="#ED2A07"/>
<rect x="24.9102" y="132.135" width="10.1588" height="10.1588" rx="5.0794" transform="rotate(-20.0069 24.9102 132.135)" fill="#888888"/>
<rect x="131.337" y="0.615234" width="8.76549" height="22" rx="4.38274" transform="rotate(62.0098 131.337 0.615234)" fill="#888888"/>
<rect width="9.7821" height="9.7821" rx="1.59404" transform="matrix(0.965193 -0.261538 -0.261538 -0.965193 69.4688 24.6807)" fill="#252525"/>
<rect x="155.347" y="61.4229" width="5.0302" height="5.0302" rx="2.5151" transform="rotate(16.5935 155.347 61.4229)" fill="#888888"/>
<rect x="161.812" y="139.941" width="20.167" height="20.167" rx="2.29213" transform="rotate(15.1613 161.812 139.941)" fill="#252525"/>
<defs>
<filter id="filter0_f_271_5135" x="6.84913" y="16.1978" width="173.965" height="162.703" filterUnits="userSpaceOnUse" color-interpolation-filters="sRGB">
<feFlood flood-opacity="0" result="BackgroundImageFix"/>
<feBlend mode="normal" in="SourceGraphic" in2="BackgroundImageFix" result="shape"/>
<feGaussianBlur stdDeviation="27.179" result="effect1_foregroundBlur_271_5135"/>
</filter>
<filter id="filter1_f_271_5135" x="43.1829" y="52.5315" width="101.296" height="90.0347" filterUnits="userSpaceOnUse" color-interpolation-filters="sRGB">
<feFlood flood-opacity="0" result="BackgroundImageFix"/>
<feBlend mode="normal" in="SourceGraphic" in2="BackgroundImageFix" result="shape"/>
<feGaussianBlur stdDeviation="8.15368" result="effect1_foregroundBlur_271_5135"/>
</filter>
<filter id="filter2_f_271_5135" x="62.8374" y="72.186" width="61.9873" height="50.7256" filterUnits="userSpaceOnUse" color-interpolation-filters="sRGB">
<feFlood flood-opacity="0" result="BackgroundImageFix"/>
<feBlend mode="normal" in="SourceGraphic" in2="BackgroundImageFix" result="shape"/>
<feGaussianBlur stdDeviation="1.08716" result="effect1_foregroundBlur_271_5135"/>
</filter>
<filter id="filter3_dddii_271_5135" x="24.8672" y="46.3291" width="137.929" height="126.667" filterUnits="userSpaceOnUse" color-interpolation-filters="sRGB">
<feFlood flood-opacity="0" result="BackgroundImageFix"/>
<feColorMatrix in="SourceAlpha" type="matrix" values="0 0 0 0 0 0 0 0 0 0 0 0 0 0 0 0 0 0 127 0" result="hardAlpha"/>
<feOffset dy="10.8716"/>
<feGaussianBlur stdDeviation="4.34863"/>
<feColorMatrix type="matrix" values="0 0 0 0 0.0833333 0 0 0 0 0.02 0 0 0 0 0 0 0 0 0.7 0"/>
<feBlend mode="multiply" in2="BackgroundImageFix" result="effect1_dropShadow_271_5135"/>
<feColorMatrix in="SourceAlpha" type="matrix" values="0 0 0 0 0 0 0 0 0 0 0 0 0 0 0 0 0 0 127 0" result="hardAlpha"/>
<feOffset dy="21.7432"/>
<feGaussianBlur stdDeviation="10.8716"/>
<feColorMatrix type="matrix" values="0 0 0 0 0.175 0 0 0 0 0.0965125 0 0 0 0 0.004375 0 0 0 0.8 0"/>
<feBlend mode="multiply" in2="effect1_dropShadow_271_5135" result="effect2_dropShadow_271_5135"/>
<feColorMatrix in="SourceAlpha" type="matrix" values="0 0 0 0 0 0 0 0 0 0 0 0 0 0 0 0 0 0 127 0" result="hardAlpha"/>
<feOffset dy="12.1133"/>
<feGaussianBlur stdDeviation="18.1699"/>
<feColorMatrix type="matrix" values="0 0 0 0 1 0 0 0 0 0.289333 0 0 0 0 0.133333 0 0 0 1 0"/>
<feBlend mode="color-dodge" in2="effect2_dropShadow_271_5135" result="effect3_dropShadow_271_5135"/>
<feBlend mode="normal" in="SourceGraphic" in2="effect3_dropShadow_271_5135" result="shape"/>
<feColorMatrix in="SourceAlpha" type="matrix" values="0 0 0 0 0 0 0 0 0 0 0 0 0 0 0 0 0 0 127 0" result="hardAlpha"/>
<feOffset dx="-1.08716" dy="2.17432"/>
<feGaussianBlur stdDeviation="0.543579"/>
<feComposite in2="hardAlpha" operator="arithmetic" k2="-1" k3="1"/>
<feColorMatrix type="matrix" values="0 0 0 0 1 0 0 0 0 1 0 0 0 0 1 0 0 0 0.5 0"/>
<feBlend mode="normal" in2="shape" result="effect4_innerShadow_271_5135"/>
<feColorMatrix in="SourceAlpha" type="matrix" values="0 0 0 0 0 0 0 0 0 0 0 0 0 0 0 0 0 0 127 0" result="hardAlpha"/>
<feOffset dx="-1.08716" dy="-2.17432"/>
<feGaussianBlur stdDeviation="0.543579"/>
<feComposite in2="hardAlpha" operator="arithmetic" k2="-1" k3="1"/>
<feColorMatrix type="matrix" values="0 0 0 0 1 0 0 0 0 1 0 0 0 0 1 0 0 0 0.4 0"/>
<feBlend mode="normal" in2="effect4_innerShadow_271_5135" result="effect5_innerShadow_271_5135"/>
</filter>
<filter id="filter4_f_271_5135" x="61.9505" y="71.2991" width="63.7612" height="52.4995" filterUnits="userSpaceOnUse" color-interpolation-filters="sRGB">
<feFlood flood-opacity="0" result="BackgroundImageFix"/>
<feBlend mode="normal" in="SourceGraphic" in2="BackgroundImageFix" result="shape"/>
<feGaussianBlur stdDeviation="0.715204" result="effect1_foregroundBlur_271_5135"/>
</filter>
<filter id="filter5_f_271_5135" x="64.95" y="74.2986" width="57.7632" height="46.5015" filterUnits="userSpaceOnUse" color-interpolation-filters="sRGB">
<feFlood flood-opacity="0" result="BackgroundImageFix"/>
<feBlend mode="normal" in="SourceGraphic" in2="BackgroundImageFix" result="shape"/>
<feGaussianBlur stdDeviation="0.543579" result="effect1_foregroundBlur_271_5135"/>
</filter>
</defs>
</svg>
