<svg width="42" height="23" viewBox="0 0 42 23" fill="none" xmlns="http://www.w3.org/2000/svg">
<g id="*-*">
<path d="M9.84613 7.94756C9.18582 8.55324 8.22821 9.13653 6.9733 9.69744C7.98793 10.422 8.7953 11.0879 9.39539 11.6952C9.54751 11.8669 9.63193 12.0323 9.64865 12.1915C9.67932 12.4832 9.57319 12.7491 9.33029 12.9891C9.08738 13.2291 8.81588 13.3247 8.51579 13.2758L9.13544 13.814C9.22337 13.8852 9.27151 13.9606 9.27987 14.0401C9.29381 14.1727 9.23726 14.2725 9.11024 14.3395C9.00973 14.4037 8.90086 14.3883 8.78363 14.2934C7.65041 13.2059 6.58489 12.1247 5.58706 11.0498L3.47832 13.5639C3.43364 13.6491 3.35547 13.6707 3.24381 13.6288C3.15589 13.5576 3.13427 13.4794 3.17894 13.3943C3.41628 13.1012 3.57962 12.8696 3.66898 12.6993L2.9528 13.5387C2.79503 13.8235 2.55702 13.9825 2.23878 14.016C1.92053 14.0494 1.61765 13.974 1.33015 13.7897C1.03986 13.5789 0.877985 13.3144 0.844536 12.9961C0.81945 12.7575 0.889972 12.5355 1.0561 12.3304C1.61455 11.5209 2.18693 10.844 2.77325 10.2998L3.035 10.1114L3.07059 10.0674L2.04681 9.89348C1.69089 9.82363 1.40896 9.69238 1.20101 9.49973C1.0168 9.27777 0.910761 9.03418 0.882887 8.76898C0.849438 8.45073 0.926252 8.16111 1.11333 7.90013C1.32414 7.60984 1.60193 7.44657 1.9467 7.41034C2.15886 7.38804 2.33403 7.39644 2.47221 7.43554C2.7723 7.48444 3.04726 7.54939 3.2971 7.63039C3.57067 7.68207 3.81771 7.73655 4.03824 7.79381L3.91484 7.00238L3.70996 5.05311C3.67651 4.73487 3.7282 4.4613 3.86502 4.23241C4.02837 4.00073 4.26916 3.86817 4.58741 3.83472C4.85262 3.80684 5.10106 3.87458 5.33273 4.03793C5.56162 4.17475 5.69001 4.37576 5.71788 4.64097L6.24506 7.36076L6.3748 7.82977L6.446 7.74185C6.59676 7.64556 6.8599 7.47043 7.2354 7.21645C7.60813 6.93596 7.94804 6.72594 8.25513 6.58641C8.51198 6.47898 8.75624 6.50693 8.98791 6.67027C9.2168 6.8071 9.34379 6.99485 9.36888 7.23354C9.38281 7.36614 9.36744 7.47501 9.32276 7.56015L9.59705 7.4911L9.67661 7.48274C9.78269 7.47159 9.85596 7.53092 9.89642 7.66074C9.96061 7.76124 9.94385 7.85685 9.84613 7.94756ZM7.46071 12.4214C7.00157 11.8798 6.43496 11.336 5.76088 10.7902C5.76088 10.7902 5.74901 10.8048 5.72528 10.8341L7.46071 12.4214Z" fill="#888888"/>
<path d="M28.544 20.0595C28.5997 20.5899 28.4705 21.0191 28.1564 21.347C27.8688 21.6722 27.4731 21.8613 26.9692 21.9142C26.7836 21.9337 26.6496 21.9344 26.5672 21.9163C26.4318 21.9037 26.242 21.8834 25.9978 21.8554C25.7772 21.7982 25.586 21.7647 25.4241 21.7549C24.8351 21.7631 24.3814 21.784 24.0632 21.8175C23.1266 21.8355 22.2884 21.8967 21.5486 22.0013C20.4348 22.1184 19.6008 22.2194 19.0466 22.3045C18.8875 22.3212 18.6383 22.3742 18.2991 22.4635C17.9837 22.5235 17.6933 22.5674 17.4281 22.5953C17.1364 22.6259 16.8272 22.6182 16.5006 22.5721C16.2829 22.5414 16.0994 22.4534 15.95 22.3082C15.8272 22.1602 15.7547 21.9802 15.7324 21.768C15.6961 21.4232 15.8246 21.1148 16.1178 20.8426L16.4151 20.6103C16.3635 20.3744 16.3782 20.1315 16.4592 19.8817C16.5639 19.6025 16.73 19.3974 16.9576 19.2662C17.3094 19.0416 17.68 18.8685 18.0694 18.7472C18.4854 18.623 19.0088 18.5009 19.6397 18.381L21.9345 18.0192L23.1237 17.8539C24.4763 17.7118 25.6215 17.7657 26.5595 18.0157C26.8916 18.1149 27.0452 18.2998 27.02 18.5706C27.4289 18.6349 27.7681 18.8003 28.0375 19.067C28.3333 19.3308 28.5022 19.6616 28.544 20.0595Z" fill="#888888"/>
<path d="M41.0803 4.66472C40.42 5.27039 39.4624 5.85368 38.2075 6.41459C39.2221 7.13917 40.0295 7.8051 40.6296 8.41236C40.7817 8.58407 40.8661 8.74948 40.8829 8.90861C40.9135 9.20033 40.8074 9.46622 40.5645 9.70625C40.3216 9.94629 40.0501 10.0419 39.75 9.99296L40.3696 10.5311C40.4576 10.6023 40.5057 10.6777 40.5141 10.7573C40.528 10.8899 40.4715 10.9897 40.3444 11.0567C40.2439 11.1208 40.1351 11.1055 40.0178 11.0105C38.8846 9.92304 37.8191 8.84183 36.8213 7.76691L34.7125 10.2811C34.6678 10.3662 34.5897 10.3879 34.478 10.346C34.3901 10.2748 34.3685 10.1966 34.4131 10.1115C34.6505 9.81839 34.8138 9.58671 34.9032 9.41644L34.187 10.2559C34.0292 10.5406 33.7912 10.6997 33.473 10.7331C33.1547 10.7666 32.8519 10.6912 32.5644 10.5069C32.2741 10.2961 32.1122 10.0315 32.0787 9.7133C32.0537 9.47461 32.1242 9.25269 32.2903 9.04753C32.8488 8.23806 33.4211 7.56119 34.0075 7.01692L34.2692 6.82853L34.3048 6.78457L33.281 6.61063C32.9251 6.54078 32.6432 6.40953 32.4352 6.21688C32.251 5.99492 32.145 5.75134 32.1171 5.48613C32.0836 5.16788 32.1605 4.87827 32.3475 4.61728C32.5583 4.32699 32.8361 4.16373 33.1809 4.12749C33.3931 4.10519 33.5682 4.11359 33.7064 4.1527C34.0065 4.2016 34.2815 4.26654 34.5313 4.34754C34.8049 4.39923 35.0519 4.4537 35.2724 4.51096L35.149 3.71953L34.9442 1.77026C34.9107 1.45202 34.9624 1.17845 35.0992 0.94956C35.2626 0.717883 35.5034 0.58532 35.8216 0.551871C36.0868 0.523997 36.3353 0.591733 36.5669 0.755078C36.7958 0.891902 36.9242 1.09292 36.9521 1.35812L37.4793 4.07792L37.609 4.54692L37.6802 4.459C37.831 4.36271 38.0941 4.18758 38.4696 3.93361C38.8423 3.65311 39.1822 3.4431 39.4893 3.30356C39.7462 3.19613 39.9904 3.22408 40.2221 3.38743C40.451 3.52425 40.578 3.71201 40.6031 3.95069C40.617 4.08329 40.6016 4.19216 40.557 4.2773L40.8313 4.20825L40.9108 4.19989C41.0169 4.18874 41.0902 4.24807 41.1306 4.37789C41.1948 4.4784 41.1781 4.57401 41.0803 4.66472ZM38.6949 9.13857C38.2358 8.59693 37.6692 8.05317 36.9951 7.50731C36.9951 7.50731 36.9832 7.52197 36.9595 7.55128L38.6949 9.13857Z" fill="#888888"/>
</g>
</svg>
