<svg width="12" height="23" viewBox="0 0 12 23" fill="none" xmlns="http://www.w3.org/2000/svg">
<path id="?" d="M11.739 8.30913C11.6594 8.82696 11.3976 9.27008 10.9537 9.6385C10.507 9.9804 10.0107 10.2337 9.46494 10.3983C8.65952 10.6438 7.64963 10.8572 6.43526 11.0385C5.7513 11.164 5.22228 11.233 4.8482 11.2455L4.37502 11.3355C4.43921 11.436 4.47548 11.526 4.48385 11.6056C4.58706 12.0774 4.71257 12.7613 4.86039 13.6574L4.73495 12.464C4.71544 12.2784 4.78385 12.1639 4.94019 12.1207C5.09653 12.0774 5.18445 12.1486 5.20396 12.3343L5.67034 15.6235C5.70243 15.6738 5.72266 15.7387 5.73103 15.8183L5.90245 17.4493C5.91081 17.5288 5.8794 17.6126 5.8082 17.7005C5.737 17.7884 5.64836 17.838 5.54227 17.8491C5.12073 17.9202 4.74944 17.9593 4.42841 17.9662C4.13111 17.9438 3.85336 17.8524 3.59516 17.6918C3.28114 17.5103 3.05575 17.2792 2.91901 16.9987L2.83741 16.605C2.80811 16.5813 2.72926 16.4689 2.60088 16.2679C2.59252 16.1884 2.55345 16.0718 2.48369 15.9183C2.4809 15.8917 2.46625 15.8799 2.43973 15.8827C2.43973 15.8827 2.44112 15.8959 2.44391 15.9224L2.20522 15.9475C1.95841 14.3647 1.76951 12.95 1.6385 11.7035C1.51028 10.4836 1.43505 9.51278 1.41284 8.79115L1.51545 8.61948L1.70181 8.47923C1.69066 8.37315 1.69417 8.27893 1.71233 8.19659C1.73049 8.11424 1.75004 8.04515 1.77098 7.98932C1.86034 7.81905 1.98598 7.73881 2.14789 7.7486C3.81446 7.78795 5.04695 7.77907 5.84536 7.72197L7.32143 7.60705C8.09053 7.52621 8.59792 7.37903 8.84362 7.16552C8.70966 6.91146 8.48149 6.6539 8.1591 6.39283C6.9519 5.36673 5.73836 4.66306 4.5185 4.28182L4.39079 4.2148L4.35101 4.21898C3.82482 4.05978 3.01737 3.90332 1.92868 3.74961L0.865106 3.57985C0.705983 3.59658 0.541284 3.56026 0.371011 3.4709C0.294317 2.99632 0.315343 2.43103 0.434088 1.77502C0.510863 1.74014 0.642072 1.71294 0.827716 1.69343C1.0664 1.66834 1.54027 1.71238 2.24932 1.82555C2.31494 1.68459 2.42034 1.53944 2.56553 1.39011L4.84546 2.03533C3.55026 1.4475 2.17127 1.08298 0.708493 0.941773C0.52285 0.961285 0.420272 0.878218 0.40076 0.692573C0.392397 0.613013 0.411949 0.543924 0.459416 0.485307C0.530615 0.397382 0.62065 0.361106 0.729519 0.376478C2.47566 0.407459 4.17289 0.73853 5.82123 1.36969C7.46678 1.97433 8.86174 2.87344 10.0061 4.06703C10.3578 4.35182 10.6899 4.70571 11.0025 5.12869C11.47 5.74989 11.74 6.40526 11.8125 7.0948C11.8487 7.43956 11.8242 7.84434 11.739 8.30913ZM2.57138 4.12448C3.63913 4.33402 4.66918 4.695 5.66151 5.20741C6.65105 5.6933 7.52054 6.31248 8.26996 7.06493C8.1904 7.07329 8.12131 7.05374 8.06269 7.00627C7.9985 6.90576 7.9371 6.83178 7.87848 6.78431C6.02507 5.47755 4.25604 4.59094 2.57138 4.12448ZM6.70583 21.2662C6.28278 22.0883 5.77184 22.5844 5.17301 22.7546C4.8073 22.8467 4.4423 22.818 4.07802 22.6686C3.71374 22.5192 3.44579 22.2658 3.27416 21.9084C3.1723 21.7046 3.11022 21.4967 3.08792 21.2845C3.02939 20.7276 3.16346 20.2174 3.49015 19.7541C3.84057 19.2614 4.2782 18.9607 4.80304 18.8519L4.8826 18.8435C4.98869 18.8324 5.1136 18.8729 5.25736 18.965C5.39832 19.0306 5.50229 19.127 5.56927 19.254C5.86936 19.3029 6.12059 19.3972 6.32296 19.5368C6.6342 19.6917 6.81211 19.9814 6.85671 20.4057C6.89016 20.724 6.83987 21.0108 6.70583 21.2662Z" fill="#888888"/>
</svg>
