<svg width="177" height="162" viewBox="0 0 177 162" fill="none" xmlns="http://www.w3.org/2000/svg">
<rect x="15.9219" y="45.3893" width="79" height="79" rx="19.5" transform="rotate(-6 15.9219 45.3893)" fill="#151515" stroke="#252525"/>
<rect x="-0.549525" y="0.444997" width="79" height="79" rx="19.5" transform="matrix(-0.994522 -0.104528 -0.104528 0.994522 173.247 48.8898)" fill="#151515" stroke="#252525"/>
<rect width="8.76549" height="22" rx="4.38274" transform="matrix(0.46932 -0.883028 -0.883028 -0.46932 168.799 108.647)" fill="#888888"/>
<g clip-path="url(#clip0_182_25479)">
<rect x="27.4104" y="32.6958" width="120" height="120" rx="20" transform="rotate(-6 27.4104 32.6958)" fill="#151515"/>
<g style="mix-blend-mode:color-dodge" filter="url(#filter0_f_182_25479)">
<path d="M96.1659 98.2827C96.1659 98.839 96.0009 99.3827 95.6919 99.8453C95.3829 100.308 94.9436 100.668 94.4297 100.881C93.9158 101.094 93.3503 101.15 92.8047 101.041C92.2591 100.933 91.758 100.665 91.3647 100.271C90.9713 99.8781 90.7035 99.377 90.5949 98.8314C90.4864 98.2858 90.5421 97.7203 90.755 97.2064C90.9679 96.6925 91.3283 96.2532 91.7909 95.9442C92.2534 95.6352 92.7971 95.4702 93.3534 95.4702C94.0993 95.4702 94.8147 95.7665 95.3421 96.294C95.8696 96.8214 96.1659 97.5368 96.1659 98.2827ZM93.3534 72.9702C88.1831 72.9702 83.9784 76.7554 83.9784 81.4077L83.9784 82.3452C83.9784 82.8425 84.1759 83.3194 84.5276 83.671C84.8792 84.0227 85.3561 84.2202 85.8534 84.2202C86.3507 84.2202 86.8276 84.0227 87.1792 83.671C87.5309 83.3194 87.7284 82.8425 87.7284 82.3452L87.7284 81.4077C87.7284 78.8296 90.2526 76.7202 93.3534 76.7202C96.4542 76.7202 98.9784 78.8296 98.9784 81.4077C98.9784 83.9858 96.4542 86.0952 93.3534 86.0952C92.8561 86.0952 92.3792 86.2928 92.0276 86.6444C91.6759 86.996 91.4784 87.4729 91.4784 87.9702L91.4784 89.8452C91.4784 90.3425 91.6759 90.8194 92.0276 91.171C92.3792 91.5227 92.8561 91.7202 93.3534 91.7202C93.8507 91.7202 94.3276 91.5227 94.6792 91.171C95.0309 90.8194 95.2284 90.3425 95.2284 89.8452L95.2284 89.6765C99.5034 88.8913 102.728 85.4812 102.728 81.4077C102.728 76.7554 98.5237 72.9702 93.3534 72.9702ZM117.728 86.0952C117.728 90.9161 116.299 95.6288 113.62 99.6372C110.942 103.646 107.135 106.77 102.681 108.615C98.2274 110.46 93.3264 110.942 88.5981 110.002C83.8698 109.061 79.5266 106.74 76.1177 103.331C72.7088 99.922 70.3873 95.5788 69.4468 90.8505C68.5062 86.1223 68.9889 81.2213 70.8338 76.7673C72.6787 72.3134 75.8029 68.5065 79.8114 65.8281C83.8198 63.1498 88.5325 61.7202 93.3534 61.7202C99.816 61.727 106.012 64.2973 110.582 68.867C115.151 73.4367 117.722 79.6327 117.728 86.0952ZM113.978 86.0952C113.978 82.016 112.769 78.0283 110.502 74.6366C108.236 71.2448 105.015 68.6013 101.246 67.0402C97.4775 65.4791 93.3305 65.0707 89.3297 65.8665C85.3288 66.6623 81.6538 68.6267 78.7693 71.5111C75.8849 74.3956 73.9205 78.0706 73.1247 82.0715C72.3289 86.0723 72.7373 90.2193 74.2984 93.9881C75.8594 97.7568 78.503 100.978 81.8948 103.244C85.2865 105.511 89.2742 106.72 93.3534 106.72C98.8216 106.714 104.064 104.539 107.931 100.672C111.797 96.8058 113.972 91.5634 113.978 86.0952Z" stroke="#FF9E9E" stroke-width="8.97493" stroke-linecap="round" stroke-linejoin="round"/>
</g>
<g style="mix-blend-mode:color-dodge" filter="url(#filter1_f_182_25479)">
<path d="M96.1659 98.2827C96.1659 98.839 96.001 99.3827 95.6919 99.8453C95.3829 100.308 94.9436 100.668 94.4297 100.881C93.9158 101.094 93.3503 101.15 92.8047 101.041C92.2591 100.933 91.758 100.665 91.3647 100.271C90.9713 99.8781 90.7035 99.377 90.5949 98.8314C90.4864 98.2858 90.5421 97.7203 90.755 97.2064C90.9679 96.6925 91.3284 96.2533 91.7909 95.9442C92.2534 95.6352 92.7971 95.4702 93.3534 95.4702C94.0993 95.4702 94.8147 95.7665 95.3421 96.294C95.8696 96.8214 96.1659 97.5368 96.1659 98.2827ZM93.3534 72.9702C88.1831 72.9702 83.9784 76.7554 83.9784 81.4077L83.9784 82.3452C83.9784 82.8425 84.1759 83.3194 84.5276 83.671C84.8792 84.0227 85.3561 84.2202 85.8534 84.2202C86.3507 84.2202 86.8276 84.0227 87.1792 83.671C87.5309 83.3194 87.7284 82.8425 87.7284 82.3452L87.7284 81.4077C87.7284 78.8296 90.2526 76.7202 93.3534 76.7202C96.4542 76.7202 98.9784 78.8296 98.9784 81.4077C98.9784 83.9858 96.4542 86.0952 93.3534 86.0952C92.8561 86.0952 92.3792 86.2928 92.0276 86.6444C91.6759 86.996 91.4784 87.4729 91.4784 87.9702L91.4784 89.8452C91.4784 90.3425 91.6759 90.8194 92.0276 91.171C92.3792 91.5227 92.8561 91.7202 93.3534 91.7202C93.8507 91.7202 94.3276 91.5227 94.6792 91.171C95.0309 90.8194 95.2284 90.3425 95.2284 89.8452L95.2284 89.6765C99.5034 88.8913 102.728 85.4812 102.728 81.4077C102.728 76.7554 98.5237 72.9702 93.3534 72.9702ZM117.728 86.0952C117.728 90.9161 116.299 95.6288 113.62 99.6372C110.942 103.646 107.135 106.77 102.681 108.615C98.2274 110.46 93.3264 110.942 88.5981 110.002C83.8698 109.061 79.5266 106.74 76.1177 103.331C72.7088 99.922 70.3873 95.5788 69.4468 90.8505C68.5062 86.1223 68.989 81.2213 70.8338 76.7673C72.6787 72.3134 75.8029 68.5065 79.8114 65.8281C83.8198 63.1498 88.5325 61.7202 93.3534 61.7202C99.816 61.727 106.012 64.2973 110.582 68.867C115.151 73.4367 117.722 79.6327 117.728 86.0952ZM113.978 86.0952C113.978 82.016 112.769 78.0283 110.502 74.6366C108.236 71.2448 105.015 68.6013 101.246 67.0402C97.4775 65.4791 93.3305 65.0707 89.3297 65.8665C85.3288 66.6623 81.6538 68.6267 78.7693 71.5111C75.8849 74.3956 73.9205 78.0706 73.1247 82.0715C72.3289 86.0723 72.7373 90.2193 74.2984 93.9881C75.8594 97.7568 78.503 100.978 81.8948 103.244C85.2865 105.511 89.2742 106.72 93.3534 106.72C98.8216 106.714 104.064 104.539 107.931 100.672C111.797 96.8058 113.972 91.5634 113.978 86.0952Z" fill="#B1280F"/>
<path d="M96.1659 98.2827C96.1659 98.839 96.001 99.3827 95.6919 99.8453C95.3829 100.308 94.9436 100.668 94.4297 100.881C93.9158 101.094 93.3503 101.15 92.8047 101.041C92.2591 100.933 91.758 100.665 91.3647 100.271C90.9713 99.8781 90.7035 99.377 90.5949 98.8314C90.4864 98.2858 90.5421 97.7203 90.755 97.2064C90.9679 96.6925 91.3284 96.2533 91.7909 95.9442C92.2534 95.6352 92.7971 95.4702 93.3534 95.4702C94.0993 95.4702 94.8147 95.7665 95.3421 96.294C95.8696 96.8214 96.1659 97.5368 96.1659 98.2827ZM93.3534 72.9702C88.1831 72.9702 83.9784 76.7554 83.9784 81.4077L83.9784 82.3452C83.9784 82.8425 84.1759 83.3194 84.5276 83.671C84.8792 84.0227 85.3561 84.2202 85.8534 84.2202C86.3507 84.2202 86.8276 84.0227 87.1792 83.671C87.5309 83.3194 87.7284 82.8425 87.7284 82.3452L87.7284 81.4077C87.7284 78.8296 90.2526 76.7202 93.3534 76.7202C96.4542 76.7202 98.9784 78.8296 98.9784 81.4077C98.9784 83.9858 96.4542 86.0952 93.3534 86.0952C92.8561 86.0952 92.3792 86.2928 92.0276 86.6444C91.6759 86.996 91.4784 87.4729 91.4784 87.9702L91.4784 89.8452C91.4784 90.3425 91.6759 90.8194 92.0276 91.171C92.3792 91.5227 92.8561 91.7202 93.3534 91.7202C93.8507 91.7202 94.3276 91.5227 94.6792 91.171C95.0309 90.8194 95.2284 90.3425 95.2284 89.8452L95.2284 89.6765C99.5034 88.8913 102.728 85.4812 102.728 81.4077C102.728 76.7554 98.5237 72.9702 93.3534 72.9702ZM117.728 86.0952C117.728 90.9161 116.299 95.6288 113.62 99.6372C110.942 103.646 107.135 106.77 102.681 108.615C98.2274 110.46 93.3264 110.942 88.5981 110.002C83.8698 109.061 79.5266 106.74 76.1177 103.331C72.7088 99.922 70.3873 95.5788 69.4468 90.8505C68.5062 86.1223 68.989 81.2213 70.8338 76.7673C72.6787 72.3134 75.8029 68.5065 79.8114 65.8281C83.8198 63.1498 88.5325 61.7202 93.3534 61.7202C99.816 61.727 106.012 64.2973 110.582 68.867C115.151 73.4367 117.722 79.6327 117.728 86.0952ZM113.978 86.0952C113.978 82.016 112.769 78.0283 110.502 74.6366C108.236 71.2448 105.015 68.6013 101.246 67.0402C97.4775 65.4791 93.3305 65.0707 89.3297 65.8665C85.3288 66.6623 81.6538 68.6267 78.7693 71.5111C75.8849 74.3956 73.9205 78.0706 73.1247 82.0715C72.3289 86.0723 72.7373 90.2193 74.2984 93.9881C75.8594 97.7568 78.503 100.978 81.8948 103.244C85.2865 105.511 89.2742 106.72 93.3534 106.72C98.8216 106.714 104.064 104.539 107.931 100.672C111.797 96.8058 113.972 91.5634 113.978 86.0952Z" stroke="#B1280F" stroke-width="11.8086" stroke-linecap="round" stroke-linejoin="round"/>
</g>
<g style="mix-blend-mode:multiply" opacity="0.2" filter="url(#filter2_f_182_25479)">
<path d="M96.1659 98.2827C96.1659 98.839 96.001 99.3827 95.6919 99.8453C95.3829 100.308 94.9436 100.668 94.4297 100.881C93.9158 101.094 93.3503 101.15 92.8047 101.041C92.2591 100.933 91.758 100.665 91.3647 100.271C90.9713 99.8781 90.7035 99.377 90.5949 98.8314C90.4864 98.2858 90.5421 97.7203 90.755 97.2064C90.9679 96.6925 91.3284 96.2532 91.7909 95.9442C92.2534 95.6352 92.7971 95.4702 93.3534 95.4702C94.0993 95.4702 94.8147 95.7665 95.3421 96.294C95.8696 96.8214 96.1659 97.5368 96.1659 98.2827ZM93.3534 72.9702C88.1831 72.9702 83.9784 76.7554 83.9784 81.4077L83.9784 82.3452C83.9784 82.8425 84.1759 83.3194 84.5276 83.671C84.8792 84.0227 85.3561 84.2202 85.8534 84.2202C86.3507 84.2202 86.8276 84.0227 87.1792 83.671C87.5309 83.3194 87.7284 82.8425 87.7284 82.3452L87.7284 81.4077C87.7284 78.8296 90.2526 76.7202 93.3534 76.7202C96.4542 76.7202 98.9784 78.8296 98.9784 81.4077C98.9784 83.9858 96.4542 86.0952 93.3534 86.0952C92.8561 86.0952 92.3792 86.2928 92.0276 86.6444C91.6759 86.996 91.4784 87.4729 91.4784 87.9702L91.4784 89.8452C91.4784 90.3425 91.6759 90.8194 92.0276 91.171C92.3792 91.5227 92.8561 91.7202 93.3534 91.7202C93.8507 91.7202 94.3276 91.5227 94.6792 91.171C95.0309 90.8194 95.2284 90.3425 95.2284 89.8452L95.2284 89.6765C99.5034 88.8913 102.728 85.4812 102.728 81.4077C102.728 76.7554 98.5237 72.9702 93.3534 72.9702ZM117.728 86.0952C117.728 90.9161 116.299 95.6288 113.62 99.6372C110.942 103.646 107.135 106.77 102.681 108.615C98.2274 110.46 93.3264 110.942 88.5981 110.002C83.8698 109.061 79.5266 106.74 76.1177 103.331C72.7088 99.922 70.3873 95.5788 69.4468 90.8505C68.5062 86.1223 68.989 81.2213 70.8338 76.7673C72.6787 72.3134 75.8029 68.5065 79.8114 65.8281C83.8198 63.1498 88.5325 61.7202 93.3534 61.7202C99.816 61.727 106.012 64.2973 110.582 68.867C115.151 73.4367 117.722 79.6327 117.728 86.0952ZM113.978 86.0952C113.978 82.016 112.769 78.0283 110.502 74.6366C108.236 71.2448 105.015 68.6013 101.246 67.0402C97.4775 65.4791 93.3305 65.0707 89.3297 65.8665C85.3288 66.6623 81.6538 68.6267 78.7693 71.5111C75.8849 74.3956 73.9205 78.0706 73.1247 82.0715C72.3289 86.0723 72.7373 90.2193 74.2984 93.9881C75.8594 97.7568 78.503 100.978 81.8948 103.244C85.2865 105.511 89.2742 106.72 93.3534 106.72C98.8216 106.714 104.064 104.539 107.931 100.672C111.797 96.8058 113.972 91.5634 113.978 86.0952Z" stroke="#ED2A07" stroke-width="2.69248" stroke-linecap="round" stroke-linejoin="round"/>
</g>
<g style="mix-blend-mode:hard-light" filter="url(#filter3_dddii_182_25479)">
<path d="M96.1659 98.2827C96.1659 98.839 96.001 99.3827 95.6919 99.8453C95.3829 100.308 94.9436 100.668 94.4297 100.881C93.9158 101.094 93.3503 101.15 92.8047 101.041C92.2591 100.933 91.758 100.665 91.3647 100.271C90.9713 99.8781 90.7035 99.377 90.5949 98.8314C90.4864 98.2858 90.5421 97.7203 90.755 97.2064C90.9679 96.6925 91.3284 96.2532 91.7909 95.9442C92.2534 95.6352 92.7971 95.4702 93.3534 95.4702C94.0993 95.4702 94.8147 95.7665 95.3421 96.294C95.8696 96.8214 96.1659 97.5368 96.1659 98.2827ZM93.3534 72.9702C88.1831 72.9702 83.9784 76.7554 83.9784 81.4077L83.9784 82.3452C83.9784 82.8425 84.1759 83.3194 84.5276 83.671C84.8792 84.0227 85.3561 84.2202 85.8534 84.2202C86.3507 84.2202 86.8276 84.0227 87.1792 83.671C87.5309 83.3194 87.7284 82.8425 87.7284 82.3452L87.7284 81.4077C87.7284 78.8296 90.2526 76.7202 93.3534 76.7202C96.4542 76.7202 98.9784 78.8296 98.9784 81.4077C98.9784 83.9858 96.4542 86.0952 93.3534 86.0952C92.8561 86.0952 92.3792 86.2928 92.0276 86.6444C91.6759 86.996 91.4784 87.4729 91.4784 87.9702L91.4784 89.8452C91.4784 90.3425 91.6759 90.8194 92.0276 91.171C92.3792 91.5227 92.8561 91.7202 93.3534 91.7202C93.8507 91.7202 94.3276 91.5227 94.6792 91.171C95.0309 90.8194 95.2284 90.3425 95.2284 89.8452L95.2284 89.6765C99.5034 88.8913 102.728 85.4812 102.728 81.4077C102.728 76.7554 98.5237 72.9702 93.3534 72.9702ZM117.728 86.0952C117.728 90.9161 116.299 95.6288 113.62 99.6372C110.942 103.646 107.135 106.77 102.681 108.615C98.2274 110.46 93.3264 110.942 88.5981 110.002C83.8698 109.061 79.5266 106.74 76.1177 103.331C72.7088 99.922 70.3873 95.5788 69.4468 90.8505C68.5062 86.1223 68.989 81.2213 70.8338 76.7673C72.6787 72.3134 75.8029 68.5065 79.8114 65.8281C83.8198 63.1498 88.5325 61.7202 93.3534 61.7202C99.816 61.727 106.012 64.2973 110.582 68.867C115.151 73.4367 117.722 79.6327 117.728 86.0952ZM113.978 86.0952C113.978 82.016 112.769 78.0283 110.502 74.6366C108.236 71.2448 105.015 68.6013 101.246 67.0402C97.4775 65.4791 93.3305 65.0707 89.3297 65.8665C85.3288 66.6623 81.6538 68.6267 78.7693 71.5111C75.8849 74.3956 73.9205 78.0706 73.1247 82.0715C72.3289 86.0723 72.7373 90.2193 74.2984 93.9881C75.8594 97.7568 78.503 100.978 81.8948 103.244C85.2865 105.511 89.2742 106.72 93.3534 106.72C98.8216 106.714 104.064 104.539 107.931 100.672C111.797 96.8058 113.972 91.5634 113.978 86.0952Z" stroke="#ED2A07" stroke-opacity="0.2" stroke-width="8.97493" stroke-linecap="round" stroke-linejoin="round"/>
</g>
<g filter="url(#filter4_f_182_25479)">
<path d="M96.1659 98.2827C96.1659 98.839 96.001 99.3827 95.6919 99.8453C95.3829 100.308 94.9436 100.668 94.4297 100.881C93.9158 101.094 93.3503 101.15 92.8047 101.041C92.2591 100.933 91.758 100.665 91.3647 100.271C90.9713 99.8781 90.7035 99.377 90.5949 98.8314C90.4864 98.2858 90.5421 97.7203 90.755 97.2064C90.9679 96.6925 91.3284 96.2532 91.7909 95.9442C92.2534 95.6352 92.7971 95.4702 93.3534 95.4702C94.0993 95.4702 94.8147 95.7665 95.3421 96.294C95.8696 96.8214 96.1659 97.5368 96.1659 98.2827ZM93.3534 72.9702C88.1831 72.9702 83.9784 76.7554 83.9784 81.4077L83.9784 82.3452C83.9784 82.8425 84.1759 83.3194 84.5276 83.671C84.8792 84.0227 85.3561 84.2202 85.8534 84.2202C86.3507 84.2202 86.8276 84.0227 87.1792 83.671C87.5309 83.3194 87.7284 82.8425 87.7284 82.3452L87.7284 81.4077C87.7284 78.8296 90.2526 76.7202 93.3534 76.7202C96.4542 76.7202 98.9784 78.8296 98.9784 81.4077C98.9784 83.9858 96.4542 86.0952 93.3534 86.0952C92.8561 86.0952 92.3792 86.2928 92.0276 86.6444C91.6759 86.996 91.4784 87.4729 91.4784 87.9702L91.4784 89.8452C91.4784 90.3425 91.6759 90.8194 92.0276 91.171C92.3792 91.5227 92.8561 91.7202 93.3534 91.7202C93.8507 91.7202 94.3276 91.5227 94.6792 91.171C95.0309 90.8194 95.2284 90.3425 95.2284 89.8452L95.2284 89.6765C99.5034 88.8913 102.728 85.4812 102.728 81.4077C102.728 76.7554 98.5237 72.9702 93.3534 72.9702ZM117.728 86.0952C117.728 90.9161 116.299 95.6288 113.62 99.6372C110.942 103.646 107.135 106.77 102.681 108.615C98.2274 110.46 93.3264 110.942 88.5981 110.002C83.8698 109.061 79.5266 106.74 76.1177 103.331C72.7088 99.922 70.3873 95.5788 69.4468 90.8505C68.5062 86.1223 68.989 81.2213 70.8338 76.7673C72.6787 72.3134 75.8029 68.5065 79.8114 65.8281C83.8198 63.1498 88.5325 61.7202 93.3534 61.7202C99.816 61.727 106.012 64.2973 110.582 68.867C115.151 73.4367 117.722 79.6327 117.728 86.0952ZM113.978 86.0952C113.978 82.016 112.769 78.0283 110.502 74.6366C108.236 71.2448 105.015 68.6013 101.246 67.0402C97.4775 65.4791 93.3305 65.0707 89.3297 65.8665C85.3288 66.6623 81.6538 68.6267 78.7693 71.5111C75.8849 74.3956 73.9205 78.0706 73.1247 82.0715C72.3289 86.0723 72.7373 90.2193 74.2984 93.9881C75.8594 97.7568 78.503 100.978 81.8948 103.244C85.2865 105.511 89.2742 106.72 93.3534 106.72C98.8216 106.714 104.064 104.539 107.931 100.672C111.797 96.8058 113.972 91.5634 113.978 86.0952Z" stroke="#F78672" stroke-width="5.38496" stroke-linecap="round" stroke-linejoin="round"/>
</g>
<g filter="url(#filter5_f_182_25479)">
<path d="M96.1659 98.2827C96.1659 98.839 96.001 99.3827 95.6919 99.8453C95.3829 100.308 94.9436 100.668 94.4297 100.881C93.9158 101.094 93.3503 101.15 92.8047 101.041C92.2591 100.933 91.758 100.665 91.3647 100.271C90.9713 99.8781 90.7035 99.377 90.5949 98.8314C90.4864 98.2858 90.5421 97.7203 90.755 97.2064C90.9679 96.6925 91.3284 96.2533 91.7909 95.9442C92.2534 95.6352 92.7971 95.4702 93.3534 95.4702C94.0993 95.4702 94.8147 95.7665 95.3421 96.294C95.8696 96.8214 96.1659 97.5368 96.1659 98.2827ZM93.3534 72.9702C88.1831 72.9702 83.9784 76.7554 83.9784 81.4077L83.9784 82.3452C83.9784 82.8425 84.1759 83.3194 84.5276 83.671C84.8792 84.0227 85.3561 84.2202 85.8534 84.2202C86.3507 84.2202 86.8276 84.0227 87.1792 83.671C87.5309 83.3194 87.7284 82.8425 87.7284 82.3452L87.7284 81.4077C87.7284 78.8296 90.2526 76.7202 93.3534 76.7202C96.4542 76.7202 98.9784 78.8296 98.9784 81.4077C98.9784 83.9858 96.4542 86.0952 93.3534 86.0952C92.8561 86.0952 92.3792 86.2928 92.0276 86.6444C91.6759 86.996 91.4784 87.4729 91.4784 87.9702L91.4784 89.8452C91.4784 90.3425 91.6759 90.8194 92.0276 91.171C92.3792 91.5227 92.8561 91.7202 93.3534 91.7202C93.8507 91.7202 94.3276 91.5227 94.6792 91.171C95.0309 90.8194 95.2284 90.3425 95.2284 89.8452L95.2284 89.6765C99.5034 88.8913 102.728 85.4812 102.728 81.4077C102.728 76.7554 98.5237 72.9702 93.3534 72.9702ZM117.728 86.0952C117.728 90.9161 116.299 95.6288 113.62 99.6372C110.942 103.646 107.135 106.77 102.681 108.615C98.2274 110.46 93.3264 110.942 88.5981 110.002C83.8698 109.061 79.5266 106.74 76.1177 103.331C72.7088 99.922 70.3873 95.5788 69.4468 90.8505C68.5062 86.1223 68.989 81.2213 70.8338 76.7673C72.6787 72.3134 75.8029 68.5065 79.8114 65.8281C83.8198 63.1498 88.5325 61.7202 93.3534 61.7202C99.816 61.727 106.012 64.2973 110.582 68.867C115.151 73.4367 117.722 79.6327 117.728 86.0952ZM113.978 86.0952C113.978 82.016 112.769 78.0283 110.502 74.6366C108.236 71.2448 105.015 68.6013 101.246 67.0402C97.4775 65.4791 93.3305 65.0707 89.3297 65.8665C85.3288 66.6623 81.6538 68.6267 78.7693 71.5111C75.8849 74.3956 73.9205 78.0706 73.1247 82.0715C72.3289 86.0723 72.7373 90.2193 74.2984 93.9881C75.8594 97.7568 78.503 100.978 81.8948 103.244C85.2865 105.511 89.2742 106.72 93.3534 106.72C98.8216 106.714 104.064 104.539 107.931 100.672C111.797 96.8058 113.972 91.5634 113.978 86.0952Z" fill="white"/>
<path d="M96.1659 98.2827C96.1659 98.839 96.001 99.3827 95.6919 99.8453C95.3829 100.308 94.9436 100.668 94.4297 100.881C93.9158 101.094 93.3503 101.15 92.8047 101.041C92.2591 100.933 91.758 100.665 91.3647 100.271C90.9713 99.8781 90.7035 99.377 90.5949 98.8314C90.4864 98.2858 90.5421 97.7203 90.755 97.2064C90.9679 96.6925 91.3284 96.2533 91.7909 95.9442C92.2534 95.6352 92.7971 95.4702 93.3534 95.4702C94.0993 95.4702 94.8147 95.7665 95.3421 96.294C95.8696 96.8214 96.1659 97.5368 96.1659 98.2827ZM93.3534 72.9702C88.1831 72.9702 83.9784 76.7554 83.9784 81.4077L83.9784 82.3452C83.9784 82.8425 84.1759 83.3194 84.5276 83.671C84.8792 84.0227 85.3561 84.2202 85.8534 84.2202C86.3507 84.2202 86.8276 84.0227 87.1792 83.671C87.5309 83.3194 87.7284 82.8425 87.7284 82.3452L87.7284 81.4077C87.7284 78.8296 90.2526 76.7202 93.3534 76.7202C96.4542 76.7202 98.9784 78.8296 98.9784 81.4077C98.9784 83.9858 96.4542 86.0952 93.3534 86.0952C92.8561 86.0952 92.3792 86.2928 92.0276 86.6444C91.6759 86.996 91.4784 87.4729 91.4784 87.9702L91.4784 89.8452C91.4784 90.3425 91.6759 90.8194 92.0276 91.171C92.3792 91.5227 92.8561 91.7202 93.3534 91.7202C93.8507 91.7202 94.3276 91.5227 94.6792 91.171C95.0309 90.8194 95.2284 90.3425 95.2284 89.8452L95.2284 89.6765C99.5034 88.8913 102.728 85.4812 102.728 81.4077C102.728 76.7554 98.5237 72.9702 93.3534 72.9702ZM117.728 86.0952C117.728 90.9161 116.299 95.6288 113.62 99.6372C110.942 103.646 107.135 106.77 102.681 108.615C98.2274 110.46 93.3264 110.942 88.5981 110.002C83.8698 109.061 79.5266 106.74 76.1177 103.331C72.7088 99.922 70.3873 95.5788 69.4468 90.8505C68.5062 86.1223 68.989 81.2213 70.8338 76.7673C72.6787 72.3134 75.8029 68.5065 79.8114 65.8281C83.8198 63.1498 88.5325 61.7202 93.3534 61.7202C99.816 61.727 106.012 64.2973 110.582 68.867C115.151 73.4367 117.722 79.6327 117.728 86.0952ZM113.978 86.0952C113.978 82.016 112.769 78.0283 110.502 74.6366C108.236 71.2448 105.015 68.6013 101.246 67.0402C97.4775 65.4791 93.3305 65.0707 89.3297 65.8665C85.3288 66.6623 81.6538 68.6267 78.7693 71.5111C75.8849 74.3956 73.9205 78.0706 73.1247 82.0715C72.3289 86.0723 72.7373 90.2193 74.2984 93.9881C75.8594 97.7568 78.503 100.978 81.8948 103.244C85.2865 105.511 89.2742 106.72 93.3534 106.72C98.8216 106.714 104.064 104.539 107.931 100.672C111.797 96.8058 113.972 91.5634 113.978 86.0952Z" stroke="#EEEEEE" stroke-linecap="round" stroke-linejoin="round"/>
</g>
</g>
<rect x="27.9599" y="33.1408" width="119" height="119" rx="19.5" transform="rotate(-6 27.9599 33.1408)" stroke="#252525"/>
<rect width="4.29943" height="20.6117" rx="2.14971" transform="matrix(0.866025 0.5 0.5 -0.866025 48.3724 37.4321)" fill="#888888"/>
<rect width="15.5298" height="15.5298" rx="7.76492" transform="matrix(0.958355 -0.28558 -0.28558 -0.958355 104.807 19.8999)" fill="#ED2A07"/>
<rect width="8" height="8" rx="4" transform="matrix(0.958355 -0.28558 -0.28558 -0.958355 2.28464 102.9)" fill="#ED2A07"/>
<rect width="10.1588" height="10.1588" rx="5.0794" transform="matrix(0.939651 0.342133 0.342133 -0.939651 111.372 147.128)" fill="#888888"/>
<rect width="14.066" height="14.066" rx="2.29213" transform="matrix(0.965193 -0.261538 -0.261538 -0.965193 20.0512 149.837)" fill="#151515"/>
<rect width="9.7821" height="9.7821" rx="1.59404" transform="matrix(-0.965193 0.261538 0.261538 0.965193 174.393 34.2095)" fill="#151515"/>
<rect width="5.0302" height="5.0302" rx="2.5151" transform="matrix(0.958355 -0.28558 -0.28558 -0.958355 88.9656 161.364)" fill="#ED2A07"/>
<defs>
<filter id="filter0_f_182_25479" x="19.6163" y="12.3583" width="147.474" height="147.474" filterUnits="userSpaceOnUse" color-interpolation-filters="sRGB">
<feFlood flood-opacity="0" result="BackgroundImageFix"/>
<feBlend mode="normal" in="SourceGraphic" in2="BackgroundImageFix" result="shape"/>
<feGaussianBlur stdDeviation="22.4373" result="effect1_foregroundBlur_182_25479"/>
</filter>
<filter id="filter1_f_182_25479" x="49.6117" y="42.3535" width="87.4834" height="87.4834" filterUnits="userSpaceOnUse" color-interpolation-filters="sRGB">
<feFlood flood-opacity="0" result="BackgroundImageFix"/>
<feBlend mode="normal" in="SourceGraphic" in2="BackgroundImageFix" result="shape"/>
<feGaussianBlur stdDeviation="6.73119" result="effect1_foregroundBlur_182_25479"/>
</filter>
<filter id="filter2_f_182_25479" x="65.8372" y="58.579" width="55.0325" height="55.0324" filterUnits="userSpaceOnUse" color-interpolation-filters="sRGB">
<feFlood flood-opacity="0" result="BackgroundImageFix"/>
<feBlend mode="normal" in="SourceGraphic" in2="BackgroundImageFix" result="shape"/>
<feGaussianBlur stdDeviation="0.897493" result="effect1_foregroundBlur_182_25479"/>
</filter>
<filter id="filter3_dddii_182_25479" x="34.4909" y="37.2329" width="117.725" height="117.725" filterUnits="userSpaceOnUse" color-interpolation-filters="sRGB">
<feFlood flood-opacity="0" result="BackgroundImageFix"/>
<feColorMatrix in="SourceAlpha" type="matrix" values="0 0 0 0 0 0 0 0 0 0 0 0 0 0 0 0 0 0 127 0" result="hardAlpha"/>
<feOffset dy="8.97493"/>
<feGaussianBlur stdDeviation="3.58997"/>
<feColorMatrix type="matrix" values="0 0 0 0 0.0833333 0 0 0 0 0.02 0 0 0 0 0 0 0 0 0.7 0"/>
<feBlend mode="multiply" in2="BackgroundImageFix" result="effect1_dropShadow_182_25479"/>
<feColorMatrix in="SourceAlpha" type="matrix" values="0 0 0 0 0 0 0 0 0 0 0 0 0 0 0 0 0 0 127 0" result="hardAlpha"/>
<feOffset dy="17.9499"/>
<feGaussianBlur stdDeviation="8.97493"/>
<feColorMatrix type="matrix" values="0 0 0 0 0.175 0 0 0 0 0.0965125 0 0 0 0 0.004375 0 0 0 0.8 0"/>
<feBlend mode="multiply" in2="effect1_dropShadow_182_25479" result="effect2_dropShadow_182_25479"/>
<feColorMatrix in="SourceAlpha" type="matrix" values="0 0 0 0 0 0 0 0 0 0 0 0 0 0 0 0 0 0 127 0" result="hardAlpha"/>
<feOffset dy="10"/>
<feGaussianBlur stdDeviation="15"/>
<feColorMatrix type="matrix" values="0 0 0 0 1 0 0 0 0 0.289333 0 0 0 0 0.133333 0 0 0 1 0"/>
<feBlend mode="color-dodge" in2="effect2_dropShadow_182_25479" result="effect3_dropShadow_182_25479"/>
<feBlend mode="normal" in="SourceGraphic" in2="effect3_dropShadow_182_25479" result="shape"/>
<feColorMatrix in="SourceAlpha" type="matrix" values="0 0 0 0 0 0 0 0 0 0 0 0 0 0 0 0 0 0 127 0" result="hardAlpha"/>
<feOffset dx="-0.897493" dy="1.79499"/>
<feGaussianBlur stdDeviation="0.448746"/>
<feComposite in2="hardAlpha" operator="arithmetic" k2="-1" k3="1"/>
<feColorMatrix type="matrix" values="0 0 0 0 1 0 0 0 0 1 0 0 0 0 1 0 0 0 0.5 0"/>
<feBlend mode="normal" in2="shape" result="effect4_innerShadow_182_25479"/>
<feColorMatrix in="SourceAlpha" type="matrix" values="0 0 0 0 0 0 0 0 0 0 0 0 0 0 0 0 0 0 127 0" result="hardAlpha"/>
<feOffset dx="-0.897493" dy="-1.79499"/>
<feGaussianBlur stdDeviation="0.448746"/>
<feComposite in2="hardAlpha" operator="arithmetic" k2="-1" k3="1"/>
<feColorMatrix type="matrix" values="0 0 0 0 1 0 0 0 0 1 0 0 0 0 1 0 0 0 0.4 0"/>
<feBlend mode="normal" in2="effect4_innerShadow_182_25479" result="effect5_innerShadow_182_25479"/>
</filter>
<filter id="filter4_f_182_25479" x="65.1051" y="57.847" width="56.4967" height="56.4965" filterUnits="userSpaceOnUse" color-interpolation-filters="sRGB">
<feFlood flood-opacity="0" result="BackgroundImageFix"/>
<feBlend mode="normal" in="SourceGraphic" in2="BackgroundImageFix" result="shape"/>
<feGaussianBlur stdDeviation="0.59043" result="effect1_foregroundBlur_182_25479"/>
</filter>
<filter id="filter5_f_182_25479" x="67.5809" y="60.3227" width="51.545" height="51.545" filterUnits="userSpaceOnUse" color-interpolation-filters="sRGB">
<feFlood flood-opacity="0" result="BackgroundImageFix"/>
<feBlend mode="normal" in="SourceGraphic" in2="BackgroundImageFix" result="shape"/>
<feGaussianBlur stdDeviation="0.448746" result="effect1_foregroundBlur_182_25479"/>
</filter>
<clipPath id="clip0_182_25479">
<rect x="27.4104" y="32.6958" width="120" height="120" rx="20" transform="rotate(-6 27.4104 32.6958)" fill="white"/>
</clipPath>
</defs>
</svg>
