<svg width="55" height="33" viewBox="0 0 55 33" fill="none" xmlns="http://www.w3.org/2000/svg">
<g id="O_0">
<path d="M15.6672 9.92064C15.7805 11.6486 15.7563 13.2817 15.5946 14.8199C15.5361 15.3768 15.3925 16.2332 15.1637 17.3889C14.889 18.7275 14.5633 19.9133 14.1865 20.9463C13.8098 21.9792 13.2852 22.8894 12.6125 23.6767C12.0655 24.2895 11.5177 24.7816 10.9692 25.153C10.09 25.865 9.11157 26.2448 8.03402 26.2924L7.39334 26.2653L6.72125 26.1545C6.39743 26.1741 6.16921 26.1769 6.03661 26.1629C4.89623 26.0431 3.87721 25.5338 2.97957 24.635C1.58075 23.1473 0.78131 20.9316 0.581248 17.9879C0.511242 16.6131 0.541744 15.3024 0.672753 14.056C1.09365 10.0513 2.44353 6.51976 4.72239 3.46121C4.72239 3.46121 4.7517 3.43748 4.81031 3.39001C5.31962 2.371 5.95038 1.47201 6.70259 0.693034C6.73469 0.642781 6.7626 0.632308 6.78633 0.661616C6.81285 0.664403 6.81007 0.690924 6.77797 0.741179C6.40398 1.23814 6.15 1.61365 6.01604 1.86771C5.85278 2.14549 5.6344 2.56497 5.36091 3.12612C5.41674 3.10517 5.46978 3.11075 5.52004 3.14284C5.5996 3.15121 5.65264 3.15678 5.67916 3.15957C6.65875 1.49283 7.73128 0.600052 8.89675 0.481226C9.55833 0.309439 10.0866 0.257712 10.4817 0.326043C10.8055 0.306452 11.0469 0.305018 11.2061 0.321743C11.6039 0.363554 11.927 0.477959 12.1755 0.664956C12.5217 0.942665 12.8666 1.48837 13.2101 2.30206C13.2659 2.28112 13.3601 2.27761 13.4927 2.29155C13.7579 2.31942 13.9575 2.46107 14.0916 2.71648C14.6627 4.17081 15.0495 5.33763 15.252 6.21695C15.4434 7.20236 15.5818 8.43692 15.6672 9.92064ZM9.47783 20.9742C10.2662 19.341 10.7747 17.4371 11.0032 15.2624L11.0324 14.2197C11.1018 12.0283 11.1023 10.3659 11.0337 9.23254L10.8994 7.44873C10.6815 6.46054 10.5034 5.73127 10.3652 5.2609C10.2032 4.76123 10.1012 4.45557 10.0594 4.34391L9.9086 4.24763L9.70969 4.22672C9.51991 4.50172 9.30014 4.93445 9.05038 5.52492C8.40577 7.06598 7.91956 8.50303 7.59175 9.83606C7.29605 11.1188 7.07851 12.4233 6.93914 13.7493C6.75238 15.5262 6.70937 17.2109 6.81012 18.8035C6.82828 18.8858 6.8276 19.0198 6.80809 19.2055C6.78022 19.4707 6.68604 19.7289 6.52556 19.9802C6.28512 17.6758 6.27083 15.5158 6.48267 13.5002C6.85061 9.99949 7.82928 6.93835 9.41868 4.31679C9.27772 4.38242 9.06559 4.61485 8.78231 5.01409C7.91852 6.34443 7.22226 7.86665 6.69352 9.58077L6.59723 9.73154C6.42704 10.3304 6.22479 11.2342 5.99049 12.443C5.61681 14.9778 5.60188 17.671 5.9457 20.5225C5.80194 20.6147 5.64911 20.6657 5.4872 20.6755C5.40485 20.6936 5.27085 20.6929 5.08521 20.6734C4.74044 20.6372 4.41869 20.5095 4.11996 20.2904C4.36573 21.0134 4.72734 21.6547 5.20479 22.2144C5.71155 22.7503 6.29644 23.0531 6.95945 23.1228C7.22466 23.1506 7.43961 23.1464 7.60431 23.1101C8.07188 22.9984 8.46336 22.7177 8.77874 22.2682C9.09691 21.7922 9.32994 21.3609 9.47783 20.9742Z" fill="#888888"/>
<path d="M30.2627 32.1279C29.2382 32.1811 28.2751 32.1604 27.3734 32.0656C26.233 31.9457 25.3697 31.8684 24.7834 31.8336L22.0344 31.5849C21.1592 31.4929 20.3692 31.3562 19.6642 31.1749C19.3251 31.0856 19.0766 30.8986 18.9188 30.6139C18.761 30.3292 18.7003 30.0144 18.7365 29.6697C18.7727 29.3249 18.899 29.0164 19.1153 28.7442C19.3554 28.5013 19.6387 28.3568 19.9653 28.3107C20.4566 28.2282 21.01 28.1925 21.6256 28.2036C22.2383 28.2412 22.6257 28.2551 22.7876 28.2453L25.1556 28.2931C25.5268 28.3321 26.06 28.3613 26.7552 28.3808C27.4531 28.3737 28.1335 28.405 28.7965 28.4747C29.1148 28.5081 29.5628 28.582 30.1407 28.6964C30.6125 28.7996 30.9922 29.0138 31.2798 29.339C31.5911 29.6935 31.7217 30.1094 31.6715 30.5868C31.6353 30.9315 31.4797 31.2638 31.2048 31.5834C30.9298 31.9031 30.6158 32.0846 30.2627 32.1279Z" fill="#888888"/>
<path d="M53.2714 22.5204C52.9101 23.6622 52.5229 24.6672 52.1099 25.5355C51.7234 26.4065 51.2273 27.1722 50.6217 27.8325C48.8479 29.6571 47.0063 30.469 45.0968 30.2683C44.2481 30.1791 43.4441 29.9203 42.6847 29.492C41.9546 29.0398 41.3195 28.4502 40.7792 27.7231C39.6693 26.2926 38.9097 24.5905 38.5004 22.6169C38.1177 20.6461 38.0336 18.6397 38.2482 16.5976C38.6413 12.8582 39.8726 9.68952 41.9421 7.09162C42.1263 6.86966 42.3322 6.82426 42.5597 6.95543C42.7677 6.76278 43.1033 6.50311 43.5667 6.17642C45.2303 5.14466 46.7182 4.76477 48.0303 5.03675C49.7639 5.37984 51.141 6.18151 52.1615 7.44175C53.0634 8.55546 53.6526 9.83741 53.9292 11.2876C54.2351 12.7141 54.3624 14.3094 54.311 16.0737C54.2804 16.8749 54.2428 17.4877 54.1982 17.912C54.0421 19.3972 53.7332 20.9333 53.2714 22.5204ZM50.1463 13.987C50.015 13.1956 49.9402 12.7587 49.9221 12.6763C49.5771 11.1117 48.9704 10.1229 48.1022 9.70986C47.9249 9.61079 47.7434 9.5515 47.5578 9.53199C47.0274 9.47624 46.497 9.67522 45.9667 10.1289C45.4629 10.5854 45.0582 11.1194 44.7526 11.7308C44.1414 12.9536 43.7361 14.131 43.5367 15.2631C43.4767 15.5785 43.4161 16.028 43.3548 16.6114C43.1541 18.5209 43.0727 20.4429 43.1107 22.3775C43.1038 22.6985 43.004 23.0098 42.8115 23.3113C42.6482 23.5891 42.4228 23.8202 42.1353 24.0045C42.3029 24.4511 42.61 25.1001 43.0568 25.9515L43.1678 26.0436C43.8309 26.6227 44.4674 26.9443 45.0774 27.0085C45.6078 27.0642 46.1577 26.9343 46.7272 26.6188C47.7865 25.9793 48.6182 24.6993 49.2223 22.7785C49.6882 21.4064 49.9965 20.0043 50.147 18.5722C50.186 18.2009 50.2181 17.6412 50.2431 16.893C50.2834 15.7443 50.2511 14.7756 50.1463 13.987Z" fill="#888888"/>
</g>
</svg>
