<svg width="32" height="33" viewBox="0 0 32 33" fill="none" xmlns="http://www.w3.org/2000/svg">
<path d="M16 3.5332C13.4288 3.5332 10.9154 4.29564 8.77759 5.7241C6.63975 7.15256 4.97351 9.18288 3.98957 11.5583C3.00563 13.9338 2.74819 16.5476 3.2498 19.0694C3.75141 21.5911 4.98953 23.9075 6.80762 25.7256C8.6257 27.5437 10.9421 28.7818 13.4638 29.2834C15.9856 29.785 18.5995 29.5276 20.9749 28.5436C23.3503 27.5597 25.3807 25.8935 26.8091 23.7556C28.2376 21.6178 29 19.1044 29 16.5332C28.9964 13.0865 27.6256 9.78202 25.1884 7.34483C22.7512 4.90765 19.4467 3.53684 16 3.5332ZM27 16.5332C27.0011 17.9444 26.7295 19.3426 26.2 20.6507L20.6125 17.2145C20.3749 17.0679 20.1092 16.9729 19.8325 16.9357L16.98 16.5507C16.5869 16.4995 16.1875 16.5653 15.8317 16.7401C15.476 16.9149 15.1797 17.1908 14.98 17.5332H13.89L13.415 16.5507C13.2837 16.2771 13.0915 16.0372 12.8532 15.8494C12.6148 15.6615 12.3367 15.5307 12.04 15.467L11.04 15.2507L12.0175 13.5332H14.1063C14.4442 13.5325 14.7766 13.4465 15.0725 13.2832L16.6038 12.4382C16.7383 12.3632 16.8641 12.2735 16.9788 12.1707L20.3425 9.1282C20.6798 8.82597 20.9039 8.4178 20.978 7.97104C21.0521 7.52428 20.9717 7.06561 20.75 6.6707L20.705 6.58945C22.5873 7.48195 24.1778 8.88994 25.292 10.65C26.4063 12.4101 26.9985 14.4501 27 16.5332ZM17.9138 5.7007L19 7.6457L15.6363 10.6882L14.1063 11.5332H12.0175C11.6659 11.5327 11.3204 11.6249 11.0158 11.8004C10.7112 11.976 10.4583 12.2287 10.2825 12.5332L9.19126 14.437L7.92251 11.057L9.29001 7.8232C10.5004 6.88794 11.8929 6.21582 13.3781 5.8499C14.8633 5.48397 16.4086 5.4323 17.915 5.6982L17.9138 5.7007ZM5.00001 16.5332C4.99834 14.8982 5.36311 13.2837 6.06751 11.8082L7.48501 15.592C7.60313 15.9052 7.79802 16.1838 8.0518 16.4022C8.30558 16.6206 8.61012 16.7718 8.93751 16.842L11.6163 17.4182L12.0925 18.4082C12.2578 18.7449 12.5139 19.0287 12.832 19.2275C13.1501 19.4263 13.5174 19.5322 13.8925 19.5332H14.0775L13.1738 21.562C13.0145 21.9192 12.9635 22.3153 13.0271 22.7012C13.0906 23.0871 13.2659 23.4459 13.5313 23.7332L13.5488 23.7507L16 26.2757L15.7575 27.5257C12.8848 27.4589 10.152 26.2719 8.14216 24.2182C6.13236 22.1645 5.00477 19.4067 5.00001 16.5332ZM17.8225 27.3807L17.9638 26.6545C18.0218 26.3459 18.0068 26.0281 17.92 25.7264C17.8332 25.4246 17.6769 25.1474 17.4638 24.917C17.4576 24.9114 17.4518 24.9056 17.4463 24.8995L15 22.3757L16.7125 18.5332L19.565 18.9182L25.28 22.4332C24.452 23.7335 23.3605 24.8457 22.076 25.6979C20.7914 26.5501 19.3424 27.1234 17.8225 27.3807Z" fill="#999999"/>
</svg>
