<svg width="32" height="33" viewBox="0 0 32 33" fill="none" xmlns="http://www.w3.org/2000/svg">
<path d="M16 10.5332C14.8133 10.5332 13.6533 10.8851 12.6666 11.5444C11.6799 12.2037 10.9108 13.1407 10.4567 14.2371C10.0026 15.3335 9.88378 16.5399 10.1153 17.7037C10.3468 18.8676 10.9182 19.9367 11.7574 20.7758C12.5965 21.615 13.6656 22.1864 14.8295 22.4179C15.9933 22.6494 17.1997 22.5306 18.2961 22.0765C19.3925 21.6224 20.3295 20.8533 20.9888 19.8666C21.6481 18.8799 22 17.7199 22 16.5332C21.9983 14.9424 21.3657 13.4172 20.2408 12.2924C19.116 11.1675 17.5908 10.5349 16 10.5332ZM16 20.5332C15.2089 20.5332 14.4355 20.2986 13.7777 19.8591C13.1199 19.4196 12.6072 18.7948 12.3045 18.0639C12.0017 17.333 11.9225 16.5288 12.0769 15.7528C12.2312 14.9769 12.6122 14.2642 13.1716 13.7048C13.731 13.1454 14.4437 12.7644 15.2196 12.6101C15.9956 12.4557 16.7998 12.5349 17.5307 12.8377C18.2616 13.1404 18.8864 13.6531 19.3259 14.3109C19.7654 14.9687 20 15.7421 20 16.5332C20 17.5941 19.5786 18.6115 18.8284 19.3616C18.0783 20.1118 17.0609 20.5332 16 20.5332ZM22 3.5332H10C8.14409 3.53519 6.36477 4.27332 5.05245 5.58565C3.74012 6.89797 3.00199 8.6773 3 10.5332V22.5332C3.00199 24.3891 3.74012 26.1684 5.05245 27.4808C6.36477 28.7931 8.14409 29.5312 10 29.5332H22C23.8559 29.5312 25.6352 28.7931 26.9476 27.4808C28.2599 26.1684 28.998 24.3891 29 22.5332V10.5332C28.998 8.6773 28.2599 6.89797 26.9476 5.58565C25.6352 4.27332 23.8559 3.53519 22 3.5332ZM27 22.5332C27 23.8593 26.4732 25.1311 25.5355 26.0687C24.5979 27.0064 23.3261 27.5332 22 27.5332H10C8.67392 27.5332 7.40215 27.0064 6.46447 26.0687C5.52678 25.1311 5 23.8593 5 22.5332V10.5332C5 9.20712 5.52678 7.93535 6.46447 6.99767C7.40215 6.05999 8.67392 5.5332 10 5.5332H22C23.3261 5.5332 24.5979 6.05999 25.5355 6.99767C26.4732 7.93535 27 9.20712 27 10.5332V22.5332ZM24 10.0332C24 10.3299 23.912 10.6199 23.7472 10.8666C23.5824 11.1132 23.3481 11.3055 23.074 11.419C22.7999 11.5326 22.4983 11.5623 22.2074 11.5044C21.9164 11.4465 21.6491 11.3036 21.4393 11.0939C21.2296 10.8841 21.0867 10.6168 21.0288 10.3258C20.9709 10.0349 21.0007 9.73327 21.1142 9.45918C21.2277 9.18509 21.42 8.95082 21.6666 8.786C21.9133 8.62118 22.2033 8.5332 22.5 8.5332C22.8978 8.5332 23.2794 8.69124 23.5607 8.97254C23.842 9.25385 24 9.63538 24 10.0332Z" fill="#999999"/>
</svg>
