<svg width="32" height="33" viewBox="0 0 32 33" fill="none" xmlns="http://www.w3.org/2000/svg">
<path d="M29.61 3.80672C29.4551 3.67293 29.2666 3.58395 29.0648 3.54937C28.863 3.51479 28.6557 3.53592 28.465 3.61047L3.13251 13.5242C2.77349 13.6638 2.46954 13.9163 2.26642 14.2436C2.06329 14.5709 1.97199 14.9553 2.00625 15.339C2.04052 15.7227 2.1985 16.0848 2.4564 16.371C2.71431 16.6571 3.05819 16.8517 3.43626 16.9255L10 18.2142V25.533C9.99872 25.9316 10.1172 26.3215 10.3401 26.652C10.5629 26.9825 10.8799 27.2385 11.25 27.3867C11.6195 27.5376 12.0258 27.5738 12.4162 27.4907C12.8065 27.4075 13.1628 27.2088 13.4388 26.9205L16.6038 23.638L21.625 28.033C21.9873 28.3543 22.4545 28.5321 22.9388 28.533C23.151 28.5328 23.3618 28.4995 23.5638 28.4342C23.8937 28.3295 24.1904 28.1402 24.4245 27.8852C24.6585 27.6301 24.8216 27.3182 24.8975 26.9805L29.9713 4.90797C30.0166 4.70891 30.007 4.50125 29.9434 4.30725C29.8797 4.11325 29.7645 3.94023 29.61 3.80672ZM21.9675 8.30672L10.7688 16.3267L4.56876 15.1105L21.9675 8.30672ZM12 25.533V19.598L15.0988 22.3155L12 25.533ZM22.9413 26.533L12.6063 17.4705L27.4813 6.80922L22.9413 26.533Z" fill="#999999"/>
</svg>
