<svg width="32" height="33" viewBox="0 0 32 33" fill="none" xmlns="http://www.w3.org/2000/svg">
<path d="M20.555 15.7007L14.555 11.7007C14.4044 11.6002 14.2293 11.5425 14.0484 11.5337C13.8675 11.525 13.6877 11.5655 13.528 11.651C13.3684 11.7364 13.2349 11.8636 13.1419 12.019C13.0489 12.1744 12.9999 12.3521 13 12.5332V20.5332C12.9999 20.7143 13.0489 20.892 13.1419 21.0474C13.2349 21.2028 13.3684 21.33 13.528 21.4155C13.6877 21.5009 13.8675 21.5414 14.0484 21.5327C14.2293 21.5239 14.4044 21.4662 14.555 21.3657L20.555 17.3657C20.6922 17.2744 20.8047 17.1507 20.8825 17.0054C20.9603 16.8602 21.001 16.698 21.001 16.5332C21.001 16.3684 20.9603 16.2062 20.8825 16.061C20.8047 15.9158 20.6922 15.792 20.555 15.7007ZM15 18.6645V14.4082L18.1975 16.5332L15 18.6645ZM29.2913 9.22321C29.1735 8.76239 28.9478 8.33618 28.6329 7.97975C28.318 7.62331 27.9228 7.34686 27.48 7.17321C23.195 5.51821 16.375 5.53321 16 5.53321C15.625 5.53321 8.805 5.51821 4.52 7.17321C4.0772 7.34686 3.68204 7.62331 3.36712 7.97975C3.05219 8.33618 2.82653 8.76239 2.70875 9.22321C2.385 10.4707 2 12.7507 2 16.5332C2 20.3157 2.385 22.5957 2.70875 23.8432C2.82636 24.3043 3.05194 24.7307 3.36687 25.0874C3.68181 25.444 4.07706 25.7207 4.52 25.8945C8.625 27.4782 15.05 27.5332 15.9175 27.5332H16.0825C16.95 27.5332 23.3787 27.4782 27.48 25.8945C27.9229 25.7207 28.3182 25.444 28.6331 25.0874C28.9481 24.7307 29.1736 24.3043 29.2913 23.8432C29.615 22.5932 30 20.3157 30 16.5332C30 12.7507 29.615 10.4707 29.2913 9.22321ZM27.355 23.3482C27.3169 23.5016 27.243 23.6437 27.1394 23.763C27.0357 23.8823 26.9053 23.9753 26.7588 24.0345C22.8025 25.562 16.0738 25.5345 16.0088 25.5345H16C15.9325 25.5345 9.20875 25.5595 5.25 24.0345C5.10346 23.9753 4.97303 23.8823 4.86938 23.763C4.76574 23.6437 4.69184 23.5016 4.65375 23.3482C4.35 22.207 4 20.1045 4 16.5332C4 12.962 4.35 10.8595 4.645 9.72446C4.68239 9.57018 4.75596 9.42703 4.85965 9.30683C4.96333 9.18662 5.09413 9.09283 5.24125 9.03321C9.05625 7.55946 15.4487 7.53321 15.9725 7.53321H16.0063C16.0738 7.53321 22.8038 7.51071 26.7563 9.03321C26.9028 9.09235 27.0332 9.18537 27.1369 9.30466C27.2405 9.42395 27.3144 9.5661 27.3525 9.71946C27.65 10.8595 28 12.962 28 16.5332C28 20.1045 27.65 22.207 27.355 23.342V23.3482Z" fill="#999999"/>
</svg>
