<svg width="235" height="125" viewBox="0 0 235 125" fill="none" xmlns="http://www.w3.org/2000/svg">
<path d="M9.84571 31.081C6.43949 27.196 3.10251 23.2415 0.028359 19.1041L0.333042 18.9077C3.44872 23.0307 6.81317 26.9294 10.2883 30.744C13.7635 34.5587 17.3351 38.2471 21.0173 41.8512C28.3821 49.0601 36.2025 55.8337 44.3257 62.1318C52.4632 68.4716 60.9449 74.3214 69.7841 79.5833C74.2107 82.2349 78.7198 84.719 83.2694 87.0491C87.819 89.3791 92.5067 91.5689 97.221 93.5633L100.777 95.0171L104.361 96.4148C106.759 97.328 109.143 98.1996 111.596 99.0009C113.343 99.6183 115.112 100.156 116.875 100.692C117.56 100.9 118.245 101.109 118.927 101.321C121.394 102.024 123.86 102.728 126.34 103.334L128.22 103.815C128.527 103.898 128.84 103.966 129.153 104.035C129.467 104.104 129.78 104.173 130.087 104.255L133.847 105.08C136.34 105.588 138.833 106.096 141.381 106.491C143.343 106.844 145.304 107.111 147.273 107.379C147.832 107.455 148.393 107.531 148.954 107.61L152.767 108.043C153.755 108.181 154.725 108.268 155.718 108.357C155.998 108.382 156.281 108.407 156.566 108.434C157.206 108.474 157.839 108.527 158.472 108.581C159.105 108.634 159.739 108.688 160.379 108.728L164.205 108.924C165.126 109.009 166.047 109.025 166.958 109.04C167.327 109.046 167.693 109.052 168.058 109.063C169.323 109.101 170.589 109.138 171.882 109.119L175.735 109.119C176.444 109.117 177.163 109.096 177.888 109.075C178.441 109.059 178.999 109.044 179.558 109.036C181.159 109.021 182.765 108.913 184.373 108.804C185.321 108.74 186.27 108.676 187.218 108.631C195.32 108.035 203.4 106.945 211.397 105.382C210.7 103.39 209.528 101.557 207.933 100.063L206.984 99.1737L207.191 98.9631C216.344 99.8998 225.647 100.083 234.828 99.576C226.72 103.916 218.951 108.976 211.652 114.577L211.345 114.494L211.676 113.28C212.283 111.055 212.291 108.756 211.758 106.595C203.731 108.436 195.593 109.809 187.371 110.586C186.509 110.645 185.646 110.715 184.782 110.785C183.056 110.924 181.329 111.064 179.614 111.117C179 111.132 178.4 111.162 177.805 111.191C177.108 111.226 176.419 111.26 175.722 111.27L171.842 111.326C166.655 111.359 161.48 111.154 156.318 110.712C135.64 108.998 115.424 103.443 96.4673 95.1724C91.7246 93.0943 87.0369 90.9045 82.4589 88.4907C77.8808 86.0768 73.3576 83.551 68.9583 80.8432C60.1181 75.4417 51.6496 69.494 43.5672 63.0426C35.4846 56.5908 27.7605 49.6906 20.4508 42.3701C16.7959 38.7099 13.2934 34.9514 9.84571 31.081Z" fill="white"/>
<g clip-path="url(#clip0_999_3745)">
<path d="M9.84571 31.081C6.43949 27.196 3.10251 23.2415 0.028359 19.1041L0.333042 18.9077C3.44872 23.0307 6.81317 26.9294 10.2883 30.744C13.7635 34.5587 17.3351 38.2471 21.0173 41.8512C28.3821 49.0601 36.2025 55.8337 44.3257 62.1318C52.4632 68.4716 60.9449 74.3214 69.7841 79.5833C74.2107 82.2349 78.7198 84.719 83.2694 87.0491C87.819 89.3791 92.5067 91.5689 97.221 93.5633L100.777 95.0171L104.361 96.4148C106.759 97.328 109.143 98.1996 111.596 99.0009C113.343 99.6183 115.112 100.156 116.875 100.692C117.56 100.9 118.245 101.109 118.927 101.321C121.394 102.024 123.86 102.728 126.34 103.334L128.22 103.815C128.527 103.898 128.84 103.966 129.153 104.035C129.467 104.104 129.78 104.173 130.087 104.255L133.847 105.08C136.34 105.588 138.833 106.096 141.381 106.491C143.343 106.844 145.304 107.111 147.273 107.379C147.832 107.455 148.393 107.531 148.954 107.61L152.767 108.043C153.755 108.181 154.725 108.268 155.718 108.357C155.998 108.382 156.281 108.407 156.566 108.434C157.206 108.474 157.839 108.527 158.472 108.581C159.105 108.634 159.739 108.688 160.379 108.728L164.205 108.924C165.126 109.009 166.047 109.025 166.958 109.04C167.327 109.046 167.693 109.052 168.058 109.063C169.323 109.101 170.589 109.138 171.882 109.119L175.735 109.119C176.444 109.117 177.163 109.096 177.888 109.075C178.441 109.059 178.999 109.044 179.558 109.036C181.159 109.021 182.765 108.913 184.373 108.804C185.321 108.74 186.27 108.676 187.218 108.631C195.32 108.035 203.4 106.945 211.397 105.382C210.7 103.39 209.528 101.557 207.933 100.063L206.984 99.1737L207.191 98.9631C216.344 99.8998 225.647 100.083 234.828 99.576C226.72 103.916 218.951 108.976 211.652 114.577L211.345 114.494L211.676 113.28C212.283 111.055 212.291 108.756 211.758 106.595C203.731 108.436 195.593 109.809 187.371 110.586C186.509 110.645 185.646 110.715 184.782 110.785C183.056 110.924 181.329 111.064 179.614 111.117C179 111.132 178.4 111.162 177.805 111.191C177.108 111.226 176.419 111.26 175.722 111.27L171.842 111.326C166.655 111.359 161.48 111.154 156.318 110.712C135.64 108.998 115.424 103.443 96.4673 95.1724C91.7246 93.0943 87.0369 90.9045 82.4589 88.4907C77.8808 86.0768 73.3576 83.551 68.9583 80.8432C60.1181 75.4417 51.6496 69.494 43.5672 63.0426C35.4846 56.5908 27.7605 49.6906 20.4508 42.3701C16.7959 38.7099 13.2934 34.9514 9.84571 31.081Z" fill="#151515"/>
</g>
<defs>
<clipPath id="clip0_999_3745">
<rect width="40" height="125" fill="white" transform="translate(114)"/>
</clipPath>
</defs>
</svg>
