<svg width="138" height="36" viewBox="0 0 138 36" fill="none" xmlns="http://www.w3.org/2000/svg">
<g id="goo00od">
<path d="M21.7698 20.3954C21.348 21.9949 20.8495 23.3746 20.2742 24.5344C19.442 26.3111 18.4019 27.8952 17.1539 29.2866C16.4 30.2775 15.6782 31.0639 14.9886 31.6459C13.5145 32.927 12.0292 33.8473 10.5328 34.4068L10.1078 34.5721C9.20741 34.9349 8.3329 35.1608 7.48424 35.25C7.60148 35.345 7.859 35.3715 8.25681 35.3297C8.70766 35.2823 9.17945 35.1791 9.67219 35.0201C10.1915 34.8582 10.4776 34.7745 10.5306 34.769C11.4338 34.4327 12.286 33.9946 13.0873 33.4545C13.7671 33.0345 14.6312 32.327 15.6796 31.3319C16.728 30.3369 17.7883 29.0725 18.8605 27.5387C19.9327 26.0048 20.7879 24.3195 21.4261 22.4828C21.4903 22.5833 21.5517 22.6573 21.6103 22.7047C21.5795 22.9225 21.5411 23.1947 21.495 23.5213C21.4754 23.8451 21.4216 24.2261 21.3336 24.6644L21.2519 25.035L21.0634 25.5374C19.8654 27.9157 18.4651 29.8996 16.8625 31.4891C15.1091 33.175 13.2881 34.3451 11.3995 34.9994C10.3903 35.3468 9.35526 35.5763 8.29444 35.6877C7.6761 35.6723 7.33973 35.5334 7.28534 35.2709C6.35154 35.3155 5.56015 35.1841 4.91115 34.877C3.98301 34.465 3.20077 33.7831 2.56444 32.831C1.38376 31.8022 0.619757 30.5284 0.272443 29.0097C0.191527 28.7501 0.123195 28.355 0.0674466 27.8246C-0.0691372 26.5251 0.0755325 25.2229 0.501456 23.9179C0.951112 22.5835 1.59478 21.3093 2.43244 20.0951C3.2729 18.9074 4.23338 17.8411 5.31387 16.8964C6.39437 15.9516 7.56346 15.212 8.82116 14.6776C8.84633 14.4068 9.00059 14.2163 9.28396 14.1061C11.5271 13.2536 13.5372 12.734 15.314 12.5472C16.3484 12.4385 17.2996 12.4324 18.1678 12.5288C19.8162 12.6505 20.6822 13.1092 20.7658 13.9048C20.8021 14.2496 20.7357 14.5113 20.5668 14.6899C20.3951 14.842 20.141 14.976 19.8046 15.0918L19.8569 15.2069C19.8681 15.313 19.8381 15.41 19.7669 15.498C19.6957 15.5859 19.607 15.6354 19.501 15.6466L18.1882 15.7845C18.0556 15.7985 17.8713 15.8312 17.6354 15.8829C17.4233 15.9052 17.1567 15.9198 16.8356 15.9267C15.9605 16.0187 15.1704 16.1553 14.4655 16.3367C12.8728 16.7454 11.3876 17.411 10.0098 18.3334C8.83581 19.1539 7.81254 20.1329 6.93999 21.2703C6.06743 22.4078 5.40633 23.6437 4.95667 24.978C4.39671 26.5384 4.1906 28.0214 4.33833 29.427C4.40523 30.0635 4.57264 30.6358 4.84055 31.1439C5.10568 31.6255 5.46434 31.9766 5.91655 32.1972L6.44624 32.2622C6.92919 32.265 7.27674 32.2553 7.48891 32.233C8.09888 32.1689 8.70049 32.0252 9.29374 31.802L10.0601 31.4399C11.3011 30.7464 12.3857 29.8414 13.3141 28.7249C14.29 27.5498 15.1416 26.2135 15.8691 24.7159C16.0897 24.2637 16.3941 23.5882 16.7822 22.6893L16.6231 22.7061L14.0561 23.5389C13.3065 23.8054 12.1849 24.2317 10.6913 24.8177L8.87599 25.5313C8.79921 25.5662 8.668 25.5934 8.48236 25.6129C8.03151 25.6603 7.6435 25.5402 7.31832 25.2526C6.99036 24.9385 6.80408 24.5693 6.75948 24.145C6.70094 23.588 6.90968 23.1505 7.3857 22.8323L7.61184 22.6879C7.52256 22.3487 7.54355 22.0381 7.6748 21.7562C7.82978 21.445 8.08734 21.2168 8.44748 21.0717C8.47121 21.0424 8.49634 21.0263 8.52286 21.0235C8.5759 21.018 8.61429 21.0005 8.63802 20.9712C10.3089 20.2861 12.0754 19.6178 13.9375 18.9663L15.1016 18.5624C16.9609 17.8843 18.3743 17.4274 19.3416 17.1917C19.8399 17.0857 20.3138 17.1297 20.7632 17.3238C21.2126 17.5179 21.5287 17.8467 21.7115 18.3101C21.8161 18.5404 21.881 18.7749 21.9061 19.0136C21.9507 19.4379 21.9052 19.8985 21.7698 20.3954Z" fill="#888888"/>
<path d="M36.8486 17.8453C37.3187 19.5119 37.6346 21.1144 37.7963 22.6526C37.8549 23.2095 37.8924 24.077 37.909 25.255C37.9185 26.6215 37.8464 27.8491 37.6927 28.9378C37.539 30.0265 37.215 31.0259 36.7208 31.9358C36.3131 32.649 35.8796 33.2443 35.4203 33.7215C34.7083 34.6008 33.8303 35.1757 32.7862 35.4463L32.1539 35.553L31.4734 35.5843C31.1607 35.6708 30.9381 35.721 30.8055 35.735C29.6651 35.8548 28.5625 35.5685 27.4976 34.876C25.82 33.7117 24.5774 31.7106 23.7697 28.8728C23.4153 27.5426 23.1727 26.2542 23.0417 25.0077C22.6208 21.0031 23.2069 17.2681 24.8 13.8026C24.8 13.8026 24.8238 13.7732 24.8712 13.7146C25.1576 12.612 25.5876 11.6015 26.1614 10.6832C26.1824 10.6273 26.2075 10.6113 26.2368 10.635C26.2633 10.6322 26.2661 10.6588 26.2452 10.7146C25.9827 11.2784 25.8123 11.6985 25.7341 11.9749C25.6322 12.2806 25.5058 12.7363 25.3549 13.342C25.4052 13.3099 25.4582 13.3044 25.5141 13.3253C25.5936 13.3169 25.6467 13.3114 25.6732 13.3086C26.2848 11.4746 27.1483 10.3783 28.2636 10.0198C28.875 9.71421 29.381 9.55377 29.7816 9.53848C30.0943 9.45199 30.3302 9.40038 30.4893 9.38366C30.8871 9.34184 31.227 9.38656 31.5089 9.51781C31.9053 9.71747 32.3561 10.1796 32.8612 10.9041C32.9115 10.872 33.0029 10.8489 33.1355 10.835C33.4007 10.8071 33.6254 10.9042 33.8096 11.1261C34.6706 12.4299 35.2916 13.4908 35.6725 14.3088C36.0646 15.2329 36.4566 16.4117 36.8486 17.8453ZM33.0927 29.9442C33.5243 28.1827 33.6258 26.2147 33.3972 24.04L33.209 23.014C32.8213 20.8561 32.4761 19.2299 32.1734 18.1356L31.6711 16.4187C31.2525 15.4974 30.9267 14.8211 30.6937 14.3897C30.4314 13.9346 30.2681 13.6569 30.2039 13.5563L30.0364 13.4935L29.8375 13.5144C29.7091 13.8229 29.5841 14.2918 29.4625 14.9213C29.1524 16.5627 28.9756 18.0695 28.9321 19.4415C28.9096 20.7578 28.968 22.0789 29.1074 23.4049C29.2941 25.1818 29.6023 26.8387 30.032 28.3755C30.0669 28.4523 30.0941 28.5835 30.1136 28.7691C30.1415 29.0343 30.103 29.3065 29.9983 29.5856C29.284 27.3816 28.8209 25.2718 28.6091 23.2562C28.2411 19.7555 28.562 16.5578 29.5716 13.663C29.4474 13.7565 29.2882 14.028 29.0941 14.4774C28.5258 15.9582 28.1612 17.592 28.0004 19.3786L27.9376 19.5461C27.8956 20.1672 27.8857 21.0933 27.9078 22.3244C28.0694 24.8815 28.6147 27.519 29.5439 30.2367C29.4224 30.3567 29.2835 30.4384 29.1272 30.4816C29.0504 30.5165 28.9192 30.5437 28.7336 30.5632C28.3888 30.5994 28.0475 30.5415 27.7098 30.3893C28.1005 31.0454 28.5875 31.5975 29.1709 32.0456C29.778 32.4644 30.4131 32.639 31.0761 32.5693C31.3413 32.5415 31.5507 32.4926 31.7042 32.4229C32.1383 32.2164 32.4629 31.8605 32.678 31.3552C32.8902 30.8235 33.0285 30.3531 33.0927 29.9442Z" fill="#888888"/>
<path d="M53.5535 16.0895C54.0236 17.7562 54.3395 19.3586 54.5012 20.8968C54.5597 21.4537 54.5973 22.3212 54.6138 23.4993C54.6234 24.8658 54.5513 26.0934 54.3976 27.1821C54.2439 28.2708 53.9199 29.2701 53.4257 30.1801C53.018 30.8933 52.5845 31.4885 52.1252 31.9658C51.4132 32.845 50.5351 33.42 49.491 33.6906L48.8587 33.7973L48.1783 33.8286C47.8656 33.9151 47.643 33.9653 47.5104 33.9792C46.37 34.0991 45.2673 33.8128 44.2025 33.1203C42.5249 31.9559 41.2822 29.9548 40.4745 27.1171C40.1202 25.7868 39.8775 24.4985 39.7465 23.252C39.3256 19.2474 39.9118 15.5123 41.5049 12.0468C41.5049 12.0468 41.5286 12.0175 41.5761 11.9589C41.8624 10.8562 42.2925 9.84575 42.8663 8.92741C42.8872 8.87158 42.9124 8.85553 42.9417 8.87927C42.9682 8.87648 42.971 8.903 42.95 8.95883C42.6875 9.52269 42.5172 9.9428 42.439 10.2192C42.337 10.5248 42.2106 10.9805 42.0598 11.5863C42.1101 11.5542 42.1631 11.5486 42.2189 11.5696C42.2985 11.5612 42.3515 11.5556 42.3781 11.5528C42.9897 9.71885 43.8532 8.62258 44.9685 8.26404C45.5799 7.95845 46.0859 7.79802 46.4865 7.78273C46.7991 7.69624 47.035 7.64463 47.1942 7.6279C47.592 7.58609 47.9318 7.63081 48.2138 7.76206C48.6101 7.96172 49.0609 8.4238 49.5661 9.1483C49.6163 9.1162 49.7078 9.09319 49.8404 9.07925C50.1056 9.05138 50.3303 9.14842 50.5145 9.37038C51.3755 10.6742 51.9965 11.7351 52.3774 12.5531C52.7695 13.4772 53.1615 14.656 53.5535 16.0895ZM49.7976 28.1884C50.2292 26.427 50.3307 24.4589 50.1021 22.2842L49.9138 21.2583C49.5261 19.1003 49.1809 17.4742 48.8782 16.3798L48.376 14.6629C47.9574 13.7416 47.6316 13.0653 47.3986 12.634C47.1362 12.1789 46.973 11.9011 46.9088 11.8006L46.7413 11.7378L46.5424 11.7587C46.4139 12.0671 46.2889 12.5361 46.1674 13.1656C45.8573 14.807 45.6805 16.3137 45.637 17.6858C45.6144 19.002 45.6728 20.3231 45.8122 21.6492C45.999 23.426 46.3072 25.0829 46.7369 26.6197C46.7717 26.6965 46.7989 26.8277 46.8184 27.0134C46.8463 27.2786 46.8079 27.5508 46.7032 27.8299C45.9889 25.6258 45.5258 23.516 45.3139 21.5004C44.946 17.9997 45.2668 14.802 46.2765 11.9073C46.1522 12.0008 45.9931 12.2722 45.799 12.7216C45.2306 14.2025 44.8661 15.8362 44.7053 17.6228L44.6424 17.7903C44.6005 18.4114 44.5906 19.3375 44.6127 20.5686C44.7742 23.1258 45.3196 25.7632 46.2487 28.481C46.1273 28.601 45.9884 28.6826 45.832 28.7259C45.7553 28.7607 45.6241 28.7879 45.4384 28.8075C45.0936 28.8437 44.7524 28.7857 44.4146 28.6335C44.8053 29.2896 45.2924 29.8417 45.8758 30.2899C46.4829 30.7087 47.1179 30.8833 47.7809 30.8136C48.0462 30.7857 48.2555 30.7369 48.4091 30.6671C48.8432 30.4606 49.1678 30.1047 49.3828 29.5995C49.5951 29.0677 49.7333 28.5974 49.7976 28.1884Z" fill="#888888"/>
<path d="M75.0465 22.4779C74.9305 23.6699 74.7607 24.7335 74.5372 25.6686C74.3403 26.601 74.0142 27.4531 73.5591 28.2249C72.2034 30.3784 70.5708 31.5555 68.6614 31.7562C67.8127 31.8453 66.9724 31.7594 66.1406 31.4982C65.3325 31.2078 64.5886 30.7631 63.9089 30.1642C62.5259 28.9957 61.429 27.4888 60.6183 25.6434C59.8342 23.7952 59.3348 21.8501 59.1202 19.808C58.7271 16.0686 59.2727 12.7132 60.7569 9.74179C60.891 9.48638 61.0829 9.39917 61.3327 9.48017C61.4961 9.24849 61.7704 8.92471 62.1557 8.50882C63.5685 7.15373 64.9448 6.47279 66.2848 6.46602C68.0519 6.44118 69.5655 6.93902 70.8258 7.95954C71.9395 8.8614 72.7824 9.99283 73.3544 11.3538C73.9502 12.6855 74.4064 14.2196 74.723 15.956C74.8597 16.746 74.9503 17.3532 74.9949 17.7775C75.151 19.2627 75.1682 20.8295 75.0465 22.4779ZM70.2155 14.7807C69.9225 14.0339 69.7585 13.6221 69.7236 13.5454C69.0609 12.0866 68.2619 11.2455 67.3267 11.0221C67.1327 10.962 66.9429 10.9418 66.7573 10.9613C66.2269 11.017 65.7494 11.3219 65.325 11.876C64.9271 12.4273 64.6423 13.0337 64.4705 13.6953C64.1269 15.0184 63.9753 16.2544 64.0156 17.4031C64.0225 17.7242 64.0567 18.1764 64.118 18.7599C64.3187 20.6693 64.6387 22.5663 65.0781 24.4507C65.1381 24.7661 65.1052 25.0914 64.9795 25.4263C64.8776 25.732 64.7052 26.0048 64.4623 26.2449C64.719 26.6469 65.1544 27.2179 65.7685 27.9577L65.8962 28.0247C66.6652 28.4534 67.3547 28.6356 67.9647 28.5715C68.4951 28.5158 69.006 28.2744 69.4974 27.8474C70.4006 27.0016 70.948 25.5766 71.1395 23.5723C71.31 22.1332 71.32 20.6977 71.1695 19.2656C71.1304 18.8943 71.0454 18.3401 70.9143 17.6031C70.7149 16.4711 70.4819 15.5303 70.2155 14.7807Z" fill="#888888"/>
<path d="M94.16 20.469C94.0439 21.661 93.8742 22.7246 93.6507 23.6597C93.4537 24.5921 93.1277 25.4441 92.6725 26.2159C91.3169 28.3694 89.6843 29.5465 87.7748 29.7472C86.9262 29.8364 86.0859 29.7505 85.2541 29.4893C84.4459 29.1989 83.702 28.7542 83.0224 28.1553C81.6393 26.9868 80.5425 25.4799 79.7318 23.6345C78.9477 21.7863 78.4483 19.8412 78.2336 17.7991C77.8406 14.0597 78.3862 10.7043 79.8704 7.73288C80.0044 7.47747 80.1964 7.39027 80.4462 7.47126C80.6096 7.23959 80.8839 6.9158 81.2692 6.49992C82.6819 5.14482 84.0583 4.46389 85.3983 4.45712C87.1654 4.43227 88.679 4.93011 89.9393 5.95064C91.053 6.8525 91.8959 7.98392 92.4679 9.34492C93.0637 10.6766 93.5199 12.2107 93.8365 13.9471C93.9731 14.7371 94.0638 15.3443 94.1084 15.7686C94.2645 17.2538 94.2817 18.8206 94.16 20.469ZM89.3289 12.7718C89.0359 12.025 88.872 11.6132 88.8371 11.5364C88.1743 10.0777 87.3754 9.23664 86.4402 9.01316C86.2462 8.95311 86.0564 8.93285 85.8707 8.95236C85.3403 9.00811 84.8629 9.31301 84.4385 9.86708C84.0406 10.4184 83.7558 11.0248 83.584 11.6864C83.2404 13.0095 83.0888 14.2455 83.1291 15.3942C83.136 15.7153 83.1701 16.1675 83.2315 16.751C83.4321 18.6604 83.7522 20.5574 84.1916 22.4418C84.2515 22.7572 84.2187 23.0825 84.093 23.4174C83.9911 23.7231 83.8186 23.9959 83.5757 24.236C83.8325 24.638 84.2679 25.209 84.8819 25.9488L85.0096 26.0158C85.7787 26.4445 86.4682 26.6267 87.0781 26.5626C87.6085 26.5069 88.1194 26.2655 88.6108 25.8384C89.514 24.9927 90.0614 23.5677 90.253 21.5634C90.4235 20.1243 90.4335 18.6888 90.2829 17.2566C90.2439 16.8854 90.1589 16.3312 90.0278 15.5942C89.8284 14.4622 89.5954 13.5214 89.3289 12.7718Z" fill="#888888"/>
<path d="M110.855 10.0669C111.325 11.7335 111.641 13.336 111.803 14.8742C111.861 15.4311 111.899 16.2986 111.915 17.4766C111.925 18.8431 111.853 20.0707 111.699 21.1594C111.545 22.2481 111.221 23.2475 110.727 24.1574C110.32 24.8706 109.886 25.4659 109.427 25.9432C108.715 26.8224 107.837 27.3973 106.793 27.668L106.16 27.7746L105.48 27.8059C105.167 27.8924 104.945 27.9426 104.812 27.9566C103.672 28.0764 102.569 27.7901 101.504 27.0976C99.8264 25.9333 98.5838 23.9322 97.7761 21.0944C97.4218 19.7642 97.1791 18.4758 97.0481 17.2293C96.6272 13.2247 97.2133 9.48968 98.8065 6.02416C98.8065 6.02416 98.8302 5.99486 98.8777 5.93624C99.164 4.83361 99.594 3.82312 100.168 2.90477C100.189 2.84894 100.214 2.8329 100.243 2.85663C100.27 2.85384 100.273 2.88036 100.252 2.93619C99.9891 3.50005 99.8187 3.92016 99.7405 4.19652C99.6386 4.50218 99.5122 4.95789 99.3614 5.56364C99.4116 5.53154 99.4647 5.52597 99.5205 5.54691C99.6 5.53855 99.6531 5.53298 99.6796 5.53019C100.291 3.69621 101.155 2.59995 102.27 2.2414C102.881 1.93582 103.387 1.77538 103.788 1.76009C104.101 1.6736 104.337 1.62199 104.496 1.60527C104.894 1.56346 105.233 1.60818 105.515 1.73942C105.912 1.93909 106.362 2.40117 106.868 3.12566C106.918 3.09357 107.009 3.07055 107.142 3.05661C107.407 3.02874 107.632 3.12578 107.816 3.34774C108.677 4.65155 109.298 5.71246 109.679 6.53045C110.071 7.45453 110.463 8.63335 110.855 10.0669ZM107.099 22.1658C107.531 20.4043 107.632 18.4363 107.404 16.2616L107.215 15.2357C106.828 13.0777 106.482 11.4515 106.18 10.3572L105.678 8.64027C105.259 7.71898 104.933 7.04267 104.7 6.61133C104.438 6.15626 104.275 5.87847 104.21 5.77796L104.043 5.71512L103.844 5.73603C103.715 6.04448 103.59 6.51345 103.469 7.14293C103.159 8.78434 102.982 10.2911 102.939 11.6631C102.916 12.9794 102.974 14.3005 103.114 15.6265C103.301 17.4034 103.609 19.0603 104.038 20.5971C104.073 20.6739 104.1 20.8051 104.12 20.9907C104.148 21.2559 104.109 21.5281 104.005 21.8073C103.29 19.6032 102.827 17.4934 102.616 15.4778C102.248 11.9771 102.568 8.77936 103.578 5.88464C103.454 5.97814 103.295 6.24959 103.101 6.69901C102.532 8.17986 102.168 9.81359 102.007 11.6002L101.944 11.7677C101.902 12.3888 101.892 13.3149 101.914 14.546C102.076 17.1031 102.621 19.7406 103.55 22.4583C103.429 22.5784 103.29 22.66 103.134 22.7032C103.057 22.7381 102.926 22.7653 102.74 22.7848C102.395 22.8211 102.054 22.7631 101.716 22.6109C102.107 23.267 102.594 23.8191 103.177 24.2672C103.784 24.6861 104.419 24.8606 105.083 24.7909C105.348 24.7631 105.557 24.7143 105.711 24.6445C106.145 24.438 106.469 24.0821 106.684 23.5769C106.897 23.0451 107.035 22.5747 107.099 22.1658Z" fill="#888888"/>
<path d="M137.238 20.8884C136.98 21.7468 136.444 22.5137 135.63 23.1891C134.84 23.8352 133.967 24.3292 133.01 24.671C132.001 25.0184 130.979 25.2465 129.945 25.3552C129.097 25.4444 128.039 25.4617 126.773 25.407C125.722 25.3566 124.72 25.2608 123.767 25.1197C123.623 25.537 123.396 25.8022 123.086 25.9152L122.927 25.9319C122.821 25.9431 122.686 25.9305 122.521 25.8942C122.355 26.0993 122.152 26.2145 121.914 26.2396C121.309 26.3567 120.807 26.3022 120.408 26.076C119.953 25.8289 119.616 25.5559 119.397 25.2572C119.178 24.9585 118.988 24.5495 118.826 24.0302C117.444 23.6392 116.138 23.2 114.907 22.7127C114.513 22.5395 114.191 22.2785 113.939 21.9295C113.688 21.5805 113.54 21.1938 113.496 20.7695C113.451 20.3452 113.527 19.9216 113.724 19.4987C113.897 19.1051 114.158 18.7827 114.507 18.5315C114.883 18.2775 115.283 18.1282 115.707 18.0836C116.105 18.0418 116.501 18.1075 116.894 18.2806L117.066 18.3832C116.928 17.8347 116.786 17.3803 116.641 17.0202C115.745 14.1112 114.378 9.77703 112.539 4.01768L112.334 3.59682C112.299 3.52004 112.274 3.4021 112.257 3.24297C112.223 2.92473 112.302 2.64837 112.492 2.41391C112.679 2.15292 112.928 1.97918 113.241 1.89269C113.501 1.81178 113.684 1.76575 113.79 1.7546C113.878 1.31633 114.202 0.960452 114.763 0.686965C115.325 0.413477 115.897 0.246071 116.48 0.184747C117.727 0.0537383 118.874 0.254913 119.922 0.788272C120.968 1.29511 122.192 2.10487 123.596 3.21754C126.487 5.46104 128.72 7.3178 130.295 8.78782C131.18 9.55286 131.909 10.2404 132.483 10.8505C133.812 12.266 134.861 13.5768 135.631 14.7829C136.685 16.3882 137.276 17.8009 137.404 19.0208C137.468 19.6308 137.413 20.2533 137.238 20.8884ZM114.078 6.79207C114.04 6.68878 113.948 6.5778 113.802 6.45913C113.655 6.34047 113.621 6.39769 113.699 6.6308L114.906 10.0835C115.682 12.3616 116.218 13.8872 116.514 14.6606L118.035 18.8042L118.793 19.1268C118.38 18.2585 118.097 17.6046 117.943 17.1649C117.691 16.5479 117.431 15.8646 117.165 15.115C116.896 14.3389 116.629 13.5893 116.365 12.8662L114.078 6.79207ZM132.22 17.1524C131.296 16.0161 130.592 15.1785 130.106 14.6397C128.655 13.0761 127.147 11.7464 125.584 10.6505C123.983 9.45123 122.199 8.41876 120.231 7.55305L119.433 7.23468C120.312 9.98454 121.271 13.2355 122.309 16.9876L123.321 20.501C124.807 20.8543 126.119 21.0918 127.258 21.2134C128.182 21.3308 129.056 21.3596 129.881 21.2997C130.332 21.2523 130.741 21.1958 131.11 21.1303C131.505 21.062 131.883 20.9552 132.243 20.8101C132.966 20.5464 133.496 20.236 133.834 19.8787C133.748 19.566 133.512 19.1082 133.127 18.5051C132.674 17.775 132.372 17.3241 132.22 17.1524Z" fill="#888888"/>
</g>
</svg>
