<svg width="32" height="33" viewBox="0 0 32 33" fill="none" xmlns="http://www.w3.org/2000/svg">
<g id="Frame">
<path id="Vector" d="M11.0097 25.5918L11.0097 25.5917L20.0205 16.5821L11.0097 7.57246L11.0097 7.57244C10.747 7.30979 10.5995 6.95355 10.5995 6.5821C10.5995 6.21065 10.747 5.85441 11.0097 5.59176C11.2723 5.3291 11.6286 5.18154 12 5.18154C12.3715 5.18154 12.7277 5.3291 12.9903 5.59176L22.9902 15.5916L22.9903 15.5918L22.7075 15.8746C22.8005 15.9675 22.8742 16.0778 22.9246 16.1992C22.9749 16.3206 23.0008 16.4507 23.0008 16.5821C23.0008 16.7135 22.9749 16.8436 22.9246 16.965C22.8742 17.0864 22.8005 17.1967 22.7075 17.2896L11.0097 25.5918ZM11.0097 25.5918C10.8796 25.7218 10.7764 25.8762 10.7061 26.0461C10.6357 26.2161 10.5995 26.3982 10.5995 26.5821C10.5995 26.766 10.6357 26.9481 10.7061 27.1181C10.7764 27.288 10.8796 27.4424 11.0097 27.5724C11.1397 27.7025 11.2941 27.8057 11.464 27.876C11.634 27.9464 11.8161 27.9827 12 27.9827C12.1839 27.9827 12.3661 27.9464 12.536 27.876C12.7059 27.8057 12.8603 27.7025 12.9903 27.5724L22.9902 17.5726L11.0097 25.5918Z" fill="#151515" stroke="#151515" stroke-width="0.8"/>
</g>
</svg>
