<svg width="32" height="33" viewBox="0 0 32 33" fill="none" xmlns="http://www.w3.org/2000/svg">
<g id="Frame">
<path id="Vector" d="M20.9903 25.5918L20.9903 25.5917L11.9795 16.5821L20.9903 7.57246L20.9903 7.57244C21.253 7.30979 21.4005 6.95355 21.4005 6.5821C21.4005 6.21065 21.253 5.85441 20.9903 5.59176C20.7277 5.3291 20.3714 5.18154 20 5.18154C19.6285 5.18154 19.2723 5.3291 19.0097 5.59176L9.00981 15.5916L9.00965 15.5918L9.29249 15.8746C9.19952 15.9675 9.12576 16.0778 9.07543 16.1992C9.02511 16.3206 8.99921 16.4507 8.99921 16.5821C8.99921 16.7135 9.02511 16.8436 9.07543 16.965C9.12576 17.0864 9.19952 17.1967 9.29249 17.2896L20.9903 25.5918ZM20.9903 25.5918C21.1204 25.7218 21.2236 25.8762 21.2939 26.0461C21.3643 26.2161 21.4005 26.3982 21.4005 26.5821C21.4005 26.766 21.3643 26.9481 21.2939 27.1181C21.2236 27.288 21.1204 27.4424 20.9903 27.5724C20.8603 27.7025 20.7059 27.8057 20.536 27.876C20.366 27.9464 20.1839 27.9827 20 27.9827C19.8161 27.9827 19.6339 27.9464 19.464 27.876C19.2941 27.8057 19.1397 27.7025 19.0097 27.5724L9.00981 17.5726L20.9903 25.5918Z" fill="#151515" stroke="#151515" stroke-width="0.8"/>
</g>
</svg>
