<svg width="17" height="18" viewBox="0 0 17 18" fill="none" xmlns="http://www.w3.org/2000/svg">
<path id="*" d="M15.9993 8.21342C14.7729 8.88446 13.1044 9.41061 10.9939 9.79186C12.2605 11.2683 13.235 12.5786 13.9174 13.7226C14.0837 14.0395 14.1499 14.3216 14.1158 14.5689C14.0533 15.0223 13.7933 15.3855 13.3357 15.6585C12.8781 15.9314 12.4311 15.9748 11.9947 15.7887L12.7326 16.8354C12.8392 16.9761 12.884 17.1082 12.8669 17.2319C12.8385 17.438 12.7156 17.568 12.4982 17.6221C12.3219 17.6818 12.1628 17.6179 12.0206 17.4303C10.7098 15.3597 9.49929 13.324 8.38895 11.323L4.25569 14.3446C4.15622 14.4569 4.02973 14.4605 3.87621 14.3553C3.7696 14.2146 3.76602 14.0881 3.86549 13.9758C4.33445 13.6204 4.6684 13.3304 4.86734 13.1059L3.46898 14.1102C3.12367 14.4826 2.70371 14.6348 2.2091 14.5666C1.71449 14.4985 1.28381 14.2712 0.917054 13.8847C0.55598 13.4569 0.409513 12.9957 0.477652 12.5011C0.528756 12.1302 0.718444 11.8203 1.04672 11.5715C2.19493 10.5537 3.31476 9.74197 4.40619 9.13632L4.87305 8.94864L4.94339 8.89533L3.45735 8.24961C2.94423 8.01092 2.56612 7.70683 2.32302 7.33734C2.12682 6.93232 2.05711 6.52371 2.11389 6.11154C2.18203 5.61692 2.40652 5.20685 2.78737 4.88131C3.21511 4.52024 3.6969 4.37661 4.23273 4.45043C4.56247 4.49586 4.82471 4.57398 5.01944 4.68481C5.4558 4.87092 5.8481 5.07197 6.19635 5.28794C6.59149 5.46838 6.94542 5.64313 7.25813 5.81221L7.36665 4.56716L7.784 1.53766C7.85214 1.04305 8.03257 0.647904 8.3253 0.352231C8.65925 0.0622356 9.07353 -0.0486926 9.56815 0.0194462C9.98032 0.0762285 10.3314 0.271595 10.6214 0.605547C10.9171 0.898278 11.0365 1.25073 10.9797 1.66291L10.763 5.98005L10.7844 6.73901L10.9251 6.63239C11.1895 6.5428 11.6535 6.37573 12.3172 6.13116C12.9866 5.84537 13.5799 5.65411 14.0972 5.55738C14.5264 5.49051 14.886 5.62405 15.176 5.958C15.4717 6.25073 15.594 6.58258 15.5429 6.95354C15.5145 7.15962 15.4506 7.31882 15.3511 7.43112L15.7924 7.42891L15.9161 7.44595C16.0809 7.46866 16.1698 7.5859 16.1826 7.79767C16.2423 7.97389 16.1812 8.11248 15.9993 8.21342ZM10.7153 14.1005C10.222 13.1085 9.5666 12.0732 8.74919 10.9946C8.74919 10.9946 8.72574 11.0124 8.67884 11.0479L10.7153 14.1005Z" fill="#888888"/>
</svg>
