<svg width="32" height="33" viewBox="0 0 32 33" fill="none" xmlns="http://www.w3.org/2000/svg">
<path d="M14.4027 5.40107C14.7576 4.30902 16.3025 4.30902 16.6573 5.40107L18.4599 10.9488C18.7525 11.8492 19.5915 12.4588 20.5383 12.4588H26.3715C27.5198 12.4588 27.9972 13.9282 27.0682 14.6031L22.349 18.0318C21.5831 18.5883 21.2626 19.5746 21.5552 20.475L23.3577 26.0228C23.7126 27.1148 22.4627 28.0229 21.5337 27.348L16.8145 23.9193C16.0486 23.3628 15.0115 23.3628 14.2455 23.9193L9.52634 27.348C8.59739 28.0229 7.34749 27.1148 7.70232 26.0228L9.50489 20.475C9.79745 19.5746 9.47695 18.5883 8.71102 18.0318L3.99184 14.6031C3.06289 13.9282 3.5403 12.4588 4.68855 12.4588H10.5218C11.4685 12.4588 12.3076 11.8492 12.6002 10.9488L14.4027 5.40107Z" fill="#F1F1F1" stroke="white"/>
</svg>
