<svg width="175" height="152" viewBox="0 0 175 152" fill="none" xmlns="http://www.w3.org/2000/svg">
<rect x="16.4461" y="44.8073" width="79" height="79" rx="19.5" transform="rotate(-6 16.4461 44.8073)" fill="#151515" stroke="#252525"/>
<rect x="-0.549525" y="0.444997" width="79" height="79" rx="19.5" transform="matrix(-0.994522 -0.104528 -0.104528 0.994522 173.771 48.3078)" fill="#151515" stroke="#252525"/>
<rect width="8.76549" height="22" rx="4.38274" transform="matrix(0.46932 -0.883028 -0.883028 -0.46932 169.323 108.065)" fill="#888888"/>
<g clip-path="url(#clip0_986_3746)">
<rect x="27.9346" y="32.1138" width="120" height="120" rx="20" transform="rotate(-6 27.9346 32.1138)" fill="#151515"/>
<g style="mix-blend-mode:color-dodge" filter="url(#filter0_f_986_3746)">
<path d="M93.8776 70.5132C92.0234 70.5132 90.2108 71.063 88.6691 72.0932C87.1274 73.1233 85.9258 74.5875 85.2162 76.3005C84.5066 78.0136 84.321 79.8986 84.6827 81.7172C85.0444 83.5357 85.9373 85.2062 87.2484 86.5173C88.5596 87.8284 90.23 88.7213 92.0486 89.083C93.8672 89.4448 95.7522 89.2591 97.4652 88.5496C99.1783 87.84 100.642 86.6384 101.673 85.0967C102.703 83.5549 103.253 81.7424 103.253 79.8882C103.253 77.4018 102.265 75.0172 100.507 73.2591C98.7485 71.5009 96.364 70.5132 93.8776 70.5132ZM93.8776 85.5132C92.765 85.5132 91.6775 85.1833 90.7525 84.5652C89.8275 83.9471 89.1065 83.0686 88.6807 82.0408C88.255 81.0129 88.1436 79.8819 88.3606 78.7908C88.5777 77.6997 89.1134 76.6974 89.9001 75.9107C90.6868 75.124 91.689 74.5883 92.7802 74.3713C93.8713 74.1542 95.0023 74.2656 96.0302 74.6914C97.058 75.1171 97.9365 75.8381 98.5546 76.7631C99.1727 77.6881 99.5026 78.7757 99.5026 79.8882C99.5026 81.38 98.9099 82.8108 97.855 83.8657C96.8001 84.9206 95.3694 85.5132 93.8776 85.5132ZM93.8776 59.2632C88.4094 59.2694 83.1669 61.4444 79.3003 65.311C75.4337 69.1776 73.2588 74.42 73.2526 79.8882C73.2526 87.2476 76.6533 95.0476 83.0963 102.447C85.9914 105.79 89.2497 108.801 92.8112 111.423C93.1264 111.644 93.502 111.763 93.8869 111.763C94.2719 111.763 94.6475 111.644 94.9627 111.423C98.5176 108.8 101.77 105.789 104.659 102.447C111.092 95.0476 114.503 87.2476 114.503 79.8882C114.496 74.42 112.321 69.1776 108.455 65.311C104.588 61.4444 99.3457 59.2694 93.8776 59.2632ZM93.8776 107.544C90.0033 104.498 77.0026 93.3062 77.0026 79.8882C77.0026 75.4127 78.7805 71.1204 81.9451 67.9558C85.1098 64.7911 89.402 63.0132 93.8776 63.0132C98.3531 63.0132 102.645 64.7911 105.81 67.9558C108.975 71.1204 110.753 75.4127 110.753 79.8882C110.753 93.3015 97.7518 104.498 93.8776 107.544Z" stroke="#FF9E9E" stroke-width="8.97493" stroke-linecap="round" stroke-linejoin="round"/>
</g>
<g style="mix-blend-mode:color-dodge" filter="url(#filter1_f_986_3746)">
<path d="M93.8776 70.5132C92.0234 70.5132 90.2108 71.063 88.6691 72.0932C87.1274 73.1233 85.9258 74.5875 85.2162 76.3005C84.5066 78.0136 84.321 79.8986 84.6827 81.7172C85.0444 83.5357 85.9373 85.2062 87.2484 86.5173C88.5596 87.8284 90.23 88.7213 92.0486 89.083C93.8672 89.4448 95.7522 89.2591 97.4652 88.5496C99.1783 87.84 100.642 86.6384 101.673 85.0967C102.703 83.5549 103.253 81.7424 103.253 79.8882C103.253 77.4018 102.265 75.0172 100.507 73.2591C98.7485 71.5009 96.364 70.5132 93.8776 70.5132ZM93.8776 85.5132C92.765 85.5132 91.6775 85.1833 90.7525 84.5652C89.8275 83.9471 89.1065 83.0686 88.6807 82.0408C88.255 81.0129 88.1436 79.8819 88.3606 78.7908C88.5777 77.6997 89.1134 76.6974 89.9001 75.9107C90.6868 75.124 91.689 74.5883 92.7802 74.3713C93.8713 74.1542 95.0023 74.2656 96.0302 74.6914C97.058 75.1171 97.9365 75.8381 98.5546 76.7631C99.1727 77.6881 99.5026 78.7757 99.5026 79.8882C99.5026 81.38 98.9099 82.8108 97.855 83.8657C96.8001 84.9206 95.3694 85.5132 93.8776 85.5132ZM93.8776 59.2632C88.4094 59.2694 83.1669 61.4444 79.3003 65.311C75.4337 69.1776 73.2588 74.42 73.2526 79.8882C73.2526 87.2476 76.6533 95.0476 83.0963 102.447C85.9914 105.79 89.2497 108.801 92.8112 111.423C93.1264 111.644 93.502 111.763 93.8869 111.763C94.2719 111.763 94.6475 111.644 94.9627 111.423C98.5176 108.8 101.77 105.789 104.659 102.447C111.092 95.0476 114.503 87.2476 114.503 79.8882C114.496 74.42 112.321 69.1776 108.455 65.311C104.588 61.4444 99.3457 59.2694 93.8776 59.2632ZM93.8776 107.544C90.0033 104.498 77.0026 93.3062 77.0026 79.8882C77.0026 75.4127 78.7805 71.1204 81.9451 67.9558C85.1098 64.7911 89.402 63.0132 93.8776 63.0132C98.3531 63.0132 102.645 64.7911 105.81 67.9558C108.975 71.1204 110.753 75.4127 110.753 79.8882C110.753 93.3015 97.7518 104.498 93.8776 107.544Z" fill="#B1280F"/>
<path d="M93.8776 70.5132C92.0234 70.5132 90.2108 71.063 88.6691 72.0932C87.1274 73.1233 85.9258 74.5875 85.2162 76.3005C84.5066 78.0136 84.321 79.8986 84.6827 81.7172C85.0444 83.5357 85.9373 85.2062 87.2484 86.5173C88.5596 87.8284 90.23 88.7213 92.0486 89.083C93.8672 89.4448 95.7522 89.2591 97.4652 88.5496C99.1783 87.84 100.642 86.6384 101.673 85.0967C102.703 83.5549 103.253 81.7424 103.253 79.8882C103.253 77.4018 102.265 75.0172 100.507 73.2591C98.7485 71.5009 96.364 70.5132 93.8776 70.5132ZM93.8776 85.5132C92.765 85.5132 91.6775 85.1833 90.7525 84.5652C89.8275 83.9471 89.1065 83.0686 88.6807 82.0408C88.255 81.0129 88.1436 79.8819 88.3606 78.7908C88.5777 77.6997 89.1134 76.6974 89.9001 75.9107C90.6868 75.124 91.689 74.5883 92.7802 74.3713C93.8713 74.1542 95.0023 74.2656 96.0302 74.6914C97.058 75.1171 97.9365 75.8381 98.5546 76.7631C99.1727 77.6881 99.5026 78.7757 99.5026 79.8882C99.5026 81.38 98.9099 82.8108 97.855 83.8657C96.8001 84.9206 95.3694 85.5132 93.8776 85.5132ZM93.8776 59.2632C88.4094 59.2694 83.1669 61.4444 79.3003 65.311C75.4337 69.1776 73.2588 74.42 73.2526 79.8882C73.2526 87.2476 76.6533 95.0476 83.0963 102.447C85.9914 105.79 89.2497 108.801 92.8112 111.423C93.1264 111.644 93.502 111.763 93.8869 111.763C94.2719 111.763 94.6475 111.644 94.9627 111.423C98.5176 108.8 101.77 105.789 104.659 102.447C111.092 95.0476 114.503 87.2476 114.503 79.8882C114.496 74.42 112.321 69.1776 108.455 65.311C104.588 61.4444 99.3457 59.2694 93.8776 59.2632ZM93.8776 107.544C90.0033 104.498 77.0026 93.3062 77.0026 79.8882C77.0026 75.4127 78.7805 71.1204 81.9451 67.9558C85.1098 64.7911 89.402 63.0132 93.8776 63.0132C98.3531 63.0132 102.645 64.7911 105.81 67.9558C108.975 71.1204 110.753 75.4127 110.753 79.8882C110.753 93.3015 97.7518 104.498 93.8776 107.544Z" stroke="#B1280F" stroke-width="11.8086" stroke-linecap="round" stroke-linejoin="round"/>
</g>
<g style="mix-blend-mode:multiply" opacity="0.2" filter="url(#filter2_f_986_3746)">
<path d="M93.8776 70.5132C92.0234 70.5132 90.2108 71.063 88.6691 72.0932C87.1274 73.1233 85.9258 74.5875 85.2162 76.3005C84.5066 78.0136 84.321 79.8986 84.6827 81.7172C85.0444 83.5357 85.9373 85.2062 87.2484 86.5173C88.5596 87.8284 90.23 88.7213 92.0486 89.083C93.8672 89.4448 95.7522 89.2591 97.4652 88.5496C99.1783 87.84 100.642 86.6384 101.673 85.0967C102.703 83.5549 103.253 81.7424 103.253 79.8882C103.253 77.4018 102.265 75.0172 100.507 73.2591C98.7485 71.5009 96.364 70.5132 93.8776 70.5132ZM93.8776 85.5132C92.765 85.5132 91.6775 85.1833 90.7525 84.5652C89.8275 83.9471 89.1065 83.0686 88.6807 82.0408C88.255 81.0129 88.1436 79.8819 88.3606 78.7908C88.5777 77.6997 89.1134 76.6974 89.9001 75.9107C90.6868 75.124 91.689 74.5883 92.7802 74.3713C93.8713 74.1542 95.0023 74.2656 96.0302 74.6914C97.058 75.1171 97.9365 75.8381 98.5546 76.7631C99.1727 77.6881 99.5026 78.7757 99.5026 79.8882C99.5026 81.38 98.9099 82.8108 97.855 83.8657C96.8001 84.9206 95.3694 85.5132 93.8776 85.5132ZM93.8776 59.2632C88.4094 59.2694 83.1669 61.4444 79.3003 65.311C75.4337 69.1776 73.2588 74.42 73.2526 79.8882C73.2526 87.2476 76.6533 95.0476 83.0963 102.447C85.9914 105.79 89.2497 108.801 92.8112 111.423C93.1264 111.644 93.502 111.763 93.8869 111.763C94.2719 111.763 94.6475 111.644 94.9627 111.423C98.5176 108.8 101.77 105.789 104.659 102.447C111.092 95.0476 114.503 87.2476 114.503 79.8882C114.496 74.42 112.321 69.1776 108.455 65.311C104.588 61.4444 99.3457 59.2694 93.8776 59.2632ZM93.8776 107.544C90.0033 104.498 77.0026 93.3062 77.0026 79.8882C77.0026 75.4127 78.7805 71.1204 81.9451 67.9558C85.1098 64.7911 89.402 63.0132 93.8776 63.0132C98.3531 63.0132 102.645 64.7911 105.81 67.9558C108.975 71.1204 110.753 75.4127 110.753 79.8882C110.753 93.3015 97.7518 104.498 93.8776 107.544Z" stroke="#ED2A07" stroke-width="2.69248" stroke-linecap="round" stroke-linejoin="round"/>
</g>
<path d="M93.8776 70.5132C92.0234 70.5132 90.2108 71.063 88.6691 72.0932C87.1274 73.1233 85.9258 74.5875 85.2162 76.3005C84.5066 78.0136 84.321 79.8986 84.6827 81.7172C85.0444 83.5357 85.9373 85.2062 87.2484 86.5173C88.5596 87.8284 90.23 88.7213 92.0486 89.083C93.8672 89.4448 95.7522 89.2591 97.4652 88.5496C99.1783 87.84 100.642 86.6384 101.673 85.0967C102.703 83.5549 103.253 81.7424 103.253 79.8882C103.253 77.4018 102.265 75.0172 100.507 73.2591C98.7485 71.5009 96.364 70.5132 93.8776 70.5132ZM93.8776 85.5132C92.765 85.5132 91.6775 85.1833 90.7525 84.5652C89.8275 83.9471 89.1065 83.0686 88.6807 82.0408C88.255 81.0129 88.1436 79.8819 88.3606 78.7908C88.5777 77.6997 89.1134 76.6974 89.9001 75.9107C90.6868 75.124 91.689 74.5883 92.7802 74.3713C93.8713 74.1542 95.0023 74.2656 96.0302 74.6914C97.058 75.1171 97.9365 75.8381 98.5546 76.7631C99.1727 77.6881 99.5026 78.7757 99.5026 79.8882C99.5026 81.38 98.9099 82.8108 97.855 83.8657C96.8001 84.9206 95.3694 85.5132 93.8776 85.5132ZM93.8776 59.2632C88.4094 59.2694 83.1669 61.4444 79.3003 65.311C75.4337 69.1776 73.2588 74.42 73.2526 79.8882C73.2526 87.2476 76.6533 95.0476 83.0963 102.447C85.9914 105.79 89.2497 108.801 92.8112 111.423C93.1264 111.644 93.502 111.763 93.8869 111.763C94.2719 111.763 94.6475 111.644 94.9627 111.423C98.5176 108.8 101.77 105.789 104.659 102.447C111.092 95.0476 114.503 87.2476 114.503 79.8882C114.496 74.42 112.321 69.1776 108.455 65.311C104.588 61.4444 99.3457 59.2694 93.8776 59.2632ZM93.8776 107.544C90.0033 104.498 77.0026 93.3062 77.0026 79.8882C77.0026 75.4127 78.7805 71.1204 81.9451 67.9558C85.1098 64.7911 89.402 63.0132 93.8776 63.0132C98.3531 63.0132 102.645 64.7911 105.81 67.9558C108.975 71.1204 110.753 75.4127 110.753 79.8882C110.753 93.3015 97.7518 104.498 93.8776 107.544Z" fill="white"/>
<g filter="url(#filter3_f_986_3746)">
<path d="M93.8776 70.5132C92.0234 70.5132 90.2108 71.063 88.6691 72.0932C87.1274 73.1233 85.9258 74.5875 85.2162 76.3005C84.5066 78.0136 84.321 79.8986 84.6827 81.7172C85.0444 83.5357 85.9373 85.2062 87.2484 86.5173C88.5596 87.8284 90.23 88.7213 92.0486 89.083C93.8672 89.4448 95.7522 89.2591 97.4652 88.5496C99.1783 87.84 100.642 86.6384 101.673 85.0967C102.703 83.5549 103.253 81.7424 103.253 79.8882C103.253 77.4018 102.265 75.0172 100.507 73.2591C98.7485 71.5009 96.364 70.5132 93.8776 70.5132ZM93.8776 85.5132C92.765 85.5132 91.6775 85.1833 90.7525 84.5652C89.8275 83.9471 89.1065 83.0686 88.6807 82.0408C88.255 81.0129 88.1436 79.8819 88.3606 78.7908C88.5777 77.6997 89.1134 76.6974 89.9001 75.9107C90.6868 75.124 91.689 74.5883 92.7802 74.3713C93.8713 74.1542 95.0023 74.2656 96.0302 74.6914C97.058 75.1171 97.9365 75.8381 98.5546 76.7631C99.1727 77.6881 99.5026 78.7757 99.5026 79.8882C99.5026 81.38 98.9099 82.8108 97.855 83.8657C96.8001 84.9206 95.3694 85.5132 93.8776 85.5132ZM93.8776 59.2632C88.4094 59.2694 83.1669 61.4444 79.3003 65.311C75.4337 69.1776 73.2588 74.42 73.2526 79.8882C73.2526 87.2476 76.6533 95.0476 83.0963 102.447C85.9914 105.79 89.2497 108.801 92.8112 111.423C93.1264 111.644 93.502 111.763 93.8869 111.763C94.2719 111.763 94.6475 111.644 94.9627 111.423C98.5176 108.8 101.77 105.789 104.659 102.447C111.092 95.0476 114.503 87.2476 114.503 79.8882C114.496 74.42 112.321 69.1776 108.455 65.311C104.588 61.4444 99.3457 59.2694 93.8776 59.2632ZM93.8776 107.544C90.0033 104.498 77.0026 93.3062 77.0026 79.8882C77.0026 75.4127 78.7805 71.1204 81.9451 67.9558C85.1098 64.7911 89.402 63.0132 93.8776 63.0132C98.3531 63.0132 102.645 64.7911 105.81 67.9558C108.975 71.1204 110.753 75.4127 110.753 79.8882C110.753 93.3015 97.7518 104.498 93.8776 107.544Z" stroke="#F78672" stroke-width="5.38496" stroke-linecap="round" stroke-linejoin="round"/>
</g>
<g filter="url(#filter4_f_986_3746)">
<path d="M93.8776 70.5132C92.0234 70.5132 90.2108 71.063 88.6691 72.0932C87.1274 73.1233 85.9258 74.5875 85.2162 76.3005C84.5066 78.0136 84.321 79.8986 84.6827 81.7172C85.0444 83.5357 85.9373 85.2062 87.2484 86.5173C88.5596 87.8284 90.23 88.7213 92.0486 89.083C93.8672 89.4448 95.7522 89.2591 97.4652 88.5496C99.1783 87.84 100.642 86.6384 101.673 85.0967C102.703 83.5549 103.253 81.7424 103.253 79.8882C103.253 77.4018 102.265 75.0172 100.507 73.2591C98.7485 71.5009 96.364 70.5132 93.8776 70.5132ZM93.8776 85.5132C92.765 85.5132 91.6775 85.1833 90.7525 84.5652C89.8275 83.9471 89.1065 83.0686 88.6807 82.0408C88.255 81.0129 88.1436 79.8819 88.3606 78.7908C88.5777 77.6997 89.1134 76.6974 89.9001 75.9107C90.6868 75.124 91.689 74.5883 92.7802 74.3713C93.8713 74.1542 95.0023 74.2656 96.0302 74.6914C97.058 75.1171 97.9365 75.8381 98.5546 76.7631C99.1727 77.6881 99.5026 78.7757 99.5026 79.8882C99.5026 81.38 98.9099 82.8108 97.855 83.8657C96.8001 84.9206 95.3694 85.5132 93.8776 85.5132ZM93.8776 59.2632C88.4094 59.2694 83.1669 61.4444 79.3003 65.311C75.4337 69.1776 73.2588 74.42 73.2526 79.8882C73.2526 87.2476 76.6533 95.0476 83.0963 102.447C85.9914 105.79 89.2497 108.801 92.8112 111.423C93.1264 111.644 93.502 111.763 93.8869 111.763C94.2719 111.763 94.6475 111.644 94.9627 111.423C98.5176 108.8 101.77 105.789 104.659 102.447C111.092 95.0476 114.503 87.2476 114.503 79.8882C114.496 74.42 112.321 69.1776 108.455 65.311C104.588 61.4444 99.3457 59.2694 93.8776 59.2632ZM93.8776 107.544C90.0033 104.498 77.0026 93.3062 77.0026 79.8882C77.0026 75.4127 78.7805 71.1204 81.9451 67.9558C85.1098 64.7911 89.402 63.0132 93.8776 63.0132C98.3531 63.0132 102.645 64.7911 105.81 67.9558C108.975 71.1204 110.753 75.4127 110.753 79.8882C110.753 93.3015 97.7518 104.498 93.8776 107.544Z" fill="white"/>
<path d="M93.8776 70.5132C92.0234 70.5132 90.2108 71.063 88.6691 72.0932C87.1274 73.1233 85.9258 74.5875 85.2162 76.3005C84.5066 78.0136 84.321 79.8986 84.6827 81.7172C85.0444 83.5357 85.9373 85.2062 87.2484 86.5173C88.5596 87.8284 90.23 88.7213 92.0486 89.083C93.8672 89.4448 95.7522 89.2591 97.4652 88.5496C99.1783 87.84 100.642 86.6384 101.673 85.0967C102.703 83.5549 103.253 81.7424 103.253 79.8882C103.253 77.4018 102.265 75.0172 100.507 73.2591C98.7485 71.5009 96.364 70.5132 93.8776 70.5132ZM93.8776 85.5132C92.765 85.5132 91.6775 85.1833 90.7525 84.5652C89.8275 83.9471 89.1065 83.0686 88.6807 82.0408C88.255 81.0129 88.1436 79.8819 88.3606 78.7908C88.5777 77.6997 89.1134 76.6974 89.9001 75.9107C90.6868 75.124 91.689 74.5883 92.7802 74.3713C93.8713 74.1542 95.0023 74.2656 96.0302 74.6914C97.058 75.1171 97.9365 75.8381 98.5546 76.7631C99.1727 77.6881 99.5026 78.7757 99.5026 79.8882C99.5026 81.38 98.9099 82.8108 97.855 83.8657C96.8001 84.9206 95.3694 85.5132 93.8776 85.5132ZM93.8776 59.2632C88.4094 59.2694 83.1669 61.4444 79.3003 65.311C75.4337 69.1776 73.2588 74.42 73.2526 79.8882C73.2526 87.2476 76.6533 95.0476 83.0963 102.447C85.9914 105.79 89.2497 108.801 92.8112 111.423C93.1264 111.644 93.502 111.763 93.8869 111.763C94.2719 111.763 94.6475 111.644 94.9627 111.423C98.5176 108.8 101.77 105.789 104.659 102.447C111.092 95.0476 114.503 87.2476 114.503 79.8882C114.496 74.42 112.321 69.1776 108.455 65.311C104.588 61.4444 99.3457 59.2694 93.8776 59.2632ZM93.8776 107.544C90.0033 104.498 77.0026 93.3062 77.0026 79.8882C77.0026 75.4127 78.7805 71.1204 81.9451 67.9558C85.1098 64.7911 89.402 63.0132 93.8776 63.0132C98.3531 63.0132 102.645 64.7911 105.81 67.9558C108.975 71.1204 110.753 75.4127 110.753 79.8882C110.753 93.3015 97.7518 104.498 93.8776 107.544Z" stroke="#EEEEEE" stroke-linecap="round" stroke-linejoin="round"/>
</g>
</g>
<rect x="28.4841" y="32.5588" width="119" height="119" rx="19.5" transform="rotate(-6 28.4841 32.5588)" stroke="#252525"/>
<rect width="4.29943" height="20.6117" rx="2.14971" transform="matrix(0.866025 0.5 0.5 -0.866025 48.8965 36.8501)" fill="#888888"/>
<rect width="15.5298" height="15.5298" rx="7.76492" transform="matrix(0.958355 -0.28558 -0.28558 -0.958355 105.332 19.3179)" fill="#ED2A07"/>
<rect width="8" height="8" rx="4" transform="matrix(0.958355 -0.28558 -0.28558 -0.958355 2.80884 102.318)" fill="#ED2A07"/>
<rect width="10.1588" height="10.1588" rx="5.0794" transform="matrix(0.939651 0.342133 0.342133 -0.939651 111.897 146.546)" fill="#888888"/>
<defs>
<filter id="filter0_f_986_3746" x="23.8904" y="9.90125" width="139.974" height="151.223" filterUnits="userSpaceOnUse" color-interpolation-filters="sRGB">
<feFlood flood-opacity="0" result="BackgroundImageFix"/>
<feBlend mode="normal" in="SourceGraphic" in2="BackgroundImageFix" result="shape"/>
<feGaussianBlur stdDeviation="22.4373" result="effect1_foregroundBlur_986_3746"/>
</filter>
<filter id="filter1_f_986_3746" x="53.8859" y="39.8965" width="79.9834" height="91.2329" filterUnits="userSpaceOnUse" color-interpolation-filters="sRGB">
<feFlood flood-opacity="0" result="BackgroundImageFix"/>
<feBlend mode="normal" in="SourceGraphic" in2="BackgroundImageFix" result="shape"/>
<feGaussianBlur stdDeviation="6.73119" result="effect1_foregroundBlur_986_3746"/>
</filter>
<filter id="filter2_f_986_3746" x="70.1113" y="56.122" width="47.5325" height="58.7819" filterUnits="userSpaceOnUse" color-interpolation-filters="sRGB">
<feFlood flood-opacity="0" result="BackgroundImageFix"/>
<feBlend mode="normal" in="SourceGraphic" in2="BackgroundImageFix" result="shape"/>
<feGaussianBlur stdDeviation="0.897493" result="effect1_foregroundBlur_986_3746"/>
</filter>
<filter id="filter3_f_986_3746" x="69.3792" y="55.3899" width="48.9967" height="60.246" filterUnits="userSpaceOnUse" color-interpolation-filters="sRGB">
<feFlood flood-opacity="0" result="BackgroundImageFix"/>
<feBlend mode="normal" in="SourceGraphic" in2="BackgroundImageFix" result="shape"/>
<feGaussianBlur stdDeviation="0.59043" result="effect1_foregroundBlur_986_3746"/>
</filter>
<filter id="filter4_f_986_3746" x="71.8551" y="57.8657" width="44.045" height="55.2945" filterUnits="userSpaceOnUse" color-interpolation-filters="sRGB">
<feFlood flood-opacity="0" result="BackgroundImageFix"/>
<feBlend mode="normal" in="SourceGraphic" in2="BackgroundImageFix" result="shape"/>
<feGaussianBlur stdDeviation="0.448746" result="effect1_foregroundBlur_986_3746"/>
</filter>
<clipPath id="clip0_986_3746">
<rect x="27.9346" y="32.1138" width="120" height="120" rx="20" transform="rotate(-6 27.9346 32.1138)" fill="white"/>
</clipPath>
</defs>
</svg>
