<svg width="40" height="38" viewBox="0 0 40 38" fill="none" xmlns="http://www.w3.org/2000/svg">
<path d="M20.9636 2.6385C22.9674 3.79537 24.9727 5.30242 26.9796 7.15967C29.3582 9.39272 31.0406 11.2238 32.0268 12.6529C32.6539 13.6061 33.2247 14.4998 33.7391 15.3342C34.2769 16.1283 34.77 16.8428 35.2184 17.4779L36.1081 18.8782C36.1974 19.0372 36.259 19.1265 36.293 19.1461C36.5823 19.743 36.8109 20.1706 36.9789 20.4287L38.2619 23.2652C38.594 24.1017 38.9045 25.3288 39.1932 26.9463C39.5052 28.5236 39.6688 30.1226 39.684 31.7434C39.6652 33.3446 39.3765 34.6288 38.8181 35.596C38.0968 36.8453 36.9852 37.3589 35.4834 37.1366C35.0167 37.0821 34.34 36.9601 33.4533 36.7705C32.6697 37.5003 31.8534 37.6201 31.0043 37.1299C30.1446 36.5798 29.1194 36.0416 27.9289 35.5155C27.827 35.4567 27.7475 35.4376 27.6902 35.4583C27.4632 35.3809 27.1629 35.2344 26.7893 35.0187C25.7113 34.6113 24.957 34.3101 24.5261 34.1151C22.4274 33.2796 20.2822 32.5246 18.0905 31.8503C14.8886 30.8078 12.6799 30.1236 11.4642 29.7979L9.21427 29.2243C7.27093 28.7471 5.80587 28.3043 4.8191 27.8958C4.69395 27.8773 4.63766 27.8179 4.65023 27.7177C4.68607 27.5772 4.76122 27.4862 4.87568 27.4448L6.15771 27.4596C4.57537 27.2983 3.2578 26.9138 2.20498 26.3059C0.642738 25.404 0.303706 24.1873 1.18788 22.6558C2.02553 21.205 3.15878 20.3009 4.58764 19.9437C5.98254 19.5669 7.45323 19.5294 8.99973 19.8312C12.0462 20.5154 15.2159 21.3782 18.5089 22.4196C19.4064 22.6691 22.1201 23.5373 26.6502 25.0244L30.0907 26.1241C27.5661 22.7321 25.0529 19.8302 22.551 17.4185C18.8302 13.9807 15.0171 11.1344 11.1114 8.87946L9.29355 7.9105C8.95393 7.71442 8.90046 7.41488 9.13314 7.01187C9.36582 6.60886 9.65197 6.50539 9.99159 6.70147C10.5582 6.97489 11.385 7.42533 12.4717 8.05278C16.3434 10.2881 19.9018 12.9874 23.1471 16.1507C26.3817 19.2541 29.162 22.7131 31.4878 26.5277C31.579 26.5266 31.6925 26.5653 31.8284 26.6437C31.9535 26.6623 32.0501 26.6911 32.118 26.7303C29.621 21.9572 26.6015 18.0107 23.0594 14.891C19.5065 11.7113 15.2393 8.71026 10.2576 5.88781C10.5154 5.28438 10.7141 4.86176 10.8537 4.61996C11.3889 3.69303 12.1046 2.92406 13.0007 2.31303C12.9919 2.093 13.0689 1.84193 13.2318 1.55983C13.3947 1.27772 13.6425 1.04463 13.9751 0.860562C14.433 0.695016 14.8952 0.639485 15.3619 0.693965C15.8518 0.708146 16.3068 0.78278 16.7269 0.917863C17.1364 0.993039 17.4206 1.04969 17.5797 1.08782C18.6256 1.31552 19.7536 1.83241 20.9636 2.6385Z" fill="white"/>
</svg>
