<svg width="32" height="32" viewBox="0 0 32 32" fill="none" xmlns="http://www.w3.org/2000/svg">
<g id="Frame">
<path id="Vector" d="M25.0097 11.0096L25.0096 11.0096L16 20.0205L6.99037 11.0096L6.99035 11.0096C6.72769 10.7469 6.37146 10.5994 6.00001 10.5994C5.62856 10.5994 5.27232 10.7469 5.00966 11.0096C4.74701 11.2723 4.59945 11.6285 4.59945 11.9999C4.59945 12.3714 4.74701 12.7276 5.00966 12.9903L15.0095 22.9901L15.0097 22.9903L15.2925 22.7074C15.3854 22.8004 15.4957 22.8742 15.6171 22.9245C15.7385 22.9748 15.8686 23.0007 16 23.0007C16.1314 23.0007 16.2615 22.9748 16.3829 22.9245C16.5043 22.8742 16.6146 22.8004 16.7075 22.7074L25.0097 11.0096ZM25.0097 11.0096C25.1397 10.8795 25.2941 10.7764 25.464 10.706C25.634 10.6356 25.8161 10.5994 26 10.5994C26.1839 10.5994 26.3661 10.6356 26.536 10.706C26.7059 10.7764 26.8603 10.8795 26.9904 11.0096C27.1204 11.1397 27.2236 11.2941 27.294 11.464C27.3643 11.6339 27.4006 11.816 27.4006 11.9999C27.4006 12.1839 27.3643 12.366 27.294 12.5359C27.2236 12.7058 27.1204 12.8602 26.9904 12.9903L16.9905 22.9901L25.0097 11.0096Z" fill="white" stroke="white" stroke-width="0.8"/>
<path id="Vector_2" d="M16.7075 22.7076L26.7075 12.7076C26.8004 12.6147 26.8741 12.5044 26.9244 12.383C26.9747 12.2616 27.0006 12.1315 27.0006 12.0001C27.0006 11.8687 26.9747 11.7386 26.9244 11.6172C26.8741 11.4958 26.8004 11.3855 26.7075 11.2926C26.6146 11.1997 26.5043 11.126 26.3829 11.0757C26.2615 11.0254 26.1314 10.9995 26 10.9995C25.8686 10.9995 25.7385 11.0254 25.6171 11.0757C25.4957 11.126 25.3854 11.1997 25.2925 11.2926L16 20.5863L6.70751 11.2926C6.51987 11.1049 6.26537 10.9995 6.00001 10.9995C5.73464 10.9995 5.48015 11.1049 5.29251 11.2926C5.10487 11.4802 4.99945 11.7347 4.99945 12.0001C4.99945 12.2654 5.10487 12.5199 5.29251 12.7076L15.2925 22.7076C15.3854 22.8005 15.4957 22.8743 15.6171 22.9246C15.7385 22.975 15.8686 23.0009 16 23.0009C16.1314 23.0009 16.2615 22.975 16.3829 22.9246C16.5043 22.8743 16.6146 22.8005 16.7075 22.7076Z" fill="white"/>
</g>
</svg>
