<svg width="178" height="161" viewBox="0 0 178 161" fill="none" xmlns="http://www.w3.org/2000/svg">
<rect x="16.446" y="44.8074" width="79" height="79" rx="19.5" transform="rotate(-6 16.446 44.8074)" fill="#151515" stroke="#252525"/>
<rect x="-0.549525" y="0.444997" width="79" height="79" rx="19.5" transform="matrix(-0.994522 -0.104528 -0.104528 0.994522 173.772 48.3075)" fill="#151515" stroke="#252525"/>
<rect width="8.76549" height="22" rx="4.38274" transform="matrix(0.46932 -0.883028 -0.883028 -0.46932 169.323 108.065)" fill="#888888"/>
<g clip-path="url(#clip0_758_3)">
<rect x="27.9346" y="32.1139" width="120" height="120" rx="20" transform="rotate(-6 27.9346 32.1139)" fill="#151515"/>
<g style="mix-blend-mode:color-dodge" filter="url(#filter0_f_758_3)">
<path d="M93.5 63C89.0499 63 84.6998 64.3196 80.9997 66.7919C77.2996 69.2643 74.4157 72.7783 72.7127 76.8896C71.0097 81.001 70.5642 85.525 71.4323 89.8895C72.3005 94.2541 74.4434 98.2632 77.5901 101.41C80.7368 104.557 84.7459 106.699 89.1105 107.568C93.475 108.436 97.999 107.99 102.11 106.287C106.222 104.584 109.736 101.7 112.208 98.0003C114.68 94.3002 116 89.9501 116 85.5C115.994 79.5346 113.621 73.8153 109.403 69.5971C105.185 65.3789 99.4654 63.0063 93.5 63ZM112.538 85.5C112.54 87.9425 112.07 90.3623 111.154 92.6264L101.483 86.6791C101.072 86.4254 100.612 86.261 100.133 86.1966L95.1962 85.5303C94.5159 85.4416 93.8245 85.5556 93.2088 85.8581C92.593 86.1606 92.0802 86.6381 91.7346 87.2308H89.8481L89.026 85.5303C88.7987 85.0568 88.4661 84.6416 88.0536 84.3165C87.6411 83.9913 87.1597 83.7649 86.6462 83.6546L84.9154 83.2803L86.6072 80.3077H90.2224C90.8073 80.3065 91.3826 80.1577 91.8947 79.875L94.545 78.4125C94.7778 78.2827 94.9955 78.1274 95.194 77.9495L101.016 72.6837C101.6 72.1606 101.988 71.4541 102.116 70.6809C102.244 69.9076 102.105 69.1138 101.721 68.4303L101.643 68.2897C104.901 69.8344 107.654 72.2713 109.582 75.3176C111.511 78.3639 112.536 81.8946 112.538 85.5ZM96.8123 66.7514L98.6923 70.1178L92.8704 75.3837L90.2224 76.8462H86.6072C85.9987 76.8453 85.4007 77.0048 84.8736 77.3086C84.3464 77.6125 83.9086 78.0499 83.6043 78.5769L81.7156 81.8719L79.5197 76.0219L81.8865 70.425C83.9815 68.8063 86.3915 67.643 88.9621 67.0097C91.5327 66.3763 94.2073 66.2869 96.8144 66.7471L96.8123 66.7514ZM74.4615 85.5C74.4587 82.6702 75.09 79.8758 76.3091 77.3221L78.7625 83.8709C78.967 84.4131 79.3043 84.8953 79.7435 85.2733C80.1827 85.6513 80.7098 85.913 81.2764 86.0344L85.9127 87.0317L86.737 88.7452C87.0231 89.328 87.4664 89.8191 88.0169 90.1632C88.5675 90.5073 89.2032 90.6905 89.8524 90.6923H90.1726L88.6084 94.2036C88.3328 94.8219 88.2445 95.5074 88.3545 96.1753C88.4645 96.8432 88.7679 97.4643 89.2272 97.9615L89.2575 97.9918L93.5 102.362L93.0803 104.525C88.1083 104.41 83.3784 102.355 79.8999 98.801C76.4214 95.2465 74.4698 90.4733 74.4615 85.5ZM96.6543 104.275L96.8988 103.018C96.9993 102.484 96.9733 101.933 96.8231 101.411C96.6728 100.889 96.4024 100.409 96.0334 100.01C96.0228 100.001 96.0127 99.9907 96.0031 99.98L91.7692 95.612L94.7332 88.9615L99.6702 89.6279L109.562 95.7115C108.129 97.962 106.239 99.8869 104.016 101.362C101.793 102.837 99.2849 103.829 96.6543 104.275Z" stroke="#FF9E9E" stroke-width="8.97493" stroke-linecap="round" stroke-linejoin="round"/>
</g>
<g style="mix-blend-mode:color-dodge" filter="url(#filter1_f_758_3)">
<path d="M93.5 63C89.0499 63 84.6998 64.3196 80.9997 66.7919C77.2996 69.2643 74.4157 72.7783 72.7127 76.8896C71.0097 81.001 70.5642 85.525 71.4323 89.8895C72.3005 94.2541 74.4434 98.2632 77.5901 101.41C80.7368 104.557 84.7459 106.699 89.1105 107.568C93.475 108.436 97.999 107.99 102.11 106.287C106.222 104.584 109.736 101.7 112.208 98.0003C114.68 94.3002 116 89.9501 116 85.5C115.994 79.5346 113.621 73.8153 109.403 69.5971C105.185 65.3789 99.4654 63.0063 93.5 63ZM112.538 85.5C112.54 87.9425 112.07 90.3623 111.154 92.6264L101.483 86.6791C101.072 86.4254 100.612 86.261 100.133 86.1966L95.1962 85.5303C94.5159 85.4416 93.8245 85.5556 93.2088 85.8581C92.593 86.1606 92.0802 86.6381 91.7346 87.2308H89.8481L89.026 85.5303C88.7987 85.0568 88.4661 84.6416 88.0536 84.3165C87.6411 83.9913 87.1597 83.7649 86.6462 83.6546L84.9154 83.2803L86.6072 80.3077H90.2224C90.8073 80.3065 91.3826 80.1577 91.8947 79.875L94.545 78.4125C94.7778 78.2827 94.9955 78.1274 95.194 77.9495L101.016 72.6837C101.6 72.1606 101.988 71.4541 102.116 70.6809C102.244 69.9076 102.105 69.1138 101.721 68.4303L101.643 68.2897C104.901 69.8344 107.654 72.2713 109.582 75.3176C111.511 78.3639 112.536 81.8946 112.538 85.5ZM96.8123 66.7514L98.6923 70.1178L92.8704 75.3836L90.2224 76.8462H86.6072C85.9987 76.8453 85.4007 77.0048 84.8736 77.3086C84.3464 77.6125 83.9086 78.0499 83.6043 78.5769L81.7156 81.8719L79.5197 76.0219L81.8865 70.425C83.9815 68.8063 86.3915 67.643 88.9621 67.0097C91.5327 66.3763 94.2073 66.2869 96.8144 66.7471L96.8123 66.7514ZM74.4615 85.5C74.4587 82.6702 75.09 79.8758 76.3091 77.3221L78.7625 83.8709C78.967 84.4131 79.3043 84.8953 79.7435 85.2733C80.1827 85.6513 80.7098 85.913 81.2764 86.0344L85.9127 87.0317L86.737 88.7452C87.0231 89.328 87.4664 89.8191 88.0169 90.1632C88.5675 90.5073 89.2032 90.6905 89.8524 90.6923H90.1726L88.6084 94.2036C88.3328 94.8219 88.2445 95.5074 88.3545 96.1753C88.4645 96.8432 88.7679 97.4643 89.2272 97.9615L89.2575 97.9918L93.5 102.362L93.0803 104.525C88.1083 104.41 83.3784 102.355 79.8999 98.801C76.4214 95.2465 74.4698 90.4733 74.4615 85.5ZM96.6543 104.275L96.8988 103.018C96.9993 102.484 96.9733 101.933 96.8231 101.411C96.6728 100.889 96.4024 100.409 96.0334 100.01C96.0228 100.001 96.0127 99.9907 96.0031 99.98L91.7692 95.612L94.7332 88.9615L99.6702 89.6279L109.562 95.7115C108.129 97.962 106.239 99.8869 104.016 101.362C101.793 102.837 99.2849 103.829 96.6543 104.275Z" fill="#B1280F"/>
<path d="M93.5 63C89.0499 63 84.6998 64.3196 80.9997 66.7919C77.2996 69.2643 74.4157 72.7783 72.7127 76.8896C71.0097 81.001 70.5642 85.525 71.4323 89.8895C72.3005 94.2541 74.4434 98.2632 77.5901 101.41C80.7368 104.557 84.7459 106.699 89.1105 107.568C93.475 108.436 97.999 107.99 102.11 106.287C106.222 104.584 109.736 101.7 112.208 98.0003C114.68 94.3002 116 89.9501 116 85.5C115.994 79.5346 113.621 73.8153 109.403 69.5971C105.185 65.3789 99.4654 63.0063 93.5 63ZM112.538 85.5C112.54 87.9425 112.07 90.3623 111.154 92.6264L101.483 86.6791C101.072 86.4254 100.612 86.261 100.133 86.1966L95.1962 85.5303C94.5159 85.4416 93.8245 85.5556 93.2088 85.8581C92.593 86.1606 92.0802 86.6381 91.7346 87.2308H89.8481L89.026 85.5303C88.7987 85.0568 88.4661 84.6416 88.0536 84.3165C87.6411 83.9913 87.1597 83.7649 86.6462 83.6546L84.9154 83.2803L86.6072 80.3077H90.2224C90.8073 80.3065 91.3826 80.1577 91.8947 79.875L94.545 78.4125C94.7778 78.2827 94.9955 78.1274 95.194 77.9495L101.016 72.6837C101.6 72.1606 101.988 71.4541 102.116 70.6809C102.244 69.9076 102.105 69.1138 101.721 68.4303L101.643 68.2897C104.901 69.8344 107.654 72.2713 109.582 75.3176C111.511 78.3639 112.536 81.8946 112.538 85.5ZM96.8123 66.7514L98.6923 70.1178L92.8704 75.3836L90.2224 76.8462H86.6072C85.9987 76.8453 85.4007 77.0048 84.8736 77.3086C84.3464 77.6125 83.9086 78.0499 83.6043 78.5769L81.7156 81.8719L79.5197 76.0219L81.8865 70.425C83.9815 68.8063 86.3915 67.643 88.9621 67.0097C91.5327 66.3763 94.2073 66.2869 96.8144 66.7471L96.8123 66.7514ZM74.4615 85.5C74.4587 82.6702 75.09 79.8758 76.3091 77.3221L78.7625 83.8709C78.967 84.4131 79.3043 84.8953 79.7435 85.2733C80.1827 85.6513 80.7098 85.913 81.2764 86.0344L85.9127 87.0317L86.737 88.7452C87.0231 89.328 87.4664 89.8191 88.0169 90.1632C88.5675 90.5073 89.2032 90.6905 89.8524 90.6923H90.1726L88.6084 94.2036C88.3328 94.8219 88.2445 95.5074 88.3545 96.1753C88.4645 96.8432 88.7679 97.4643 89.2272 97.9615L89.2575 97.9918L93.5 102.362L93.0803 104.525C88.1083 104.41 83.3784 102.355 79.8999 98.801C76.4214 95.2465 74.4698 90.4733 74.4615 85.5ZM96.6543 104.275L96.8988 103.018C96.9993 102.484 96.9733 101.933 96.8231 101.411C96.6728 100.889 96.4024 100.409 96.0334 100.01C96.0228 100.001 96.0127 99.9907 96.0031 99.98L91.7692 95.612L94.7332 88.9615L99.6702 89.6279L109.562 95.7115C108.129 97.962 106.239 99.8869 104.016 101.362C101.793 102.837 99.2849 103.829 96.6543 104.275Z" stroke="#B1280F" stroke-width="11.8086" stroke-linecap="round" stroke-linejoin="round"/>
</g>
<g style="mix-blend-mode:multiply" opacity="0.2" filter="url(#filter2_f_758_3)">
<path d="M93.5 63C89.0499 63 84.6998 64.3196 80.9997 66.7919C77.2996 69.2643 74.4157 72.7783 72.7127 76.8896C71.0097 81.001 70.5642 85.525 71.4323 89.8895C72.3005 94.2541 74.4434 98.2632 77.5901 101.41C80.7368 104.557 84.7459 106.699 89.1105 107.568C93.475 108.436 97.999 107.99 102.11 106.287C106.222 104.584 109.736 101.7 112.208 98.0003C114.68 94.3002 116 89.9501 116 85.5C115.994 79.5346 113.621 73.8153 109.403 69.5971C105.185 65.3789 99.4654 63.0063 93.5 63ZM112.538 85.5C112.54 87.9425 112.07 90.3623 111.154 92.6264L101.483 86.6791C101.072 86.4254 100.612 86.261 100.133 86.1966L95.1962 85.5303C94.5159 85.4416 93.8245 85.5556 93.2088 85.8581C92.593 86.1606 92.0802 86.6381 91.7346 87.2308H89.8481L89.026 85.5303C88.7987 85.0568 88.4661 84.6416 88.0536 84.3165C87.6411 83.9913 87.1597 83.7649 86.6462 83.6546L84.9154 83.2803L86.6072 80.3077H90.2224C90.8073 80.3065 91.3826 80.1577 91.8947 79.875L94.545 78.4125C94.7778 78.2827 94.9955 78.1274 95.194 77.9495L101.016 72.6837C101.6 72.1606 101.988 71.4541 102.116 70.6809C102.244 69.9076 102.105 69.1138 101.721 68.4303L101.643 68.2897C104.901 69.8344 107.654 72.2713 109.582 75.3176C111.511 78.3639 112.536 81.8946 112.538 85.5ZM96.8123 66.7514L98.6923 70.1178L92.8704 75.3837L90.2224 76.8462H86.6072C85.9987 76.8453 85.4007 77.0048 84.8736 77.3086C84.3464 77.6125 83.9086 78.0499 83.6043 78.5769L81.7156 81.8719L79.5197 76.0219L81.8865 70.425C83.9815 68.8063 86.3915 67.643 88.9621 67.0097C91.5327 66.3763 94.2073 66.2869 96.8144 66.7471L96.8123 66.7514ZM74.4615 85.5C74.4587 82.6702 75.09 79.8758 76.3091 77.3221L78.7625 83.8709C78.967 84.4131 79.3043 84.8953 79.7435 85.2733C80.1827 85.6513 80.7098 85.913 81.2764 86.0344L85.9127 87.0317L86.737 88.7452C87.0231 89.328 87.4664 89.8191 88.0169 90.1632C88.5675 90.5073 89.2032 90.6905 89.8524 90.6923H90.1726L88.6084 94.2036C88.3328 94.8219 88.2445 95.5074 88.3545 96.1753C88.4645 96.8432 88.7679 97.4643 89.2272 97.9615L89.2575 97.9918L93.5 102.362L93.0803 104.525C88.1083 104.41 83.3784 102.355 79.8999 98.801C76.4214 95.2465 74.4698 90.4733 74.4615 85.5ZM96.6543 104.275L96.8988 103.018C96.9993 102.484 96.9733 101.933 96.8231 101.411C96.6728 100.889 96.4024 100.409 96.0334 100.01C96.0228 100.001 96.0127 99.9907 96.0031 99.98L91.7692 95.612L94.7332 88.9615L99.6702 89.6279L109.562 95.7115C108.129 97.962 106.239 99.8869 104.016 101.362C101.793 102.837 99.2849 103.829 96.6543 104.275Z" stroke="#ED2A07" stroke-width="2.69248" stroke-linecap="round" stroke-linejoin="round"/>
</g>
<path d="M93.5 63C89.0499 63 84.6998 64.3196 80.9997 66.7919C77.2996 69.2643 74.4157 72.7783 72.7127 76.8896C71.0097 81.001 70.5642 85.525 71.4323 89.8895C72.3005 94.2541 74.4434 98.2632 77.5901 101.41C80.7368 104.557 84.7459 106.699 89.1105 107.568C93.475 108.436 97.999 107.99 102.11 106.287C106.222 104.584 109.736 101.7 112.208 98.0003C114.68 94.3002 116 89.9501 116 85.5C115.994 79.5346 113.621 73.8153 109.403 69.5971C105.185 65.3789 99.4654 63.0063 93.5 63ZM112.538 85.5C112.54 87.9425 112.07 90.3623 111.154 92.6264L101.483 86.6791C101.072 86.4254 100.612 86.261 100.133 86.1966L95.1962 85.5303C94.5159 85.4416 93.8245 85.5556 93.2088 85.8581C92.593 86.1606 92.0802 86.6381 91.7346 87.2308H89.8481L89.026 85.5303C88.7987 85.0568 88.4661 84.6416 88.0536 84.3165C87.6411 83.9913 87.1597 83.7649 86.6462 83.6546L84.9154 83.2803L86.6072 80.3077H90.2224C90.8073 80.3065 91.3826 80.1577 91.8947 79.875L94.545 78.4125C94.7778 78.2827 94.9955 78.1274 95.194 77.9495L101.016 72.6837C101.6 72.1606 101.988 71.4541 102.116 70.6809C102.244 69.9076 102.105 69.1138 101.721 68.4303L101.643 68.2897C104.901 69.8344 107.654 72.2713 109.582 75.3176C111.511 78.3639 112.536 81.8946 112.538 85.5ZM96.8123 66.7514L98.6923 70.1178L92.8704 75.3836L90.2224 76.8462H86.6072C85.9987 76.8453 85.4007 77.0048 84.8736 77.3086C84.3464 77.6125 83.9086 78.0499 83.6043 78.5769L81.7156 81.8719L79.5197 76.0219L81.8865 70.425C83.9815 68.8063 86.3915 67.643 88.9621 67.0097C91.5327 66.3763 94.2073 66.2869 96.8144 66.7471L96.8123 66.7514ZM74.4615 85.5C74.4587 82.6702 75.09 79.8758 76.3091 77.3221L78.7625 83.8709C78.967 84.4131 79.3043 84.8953 79.7435 85.2733C80.1827 85.6513 80.7098 85.913 81.2764 86.0344L85.9127 87.0317L86.737 88.7452C87.0231 89.328 87.4664 89.8191 88.0169 90.1632C88.5675 90.5073 89.2032 90.6905 89.8524 90.6923H90.1726L88.6084 94.2036C88.3328 94.8219 88.2445 95.5074 88.3545 96.1753C88.4645 96.8432 88.7679 97.4643 89.2272 97.9615L89.2575 97.9918L93.5 102.362L93.0803 104.525C88.1083 104.41 83.3784 102.355 79.8999 98.801C76.4214 95.2465 74.4698 90.4733 74.4615 85.5ZM96.6543 104.275L96.8988 103.018C96.9993 102.484 96.9733 101.933 96.8231 101.411C96.6728 100.889 96.4024 100.409 96.0334 100.01C96.0228 100.001 96.0127 99.9907 96.0031 99.98L91.7692 95.612L94.7332 88.9615L99.6702 89.6279L109.562 95.7115C108.129 97.962 106.239 99.8869 104.016 101.362C101.793 102.837 99.2849 103.829 96.6543 104.275Z" fill="white"/>
<g filter="url(#filter3_f_758_3)">
<path d="M93.5 63C89.0499 63 84.6998 64.3196 80.9997 66.7919C77.2996 69.2643 74.4157 72.7783 72.7127 76.8896C71.0097 81.001 70.5642 85.525 71.4323 89.8895C72.3005 94.2541 74.4434 98.2632 77.5901 101.41C80.7368 104.557 84.7459 106.699 89.1105 107.568C93.475 108.436 97.999 107.99 102.11 106.287C106.222 104.584 109.736 101.7 112.208 98.0003C114.68 94.3002 116 89.9501 116 85.5C115.994 79.5346 113.621 73.8153 109.403 69.5971C105.185 65.3789 99.4654 63.0063 93.5 63ZM112.538 85.5C112.54 87.9425 112.07 90.3623 111.154 92.6264L101.483 86.6791C101.072 86.4254 100.612 86.261 100.133 86.1966L95.1962 85.5303C94.5159 85.4416 93.8245 85.5556 93.2088 85.8581C92.593 86.1606 92.0802 86.6381 91.7346 87.2308H89.8481L89.026 85.5303C88.7987 85.0568 88.4661 84.6416 88.0536 84.3165C87.6411 83.9913 87.1597 83.7649 86.6462 83.6546L84.9154 83.2803L86.6072 80.3077H90.2224C90.8073 80.3065 91.3826 80.1577 91.8947 79.875L94.545 78.4125C94.7778 78.2827 94.9955 78.1274 95.194 77.9495L101.016 72.6837C101.6 72.1606 101.988 71.4541 102.116 70.6809C102.244 69.9076 102.105 69.1138 101.721 68.4303L101.643 68.2897C104.901 69.8344 107.654 72.2713 109.582 75.3176C111.511 78.3639 112.536 81.8946 112.538 85.5ZM96.8123 66.7514L98.6923 70.1178L92.8704 75.3837L90.2224 76.8462H86.6072C85.9987 76.8453 85.4007 77.0048 84.8736 77.3086C84.3464 77.6125 83.9086 78.0499 83.6043 78.5769L81.7156 81.8719L79.5197 76.0219L81.8865 70.425C83.9815 68.8063 86.3915 67.643 88.9621 67.0097C91.5327 66.3763 94.2073 66.2869 96.8144 66.7471L96.8123 66.7514ZM74.4615 85.5C74.4587 82.6702 75.09 79.8758 76.3091 77.3221L78.7625 83.8709C78.967 84.4131 79.3043 84.8953 79.7435 85.2733C80.1827 85.6513 80.7098 85.913 81.2764 86.0344L85.9127 87.0317L86.737 88.7452C87.0231 89.328 87.4664 89.8191 88.0169 90.1632C88.5675 90.5073 89.2032 90.6905 89.8524 90.6923H90.1726L88.6084 94.2036C88.3328 94.8219 88.2445 95.5074 88.3545 96.1753C88.4645 96.8432 88.7679 97.4643 89.2272 97.9615L89.2575 97.9918L93.5 102.362L93.0803 104.525C88.1083 104.41 83.3784 102.355 79.8999 98.801C76.4214 95.2465 74.4698 90.4733 74.4615 85.5ZM96.6543 104.275L96.8988 103.018C96.9993 102.484 96.9733 101.933 96.8231 101.411C96.6728 100.889 96.4024 100.409 96.0334 100.01C96.0228 100.001 96.0127 99.9907 96.0031 99.98L91.7692 95.612L94.7332 88.9615L99.6702 89.6279L109.562 95.7115C108.129 97.962 106.239 99.8869 104.016 101.362C101.793 102.837 99.2849 103.829 96.6543 104.275Z" stroke="#F78672" stroke-width="5.38496" stroke-linecap="round" stroke-linejoin="round"/>
</g>
<g filter="url(#filter4_f_758_3)">
<path d="M93.5 63C89.0499 63 84.6998 64.3196 80.9997 66.7919C77.2996 69.2643 74.4157 72.7783 72.7127 76.8896C71.0097 81.001 70.5642 85.525 71.4323 89.8895C72.3005 94.2541 74.4434 98.2632 77.5901 101.41C80.7368 104.557 84.7459 106.699 89.1105 107.568C93.475 108.436 97.999 107.99 102.11 106.287C106.222 104.584 109.736 101.7 112.208 98.0003C114.68 94.3002 116 89.9501 116 85.5C115.994 79.5346 113.621 73.8153 109.403 69.5971C105.185 65.3789 99.4654 63.0063 93.5 63ZM112.538 85.5C112.54 87.9425 112.07 90.3623 111.154 92.6264L101.483 86.6791C101.072 86.4254 100.612 86.261 100.133 86.1966L95.1962 85.5303C94.5159 85.4416 93.8245 85.5556 93.2088 85.8581C92.593 86.1606 92.0802 86.6381 91.7346 87.2308H89.8481L89.026 85.5303C88.7987 85.0568 88.4661 84.6416 88.0536 84.3165C87.6411 83.9913 87.1597 83.7649 86.6462 83.6546L84.9154 83.2803L86.6072 80.3077H90.2224C90.8073 80.3065 91.3826 80.1577 91.8947 79.875L94.545 78.4125C94.7778 78.2827 94.9955 78.1274 95.194 77.9495L101.016 72.6837C101.6 72.1606 101.988 71.4541 102.116 70.6809C102.244 69.9076 102.105 69.1138 101.721 68.4303L101.643 68.2897C104.901 69.8344 107.654 72.2713 109.582 75.3176C111.511 78.3639 112.536 81.8946 112.538 85.5ZM96.8123 66.7514L98.6923 70.1178L92.8704 75.3836L90.2224 76.8462H86.6072C85.9987 76.8453 85.4007 77.0048 84.8736 77.3086C84.3464 77.6125 83.9086 78.0499 83.6043 78.5769L81.7156 81.8719L79.5197 76.0219L81.8865 70.425C83.9815 68.8063 86.3915 67.643 88.9621 67.0097C91.5327 66.3763 94.2073 66.2869 96.8144 66.7471L96.8123 66.7514ZM74.4615 85.5C74.4587 82.6702 75.09 79.8758 76.3091 77.3221L78.7625 83.8709C78.967 84.4131 79.3043 84.8953 79.7435 85.2733C80.1827 85.6513 80.7098 85.913 81.2764 86.0344L85.9127 87.0317L86.737 88.7452C87.0231 89.328 87.4664 89.8191 88.0169 90.1632C88.5675 90.5073 89.2032 90.6905 89.8524 90.6923H90.1726L88.6084 94.2036C88.3328 94.8219 88.2445 95.5074 88.3545 96.1753C88.4645 96.8432 88.7679 97.4643 89.2272 97.9615L89.2575 97.9918L93.5 102.362L93.0803 104.525C88.1083 104.41 83.3784 102.355 79.8999 98.801C76.4214 95.2465 74.4698 90.4733 74.4615 85.5ZM96.6543 104.275L96.8988 103.018C96.9993 102.484 96.9733 101.933 96.8231 101.411C96.6728 100.889 96.4024 100.409 96.0334 100.01C96.0228 100.001 96.0127 99.9907 96.0031 99.98L91.7692 95.612L94.7332 88.9615L99.6702 89.6279L109.562 95.7115C108.129 97.962 106.239 99.8869 104.016 101.362C101.793 102.837 99.2849 103.829 96.6543 104.275Z" fill="white"/>
<path d="M93.5 63C89.0499 63 84.6998 64.3196 80.9997 66.7919C77.2996 69.2643 74.4157 72.7783 72.7127 76.8896C71.0097 81.001 70.5642 85.525 71.4323 89.8895C72.3005 94.2541 74.4434 98.2632 77.5901 101.41C80.7368 104.557 84.7459 106.699 89.1105 107.568C93.475 108.436 97.999 107.99 102.11 106.287C106.222 104.584 109.736 101.7 112.208 98.0003C114.68 94.3002 116 89.9501 116 85.5C115.994 79.5346 113.621 73.8153 109.403 69.5971C105.185 65.3789 99.4654 63.0063 93.5 63ZM112.538 85.5C112.54 87.9425 112.07 90.3623 111.154 92.6264L101.483 86.6791C101.072 86.4254 100.612 86.261 100.133 86.1966L95.1962 85.5303C94.5159 85.4416 93.8245 85.5556 93.2088 85.8581C92.593 86.1606 92.0802 86.6381 91.7346 87.2308H89.8481L89.026 85.5303C88.7987 85.0568 88.4661 84.6416 88.0536 84.3165C87.6411 83.9913 87.1597 83.7649 86.6462 83.6546L84.9154 83.2803L86.6072 80.3077H90.2224C90.8073 80.3065 91.3826 80.1577 91.8947 79.875L94.545 78.4125C94.7778 78.2827 94.9955 78.1274 95.194 77.9495L101.016 72.6837C101.6 72.1606 101.988 71.4541 102.116 70.6809C102.244 69.9076 102.105 69.1138 101.721 68.4303L101.643 68.2897C104.901 69.8344 107.654 72.2713 109.582 75.3176C111.511 78.3639 112.536 81.8946 112.538 85.5ZM96.8123 66.7514L98.6923 70.1178L92.8704 75.3836L90.2224 76.8462H86.6072C85.9987 76.8453 85.4007 77.0048 84.8736 77.3086C84.3464 77.6125 83.9086 78.0499 83.6043 78.5769L81.7156 81.8719L79.5197 76.0219L81.8865 70.425C83.9815 68.8063 86.3915 67.643 88.9621 67.0097C91.5327 66.3763 94.2073 66.2869 96.8144 66.7471L96.8123 66.7514ZM74.4615 85.5C74.4587 82.6702 75.09 79.8758 76.3091 77.3221L78.7625 83.8709C78.967 84.4131 79.3043 84.8953 79.7435 85.2733C80.1827 85.6513 80.7098 85.913 81.2764 86.0344L85.9127 87.0317L86.737 88.7452C87.0231 89.328 87.4664 89.8191 88.0169 90.1632C88.5675 90.5073 89.2032 90.6905 89.8524 90.6923H90.1726L88.6084 94.2036C88.3328 94.8219 88.2445 95.5074 88.3545 96.1753C88.4645 96.8432 88.7679 97.4643 89.2272 97.9615L89.2575 97.9918L93.5 102.362L93.0803 104.525C88.1083 104.41 83.3784 102.355 79.8999 98.801C76.4214 95.2465 74.4698 90.4733 74.4615 85.5ZM96.6543 104.275L96.8988 103.018C96.9993 102.484 96.9733 101.933 96.8231 101.411C96.6728 100.889 96.4024 100.409 96.0334 100.01C96.0228 100.001 96.0127 99.9907 96.0031 99.98L91.7692 95.612L94.7332 88.9615L99.6702 89.6279L109.562 95.7115C108.129 97.962 106.239 99.8869 104.016 101.362C101.793 102.837 99.2849 103.829 96.6543 104.275Z" stroke="#EEEEEE" stroke-linecap="round" stroke-linejoin="round"/>
</g>
</g>
<rect x="28.4841" y="32.5589" width="119" height="119" rx="19.5" transform="rotate(-6 28.4841 32.5589)" stroke="#252525"/>
<rect width="4.29943" height="20.6117" rx="2.14971" transform="matrix(0.866025 0.5 0.5 -0.866025 48.8965 36.8501)" fill="#888888"/>
<rect width="15.5298" height="15.5298" rx="7.76492" transform="matrix(0.958355 -0.28558 -0.28558 -0.958355 105.332 19.3181)" fill="#ED2A07"/>
<rect width="8" height="8" rx="4" transform="matrix(0.958355 -0.28558 -0.28558 -0.958355 2.80859 102.318)" fill="#ED2A07"/>
<rect width="10.1588" height="10.1588" rx="5.0794" transform="matrix(0.939651 0.342133 0.342133 -0.939651 111.896 146.546)" fill="#888888"/>
<rect width="14.066" height="14.066" rx="2.29213" transform="matrix(0.965193 -0.261538 -0.261538 -0.965193 20.5752 149.255)" fill="#151515"/>
<rect width="9.7821" height="9.7821" rx="1.59404" transform="matrix(-0.965193 0.261538 0.261538 0.965193 174.918 33.6274)" fill="#151515"/>
<rect width="5.0302" height="5.0302" rx="2.5151" transform="matrix(0.958355 -0.28558 -0.28558 -0.958355 89.4902 160.782)" fill="#ED2A07"/>
<defs>
<filter id="filter0_f_758_3" x="21.6379" y="13.6379" width="143.724" height="143.724" filterUnits="userSpaceOnUse" color-interpolation-filters="sRGB">
<feFlood flood-opacity="0" result="BackgroundImageFix"/>
<feBlend mode="normal" in="SourceGraphic" in2="BackgroundImageFix" result="shape"/>
<feGaussianBlur stdDeviation="22.4373" result="effect1_foregroundBlur_758_3"/>
</filter>
<filter id="filter1_f_758_3" x="51.6333" y="43.6333" width="83.7334" height="83.7334" filterUnits="userSpaceOnUse" color-interpolation-filters="sRGB">
<feFlood flood-opacity="0" result="BackgroundImageFix"/>
<feBlend mode="normal" in="SourceGraphic" in2="BackgroundImageFix" result="shape"/>
<feGaussianBlur stdDeviation="6.73119" result="effect1_foregroundBlur_758_3"/>
</filter>
<filter id="filter2_f_758_3" x="67.8588" y="59.8588" width="51.2825" height="51.2824" filterUnits="userSpaceOnUse" color-interpolation-filters="sRGB">
<feFlood flood-opacity="0" result="BackgroundImageFix"/>
<feBlend mode="normal" in="SourceGraphic" in2="BackgroundImageFix" result="shape"/>
<feGaussianBlur stdDeviation="0.897493" result="effect1_foregroundBlur_758_3"/>
</filter>
<filter id="filter3_f_758_3" x="67.1267" y="59.1266" width="52.7467" height="52.7467" filterUnits="userSpaceOnUse" color-interpolation-filters="sRGB">
<feFlood flood-opacity="0" result="BackgroundImageFix"/>
<feBlend mode="normal" in="SourceGraphic" in2="BackgroundImageFix" result="shape"/>
<feGaussianBlur stdDeviation="0.59043" result="effect1_foregroundBlur_758_3"/>
</filter>
<filter id="filter4_f_758_3" x="69.6025" y="61.6025" width="47.795" height="47.795" filterUnits="userSpaceOnUse" color-interpolation-filters="sRGB">
<feFlood flood-opacity="0" result="BackgroundImageFix"/>
<feBlend mode="normal" in="SourceGraphic" in2="BackgroundImageFix" result="shape"/>
<feGaussianBlur stdDeviation="0.448746" result="effect1_foregroundBlur_758_3"/>
</filter>
<clipPath id="clip0_758_3">
<rect x="27.9346" y="32.1139" width="120" height="120" rx="20" transform="rotate(-6 27.9346 32.1139)" fill="white"/>
</clipPath>
</defs>
</svg>
