<svg width="1395" height="31" viewBox="0 0 1395 31" fill="none" xmlns="http://www.w3.org/2000/svg">
<path d="M43.4759 11.4708L40.9768 5.22316C40.7648 4.69455 40.399 4.24179 39.9267 3.92352C39.4543 3.60525 38.8974 3.43615 38.3278 3.43811L32.1551 3.43811L32.1551 2.01007C32.1551 1.63133 32.0047 1.2681 31.7369 1.00029C31.4691 0.732485 31.1058 0.582031 30.7271 0.582031L3.59436 0.582031C2.83688 0.582031 2.11043 0.882938 1.57481 1.41856C1.03919 1.95417 0.738281 2.68063 0.738281 3.43811L0.738281 23.4306C0.738281 24.1881 1.03919 24.9146 1.57481 25.4502C2.11043 25.9858 2.83688 26.2867 3.59436 26.2867L6.62894 26.2867C6.94354 27.5154 7.65813 28.6045 8.66005 29.3822C9.66198 30.1599 10.8942 30.582 12.1626 30.582C13.4309 30.582 14.6632 30.1599 15.6651 29.3822C16.667 28.6045 17.3816 27.5154 17.6962 26.2867L26.6215 26.2867C26.9361 27.5154 27.6507 28.6045 28.6526 29.3822C29.6545 30.1599 30.8868 30.582 32.1551 30.582C33.4235 30.582 34.6557 30.1599 35.6577 29.3822C36.6596 28.6045 37.3742 27.5154 37.6888 26.2867L40.7234 26.2867C41.4808 26.2867 42.2073 25.9858 42.7429 25.4502C43.2785 24.9146 43.5794 24.1881 43.5794 23.4306L43.5794 12.0063C43.5799 11.8228 43.5448 11.6409 43.4759 11.4708ZM32.1551 6.29418L38.3278 6.29418L40.0415 10.5783L32.1551 10.5783L32.1551 6.29418ZM3.59436 3.43811L29.299 3.43811L29.299 14.8624L3.59436 14.8624L3.59436 3.43811ZM12.1626 27.7148C11.5977 27.7148 11.0455 27.5472 10.5758 27.2334C10.1062 26.9196 9.74009 26.4735 9.52392 25.9517C9.30775 25.4298 9.25119 24.8555 9.36139 24.3015C9.47159 23.7475 9.74361 23.2386 10.143 22.8391C10.5425 22.4397 11.0514 22.1677 11.6054 22.0575C12.1594 21.9473 12.7337 22.0038 13.2556 22.22C13.7774 22.4362 14.2235 22.8022 14.5373 23.2719C14.8512 23.7416 15.0187 24.2938 15.0187 24.8587C15.0187 25.6162 14.7178 26.3426 14.1821 26.8782C13.6465 27.4138 12.9201 27.7148 12.1626 27.7148ZM26.6215 23.4306L17.6962 23.4306C17.3816 22.2019 16.667 21.1129 15.6651 20.3352C14.6632 19.5575 13.4309 19.1353 12.1626 19.1353C10.8942 19.1353 9.66198 19.5575 8.66005 20.3352C7.65813 21.1129 6.94354 22.2019 6.62894 23.4306L3.59436 23.4306L3.59436 17.7185L29.299 17.7185L29.299 19.9159C28.6424 20.2954 28.0676 20.8016 27.608 21.4049C27.1483 22.0082 26.813 22.6968 26.6215 23.4306ZM32.1551 27.7148C31.5902 27.7148 31.038 27.5472 30.5684 27.2334C30.0987 26.9196 29.7326 26.4735 29.5165 25.9517C29.3003 25.4298 29.2437 24.8555 29.3539 24.3015C29.4641 23.7475 29.7361 23.2386 30.1356 22.8391C30.535 22.4397 31.0439 22.1677 31.5979 22.0575C32.152 21.9473 32.7262 22.0038 33.2481 22.22C33.77 22.4362 34.216 22.8022 34.5299 23.2719C34.8437 23.7416 35.0112 24.2938 35.0112 24.8587C35.0112 25.6162 34.7103 26.3426 34.1747 26.8782C33.6391 27.4138 32.9126 27.7148 32.1551 27.7148ZM40.7234 23.4306L37.6888 23.4306C37.3704 22.2049 36.6545 21.1194 35.6531 20.3442C34.6517 19.5689 33.4215 19.1477 32.1551 19.1465L32.1551 13.4344L40.7234 13.4344L40.7234 23.4306Z" fill="#252525"/>
<path d="M166.317 11.4708L163.818 5.22316C163.606 4.69455 163.24 4.24179 162.768 3.92352C162.296 3.60525 161.739 3.43615 161.169 3.43811L154.996 3.43811L154.996 2.01007C154.996 1.63133 154.846 1.2681 154.578 1.00029C154.31 0.732485 153.947 0.582031 153.568 0.582031L126.436 0.582031C125.678 0.582031 124.952 0.882938 124.416 1.41856C123.88 1.95417 123.579 2.68063 123.579 3.43811L123.579 23.4306C123.579 24.1881 123.88 24.9146 124.416 25.4502C124.952 25.9858 125.678 26.2867 126.436 26.2867L129.47 26.2867C129.785 27.5154 130.499 28.6045 131.501 29.3822C132.503 30.1599 133.735 30.582 135.004 30.582C136.272 30.582 137.504 30.1599 138.506 29.3822C139.508 28.6045 140.223 27.5154 140.537 26.2867L149.463 26.2867C149.777 27.5154 150.492 28.6045 151.494 29.3822C152.496 30.1599 153.728 30.582 154.996 30.582C156.265 30.582 157.497 30.1599 158.499 29.3822C159.501 28.6045 160.215 27.5154 160.53 26.2867L163.565 26.2867C164.322 26.2867 165.048 25.9858 165.584 25.4502C166.12 24.9146 166.421 24.1881 166.421 23.4306L166.421 12.0063C166.421 11.8228 166.386 11.6409 166.317 11.4708ZM154.996 6.29418L161.169 6.29418L162.883 10.5783L154.996 10.5783L154.996 6.29418ZM126.436 3.43811L152.14 3.43811L152.14 14.8624L126.436 14.8624L126.436 3.43811ZM135.004 27.7148C134.439 27.7148 133.887 27.5472 133.417 27.2334C132.947 26.9196 132.581 26.4735 132.365 25.9517C132.149 25.4298 132.092 24.8555 132.203 24.3015C132.313 23.7475 132.585 23.2386 132.984 22.8391C133.384 22.4397 133.893 22.1677 134.447 22.0575C135.001 21.9473 135.575 22.0038 136.097 22.22C136.619 22.4362 137.065 22.8022 137.379 23.2719C137.692 23.7416 137.86 24.2938 137.86 24.8587C137.86 25.6162 137.559 26.3426 137.023 26.8782C136.488 27.4138 135.761 27.7148 135.004 27.7148ZM149.463 23.4306L140.537 23.4306C140.223 22.2019 139.508 21.1129 138.506 20.3352C137.504 19.5575 136.272 19.1353 135.004 19.1353C133.735 19.1353 132.503 19.5575 131.501 20.3352C130.499 21.1129 129.785 22.2019 129.47 23.4306L126.436 23.4306L126.436 17.7185L152.14 17.7185L152.14 19.9159C151.484 20.2954 150.909 20.8016 150.449 21.4049C149.99 22.0082 149.654 22.6968 149.463 23.4306ZM154.996 27.7148C154.431 27.7148 153.879 27.5472 153.41 27.2334C152.94 26.9196 152.574 26.4735 152.358 25.9517C152.141 25.4298 152.085 24.8555 152.195 24.3015C152.305 23.7475 152.577 23.2386 152.977 22.8391C153.376 22.4397 153.885 22.1677 154.439 22.0575C154.993 21.9473 155.567 22.0038 156.089 22.22C156.611 22.4362 157.057 22.8022 157.371 23.2719C157.685 23.7416 157.852 24.2938 157.852 24.8587C157.852 25.6162 157.551 26.3426 157.016 26.8782C156.48 27.4138 155.754 27.7148 154.996 27.7148ZM163.565 23.4306L160.53 23.4306C160.212 22.2049 159.496 21.1194 158.494 20.3442C157.493 19.5689 156.263 19.1477 154.996 19.1465L154.996 13.4344L163.565 13.4344L163.565 23.4306Z" fill="#252525"/>
<path d="M289.158 11.4708L286.659 5.22316C286.447 4.69455 286.081 4.24179 285.609 3.92352C285.137 3.60525 284.58 3.43615 284.01 3.43811L277.837 3.43811L277.837 2.01007C277.837 1.63133 277.687 1.2681 277.419 1.00029C277.151 0.732485 276.788 0.582031 276.409 0.582031L249.277 0.582031C248.519 0.582031 247.793 0.882938 247.257 1.41856C246.722 1.95417 246.421 2.68063 246.421 3.43811L246.421 23.4306C246.421 24.1881 246.722 24.9146 247.257 25.4502C247.793 25.9858 248.519 26.2867 249.277 26.2867L252.311 26.2867C252.626 27.5154 253.34 28.6045 254.342 29.3822C255.344 30.1599 256.577 30.582 257.845 30.582C259.113 30.582 260.346 30.1599 261.347 29.3822C262.349 28.6045 263.064 27.5154 263.379 26.2867L272.304 26.2867C272.618 27.5154 273.333 28.6045 274.335 29.3822C275.337 30.1599 276.569 30.582 277.837 30.582C279.106 30.582 280.338 30.1599 281.34 29.3822C282.342 28.6045 283.056 27.5154 283.371 26.2867L286.406 26.2867C287.163 26.2867 287.89 25.9858 288.425 25.4502C288.961 24.9146 289.262 24.1881 289.262 23.4306L289.262 12.0063C289.262 11.8228 289.227 11.6409 289.158 11.4708ZM277.837 6.29418L284.01 6.29418L285.724 10.5783L277.837 10.5783L277.837 6.29418ZM249.277 3.43811L274.981 3.43811L274.981 14.8624L249.277 14.8624L249.277 3.43811ZM257.845 27.7148C257.28 27.7148 256.728 27.5472 256.258 27.2334C255.788 26.9196 255.422 26.4735 255.206 25.9517C254.99 25.4298 254.933 24.8555 255.044 24.3015C255.154 23.7475 255.426 23.2386 255.825 22.8391C256.225 22.4397 256.734 22.1677 257.288 22.0575C257.842 21.9473 258.416 22.0038 258.938 22.22C259.46 22.4362 259.906 22.8022 260.22 23.2719C260.533 23.7416 260.701 24.2938 260.701 24.8587C260.701 25.6162 260.4 26.3426 259.864 26.8782C259.329 27.4138 258.602 27.7148 257.845 27.7148ZM272.304 23.4306L263.379 23.4306C263.064 22.2019 262.349 21.1129 261.347 20.3352C260.346 19.5575 259.113 19.1353 257.845 19.1353C256.577 19.1353 255.344 19.5575 254.342 20.3352C253.34 21.1129 252.626 22.2019 252.311 23.4306L249.277 23.4306L249.277 17.7185L274.981 17.7185L274.981 19.9159C274.325 20.2954 273.75 20.8016 273.29 21.4049C272.831 22.0082 272.495 22.6968 272.304 23.4306ZM277.837 27.7148C277.273 27.7148 276.72 27.5472 276.251 27.2334C275.781 26.9196 275.415 26.4735 275.199 25.9517C274.983 25.4298 274.926 24.8555 275.036 24.3015C275.146 23.7475 275.418 23.2386 275.818 22.8391C276.217 22.4397 276.726 22.1677 277.28 22.0575C277.834 21.9473 278.409 22.0038 278.93 22.22C279.452 22.4362 279.898 22.8022 280.212 23.2719C280.526 23.7416 280.694 24.2938 280.694 24.8587C280.694 25.6162 280.393 26.3426 279.857 26.8782C279.321 27.4138 278.595 27.7148 277.837 27.7148ZM286.406 23.4306L283.371 23.4306C283.053 22.2049 282.337 21.1194 281.335 20.3442C280.334 19.5689 279.104 19.1477 277.837 19.1465L277.837 13.4344L286.406 13.4344L286.406 23.4306Z" fill="#252525"/>
<path d="M411.999 11.4708L409.5 5.22316C409.288 4.69455 408.922 4.24179 408.45 3.92352C407.978 3.60525 407.421 3.43615 406.851 3.43811L400.679 3.43811L400.679 2.01007C400.679 1.63133 400.528 1.2681 400.26 1.00029C399.993 0.732485 399.629 0.582031 399.251 0.582031L372.118 0.582031C371.36 0.582031 370.634 0.882938 370.098 1.41856C369.563 1.95417 369.262 2.68063 369.262 3.43811L369.262 23.4306C369.262 24.1881 369.563 24.9146 370.098 25.4502C370.634 25.9858 371.36 26.2867 372.118 26.2867L375.152 26.2867C375.467 27.5154 376.182 28.6045 377.184 29.3822C378.185 30.1599 379.418 30.582 380.686 30.582C381.954 30.582 383.187 30.1599 384.189 29.3822C385.191 28.6045 385.905 27.5154 386.22 26.2867L395.145 26.2867C395.46 27.5154 396.174 28.6045 397.176 29.3822C398.178 30.1599 399.41 30.582 400.679 30.582C401.947 30.582 403.179 30.1599 404.181 29.3822C405.183 28.6045 405.898 27.5154 406.212 26.2867L409.247 26.2867C410.004 26.2867 410.731 25.9858 411.266 25.4502C411.802 24.9146 412.103 24.1881 412.103 23.4306L412.103 12.0063C412.103 11.8228 412.068 11.6409 411.999 11.4708ZM400.679 6.29418L406.851 6.29418L408.565 10.5783L400.679 10.5783L400.679 6.29418ZM372.118 3.43811L397.823 3.43811L397.823 14.8624L372.118 14.8624L372.118 3.43811ZM380.686 27.7148C380.121 27.7148 379.569 27.5472 379.099 27.2334C378.63 26.9196 378.264 26.4735 378.047 25.9517C377.831 25.4298 377.775 24.8555 377.885 24.3015C377.995 23.7475 378.267 23.2386 378.667 22.8391C379.066 22.4397 379.575 22.1677 380.129 22.0575C380.683 21.9473 381.257 22.0038 381.779 22.22C382.301 22.4362 382.747 22.8022 383.061 23.2719C383.375 23.7416 383.542 24.2938 383.542 24.8587C383.542 25.6162 383.241 26.3426 382.706 26.8782C382.17 27.4138 381.444 27.7148 380.686 27.7148ZM395.145 23.4306L386.22 23.4306C385.905 22.2019 385.191 21.1129 384.189 20.3352C383.187 19.5575 381.954 19.1353 380.686 19.1353C379.418 19.1353 378.185 19.5575 377.184 20.3352C376.182 21.1129 375.467 22.2019 375.152 23.4306L372.118 23.4306L372.118 17.7185L397.823 17.7185L397.823 19.9159C397.166 20.2954 396.591 20.8016 396.131 21.4049C395.672 22.0082 395.337 22.6968 395.145 23.4306ZM400.679 27.7148C400.114 27.7148 399.562 27.5472 399.092 27.2334C398.622 26.9196 398.256 26.4735 398.04 25.9517C397.824 25.4298 397.767 24.8555 397.877 24.3015C397.988 23.7475 398.26 23.2386 398.659 22.8391C399.058 22.4397 399.567 22.1677 400.121 22.0575C400.675 21.9473 401.25 22.0038 401.772 22.22C402.293 22.4362 402.74 22.8022 403.053 23.2719C403.367 23.7416 403.535 24.2938 403.535 24.8587C403.535 25.6162 403.234 26.3426 402.698 26.8782C402.163 27.4138 401.436 27.7148 400.679 27.7148ZM409.247 23.4306L406.212 23.4306C405.894 22.2049 405.178 21.1194 404.177 20.3442C403.175 19.5689 401.945 19.1477 400.679 19.1465L400.679 13.4344L409.247 13.4344L409.247 23.4306Z" fill="#252525"/>
<path d="M534.841 11.4708L532.341 5.22316C532.129 4.69455 531.764 4.24179 531.291 3.92352C530.819 3.60525 530.262 3.43615 529.692 3.43811L523.52 3.43811L523.52 2.01007C523.52 1.63133 523.369 1.2681 523.101 1.00029C522.834 0.732485 522.47 0.582031 522.092 0.582031L494.959 0.582031C494.202 0.582031 493.475 0.882938 492.939 1.41856C492.404 1.95417 492.103 2.68063 492.103 3.43811L492.103 23.4306C492.103 24.1881 492.404 24.9146 492.939 25.4502C493.475 25.9858 494.202 26.2867 494.959 26.2867L497.994 26.2867C498.308 27.5154 499.023 28.6045 500.025 29.3822C501.027 30.1599 502.259 30.582 503.527 30.582C504.796 30.582 506.028 30.1599 507.03 29.3822C508.032 28.6045 508.746 27.5154 509.061 26.2867L517.986 26.2867C518.301 27.5154 519.015 28.6045 520.017 29.3822C521.019 30.1599 522.251 30.582 523.52 30.582C524.788 30.582 526.02 30.1599 527.022 29.3822C528.024 28.6045 528.739 27.5154 529.053 26.2867L532.088 26.2867C532.845 26.2867 533.572 25.9858 534.108 25.4502C534.643 24.9146 534.944 24.1881 534.944 23.4306L534.944 12.0063C534.945 11.8228 534.909 11.6409 534.841 11.4708ZM523.52 6.29418L529.692 6.29418L531.406 10.5783L523.52 10.5783L523.52 6.29418ZM494.959 3.43811L520.664 3.43811L520.664 14.8624L494.959 14.8624L494.959 3.43811ZM503.527 27.7148C502.962 27.7148 502.41 27.5472 501.94 27.2334C501.471 26.9196 501.105 26.4735 500.889 25.9517C500.672 25.4298 500.616 24.8555 500.726 24.3015C500.836 23.7475 501.108 23.2386 501.508 22.8391C501.907 22.4397 502.416 22.1677 502.97 22.0575C503.524 21.9473 504.098 22.0038 504.62 22.22C505.142 22.4362 505.588 22.8022 505.902 23.2719C506.216 23.7416 506.383 24.2938 506.383 24.8587C506.383 25.6162 506.082 26.3426 505.547 26.8782C505.011 27.4138 504.285 27.7148 503.527 27.7148ZM517.986 23.4306L509.061 23.4306C508.746 22.2019 508.032 21.1129 507.03 20.3352C506.028 19.5575 504.796 19.1353 503.527 19.1353C502.259 19.1353 501.027 19.5575 500.025 20.3352C499.023 21.1129 498.308 22.2019 497.994 23.4306L494.959 23.4306L494.959 17.7185L520.664 17.7185L520.664 19.9159C520.007 20.2954 519.432 20.8016 518.973 21.4049C518.513 22.0082 518.178 22.6968 517.986 23.4306ZM523.52 27.7148C522.955 27.7148 522.403 27.5472 521.933 27.2334C521.463 26.9196 521.097 26.4735 520.881 25.9517C520.665 25.4298 520.608 24.8555 520.719 24.3015C520.829 23.7475 521.101 23.2386 521.5 22.8391C521.9 22.4397 522.409 22.1677 522.963 22.0575C523.517 21.9473 524.091 22.0038 524.613 22.22C525.135 22.4362 525.581 22.8022 525.894 23.2719C526.208 23.7416 526.376 24.2938 526.376 24.8587C526.376 25.6162 526.075 26.3426 525.539 26.8782C525.004 27.4138 524.277 27.7148 523.52 27.7148ZM532.088 23.4306L529.053 23.4306C528.735 22.2049 528.019 21.1194 527.018 20.3442C526.016 19.5689 524.786 19.1477 523.52 19.1465L523.52 13.4344L532.088 13.4344L532.088 23.4306Z" fill="#252525"/>
<path d="M657.682 11.4708L655.183 5.22316C654.971 4.69455 654.605 4.24179 654.132 3.92352C653.66 3.60525 653.103 3.43615 652.534 3.43811L646.361 3.43811L646.361 2.01007C646.361 1.63133 646.21 1.2681 645.943 1.00029C645.675 0.732485 645.312 0.582031 644.933 0.582031L617.8 0.582031C617.043 0.582031 616.316 0.882938 615.781 1.41856C615.245 1.95417 614.944 2.68063 614.944 3.43811L614.944 23.4306C614.944 24.1881 615.245 24.9146 615.781 25.4502C616.316 25.9858 617.043 26.2867 617.8 26.2867L620.835 26.2867C621.149 27.5154 621.864 28.6045 622.866 29.3822C623.868 30.1599 625.1 30.582 626.368 30.582C627.637 30.582 628.869 30.1599 629.871 29.3822C630.873 28.6045 631.587 27.5154 631.902 26.2867L640.827 26.2867C641.142 27.5154 641.856 28.6045 642.858 29.3822C643.86 30.1599 645.093 30.582 646.361 30.582C647.629 30.582 648.862 30.1599 649.863 29.3822C650.865 28.6045 651.58 27.5154 651.895 26.2867L654.929 26.2867C655.687 26.2867 656.413 25.9858 656.949 25.4502C657.484 24.9146 657.785 24.1881 657.785 23.4306L657.785 12.0063C657.786 11.8228 657.751 11.6409 657.682 11.4708ZM646.361 6.29418L652.534 6.29418L654.247 10.5783L646.361 10.5783L646.361 6.29418ZM617.8 3.43811L643.505 3.43811L643.505 14.8624L617.8 14.8624L617.8 3.43811ZM626.368 27.7148C625.804 27.7148 625.251 27.5472 624.782 27.2334C624.312 26.9196 623.946 26.4735 623.73 25.9517C623.514 25.4298 623.457 24.8555 623.567 24.3015C623.677 23.7475 623.949 23.2386 624.349 22.8391C624.748 22.4397 625.257 22.1677 625.811 22.0575C626.365 21.9473 626.939 22.0038 627.461 22.22C627.983 22.4362 628.429 22.8022 628.743 23.2719C629.057 23.7416 629.224 24.2938 629.224 24.8587C629.224 25.6162 628.924 26.3426 628.388 26.8782C627.852 27.4138 627.126 27.7148 626.368 27.7148ZM640.827 23.4306L631.902 23.4306C631.587 22.2019 630.873 21.1129 629.871 20.3352C628.869 19.5575 627.637 19.1353 626.368 19.1353C625.1 19.1353 623.868 19.5575 622.866 20.3352C621.864 21.1129 621.149 22.2019 620.835 23.4306L617.8 23.4306L617.8 17.7185L643.505 17.7185L643.505 19.9159C642.848 20.2954 642.273 20.8016 641.814 21.4049C641.354 22.0082 641.019 22.6968 640.827 23.4306ZM646.361 27.7148C645.796 27.7148 645.244 27.5472 644.774 27.2334C644.305 26.9196 643.938 26.4735 643.722 25.9517C643.506 25.4298 643.45 24.8555 643.56 24.3015C643.67 23.7475 643.942 23.2386 644.341 22.8391C644.741 22.4397 645.25 22.1677 645.804 22.0575C646.358 21.9473 646.932 22.0038 647.454 22.22C647.976 22.4362 648.422 22.8022 648.736 23.2719C649.05 23.7416 649.217 24.2938 649.217 24.8587C649.217 25.6162 648.916 26.3426 648.38 26.8782C647.845 27.4138 647.118 27.7148 646.361 27.7148ZM654.929 23.4306L651.895 23.4306C651.576 22.2049 650.86 21.1194 649.859 20.3442C648.858 19.5689 647.627 19.1477 646.361 19.1465L646.361 13.4344L654.929 13.4344L654.929 23.4306Z" fill="#252525"/>
<path d="M780.523 11.4708L778.024 5.22316C777.812 4.69455 777.446 4.24179 776.974 3.92352C776.501 3.60525 775.944 3.43615 775.375 3.43811L769.202 3.43811L769.202 2.01007C769.202 1.63133 769.052 1.2681 768.784 1.00029C768.516 0.732485 768.153 0.582031 767.774 0.582031L740.641 0.582031C739.884 0.582031 739.157 0.882938 738.622 1.41856C738.086 1.95417 737.785 2.68063 737.785 3.43811L737.785 23.4306C737.785 24.1881 738.086 24.9146 738.622 25.4502C739.157 25.9858 739.884 26.2867 740.641 26.2867L743.676 26.2867C743.991 27.5154 744.705 28.6045 745.707 29.3822C746.709 30.1599 747.941 30.582 749.21 30.582C750.478 30.582 751.71 30.1599 752.712 29.3822C753.714 28.6045 754.429 27.5154 754.743 26.2867L763.668 26.2867C763.983 27.5154 764.698 28.6045 765.7 29.3822C766.702 30.1599 767.934 30.582 769.202 30.582C770.47 30.582 771.703 30.1599 772.705 29.3822C773.707 28.6045 774.421 27.5154 774.736 26.2867L777.77 26.2867C778.528 26.2867 779.254 25.9858 779.79 25.4502C780.326 24.9146 780.626 24.1881 780.626 23.4306L780.626 12.0063C780.627 11.8228 780.592 11.6409 780.523 11.4708ZM769.202 6.29418L775.375 6.29418L777.088 10.5783L769.202 10.5783L769.202 6.29418ZM740.641 3.43811L766.346 3.43811L766.346 14.8624L740.641 14.8624L740.641 3.43811ZM749.21 27.7148C748.645 27.7148 748.093 27.5472 747.623 27.2334C747.153 26.9196 746.787 26.4735 746.571 25.9517C746.355 25.4298 746.298 24.8555 746.408 24.3015C746.519 23.7475 746.791 23.2386 747.19 22.8391C747.589 22.4397 748.098 22.1677 748.652 22.0575C749.206 21.9473 749.781 22.0038 750.303 22.22C750.824 22.4362 751.27 22.8022 751.584 23.2719C751.898 23.7416 752.066 24.2938 752.066 24.8587C752.066 25.6162 751.765 26.3426 751.229 26.8782C750.694 27.4138 749.967 27.7148 749.21 27.7148ZM763.668 23.4306L754.743 23.4306C754.429 22.2019 753.714 21.1129 752.712 20.3352C751.71 19.5575 750.478 19.1353 749.21 19.1353C747.941 19.1353 746.709 19.5575 745.707 20.3352C744.705 21.1129 743.991 22.2019 743.676 23.4306L740.641 23.4306L740.641 17.7185L766.346 17.7185L766.346 19.9159C765.689 20.2954 765.115 20.8016 764.655 21.4049C764.195 22.0082 763.86 22.6968 763.668 23.4306ZM769.202 27.7148C768.637 27.7148 768.085 27.5472 767.615 27.2334C767.146 26.9196 766.78 26.4735 766.563 25.9517C766.347 25.4298 766.291 24.8555 766.401 24.3015C766.511 23.7475 766.783 23.2386 767.183 22.8391C767.582 22.4397 768.091 22.1677 768.645 22.0575C769.199 21.9473 769.773 22.0038 770.295 22.22C770.817 22.4362 771.263 22.8022 771.577 23.2719C771.891 23.7416 772.058 24.2938 772.058 24.8587C772.058 25.6162 771.757 26.3426 771.222 26.8782C770.686 27.4138 769.96 27.7148 769.202 27.7148ZM777.77 23.4306L774.736 23.4306C774.417 22.2049 773.701 21.1194 772.7 20.3442C771.699 19.5689 770.469 19.1477 769.202 19.1465L769.202 13.4344L777.77 13.4344L777.77 23.4306Z" fill="#252525"/>
<path d="M903.364 11.4708L900.865 5.22316C900.653 4.69455 900.287 4.24179 899.815 3.92352C899.343 3.60525 898.786 3.43615 898.216 3.43811L892.043 3.43811L892.043 2.01007C892.043 1.63133 891.893 1.2681 891.625 1.00029C891.357 0.732485 890.994 0.582031 890.615 0.582031L863.483 0.582031C862.725 0.582031 861.999 0.882938 861.463 1.41856C860.927 1.95417 860.626 2.68063 860.626 3.43811L860.626 23.4306C860.626 24.1881 860.927 24.9146 861.463 25.4502C861.999 25.9858 862.725 26.2867 863.483 26.2867L866.517 26.2867C866.832 27.5154 867.546 28.6045 868.548 29.3822C869.55 30.1599 870.782 30.582 872.051 30.582C873.319 30.582 874.551 30.1599 875.553 29.3822C876.555 28.6045 877.27 27.5154 877.584 26.2867L886.51 26.2867C886.824 27.5154 887.539 28.6045 888.541 29.3822C889.543 30.1599 890.775 30.582 892.043 30.582C893.312 30.582 894.544 30.1599 895.546 29.3822C896.548 28.6045 897.262 27.5154 897.577 26.2867L900.612 26.2867C901.369 26.2867 902.095 25.9858 902.631 25.4502C903.167 24.9146 903.468 24.1881 903.468 23.4306L903.468 12.0063C903.468 11.8228 903.433 11.6409 903.364 11.4708ZM892.043 6.29418L898.216 6.29418L899.93 10.5783L892.043 10.5783L892.043 6.29418ZM863.483 3.43811L889.187 3.43811L889.187 14.8624L863.483 14.8624L863.483 3.43811ZM872.051 27.7148C871.486 27.7148 870.934 27.5472 870.464 27.2334C869.994 26.9196 869.628 26.4735 869.412 25.9517C869.196 25.4298 869.139 24.8555 869.25 24.3015C869.36 23.7475 869.632 23.2386 870.031 22.8391C870.431 22.4397 870.94 22.1677 871.494 22.0575C872.048 21.9473 872.622 22.0038 873.144 22.22C873.666 22.4362 874.112 22.8022 874.426 23.2719C874.739 23.7416 874.907 24.2938 874.907 24.8587C874.907 25.6162 874.606 26.3426 874.07 26.8782C873.535 27.4138 872.808 27.7148 872.051 27.7148ZM886.51 23.4306L877.584 23.4306C877.27 22.2019 876.555 21.1129 875.553 20.3352C874.551 19.5575 873.319 19.1353 872.051 19.1353C870.782 19.1353 869.55 19.5575 868.548 20.3352C867.546 21.1129 866.832 22.2019 866.517 23.4306L863.483 23.4306L863.483 17.7185L889.187 17.7185L889.187 19.9159C888.531 20.2954 887.956 20.8016 887.496 21.4049C887.037 22.0082 886.701 22.6968 886.51 23.4306ZM892.043 27.7148C891.478 27.7148 890.926 27.5472 890.457 27.2334C889.987 26.9196 889.621 26.4735 889.405 25.9517C889.188 25.4298 889.132 24.8555 889.242 24.3015C889.352 23.7475 889.624 23.2386 890.024 22.8391C890.423 22.4397 890.932 22.1677 891.486 22.0575C892.04 21.9473 892.614 22.0038 893.136 22.22C893.658 22.4362 894.104 22.8022 894.418 23.2719C894.732 23.7416 894.899 24.2938 894.899 24.8587C894.899 25.6162 894.598 26.3426 894.063 26.8782C893.527 27.4138 892.801 27.7148 892.043 27.7148ZM900.612 23.4306L897.577 23.4306C897.259 22.2049 896.543 21.1194 895.541 20.3442C894.54 19.5689 893.31 19.1477 892.043 19.1465L892.043 13.4344L900.612 13.4344L900.612 23.4306Z" fill="#252525"/>
<path d="M1026.21 11.4708L1023.71 5.22316C1023.49 4.69455 1023.13 4.24179 1022.66 3.92352C1022.18 3.60525 1021.63 3.43615 1021.06 3.43811L1014.88 3.43811L1014.88 2.01007C1014.88 1.63133 1014.73 1.2681 1014.47 1.00029C1014.2 0.732485 1013.84 0.582031 1013.46 0.582031L986.324 0.582031C985.566 0.582031 984.84 0.882938 984.304 1.41856C983.769 1.95417 983.468 2.68063 983.468 3.43811L983.468 23.4306C983.468 24.1881 983.769 24.9146 984.304 25.4502C984.84 25.9858 985.566 26.2867 986.324 26.2867L989.358 26.2867C989.673 27.5154 990.387 28.6045 991.389 29.3822C992.391 30.1599 993.624 30.582 994.892 30.582C996.16 30.582 997.393 30.1599 998.394 29.3822C999.396 28.6045 1000.11 27.5154 1000.43 26.2867L1009.35 26.2867C1009.67 27.5154 1010.38 28.6045 1011.38 29.3822C1012.38 30.1599 1013.62 30.582 1014.88 30.582C1016.15 30.582 1017.39 30.1599 1018.39 29.3822C1019.39 28.6045 1020.1 27.5154 1020.42 26.2867L1023.45 26.2867C1024.21 26.2867 1024.94 25.9858 1025.47 25.4502C1026.01 24.9146 1026.31 24.1881 1026.31 23.4306L1026.31 12.0063C1026.31 11.8228 1026.27 11.6409 1026.21 11.4708ZM1014.88 6.29418L1021.06 6.29418L1022.77 10.5783L1014.88 10.5783L1014.88 6.29418ZM986.324 3.43811L1012.03 3.43811L1012.03 14.8624L986.324 14.8624L986.324 3.43811ZM994.892 27.7148C994.327 27.7148 993.775 27.5472 993.305 27.2334C992.836 26.9196 992.469 26.4735 992.253 25.9517C992.037 25.4298 991.981 24.8555 992.091 24.3015C992.201 23.7475 992.473 23.2386 992.872 22.8391C993.272 22.4397 993.781 22.1677 994.335 22.0575C994.889 21.9473 995.463 22.0038 995.985 22.22C996.507 22.4362 996.953 22.8022 997.267 23.2719C997.581 23.7416 997.748 24.2938 997.748 24.8587C997.748 25.6162 997.447 26.3426 996.912 26.8782C996.376 27.4138 995.649 27.7148 994.892 27.7148ZM1009.35 23.4306L1000.43 23.4306C1000.11 22.2019 999.396 21.1129 998.394 20.3352C997.393 19.5575 996.16 19.1353 994.892 19.1353C993.624 19.1353 992.391 19.5575 991.389 20.3352C990.387 21.1129 989.673 22.2019 989.358 23.4306L986.324 23.4306L986.324 17.7185L1012.03 17.7185L1012.03 19.9159C1011.37 20.2954 1010.8 20.8016 1010.34 21.4049C1009.88 22.0082 1009.54 22.6968 1009.35 23.4306ZM1014.88 27.7148C1014.32 27.7148 1013.77 27.5472 1013.3 27.2334C1012.83 26.9196 1012.46 26.4735 1012.25 25.9517C1012.03 25.4298 1011.97 24.8555 1012.08 24.3015C1012.19 23.7475 1012.47 23.2386 1012.86 22.8391C1013.26 22.4397 1013.77 22.1677 1014.33 22.0575C1014.88 21.9473 1015.46 22.0038 1015.98 22.22C1016.5 22.4362 1016.95 22.8022 1017.26 23.2719C1017.57 23.7416 1017.74 24.2938 1017.74 24.8587C1017.74 25.6162 1017.44 26.3426 1016.9 26.8782C1016.37 27.4138 1015.64 27.7148 1014.88 27.7148ZM1023.45 23.4306L1020.42 23.4306C1020.1 22.2049 1019.38 21.1194 1018.38 20.3442C1017.38 19.5689 1016.15 19.1477 1014.88 19.1465L1014.88 13.4344L1023.45 13.4344L1023.45 23.4306Z" fill="#252525"/>
<path d="M1149.05 11.4708L1146.55 5.22316C1146.34 4.69455 1145.97 4.24179 1145.5 3.92352C1145.02 3.60525 1144.47 3.43615 1143.9 3.43811L1137.73 3.43811L1137.73 2.01007C1137.73 1.63133 1137.58 1.2681 1137.31 1.00029C1137.04 0.732485 1136.68 0.582031 1136.3 0.582031L1109.16 0.582031C1108.41 0.582031 1107.68 0.882938 1107.15 1.41856C1106.61 1.95417 1106.31 2.68063 1106.31 3.43811L1106.31 23.4306C1106.31 24.1881 1106.61 24.9146 1107.15 25.4502C1107.68 25.9858 1108.41 26.2867 1109.16 26.2867L1112.2 26.2867C1112.51 27.5154 1113.23 28.6045 1114.23 29.3822C1115.23 30.1599 1116.46 30.582 1117.73 30.582C1119 30.582 1120.23 30.1599 1121.24 29.3822C1122.24 28.6045 1122.95 27.5154 1123.27 26.2867L1132.19 26.2867C1132.51 27.5154 1133.22 28.6045 1134.22 29.3822C1135.23 30.1599 1136.46 30.582 1137.73 30.582C1138.99 30.582 1140.23 30.1599 1141.23 29.3822C1142.23 28.6045 1142.94 27.5154 1143.26 26.2867L1146.29 26.2867C1147.05 26.2867 1147.78 25.9858 1148.31 25.4502C1148.85 24.9146 1149.15 24.1881 1149.15 23.4306L1149.15 12.0063C1149.15 11.8228 1149.12 11.6409 1149.05 11.4708ZM1137.73 6.29418L1143.9 6.29418L1145.61 10.5783L1137.73 10.5783L1137.73 6.29418ZM1109.16 3.43811L1134.87 3.43811L1134.87 14.8624L1109.16 14.8624L1109.16 3.43811ZM1117.73 27.7148C1117.17 27.7148 1116.62 27.5472 1116.15 27.2334C1115.68 26.9196 1115.31 26.4735 1115.09 25.9517C1114.88 25.4298 1114.82 24.8555 1114.93 24.3015C1115.04 23.7475 1115.31 23.2386 1115.71 22.8391C1116.11 22.4397 1116.62 22.1677 1117.18 22.0575C1117.73 21.9473 1118.3 22.0038 1118.83 22.22C1119.35 22.4362 1119.79 22.8022 1120.11 23.2719C1120.42 23.7416 1120.59 24.2938 1120.59 24.8587C1120.59 25.6162 1120.29 26.3426 1119.75 26.8782C1119.22 27.4138 1118.49 27.7148 1117.73 27.7148ZM1132.19 23.4306L1123.27 23.4306C1122.95 22.2019 1122.24 21.1129 1121.24 20.3352C1120.23 19.5575 1119 19.1353 1117.73 19.1353C1116.46 19.1353 1115.23 19.5575 1114.23 20.3352C1113.23 21.1129 1112.51 22.2019 1112.2 23.4306L1109.16 23.4306L1109.16 17.7185L1134.87 17.7185L1134.87 19.9159C1134.21 20.2954 1133.64 20.8016 1133.18 21.4049C1132.72 22.0082 1132.38 22.6968 1132.19 23.4306ZM1137.73 27.7148C1137.16 27.7148 1136.61 27.5472 1136.14 27.2334C1135.67 26.9196 1135.3 26.4735 1135.09 25.9517C1134.87 25.4298 1134.81 24.8555 1134.92 24.3015C1135.03 23.7475 1135.31 23.2386 1135.71 22.8391C1136.11 22.4397 1136.61 22.1677 1137.17 22.0575C1137.72 21.9473 1138.3 22.0038 1138.82 22.22C1139.34 22.4362 1139.79 22.8022 1140.1 23.2719C1140.41 23.7416 1140.58 24.2938 1140.58 24.8587C1140.58 25.6162 1140.28 26.3426 1139.75 26.8782C1139.21 27.4138 1138.48 27.7148 1137.73 27.7148ZM1146.29 23.4306L1143.26 23.4306C1142.94 22.2049 1142.23 21.1194 1141.22 20.3442C1140.22 19.5689 1138.99 19.1477 1137.73 19.1465L1137.73 13.4344L1146.29 13.4344L1146.29 23.4306Z" fill="#252525"/>
<path d="M1271.89 11.4708L1269.39 5.22316C1269.18 4.69455 1268.81 4.24179 1268.34 3.92352C1267.87 3.60525 1267.31 3.43615 1266.74 3.43811L1260.57 3.43811L1260.57 2.01007C1260.57 1.63133 1260.42 1.2681 1260.15 1.00029C1259.88 0.732485 1259.52 0.582031 1259.14 0.582031L1232.01 0.582031C1231.25 0.582031 1230.52 0.882938 1229.99 1.41856C1229.45 1.95417 1229.15 2.68063 1229.15 3.43811L1229.15 23.4306C1229.15 24.1881 1229.45 24.9146 1229.99 25.4502C1230.52 25.9858 1231.25 26.2867 1232.01 26.2867L1235.04 26.2867C1235.36 27.5154 1236.07 28.6045 1237.07 29.3822C1238.07 30.1599 1239.31 30.582 1240.57 30.582C1241.84 30.582 1243.07 30.1599 1244.08 29.3822C1245.08 28.6045 1245.79 27.5154 1246.11 26.2867L1255.03 26.2867C1255.35 27.5154 1256.06 28.6045 1257.06 29.3822C1258.07 30.1599 1259.3 30.582 1260.57 30.582C1261.84 30.582 1263.07 30.1599 1264.07 29.3822C1265.07 28.6045 1265.79 27.5154 1266.1 26.2867L1269.14 26.2867C1269.89 26.2867 1270.62 25.9858 1271.15 25.4502C1271.69 24.9146 1271.99 24.1881 1271.99 23.4306L1271.99 12.0063C1271.99 11.8228 1271.96 11.6409 1271.89 11.4708ZM1260.57 6.29418L1266.74 6.29418L1268.45 10.5783L1260.57 10.5783L1260.57 6.29418ZM1232.01 3.43811L1257.71 3.43811L1257.71 14.8624L1232.01 14.8624L1232.01 3.43811ZM1240.57 27.7148C1240.01 27.7148 1239.46 27.5472 1238.99 27.2334C1238.52 26.9196 1238.15 26.4735 1237.94 25.9517C1237.72 25.4298 1237.66 24.8555 1237.77 24.3015C1237.88 23.7475 1238.16 23.2386 1238.55 22.8391C1238.95 22.4397 1239.46 22.1677 1240.02 22.0575C1240.57 21.9473 1241.15 22.0038 1241.67 22.22C1242.19 22.4362 1242.64 22.8022 1242.95 23.2719C1243.26 23.7416 1243.43 24.2938 1243.43 24.8587C1243.43 25.6162 1243.13 26.3426 1242.59 26.8782C1242.06 27.4138 1241.33 27.7148 1240.57 27.7148ZM1255.03 23.4306L1246.11 23.4306C1245.79 22.2019 1245.08 21.1129 1244.08 20.3352C1243.07 19.5575 1241.84 19.1353 1240.57 19.1353C1239.31 19.1353 1238.07 19.5575 1237.07 20.3352C1236.07 21.1129 1235.36 22.2019 1235.04 23.4306L1232.01 23.4306L1232.01 17.7185L1257.71 17.7185L1257.71 19.9159C1257.05 20.2954 1256.48 20.8016 1256.02 21.4049C1255.56 22.0082 1255.22 22.6968 1255.03 23.4306ZM1260.57 27.7148C1260 27.7148 1259.45 27.5472 1258.98 27.2334C1258.51 26.9196 1258.14 26.4735 1257.93 25.9517C1257.71 25.4298 1257.66 24.8555 1257.77 24.3015C1257.88 23.7475 1258.15 23.2386 1258.55 22.8391C1258.95 22.4397 1259.46 22.1677 1260.01 22.0575C1260.56 21.9473 1261.14 22.0038 1261.66 22.22C1262.18 22.4362 1262.63 22.8022 1262.94 23.2719C1263.26 23.7416 1263.42 24.2938 1263.42 24.8587C1263.42 25.6162 1263.12 26.3426 1262.59 26.8782C1262.05 27.4138 1261.32 27.7148 1260.57 27.7148ZM1269.14 23.4306L1266.1 23.4306C1265.78 22.2049 1265.07 21.1194 1264.06 20.3442C1263.06 19.5689 1261.83 19.1477 1260.57 19.1465L1260.57 13.4344L1269.14 13.4344L1269.14 23.4306Z" fill="#252525"/>
<path d="M1394.73 11.4708L1392.23 5.22316C1392.02 4.69455 1391.65 4.24179 1391.18 3.92352C1390.71 3.60525 1390.15 3.43615 1389.58 3.43811L1383.41 3.43811L1383.41 2.01007C1383.41 1.63133 1383.26 1.2681 1382.99 1.00029C1382.72 0.732485 1382.36 0.582031 1381.98 0.582031L1354.85 0.582031C1354.09 0.582031 1353.36 0.882938 1352.83 1.41856C1352.29 1.95417 1351.99 2.68063 1351.99 3.43811L1351.99 23.4306C1351.99 24.1881 1352.29 24.9146 1352.83 25.4502C1353.36 25.9858 1354.09 26.2867 1354.85 26.2867L1357.88 26.2867C1358.2 27.5154 1358.91 28.6045 1359.91 29.3822C1360.91 30.1599 1362.15 30.582 1363.42 30.582C1364.68 30.582 1365.92 30.1599 1366.92 29.3822C1367.92 28.6045 1368.63 27.5154 1368.95 26.2867L1377.87 26.2867C1378.19 27.5154 1378.9 28.6045 1379.91 29.3822C1380.91 30.1599 1382.14 30.582 1383.41 30.582C1384.68 30.582 1385.91 30.1599 1386.91 29.3822C1387.91 28.6045 1388.63 27.5154 1388.94 26.2867L1391.98 26.2867C1392.73 26.2867 1393.46 25.9858 1394 25.4502C1394.53 24.9146 1394.83 24.1881 1394.83 23.4306L1394.83 12.0063C1394.83 11.8228 1394.8 11.6409 1394.73 11.4708ZM1383.41 6.29418L1389.58 6.29418L1391.29 10.5783L1383.41 10.5783L1383.41 6.29418ZM1354.85 3.43811L1380.55 3.43811L1380.55 14.8624L1354.85 14.8624L1354.85 3.43811ZM1363.42 27.7148C1362.85 27.7148 1362.3 27.5472 1361.83 27.2334C1361.36 26.9196 1360.99 26.4735 1360.78 25.9517C1360.56 25.4298 1360.5 24.8555 1360.61 24.3015C1360.72 23.7475 1361 23.2386 1361.4 22.8391C1361.8 22.4397 1362.3 22.1677 1362.86 22.0575C1363.41 21.9473 1363.99 22.0038 1364.51 22.22C1365.03 22.4362 1365.48 22.8022 1365.79 23.2719C1366.1 23.7416 1366.27 24.2938 1366.27 24.8587C1366.27 25.6162 1365.97 26.3426 1365.44 26.8782C1364.9 27.4138 1364.17 27.7148 1363.42 27.7148ZM1377.87 23.4306L1368.95 23.4306C1368.63 22.2019 1367.92 21.1129 1366.92 20.3352C1365.92 19.5575 1364.68 19.1353 1363.42 19.1353C1362.15 19.1353 1360.91 19.5575 1359.91 20.3352C1358.91 21.1129 1358.2 22.2019 1357.88 23.4306L1354.85 23.4306L1354.85 17.7185L1380.55 17.7185L1380.55 19.9159C1379.9 20.2954 1379.32 20.8016 1378.86 21.4049C1378.4 22.0082 1378.07 22.6968 1377.87 23.4306ZM1383.41 27.7148C1382.84 27.7148 1382.29 27.5472 1381.82 27.2334C1381.35 26.9196 1380.99 26.4735 1380.77 25.9517C1380.55 25.4298 1380.5 24.8555 1380.61 24.3015C1380.72 23.7475 1380.99 23.2386 1381.39 22.8391C1381.79 22.4397 1382.3 22.1677 1382.85 22.0575C1383.4 21.9473 1383.98 22.0038 1384.5 22.22C1385.02 22.4362 1385.47 22.8022 1385.78 23.2719C1386.1 23.7416 1386.26 24.2938 1386.26 24.8587C1386.26 25.6162 1385.96 26.3426 1385.43 26.8782C1384.89 27.4138 1384.17 27.7148 1383.41 27.7148ZM1391.98 23.4306L1388.94 23.4306C1388.62 22.2049 1387.91 21.1194 1386.91 20.3442C1385.9 19.5689 1384.67 19.1477 1383.41 19.1465L1383.41 13.4344L1391.98 13.4344L1391.98 23.4306Z" fill="#252525"/>
</svg>
