<svg width="182" height="181" viewBox="0 0 182 181" fill="none" xmlns="http://www.w3.org/2000/svg">
<rect x="85.9218" y="80.3903" width="79" height="79" rx="19.5" transform="rotate(-6 85.9218 80.3903)" fill="#151515" stroke="#252525"/>
<rect x="-0.549525" y="0.444997" width="79" height="79" rx="19.5" transform="matrix(-0.994522 -0.104528 -0.104528 0.994522 101.247 58.8898)" fill="#151515" stroke="#252525"/>
<rect width="10.1588" height="10.1588" rx="5.0794" transform="matrix(0.939651 0.342133 0.342133 -0.939651 22.3722 60.1279)" fill="#888888"/>
<rect x="28.076" y="33.7217" width="118.789" height="118.789" rx="19.3943" transform="rotate(-6 28.076 33.7217)" fill="#151515"/>
<rect x="28.076" y="33.7217" width="118.789" height="118.789" rx="19.3943" transform="rotate(-6 28.076 33.7217)" stroke="#252525" stroke-width="1.21133"/>
<g style="mix-blend-mode:color-dodge" filter="url(#filter0_f_182_25020)">
<path d="M121.257 84.603L117.976 76.3999C117.697 75.7058 117.217 75.1114 116.597 74.6935C115.977 74.2756 115.245 74.0536 114.498 74.0562L106.393 74.0562L106.393 72.1812C106.393 71.6839 106.195 71.207 105.844 70.8553C105.492 70.5037 105.015 70.3062 104.518 70.3062L68.8929 70.3062C67.8983 70.3062 66.9445 70.7012 66.2412 71.4045C65.538 72.1078 65.1429 73.0616 65.1429 74.0562L65.1429 100.306C65.1429 101.301 65.538 102.255 66.2412 102.958C66.9445 103.661 67.8983 104.056 68.8929 104.056L72.8772 104.056C73.2903 105.669 74.2286 107.099 75.5441 108.12C76.8596 109.142 78.4775 109.696 80.1429 109.696C81.8082 109.696 83.4261 109.142 84.7417 108.12C86.0572 107.099 86.9954 105.669 87.4085 104.056L99.1272 104.056C99.5403 105.669 100.479 107.099 101.794 108.12C103.11 109.142 104.728 109.696 106.393 109.696C108.058 109.696 109.676 109.142 110.992 108.12C112.307 107.099 113.245 105.669 113.658 104.056L117.643 104.056C118.637 104.056 119.591 103.661 120.295 102.958C120.998 102.255 121.393 101.301 121.393 100.306L121.393 85.3061C121.394 85.0652 121.347 84.8264 121.257 84.603ZM106.393 77.8062L114.498 77.8062L116.748 83.4311L106.393 83.4311L106.393 77.8062ZM68.8929 74.0562L102.643 74.0562L102.643 89.0561L68.8929 89.0561L68.8929 74.0562ZM80.1429 105.931C79.4012 105.931 78.6762 105.711 78.0595 105.299C77.4428 104.887 76.9621 104.301 76.6783 103.616C76.3945 102.931 76.3202 102.177 76.4649 101.45C76.6096 100.722 76.9668 100.054 77.4912 99.5295C78.0157 99.0051 78.6838 98.6479 79.4113 98.5032C80.1387 98.3585 80.8927 98.4328 81.5779 98.7166C82.2632 99.0004 82.8488 99.4811 83.2609 100.098C83.6729 100.714 83.8929 101.439 83.8929 102.181C83.8929 103.176 83.4978 104.13 82.7945 104.833C82.0913 105.536 81.1374 105.931 80.1429 105.931ZM99.1272 100.306L87.4085 100.306C86.9954 98.6929 86.0572 97.263 84.7417 96.2418C83.4261 95.2207 81.8082 94.6664 80.1429 94.6664C78.4775 94.6664 76.8596 95.2207 75.5441 96.2418C74.2286 97.263 73.2903 98.6929 72.8772 100.306L68.8929 100.306L68.8929 92.8061L102.643 92.8061L102.643 95.6913C101.781 96.1897 101.026 96.8542 100.423 97.6464C99.819 98.4385 99.3788 99.3426 99.1272 100.306ZM106.393 105.931C105.651 105.931 104.926 105.711 104.309 105.299C103.693 104.887 103.212 104.301 102.928 103.616C102.644 102.931 102.57 102.177 102.715 101.45C102.86 100.722 103.217 100.054 103.741 99.5295C104.266 99.0051 104.934 98.6479 105.661 98.5032C106.389 98.3585 107.143 98.4328 107.828 98.7166C108.513 99.0004 109.099 99.4811 109.511 100.098C109.923 100.714 110.143 101.439 110.143 102.181C110.143 103.176 109.748 104.13 109.045 104.833C108.341 105.536 107.387 105.931 106.393 105.931ZM117.643 100.306L113.658 100.306C113.24 98.6968 112.3 97.2716 110.986 96.2537C109.671 95.2358 108.056 94.6827 106.393 94.6811L106.393 87.1811L117.643 87.1811L117.643 100.306Z" stroke="#FF9E9E" stroke-width="10.8716" stroke-linecap="round" stroke-linejoin="round"/>
</g>
<g style="mix-blend-mode:color-dodge" filter="url(#filter1_f_182_25020)">
<path d="M121.257 84.603L117.976 76.3999C117.697 75.7058 117.217 75.1114 116.597 74.6935C115.977 74.2756 115.245 74.0536 114.498 74.0562L106.393 74.0562L106.393 72.1812C106.393 71.6839 106.195 71.207 105.844 70.8553C105.492 70.5037 105.015 70.3062 104.518 70.3062L68.8929 70.3062C67.8983 70.3062 66.9445 70.7012 66.2412 71.4045C65.538 72.1078 65.1429 73.0616 65.1429 74.0562L65.1429 100.306C65.1429 101.301 65.538 102.255 66.2412 102.958C66.9445 103.661 67.8983 104.056 68.8929 104.056L72.8772 104.056C73.2903 105.669 74.2286 107.099 75.5441 108.12C76.8596 109.142 78.4775 109.696 80.1429 109.696C81.8082 109.696 83.4261 109.142 84.7417 108.12C86.0572 107.099 86.9954 105.669 87.4085 104.056L99.1272 104.056C99.5403 105.669 100.479 107.099 101.794 108.12C103.11 109.142 104.728 109.696 106.393 109.696C108.058 109.696 109.676 109.142 110.992 108.12C112.307 107.099 113.245 105.669 113.658 104.056L117.643 104.056C118.637 104.056 119.591 103.661 120.295 102.958C120.998 102.255 121.393 101.301 121.393 100.306L121.393 85.3061C121.394 85.0652 121.347 84.8264 121.257 84.603ZM106.393 77.8062L114.498 77.8062L116.748 83.4311L106.393 83.4311L106.393 77.8062ZM68.8929 74.0562L102.643 74.0562L102.643 89.0561L68.8929 89.0561L68.8929 74.0562ZM80.1429 105.931C79.4012 105.931 78.6762 105.711 78.0595 105.299C77.4428 104.887 76.9621 104.301 76.6783 103.616C76.3945 102.931 76.3202 102.177 76.4649 101.45C76.6096 100.722 76.9668 100.054 77.4912 99.5295C78.0157 99.0051 78.6838 98.6479 79.4113 98.5032C80.1387 98.3585 80.8927 98.4328 81.5779 98.7166C82.2632 99.0004 82.8488 99.4811 83.2609 100.098C83.6729 100.714 83.8929 101.439 83.8929 102.181C83.8929 103.176 83.4978 104.13 82.7945 104.833C82.0913 105.536 81.1374 105.931 80.1429 105.931ZM99.1272 100.306L87.4085 100.306C86.9954 98.6929 86.0572 97.263 84.7417 96.2418C83.4261 95.2207 81.8082 94.6664 80.1429 94.6664C78.4775 94.6664 76.8596 95.2207 75.5441 96.2418C74.2286 97.263 73.2903 98.6929 72.8772 100.306L68.8929 100.306L68.8929 92.8061L102.643 92.8061L102.643 95.6913C101.781 96.1897 101.026 96.8542 100.423 97.6464C99.819 98.4385 99.3788 99.3426 99.1272 100.306ZM106.393 105.931C105.651 105.931 104.926 105.711 104.309 105.299C103.693 104.887 103.212 104.301 102.928 103.616C102.644 102.931 102.57 102.177 102.715 101.45C102.86 100.722 103.217 100.054 103.741 99.5295C104.266 99.0051 104.934 98.6479 105.661 98.5032C106.389 98.3585 107.143 98.4328 107.828 98.7166C108.513 99.0004 109.099 99.4811 109.511 100.098C109.923 100.714 110.143 101.439 110.143 102.181C110.143 103.176 109.748 104.13 109.045 104.833C108.341 105.536 107.387 105.931 106.393 105.931ZM117.643 100.306L113.658 100.306C113.24 98.6968 112.3 97.2716 110.986 96.2537C109.671 95.2358 108.056 94.6827 106.393 94.6811L106.393 87.1811L117.643 87.1811L117.643 100.306Z" fill="#B1280F"/>
<path d="M121.257 84.603L117.976 76.3999C117.697 75.7058 117.217 75.1114 116.597 74.6935C115.977 74.2756 115.245 74.0536 114.498 74.0562L106.393 74.0562L106.393 72.1812C106.393 71.6839 106.195 71.207 105.844 70.8553C105.492 70.5037 105.015 70.3062 104.518 70.3062L68.8929 70.3062C67.8983 70.3062 66.9445 70.7012 66.2412 71.4045C65.538 72.1078 65.1429 73.0616 65.1429 74.0562L65.1429 100.306C65.1429 101.301 65.538 102.255 66.2412 102.958C66.9445 103.661 67.8983 104.056 68.8929 104.056L72.8772 104.056C73.2903 105.669 74.2286 107.099 75.5441 108.12C76.8596 109.142 78.4775 109.696 80.1429 109.696C81.8082 109.696 83.4261 109.142 84.7417 108.12C86.0572 107.099 86.9954 105.669 87.4085 104.056L99.1272 104.056C99.5403 105.669 100.479 107.099 101.794 108.12C103.11 109.142 104.728 109.696 106.393 109.696C108.058 109.696 109.676 109.142 110.992 108.12C112.307 107.099 113.245 105.669 113.658 104.056L117.643 104.056C118.637 104.056 119.591 103.661 120.295 102.958C120.998 102.255 121.393 101.301 121.393 100.306L121.393 85.3061C121.394 85.0652 121.347 84.8264 121.257 84.603ZM106.393 77.8062L114.498 77.8062L116.748 83.4311L106.393 83.4311L106.393 77.8062ZM68.8929 74.0562L102.643 74.0562L102.643 89.0561L68.8929 89.0561L68.8929 74.0562ZM80.1429 105.931C79.4012 105.931 78.6762 105.711 78.0595 105.299C77.4428 104.887 76.9621 104.301 76.6783 103.616C76.3945 102.931 76.3202 102.177 76.4649 101.45C76.6096 100.722 76.9668 100.054 77.4912 99.5295C78.0157 99.0051 78.6838 98.6479 79.4113 98.5032C80.1387 98.3585 80.8927 98.4328 81.5779 98.7166C82.2632 99.0004 82.8488 99.4811 83.2609 100.098C83.6729 100.714 83.8929 101.439 83.8929 102.181C83.8929 103.176 83.4978 104.13 82.7945 104.833C82.0913 105.536 81.1374 105.931 80.1429 105.931ZM99.1272 100.306L87.4085 100.306C86.9954 98.6929 86.0572 97.263 84.7417 96.2418C83.4261 95.2207 81.8082 94.6664 80.1429 94.6664C78.4775 94.6664 76.8596 95.2207 75.5441 96.2418C74.2286 97.263 73.2903 98.6929 72.8772 100.306L68.8929 100.306L68.8929 92.8061L102.643 92.8061L102.643 95.6913C101.781 96.1897 101.026 96.8542 100.423 97.6464C99.819 98.4385 99.3788 99.3426 99.1272 100.306ZM106.393 105.931C105.651 105.931 104.926 105.711 104.309 105.299C103.693 104.887 103.212 104.301 102.928 103.616C102.644 102.931 102.57 102.177 102.715 101.45C102.86 100.722 103.217 100.054 103.741 99.5295C104.266 99.0051 104.934 98.6479 105.661 98.5032C106.389 98.3585 107.143 98.4328 107.828 98.7166C108.513 99.0004 109.099 99.4811 109.511 100.098C109.923 100.714 110.143 101.439 110.143 102.181C110.143 103.176 109.748 104.13 109.045 104.833C108.341 105.536 107.387 105.931 106.393 105.931ZM117.643 100.306L113.658 100.306C113.24 98.6968 112.3 97.2716 110.986 96.2537C109.671 95.2358 108.056 94.6827 106.393 94.6811L106.393 87.1811L117.643 87.1811L117.643 100.306Z" stroke="#B1280F" stroke-width="14.3041" stroke-linecap="round" stroke-linejoin="round"/>
</g>
<g style="mix-blend-mode:multiply" opacity="0.2" filter="url(#filter2_f_182_25020)">
<path d="M121.257 84.603L117.976 76.3999C117.697 75.7058 117.217 75.1114 116.597 74.6935C115.977 74.2756 115.245 74.0536 114.498 74.0562L106.393 74.0562L106.393 72.1812C106.393 71.6839 106.195 71.207 105.844 70.8553C105.492 70.5037 105.015 70.3062 104.518 70.3062L68.8929 70.3062C67.8983 70.3062 66.9445 70.7012 66.2412 71.4045C65.538 72.1078 65.1429 73.0616 65.1429 74.0562L65.1429 100.306C65.1429 101.301 65.538 102.255 66.2412 102.958C66.9445 103.661 67.8983 104.056 68.8929 104.056L72.8772 104.056C73.2903 105.669 74.2286 107.099 75.5441 108.12C76.8596 109.142 78.4775 109.696 80.1429 109.696C81.8082 109.696 83.4261 109.142 84.7417 108.12C86.0572 107.099 86.9954 105.669 87.4085 104.056L99.1272 104.056C99.5403 105.669 100.479 107.099 101.794 108.12C103.11 109.142 104.728 109.696 106.393 109.696C108.058 109.696 109.676 109.142 110.992 108.12C112.307 107.099 113.245 105.669 113.658 104.056L117.643 104.056C118.637 104.056 119.591 103.661 120.295 102.958C120.998 102.255 121.393 101.301 121.393 100.306L121.393 85.3061C121.394 85.0652 121.347 84.8264 121.257 84.603ZM106.393 77.8062L114.498 77.8062L116.748 83.4311L106.393 83.4311L106.393 77.8062ZM68.8929 74.0562L102.643 74.0562L102.643 89.0561L68.8929 89.0561L68.8929 74.0562ZM80.1429 105.931C79.4012 105.931 78.6762 105.711 78.0595 105.299C77.4428 104.887 76.9621 104.301 76.6783 103.616C76.3945 102.931 76.3202 102.177 76.4649 101.45C76.6096 100.722 76.9668 100.054 77.4912 99.5295C78.0157 99.0051 78.6838 98.6479 79.4113 98.5032C80.1387 98.3585 80.8927 98.4328 81.5779 98.7166C82.2632 99.0004 82.8488 99.4811 83.2609 100.098C83.6729 100.714 83.8929 101.439 83.8929 102.181C83.8929 103.176 83.4978 104.13 82.7945 104.833C82.0913 105.536 81.1374 105.931 80.1429 105.931ZM99.1272 100.306L87.4085 100.306C86.9954 98.6929 86.0572 97.263 84.7417 96.2418C83.4261 95.2207 81.8082 94.6664 80.1429 94.6664C78.4775 94.6664 76.8596 95.2207 75.5441 96.2418C74.2286 97.263 73.2903 98.6929 72.8772 100.306L68.8929 100.306L68.8929 92.8061L102.643 92.8061L102.643 95.6913C101.781 96.1897 101.026 96.8542 100.423 97.6464C99.819 98.4385 99.3788 99.3426 99.1272 100.306ZM106.393 105.931C105.651 105.931 104.926 105.711 104.309 105.299C103.693 104.887 103.212 104.301 102.928 103.616C102.644 102.931 102.57 102.177 102.715 101.45C102.86 100.722 103.217 100.054 103.741 99.5295C104.266 99.0051 104.934 98.6479 105.661 98.5032C106.389 98.3585 107.143 98.4328 107.828 98.7166C108.513 99.0004 109.099 99.4811 109.511 100.098C109.923 100.714 110.143 101.439 110.143 102.181C110.143 103.176 109.748 104.13 109.045 104.833C108.341 105.536 107.387 105.931 106.393 105.931ZM117.643 100.306L113.658 100.306C113.24 98.6968 112.3 97.2716 110.986 96.2537C109.671 95.2358 108.056 94.6827 106.393 94.6811L106.393 87.1811L117.643 87.1811L117.643 100.306Z" stroke="#ED2A07" stroke-width="3.26147" stroke-linecap="round" stroke-linejoin="round"/>
</g>
<g style="mix-blend-mode:hard-light" filter="url(#filter3_dddii_182_25020)">
<path d="M121.257 84.603L117.976 76.3999C117.697 75.7058 117.217 75.1114 116.597 74.6935C115.977 74.2756 115.245 74.0536 114.498 74.0562L106.393 74.0562L106.393 72.1812C106.393 71.6839 106.195 71.207 105.844 70.8553C105.492 70.5037 105.015 70.3062 104.518 70.3062L68.8929 70.3062C67.8983 70.3062 66.9445 70.7012 66.2412 71.4045C65.538 72.1078 65.1429 73.0616 65.1429 74.0562L65.1429 100.306C65.1429 101.301 65.538 102.255 66.2412 102.958C66.9445 103.661 67.8983 104.056 68.8929 104.056L72.8772 104.056C73.2903 105.669 74.2286 107.099 75.5441 108.12C76.8596 109.142 78.4775 109.696 80.1429 109.696C81.8082 109.696 83.4261 109.142 84.7417 108.12C86.0572 107.099 86.9954 105.669 87.4085 104.056L99.1272 104.056C99.5403 105.669 100.479 107.099 101.794 108.12C103.11 109.142 104.728 109.696 106.393 109.696C108.058 109.696 109.676 109.142 110.992 108.12C112.307 107.099 113.245 105.669 113.658 104.056L117.643 104.056C118.637 104.056 119.591 103.661 120.295 102.958C120.998 102.255 121.393 101.301 121.393 100.306L121.393 85.3061C121.394 85.0652 121.347 84.8264 121.257 84.603ZM106.393 77.8062L114.498 77.8062L116.748 83.4311L106.393 83.4311L106.393 77.8062ZM68.8929 74.0562L102.643 74.0562L102.643 89.0561L68.8929 89.0561L68.8929 74.0562ZM80.1429 105.931C79.4012 105.931 78.6762 105.711 78.0595 105.299C77.4428 104.887 76.9621 104.301 76.6783 103.616C76.3945 102.931 76.3202 102.177 76.4649 101.45C76.6096 100.722 76.9668 100.054 77.4912 99.5295C78.0157 99.0051 78.6838 98.6479 79.4113 98.5032C80.1387 98.3585 80.8927 98.4328 81.5779 98.7166C82.2632 99.0004 82.8488 99.4811 83.2609 100.098C83.6729 100.714 83.8929 101.439 83.8929 102.181C83.8929 103.176 83.4978 104.13 82.7945 104.833C82.0913 105.536 81.1374 105.931 80.1429 105.931ZM99.1272 100.306L87.4085 100.306C86.9954 98.6929 86.0572 97.263 84.7417 96.2418C83.4261 95.2207 81.8082 94.6664 80.1429 94.6664C78.4775 94.6664 76.8596 95.2207 75.5441 96.2418C74.2286 97.263 73.2903 98.6929 72.8772 100.306L68.8929 100.306L68.8929 92.8061L102.643 92.8061L102.643 95.6913C101.781 96.1897 101.026 96.8542 100.423 97.6464C99.819 98.4385 99.3788 99.3426 99.1272 100.306ZM106.393 105.931C105.651 105.931 104.926 105.711 104.309 105.299C103.693 104.887 103.212 104.301 102.928 103.616C102.644 102.931 102.57 102.177 102.715 101.45C102.86 100.722 103.217 100.054 103.741 99.5295C104.266 99.0051 104.934 98.6479 105.661 98.5032C106.389 98.3585 107.143 98.4328 107.828 98.7166C108.513 99.0004 109.099 99.4811 109.511 100.098C109.923 100.714 110.143 101.439 110.143 102.181C110.143 103.176 109.748 104.13 109.045 104.833C108.341 105.536 107.387 105.931 106.393 105.931ZM117.643 100.306L113.658 100.306C113.24 98.6968 112.3 97.2716 110.986 96.2537C109.671 95.2358 108.056 94.6827 106.393 94.6811L106.393 87.1811L117.643 87.1811L117.643 100.306Z" stroke="#ED2A07" stroke-opacity="0.2" stroke-width="10.8716" stroke-linecap="round" stroke-linejoin="round"/>
</g>
<g filter="url(#filter4_f_182_25020)">
<path d="M121.257 84.603L117.976 76.3999C117.697 75.7058 117.217 75.1114 116.597 74.6935C115.977 74.2756 115.245 74.0536 114.498 74.0562L106.393 74.0562L106.393 72.1812C106.393 71.6839 106.195 71.207 105.844 70.8553C105.492 70.5037 105.015 70.3062 104.518 70.3062L68.8929 70.3062C67.8983 70.3062 66.9445 70.7012 66.2412 71.4045C65.538 72.1078 65.1429 73.0616 65.1429 74.0562L65.1429 100.306C65.1429 101.301 65.538 102.255 66.2412 102.958C66.9445 103.661 67.8983 104.056 68.8929 104.056L72.8772 104.056C73.2903 105.669 74.2286 107.099 75.5441 108.12C76.8596 109.142 78.4775 109.696 80.1429 109.696C81.8082 109.696 83.4261 109.142 84.7417 108.12C86.0572 107.099 86.9954 105.669 87.4085 104.056L99.1272 104.056C99.5403 105.669 100.479 107.099 101.794 108.12C103.11 109.142 104.728 109.696 106.393 109.696C108.058 109.696 109.676 109.142 110.992 108.12C112.307 107.099 113.245 105.669 113.658 104.056L117.643 104.056C118.637 104.056 119.591 103.661 120.295 102.958C120.998 102.255 121.393 101.301 121.393 100.306L121.393 85.3061C121.394 85.0652 121.347 84.8264 121.257 84.603ZM106.393 77.8062L114.498 77.8062L116.748 83.4311L106.393 83.4311L106.393 77.8062ZM68.8929 74.0562L102.643 74.0562L102.643 89.0561L68.8929 89.0561L68.8929 74.0562ZM80.1429 105.931C79.4012 105.931 78.6762 105.711 78.0595 105.299C77.4428 104.887 76.9621 104.301 76.6783 103.616C76.3945 102.931 76.3202 102.177 76.4649 101.45C76.6096 100.722 76.9668 100.054 77.4912 99.5295C78.0157 99.0051 78.6838 98.6479 79.4113 98.5032C80.1387 98.3585 80.8927 98.4328 81.5779 98.7166C82.2632 99.0004 82.8488 99.4811 83.2609 100.098C83.6729 100.714 83.8929 101.439 83.8929 102.181C83.8929 103.176 83.4978 104.13 82.7945 104.833C82.0913 105.536 81.1374 105.931 80.1429 105.931ZM99.1272 100.306L87.4085 100.306C86.9954 98.6929 86.0572 97.263 84.7417 96.2418C83.4261 95.2207 81.8082 94.6664 80.1429 94.6664C78.4775 94.6664 76.8596 95.2207 75.5441 96.2418C74.2286 97.263 73.2903 98.6929 72.8772 100.306L68.8929 100.306L68.8929 92.8061L102.643 92.8061L102.643 95.6913C101.781 96.1897 101.026 96.8542 100.423 97.6464C99.819 98.4385 99.3788 99.3426 99.1272 100.306ZM106.393 105.931C105.651 105.931 104.926 105.711 104.309 105.299C103.693 104.887 103.212 104.301 102.928 103.616C102.644 102.931 102.57 102.177 102.715 101.45C102.86 100.722 103.217 100.054 103.741 99.5295C104.266 99.0051 104.934 98.6479 105.661 98.5032C106.389 98.3585 107.143 98.4328 107.828 98.7166C108.513 99.0004 109.099 99.4811 109.511 100.098C109.923 100.714 110.143 101.439 110.143 102.181C110.143 103.176 109.748 104.13 109.045 104.833C108.341 105.536 107.387 105.931 106.393 105.931ZM117.643 100.306L113.658 100.306C113.24 98.6968 112.3 97.2716 110.986 96.2537C109.671 95.2358 108.056 94.6827 106.393 94.6811L106.393 87.1811L117.643 87.1811L117.643 100.306Z" stroke="#F78672" stroke-width="6.52295" stroke-linecap="round" stroke-linejoin="round"/>
</g>
<g filter="url(#filter5_f_182_25020)">
<path d="M121.257 84.603L117.976 76.3999C117.697 75.7058 117.217 75.1114 116.597 74.6935C115.977 74.2756 115.245 74.0536 114.498 74.0562L106.393 74.0562L106.393 72.1812C106.393 71.6839 106.195 71.207 105.844 70.8553C105.492 70.5037 105.015 70.3062 104.518 70.3062L68.8929 70.3062C67.8983 70.3062 66.9445 70.7012 66.2412 71.4045C65.538 72.1078 65.1429 73.0616 65.1429 74.0562L65.1429 100.306C65.1429 101.301 65.538 102.255 66.2412 102.958C66.9445 103.661 67.8983 104.056 68.8929 104.056L72.8772 104.056C73.2903 105.669 74.2286 107.099 75.5441 108.12C76.8596 109.142 78.4775 109.696 80.1429 109.696C81.8082 109.696 83.4261 109.142 84.7417 108.12C86.0572 107.099 86.9954 105.669 87.4085 104.056L99.1272 104.056C99.5403 105.669 100.479 107.099 101.794 108.12C103.11 109.142 104.728 109.696 106.393 109.696C108.058 109.696 109.676 109.142 110.992 108.12C112.307 107.099 113.245 105.669 113.658 104.056L117.643 104.056C118.637 104.056 119.591 103.661 120.295 102.958C120.998 102.255 121.393 101.301 121.393 100.306L121.393 85.3061C121.394 85.0652 121.347 84.8264 121.257 84.603ZM106.393 77.8062L114.498 77.8062L116.748 83.4311L106.393 83.4311L106.393 77.8062ZM68.8929 74.0562L102.643 74.0562L102.643 89.0561L68.8929 89.0561L68.8929 74.0562ZM80.1429 105.931C79.4012 105.931 78.6762 105.711 78.0595 105.299C77.4428 104.887 76.9621 104.301 76.6783 103.616C76.3945 102.931 76.3202 102.177 76.4649 101.45C76.6096 100.722 76.9668 100.054 77.4912 99.5295C78.0157 99.0051 78.6838 98.6479 79.4113 98.5032C80.1387 98.3585 80.8927 98.4328 81.5779 98.7166C82.2632 99.0004 82.8488 99.4811 83.2609 100.098C83.6729 100.714 83.8929 101.439 83.8929 102.181C83.8929 103.176 83.4978 104.13 82.7945 104.833C82.0913 105.536 81.1374 105.931 80.1429 105.931ZM99.1272 100.306L87.4085 100.306C86.9954 98.6929 86.0572 97.263 84.7417 96.2418C83.4261 95.2207 81.8082 94.6664 80.1429 94.6664C78.4775 94.6664 76.8596 95.2207 75.5441 96.2418C74.2286 97.263 73.2903 98.6929 72.8772 100.306L68.8929 100.306L68.8929 92.8061L102.643 92.8061L102.643 95.6913C101.781 96.1897 101.026 96.8542 100.423 97.6464C99.819 98.4385 99.3788 99.3426 99.1272 100.306ZM106.393 105.931C105.651 105.931 104.926 105.711 104.309 105.299C103.693 104.887 103.212 104.301 102.928 103.616C102.644 102.931 102.57 102.177 102.715 101.45C102.86 100.722 103.217 100.054 103.741 99.5295C104.266 99.0051 104.934 98.6479 105.661 98.5032C106.389 98.3585 107.143 98.4328 107.828 98.7166C108.513 99.0004 109.099 99.4811 109.511 100.098C109.923 100.714 110.143 101.439 110.143 102.181C110.143 103.176 109.748 104.13 109.045 104.833C108.341 105.536 107.387 105.931 106.393 105.931ZM117.643 100.306L113.658 100.306C113.24 98.6968 112.3 97.2716 110.986 96.2537C109.671 95.2358 108.056 94.6827 106.393 94.6811L106.393 87.1811L117.643 87.1811L117.643 100.306Z" fill="white"/>
<path d="M121.257 84.603L117.976 76.3999C117.697 75.7058 117.217 75.1114 116.597 74.6935C115.977 74.2756 115.245 74.0536 114.498 74.0562L106.393 74.0562L106.393 72.1812C106.393 71.6839 106.195 71.207 105.844 70.8553C105.492 70.5037 105.015 70.3062 104.518 70.3062L68.8929 70.3062C67.8983 70.3062 66.9445 70.7012 66.2412 71.4045C65.538 72.1078 65.1429 73.0616 65.1429 74.0562L65.1429 100.306C65.1429 101.301 65.538 102.255 66.2412 102.958C66.9445 103.661 67.8983 104.056 68.8929 104.056L72.8772 104.056C73.2903 105.669 74.2286 107.099 75.5441 108.12C76.8596 109.142 78.4775 109.696 80.1429 109.696C81.8082 109.696 83.4261 109.142 84.7417 108.12C86.0572 107.099 86.9954 105.669 87.4085 104.056L99.1272 104.056C99.5403 105.669 100.479 107.099 101.794 108.12C103.11 109.142 104.728 109.696 106.393 109.696C108.058 109.696 109.676 109.142 110.992 108.12C112.307 107.099 113.245 105.669 113.658 104.056L117.643 104.056C118.637 104.056 119.591 103.661 120.295 102.958C120.998 102.255 121.393 101.301 121.393 100.306L121.393 85.3061C121.394 85.0652 121.347 84.8264 121.257 84.603ZM106.393 77.8062L114.498 77.8062L116.748 83.4311L106.393 83.4311L106.393 77.8062ZM68.8929 74.0562L102.643 74.0562L102.643 89.0561L68.8929 89.0561L68.8929 74.0562ZM80.1429 105.931C79.4012 105.931 78.6762 105.711 78.0595 105.299C77.4428 104.887 76.9621 104.301 76.6783 103.616C76.3945 102.931 76.3202 102.177 76.4649 101.45C76.6096 100.722 76.9668 100.054 77.4912 99.5295C78.0157 99.0051 78.6838 98.6479 79.4113 98.5032C80.1387 98.3585 80.8927 98.4328 81.5779 98.7166C82.2632 99.0004 82.8488 99.4811 83.2609 100.098C83.6729 100.714 83.8929 101.439 83.8929 102.181C83.8929 103.176 83.4978 104.13 82.7945 104.833C82.0913 105.536 81.1374 105.931 80.1429 105.931ZM99.1272 100.306L87.4085 100.306C86.9954 98.6929 86.0572 97.263 84.7417 96.2418C83.4261 95.2207 81.8082 94.6664 80.1429 94.6664C78.4775 94.6664 76.8596 95.2207 75.5441 96.2418C74.2286 97.263 73.2903 98.6929 72.8772 100.306L68.8929 100.306L68.8929 92.8061L102.643 92.8061L102.643 95.6913C101.781 96.1897 101.026 96.8542 100.423 97.6464C99.819 98.4385 99.3788 99.3426 99.1272 100.306ZM106.393 105.931C105.651 105.931 104.926 105.711 104.309 105.299C103.693 104.887 103.212 104.301 102.928 103.616C102.644 102.931 102.57 102.177 102.715 101.45C102.86 100.722 103.217 100.054 103.741 99.5295C104.266 99.0051 104.934 98.6479 105.661 98.5032C106.389 98.3585 107.143 98.4328 107.828 98.7166C108.513 99.0004 109.099 99.4811 109.511 100.098C109.923 100.714 110.143 101.439 110.143 102.181C110.143 103.176 109.748 104.13 109.045 104.833C108.341 105.536 107.387 105.931 106.393 105.931ZM117.643 100.306L113.658 100.306C113.24 98.6968 112.3 97.2716 110.986 96.2537C109.671 95.2358 108.056 94.6827 106.393 94.6811L106.393 87.1811L117.643 87.1811L117.643 100.306Z" stroke="#EEEEEE" stroke-width="1.21133" stroke-linecap="round" stroke-linejoin="round"/>
</g>
<rect x="72.4016" y="37.4321" width="4.29943" height="20.6117" rx="2.14971" transform="rotate(150 72.4016 37.4321)" fill="#888888"/>
<rect width="15.5298" height="15.5298" rx="7.76492" transform="matrix(0.958355 -0.28558 -0.28558 -0.958355 104.807 19.8999)" fill="#ED2A07"/>
<rect width="8" height="8" rx="4" transform="matrix(0.958355 -0.28558 -0.28558 -0.958355 2.28458 102.9)" fill="#ED2A07"/>
<rect width="8.76549" height="22" rx="4.38274" transform="matrix(0.46932 -0.883028 -0.883028 -0.46932 131.799 169.647)" fill="#888888"/>
<rect x="159.931" y="36.582" width="10" height="10" rx="2" transform="rotate(15.1613 159.931 36.582)" fill="#252525"/>
<rect width="5.0302" height="5.0302" rx="2.5151" transform="matrix(0.958355 -0.28558 -0.28558 -0.958355 128.809 145.84)" fill="#ED2A07"/>
<rect width="18" height="18" rx="4" transform="matrix(0.965193 -0.261538 -0.261538 -0.965193 33.2743 180.321)" fill="#252525"/>
<defs>
<filter id="filter0_f_182_25020" x="5.34917" y="10.5127" width="175.837" height="158.977" filterUnits="userSpaceOnUse" color-interpolation-filters="sRGB">
<feFlood flood-opacity="0" result="BackgroundImageFix"/>
<feBlend mode="normal" in="SourceGraphic" in2="BackgroundImageFix" result="shape"/>
<feGaussianBlur stdDeviation="27.179" result="effect1_foregroundBlur_182_25020"/>
</filter>
<filter id="filter1_f_182_25020" x="41.6835" y="46.8469" width="103.169" height="86.3081" filterUnits="userSpaceOnUse" color-interpolation-filters="sRGB">
<feFlood flood-opacity="0" result="BackgroundImageFix"/>
<feBlend mode="normal" in="SourceGraphic" in2="BackgroundImageFix" result="shape"/>
<feGaussianBlur stdDeviation="8.15368" result="effect1_foregroundBlur_182_25020"/>
</filter>
<filter id="filter2_f_182_25020" x="61.3378" y="66.501" width="63.8601" height="47" filterUnits="userSpaceOnUse" color-interpolation-filters="sRGB">
<feFlood flood-opacity="0" result="BackgroundImageFix"/>
<feBlend mode="normal" in="SourceGraphic" in2="BackgroundImageFix" result="shape"/>
<feGaussianBlur stdDeviation="1.08716" result="effect1_foregroundBlur_182_25020"/>
</filter>
<filter id="filter3_dddii_182_25020" x="23.3672" y="40.644" width="139.801" height="122.941" filterUnits="userSpaceOnUse" color-interpolation-filters="sRGB">
<feFlood flood-opacity="0" result="BackgroundImageFix"/>
<feColorMatrix in="SourceAlpha" type="matrix" values="0 0 0 0 0 0 0 0 0 0 0 0 0 0 0 0 0 0 127 0" result="hardAlpha"/>
<feOffset dy="10.8716"/>
<feGaussianBlur stdDeviation="4.34863"/>
<feColorMatrix type="matrix" values="0 0 0 0 0.0833333 0 0 0 0 0.02 0 0 0 0 0 0 0 0 0.7 0"/>
<feBlend mode="multiply" in2="BackgroundImageFix" result="effect1_dropShadow_182_25020"/>
<feColorMatrix in="SourceAlpha" type="matrix" values="0 0 0 0 0 0 0 0 0 0 0 0 0 0 0 0 0 0 127 0" result="hardAlpha"/>
<feOffset dy="21.7432"/>
<feGaussianBlur stdDeviation="10.8716"/>
<feColorMatrix type="matrix" values="0 0 0 0 0.175 0 0 0 0 0.0965125 0 0 0 0 0.004375 0 0 0 0.8 0"/>
<feBlend mode="multiply" in2="effect1_dropShadow_182_25020" result="effect2_dropShadow_182_25020"/>
<feColorMatrix in="SourceAlpha" type="matrix" values="0 0 0 0 0 0 0 0 0 0 0 0 0 0 0 0 0 0 127 0" result="hardAlpha"/>
<feOffset dy="12.1133"/>
<feGaussianBlur stdDeviation="18.1699"/>
<feColorMatrix type="matrix" values="0 0 0 0 1 0 0 0 0 0.289333 0 0 0 0 0.133333 0 0 0 1 0"/>
<feBlend mode="color-dodge" in2="effect2_dropShadow_182_25020" result="effect3_dropShadow_182_25020"/>
<feBlend mode="normal" in="SourceGraphic" in2="effect3_dropShadow_182_25020" result="shape"/>
<feColorMatrix in="SourceAlpha" type="matrix" values="0 0 0 0 0 0 0 0 0 0 0 0 0 0 0 0 0 0 127 0" result="hardAlpha"/>
<feOffset dx="-1.08716" dy="2.17432"/>
<feGaussianBlur stdDeviation="0.543579"/>
<feComposite in2="hardAlpha" operator="arithmetic" k2="-1" k3="1"/>
<feColorMatrix type="matrix" values="0 0 0 0 1 0 0 0 0 1 0 0 0 0 1 0 0 0 0.5 0"/>
<feBlend mode="normal" in2="shape" result="effect4_innerShadow_182_25020"/>
<feColorMatrix in="SourceAlpha" type="matrix" values="0 0 0 0 0 0 0 0 0 0 0 0 0 0 0 0 0 0 127 0" result="hardAlpha"/>
<feOffset dx="-1.08716" dy="-2.17432"/>
<feGaussianBlur stdDeviation="0.543579"/>
<feComposite in2="hardAlpha" operator="arithmetic" k2="-1" k3="1"/>
<feColorMatrix type="matrix" values="0 0 0 0 1 0 0 0 0 1 0 0 0 0 1 0 0 0 0.4 0"/>
<feBlend mode="normal" in2="effect4_innerShadow_182_25020" result="effect5_innerShadow_182_25020"/>
</filter>
<filter id="filter4_f_182_25020" x="60.451" y="65.6145" width="65.6338" height="48.7734" filterUnits="userSpaceOnUse" color-interpolation-filters="sRGB">
<feFlood flood-opacity="0" result="BackgroundImageFix"/>
<feBlend mode="normal" in="SourceGraphic" in2="BackgroundImageFix" result="shape"/>
<feGaussianBlur stdDeviation="0.715204" result="effect1_foregroundBlur_182_25020"/>
</filter>
<filter id="filter5_f_182_25020" x="63.45" y="68.6135" width="59.6357" height="42.7754" filterUnits="userSpaceOnUse" color-interpolation-filters="sRGB">
<feFlood flood-opacity="0" result="BackgroundImageFix"/>
<feBlend mode="normal" in="SourceGraphic" in2="BackgroundImageFix" result="shape"/>
<feGaussianBlur stdDeviation="0.543579" result="effect1_foregroundBlur_182_25020"/>
</filter>
</defs>
</svg>
