<svg width="15" height="21" viewBox="0 0 15 21" fill="none" xmlns="http://www.w3.org/2000/svg">
<path d="M14.7397 14.2613C14.8787 14.4855 14.9623 14.7357 14.9904 15.0119C15.0186 15.288 14.9853 15.5309 14.8906 15.7405C14.7958 15.9502 14.628 16.108 14.3872 16.2138C13.7735 16.4597 13.1825 16.6434 12.6142 16.7647C11.7416 16.939 11.0785 17.0806 10.6251 17.1895L10.8109 18.1565C10.9468 18.9194 11.0177 19.3305 11.0238 19.3897C11.0741 19.8828 11.0186 20.2876 10.8573 20.6042C10.7263 20.8377 10.5364 20.968 10.2875 20.9949C10.096 21.0156 9.93682 20.9731 9.80987 20.8672C9.49654 20.6418 9.27289 20.347 9.13893 19.9826C9.02211 19.5965 8.8912 19.0722 8.7462 18.4099C8.66767 18.0196 8.60121 17.7476 8.54682 17.594L7.38147 17.8398C7.39354 17.9582 7.42223 18.1445 7.46753 18.3988C7.53198 18.6511 7.57427 18.8758 7.59439 19.073C7.63262 19.4478 7.60537 19.7499 7.51264 19.9792C7.4088 20.2896 7.2133 20.4603 6.92612 20.4914C6.63895 20.5225 6.38353 20.3907 6.15989 20.0958C6.00172 19.8736 5.8985 19.5259 5.8502 19.0525L5.78837 18.1619C4.49858 18.4212 3.54181 18.6245 2.91807 18.7718L2.83192 18.7811C2.54474 18.8122 2.31451 18.7374 2.14123 18.5568C2.02843 18.2101 1.87837 17.6879 1.69106 16.9903C2.22109 16.8731 2.95113 16.7242 3.88119 16.5438C3.84089 16.5282 3.78245 16.5245 3.70587 16.5328C2.89775 16.5805 2.3098 16.6042 1.94202 16.6042C1.808 16.6187 1.73395 16.5569 1.71987 16.4189C1.71383 16.3597 1.72694 16.2984 1.75919 16.2351C1.81059 16.1697 1.87458 16.1329 1.95116 16.1246C3.10993 16.0988 4.26467 16.0336 5.41539 15.929C5.43252 15.9072 5.46981 15.8932 5.52724 15.8869L4.94608 11.0444L4.03927 10.6939C3.89922 10.6492 3.75917 10.6046 3.61912 10.5599C3.49821 10.5132 3.37831 10.4763 3.25941 10.4493C2.46343 10.2364 1.81002 9.99803 1.2992 9.73428C0.786363 9.45081 0.435772 9.05007 0.247426 8.53205C0.115481 8.1874 0.0374346 7.89674 0.0132879 7.66006C-0.0490913 7.04864 0.110193 6.52289 0.49114 6.08282C0.891233 5.64068 1.4354 5.28264 2.12365 5.00871C2.85019 4.73063 3.5349 4.5169 4.17778 4.36753C4.1315 3.9139 4.08122 3.23137 4.02695 2.31996C4.01792 2.04176 4.157 1.88711 4.44417 1.85602C4.55905 1.84358 4.66837 1.87163 4.77214 1.94015C4.89506 2.00661 4.97314 2.10783 5.00637 2.24382C5.07283 2.5158 5.15338 2.92584 5.24801 3.47395L5.36883 4.08901L6.05503 3.98479C6.01778 3.80936 5.98104 3.54413 5.94482 3.18911C5.83812 2.52267 5.76866 2.03166 5.73647 1.71609C5.70025 1.36107 5.69476 1.02267 5.72 0.70088C5.74018 0.519225 5.81124 0.361973 5.93318 0.229123C6.05512 0.0962721 6.19268 0.0215546 6.34584 0.00497065C6.70959 -0.0344162 7.02948 0.160269 7.3055 0.589027C7.35184 0.663774 7.37703 0.720871 7.38105 0.760318C7.39111 0.858934 7.37246 0.96066 7.32508 1.06549C7.43587 1.3925 7.52196 1.76205 7.58337 2.17417C7.66391 2.58421 7.7198 2.84737 7.75101 2.96363C7.77114 3.16086 7.81845 3.43492 7.89296 3.78579C9.35202 3.66769 10.5904 3.66321 11.6081 3.77238C11.8418 3.78695 12.0358 3.88559 12.1899 4.06831C12.342 4.23131 12.4292 4.42129 12.4513 4.63824C12.4734 4.8552 12.4255 5.04982 12.3076 5.22212C12.1897 5.39442 12.0073 5.5039 11.7604 5.55057C11.571 5.59103 11.2848 5.63198 10.9019 5.67344L10.0404 5.76673L10.0434 5.79631C10.3518 5.78287 10.8354 5.78035 11.4944 5.78876C11.6879 5.78776 11.7947 5.88587 11.8148 6.0831C11.8268 6.20144 11.7986 6.3042 11.7301 6.39139C11.6616 6.47857 11.5699 6.52838 11.455 6.54082C10.1451 6.60289 9.15507 6.6702 8.48499 6.74276L9.21897 10.5219C10.0351 10.932 10.8985 11.4268 11.8093 12.0062L10.895 11.2976C10.8316 11.2446 10.7968 11.1886 10.7908 11.1294C10.7807 11.0308 10.812 10.9576 10.8845 10.9099C10.9742 10.8403 11.0614 10.8409 11.146 10.9115C12.357 11.7774 13.5408 12.7559 14.6974 13.8471C14.8223 13.9333 14.8248 14.0527 14.7049 14.2052L14.7397 14.2613ZM5.71309 6.32502L5.72215 6.41377L6.40232 6.25039L6.39628 6.19122L5.71309 6.32502ZM6.53823 7.01337L5.82633 7.15028L6.11169 9.09355L6.96106 9.45026L6.53823 7.01337ZM4.65778 8.50318C4.61449 8.26858 4.5687 7.9146 4.52041 7.44124L2.85021 7.86138L2.87893 7.85827L4.65778 8.50318ZM7.43072 12.0615L6.48916 11.655L7.05988 15.5415C7.51534 15.4523 7.85593 15.3756 8.08165 15.3112L7.43072 12.0615ZM12.0659 14.5209C11.2377 13.9924 10.4675 13.5573 9.75512 13.2157L10.1282 14.8803C10.9434 14.7122 11.5893 14.5924 12.0659 14.5209Z" fill="#888888"/>
</svg>
