<svg width="33" height="32" viewBox="0 0 33 32" fill="none" xmlns="http://www.w3.org/2000/svg">
<g id="Frame">
<path id="Vector" d="M30.2364 24.765L28.4539 9.765C28.3961 9.27627 28.1601 8.82602 27.7911 8.50039C27.4221 8.17475 26.946 7.99659 26.4539 8H22.2501C22.2501 6.4087 21.618 4.88258 20.4928 3.75736C19.3675 2.63214 17.8414 2 16.2501 2C14.6588 2 13.1327 2.63214 12.0075 3.75736C10.8823 4.88258 10.2501 6.4087 10.2501 8H6.04137C5.54925 7.99659 5.07315 8.17475 4.70415 8.50039C4.33516 8.82602 4.09918 9.27627 4.04137 9.765L2.25887 24.765C2.2262 25.045 2.25308 25.3287 2.33774 25.5975C2.4224 25.8664 2.56293 26.1143 2.75012 26.325C2.93866 26.5366 3.16969 26.7061 3.42815 26.8224C3.68662 26.9387 3.96669 26.9992 4.25012 27H28.2401C28.5252 27.0006 28.8072 26.9408 29.0675 26.8245C29.3278 26.7081 29.5605 26.5379 29.7501 26.325C29.9364 26.1139 30.076 25.8658 30.1598 25.5969C30.2436 25.3281 30.2697 25.0446 30.2364 24.765ZM16.2501 4C17.311 4 18.3284 4.42143 19.0785 5.17157C19.8287 5.92172 20.2501 6.93913 20.2501 8H12.2501C12.2501 6.93913 12.6715 5.92172 13.4217 5.17157C14.1718 4.42143 15.1893 4 16.2501 4ZM4.25012 25L6.04137 10H10.2501V13C10.2501 13.2652 10.3555 13.5196 10.543 13.7071C10.7305 13.8946 10.9849 14 11.2501 14C11.5153 14 11.7697 13.8946 11.9572 13.7071C12.1448 13.5196 12.2501 13.2652 12.2501 13V10H20.2501V13C20.2501 13.2652 20.3555 13.5196 20.543 13.7071C20.7305 13.8946 20.9849 14 21.2501 14C21.5153 14 21.7697 13.8946 21.9572 13.7071C22.1448 13.5196 22.2501 13.2652 22.2501 13V10H26.4689L28.2401 25H4.25012Z" fill="white"/>
</g>
</svg>
