<svg width="33" height="32" viewBox="0 0 33 32" fill="none" xmlns="http://www.w3.org/2000/svg">
<g id="Frame">
<path id="Vector" d="M27.4493 16.7183L20.1198 14.2756C19.7386 14.1482 19.3881 13.943 19.0906 13.6729C18.7931 13.4028 18.555 13.0737 18.3915 12.7066L15.5903 6.15678C15.5903 6.15678 15.5903 6.14833 15.5903 6.14471C15.3908 5.69731 15.0288 5.34243 14.5775 5.15196C14.1261 4.96148 13.6193 4.94965 13.1596 5.11885L4.02098 8.43661C3.64894 8.57288 3.32762 8.81996 3.10038 9.14453C2.87313 9.46911 2.75089 9.85556 2.75012 10.2518L2.75012 24.3085C2.75012 24.8206 2.95357 25.3118 3.31571 25.6739C3.67785 26.0361 4.16901 26.2395 4.68116 26.2395H28.8191C29.3312 26.2395 29.8224 26.0361 30.1845 25.6739C30.5467 25.3118 30.7501 24.8206 30.7501 24.3085V21.2985C30.7502 20.2852 30.4314 19.2976 29.839 18.4756C29.2466 17.6536 28.4105 17.0388 27.4493 16.7183ZM13.8198 6.9292L14.6779 8.93626L12.0758 9.88368C11.8624 9.96115 11.683 10.1114 11.5694 10.308C11.4557 10.5045 11.415 10.7349 11.4543 10.9585C11.4936 11.1822 11.6105 11.3848 11.7845 11.5308C11.9584 11.6768 12.1782 11.7568 12.4053 11.7568C12.5177 11.7566 12.6293 11.7366 12.7348 11.6976L15.4382 10.7152L16.0103 12.0513L14.0068 12.7754C13.7899 12.8504 13.6068 13.0002 13.4903 13.198C13.3739 13.3959 13.3317 13.6287 13.3714 13.8548C13.411 14.0809 13.5299 14.2854 13.7068 14.4318C13.8836 14.5781 14.1068 14.6567 14.3363 14.6533C14.4488 14.6532 14.5603 14.6332 14.6658 14.5942L16.7899 13.8218C17.0336 14.2703 17.3464 14.6776 17.7168 15.0287L15.9379 15.6756C15.7236 15.7525 15.5433 15.9026 15.429 16.0995C15.3147 16.2963 15.2736 16.5273 15.313 16.7515C15.3524 16.9758 15.4698 17.1789 15.6444 17.3249C15.8191 17.471 16.0397 17.5507 16.2674 17.5499C16.3797 17.5495 16.4911 17.53 16.5968 17.4919L19.9762 16.2633L26.8398 18.5504C27.2767 18.6965 27.6725 18.9447 27.9943 19.2745C28.3161 19.6043 28.5546 20.006 28.6899 20.4464H4.68116V10.2518L13.8198 6.9292ZM4.68116 24.3085V22.3775H28.8191V24.3085H4.68116Z" fill="white"/>
</g>
</svg>
