<svg width="33" height="32" viewBox="0 0 33 32" fill="none" xmlns="http://www.w3.org/2000/svg">
<g id="Frame">
<path id="Vector" d="M25.3464 6.73626C22.926 4.33949 19.6564 2.99651 16.2501 3.00001H16.1164C12.6918 3.03524 9.41945 4.42042 7.01032 6.85459C4.6012 9.28875 3.24994 12.5752 3.25012 16C3.25012 21.375 6.57262 25.8825 11.9201 27.7713C12.5233 27.9839 13.1686 28.0488 13.802 27.9606C14.4354 27.8724 15.0384 27.6335 15.5605 27.2641C16.0826 26.8948 16.5084 26.4056 16.8024 25.8376C17.0964 25.2697 17.2499 24.6395 17.2501 24C17.2501 23.4696 17.4608 22.9609 17.8359 22.5858C18.211 22.2107 18.7197 22 19.2501 22H25.0264C25.9337 22.0044 26.8153 21.6983 27.5247 21.1326C28.2341 20.5669 28.7287 19.7756 28.9264 18.89C29.1499 17.9059 29.2585 16.8992 29.2501 15.89C29.2374 14.1818 28.8858 12.4932 28.2157 10.9219C27.5456 9.35058 26.5703 7.92789 25.3464 6.73626ZM26.9714 18.45C26.8721 18.8912 26.6252 19.2853 26.2715 19.5671C25.9178 19.8489 25.4786 20.0017 25.0264 20H19.2501C18.1893 20 17.1718 20.4214 16.4217 21.1716C15.6715 21.9217 15.2501 22.9391 15.2501 24C15.2497 24.3195 15.1727 24.6342 15.0256 24.9178C14.8786 25.2014 14.6657 25.4456 14.4049 25.63C14.1441 25.8145 13.8429 25.9338 13.5265 25.9779C13.2101 26.0221 12.8877 25.9898 12.5864 25.8838C8.06137 24.2875 5.25012 20.5 5.25012 16C5.24997 13.1022 6.39326 10.3214 8.43163 8.26177C10.47 6.20211 13.2387 5.02997 16.1364 5.00001H16.2489C19.1466 5.01126 21.9238 6.16098 23.9816 8.20121C26.0394 10.2414 27.2128 13.0087 27.2489 15.9063C27.2563 16.7618 27.1649 17.6154 26.9764 18.45H26.9714ZM17.7501 9.50001C17.7501 9.79668 17.6621 10.0867 17.4973 10.3334C17.3325 10.58 17.0982 10.7723 16.8241 10.8858C16.5501 10.9994 16.2485 11.0291 15.9575 10.9712C15.6665 10.9133 15.3992 10.7704 15.1895 10.5607C14.9797 10.3509 14.8368 10.0836 14.7789 9.79264C14.7211 9.50167 14.7508 9.20007 14.8643 8.92598C14.9778 8.65189 15.1701 8.41762 15.4168 8.2528C15.6634 8.08798 15.9535 8.00001 16.2501 8.00001C16.6479 8.00001 17.0295 8.15804 17.3108 8.43935C17.5921 8.72065 17.7501 9.10218 17.7501 9.50001ZM12.2501 12.5C12.2501 12.7967 12.1621 13.0867 11.9973 13.3334C11.8325 13.58 11.5982 13.7723 11.3241 13.8858C11.0501 13.9994 10.7485 14.0291 10.4575 13.9712C10.1665 13.9133 9.89924 13.7704 9.68946 13.5607C9.47968 13.3509 9.33682 13.0836 9.27894 12.7926C9.22107 12.5017 9.25077 12.2001 9.3643 11.926C9.47783 11.6519 9.67009 11.4176 9.91677 11.2528C10.1634 11.088 10.4535 11 10.7501 11C11.1479 11 11.5295 11.158 11.8108 11.4393C12.0921 11.7207 12.2501 12.1022 12.2501 12.5ZM12.2501 19.5C12.2501 19.7967 12.1621 20.0867 11.9973 20.3334C11.8325 20.58 11.5982 20.7723 11.3241 20.8858C11.0501 20.9994 10.7485 21.0291 10.4575 20.9712C10.1665 20.9133 9.89924 20.7704 9.68946 20.5607C9.47968 20.3509 9.33682 20.0836 9.27894 19.7926C9.22107 19.5017 9.25077 19.2001 9.3643 18.926C9.47783 18.6519 9.67009 18.4176 9.91677 18.2528C10.1634 18.088 10.4535 18 10.7501 18C11.1479 18 11.5295 18.158 11.8108 18.4393C12.0921 18.7207 12.2501 19.1022 12.2501 19.5ZM23.2501 12.5C23.2501 12.7967 23.1621 13.0867 22.9973 13.3334C22.8325 13.58 22.5982 13.7723 22.3241 13.8858C22.0501 13.9994 21.7485 14.0291 21.4575 13.9712C21.1665 13.9133 20.8992 13.7704 20.6895 13.5607C20.4797 13.3509 20.3368 13.0836 20.2789 12.7926C20.2211 12.5017 20.2508 12.2001 20.3643 11.926C20.4778 11.6519 20.6701 11.4176 20.9168 11.2528C21.1634 11.088 21.4534 11 21.7501 11C22.1479 11 22.5295 11.158 22.8108 11.4393C23.0921 11.7207 23.2501 12.1022 23.2501 12.5Z" fill="white"/>
</g>
</svg>
