<svg width="32" height="32" viewBox="0 0 32 32" fill="none" xmlns="http://www.w3.org/2000/svg">
<g id="Frame">
<path id="Vector" d="M30.1964 21.4L17.6664 12L20.5989 9.8C20.7233 9.70698 20.8243 9.58626 20.894 9.44739C20.9636 9.30853 21 9.15535 21.0001 9C21.0001 7.67392 20.4733 6.40215 19.5357 5.46447C18.598 4.52678 17.3262 4 16.0001 4C14.674 4 13.4023 4.52678 12.4646 5.46447C11.5269 6.40215 11.0001 7.67392 11.0001 9C11.0001 9.26522 11.1055 9.51957 11.293 9.70711C11.4806 9.89464 11.7349 10 12.0001 10C12.2653 10 12.5197 9.89464 12.7072 9.70711C12.8948 9.51957 13.0001 9.26522 13.0001 9C13.0022 8.24678 13.2874 7.52188 13.7993 6.96931C14.3112 6.41674 15.0122 6.07695 15.7631 6.01744C16.5139 5.95792 17.2597 6.18304 17.8523 6.64807C18.4448 7.11309 18.8407 7.784 18.9614 8.5275L15.4176 11.1862L15.3826 11.2125L1.80388 21.4C1.46832 21.6517 1.22038 22.0025 1.09513 22.4028C0.969876 22.8031 0.97365 23.2326 1.10592 23.6307C1.23818 24.0287 1.49225 24.3751 1.83218 24.6208C2.1721 24.8666 2.58069 24.9992 3.00013 25H29.0001C29.4199 25 29.829 24.8679 30.1695 24.6225C30.5101 24.377 30.7648 24.0307 30.8975 23.6325C31.0302 23.2342 31.0343 22.8043 30.9092 22.4037C30.784 22.003 30.5359 21.6519 30.2001 21.4H30.1964ZM29.0001 23H3.00013L16.0001 13.25L29.0001 23Z" fill="white"/>
</g>
</svg>
