<svg width="33" height="32" viewBox="0 0 33 32" fill="none" xmlns="http://www.w3.org/2000/svg">
<g id="Frame">
<path id="Vector" d="M27.2501 11H21.2501V5C21.2501 4.46957 21.0394 3.96086 20.6643 3.58579C20.2893 3.21071 19.7806 3 19.2501 3H13.2501C12.7197 3 12.211 3.21071 11.8359 3.58579C11.4608 3.96086 11.2501 4.46957 11.2501 5V11H5.25012C4.71969 11 4.21098 11.2107 3.83591 11.5858C3.46084 11.9609 3.25012 12.4696 3.25012 13V19C3.25012 19.5304 3.46084 20.0391 3.83591 20.4142C4.21098 20.7893 4.71969 21 5.25012 21H11.2501V27C11.2501 27.5304 11.4608 28.0391 11.8359 28.4142C12.211 28.7893 12.7197 29 13.2501 29H19.2501C19.7806 29 20.2893 28.7893 20.6643 28.4142C21.0394 28.0391 21.2501 27.5304 21.2501 27V21H27.2501C27.7806 21 28.2893 20.7893 28.6643 20.4142C29.0394 20.0391 29.2501 19.5304 29.2501 19V13C29.2501 12.4696 29.0394 11.9609 28.6643 11.5858C28.2893 11.2107 27.7806 11 27.2501 11ZM27.2501 19H20.2501C19.9849 19 19.7306 19.1054 19.543 19.2929C19.3555 19.4804 19.2501 19.7348 19.2501 20V27H13.2501V20C13.2501 19.7348 13.1448 19.4804 12.9572 19.2929C12.7697 19.1054 12.5153 19 12.2501 19H5.25012V13H12.2501C12.5153 13 12.7697 12.8946 12.9572 12.7071C13.1448 12.5196 13.2501 12.2652 13.2501 12V5H19.2501V12C19.2501 12.2652 19.3555 12.5196 19.543 12.7071C19.7306 12.8946 19.9849 13 20.2501 13H27.2501V19Z" fill="white"/>
</g>
</svg>
