<svg width="278" height="159" viewBox="0 0 278 159" fill="none" xmlns="http://www.w3.org/2000/svg">
<rect width="49.3477" height="10.1588" rx="5.0794" transform="matrix(0.939651 0.342133 0.342133 -0.939651 228 30.5458)" fill="#888888"/>
<rect width="10.1588" height="10.1588" rx="5.0794" transform="matrix(0.939651 0.342133 0.342133 -0.939651 122 27.5457)" fill="#888888"/>
<rect width="12" height="12" rx="6" transform="matrix(0.939651 0.342133 0.342133 -0.939651 112 152.546)" fill="#ED2A07"/>
<rect width="14.066" height="14.066" rx="2.29213" transform="matrix(0.965193 -0.261538 -0.261538 -0.965193 226.679 158.255)" fill="#151515"/>
<rect x="2.5584" width="9.7821" height="9.7821" rx="1.59404" transform="rotate(15.1613 2.5584 0)" fill="#151515"/>
<g clip-path="url(#clip0_942_3736)">
<rect x="5.23369" y="35" width="90" height="90" rx="20" transform="rotate(3 5.23369 35)" fill="#151515"/>
<g style="mix-blend-mode:color-dodge" filter="url(#filter0_f_942_3736)">
<path d="M50.1173 67.9007C50.1429 67.7385 50.2002 67.5829 50.286 67.4429C50.3717 67.3029 50.4842 67.1811 50.6171 67.0846C50.7499 66.988 50.9005 66.9186 51.0602 66.8802C51.2198 66.8419 51.3855 66.8354 51.5477 66.8611C53.9155 67.2202 56.1448 68.204 58.0059 69.7111C59.8671 71.2182 61.2928 73.1943 62.1363 75.4357C62.1952 75.589 62.2233 75.7524 62.219 75.9165C62.2147 76.0807 62.1781 76.2424 62.1113 76.3924C62.0445 76.5424 61.9488 76.6778 61.8296 76.7908C61.7105 76.9038 61.5702 76.9922 61.4169 77.051C61.3148 77.0896 61.2082 77.115 61.0996 77.1267C60.8257 77.1555 60.5499 77.093 60.3151 76.9489C60.0804 76.8048 59.8998 76.5872 59.8014 76.3299C59.1133 74.5002 57.9496 72.887 56.4304 71.6567C54.9111 70.4265 53.0913 69.6236 51.1584 69.331C50.9961 69.3055 50.8404 69.2484 50.7002 69.1627C50.56 69.077 50.438 68.9645 50.3413 68.8317C50.2446 68.6989 50.1751 68.5483 50.1366 68.3885C50.0982 68.2288 50.0916 68.063 50.1173 67.9007ZM50.4379 74.4342C52.6409 74.7809 54.1624 76.013 54.9595 78.0957C55.0578 78.353 55.2384 78.5706 55.4732 78.7147C55.7079 78.8588 55.9837 78.9213 56.2577 78.8925C56.3662 78.8808 56.4728 78.8554 56.5749 78.8168C56.7283 78.758 56.8685 78.6696 56.9877 78.5566C57.1068 78.4436 57.2025 78.3082 57.2693 78.1582C57.3362 78.0082 57.3728 77.8465 57.3771 77.6823C57.3814 77.5182 57.3533 77.3548 57.2944 77.2015C56.1859 74.3077 53.8882 72.4471 50.8272 71.9644C50.665 71.9388 50.4994 71.9455 50.3398 71.9839C50.1802 72.0224 50.0297 72.0919 49.8969 72.1885C49.7642 72.2851 49.6518 72.4069 49.5661 72.5469C49.4804 72.687 49.4232 72.8425 49.3976 73.0047C49.3721 73.1669 49.3787 73.3325 49.4171 73.4921C49.4556 73.6517 49.5251 73.8022 49.6217 73.9349C49.7183 74.0677 49.8401 74.1801 49.9801 74.2658C50.1202 74.3514 50.2757 74.4087 50.4379 74.4342ZM64.7282 87.9128C64.6724 90.0475 63.8415 92.089 62.3906 93.6559C60.9396 95.2228 58.968 96.2079 56.8438 96.4273C44.5055 97.7241 33.4119 88.7408 32.1151 76.4025C31.8881 74.2791 32.4418 72.1457 33.6728 70.4007C34.9037 68.6557 36.7278 67.4184 38.8043 66.9201C39.33 66.7991 39.8806 66.8513 40.3741 67.069C40.8676 67.2867 41.2775 67.6582 41.5425 68.128L45.5945 75.1098L45.5964 75.1285C45.7993 75.4881 45.91 75.8923 45.9186 76.3051C45.9272 76.7179 45.8334 77.1264 45.6456 77.4941C45.622 77.539 45.5966 77.581 45.5696 77.6231L42.7373 81.7983C44.1498 84.041 46.8814 86.2331 49.4003 87.1483L52.8443 83.5325C52.8782 83.4974 52.914 83.4643 52.9517 83.4333C53.2715 83.1678 53.6524 82.9862 54.06 82.9049C54.4676 82.8237 54.889 82.8454 55.2862 82.968L55.3073 82.9752L62.9727 85.4861C63.4881 85.6468 63.9377 85.97 64.2541 86.4075C64.5705 86.8449 64.7368 87.373 64.7282 87.9128ZM62.2279 87.8613C62.2279 87.8613 62.217 87.8625 62.2108 87.8631L54.5635 85.3597L51.1179 88.9756C51.0844 89.0106 51.0491 89.0437 51.012 89.0747C50.6793 89.351 50.2806 89.5363 49.8549 89.6125C49.4292 89.6886 48.991 89.653 48.5832 89.5091C45.5248 88.4087 42.321 85.8342 40.6105 83.1027C40.3835 82.7367 40.255 82.3183 40.2373 81.888C40.2196 81.4577 40.3133 81.0301 40.5095 80.6467C40.5314 80.6018 40.5568 80.5587 40.5855 80.5177L43.4203 76.3376L39.3894 69.3771C39.3881 69.3709 39.3875 69.3647 39.3874 69.3584C37.9012 69.7134 36.5952 70.5979 35.7143 71.8465C34.8333 73.095 34.4376 74.6219 34.6014 76.1411C35.1615 81.414 37.7903 86.2495 41.9112 89.5865C46.032 92.9235 51.3083 94.4895 56.5824 93.941C58.1018 93.7866 59.5128 93.0841 60.5518 91.9649C61.5908 90.8457 62.1865 89.3864 62.2277 87.8598L62.2279 87.8613Z" stroke="#FF9E9E" stroke-width="8.97493" stroke-linecap="round" stroke-linejoin="round"/>
</g>
<g style="mix-blend-mode:color-dodge" filter="url(#filter1_f_942_3736)">
<path d="M50.1172 67.9007C50.1429 67.7385 50.2002 67.5829 50.2859 67.4429C50.3717 67.3029 50.4842 67.1811 50.6171 67.0846C50.7499 66.988 50.9004 66.9186 51.0601 66.8802C51.2198 66.8419 51.3855 66.8354 51.5477 66.8611C53.9154 67.2202 56.1447 68.204 58.0059 69.7111C59.867 71.2182 61.2928 73.1943 62.1363 75.4357C62.1952 75.589 62.2233 75.7524 62.219 75.9165C62.2147 76.0807 62.1781 76.2424 62.1113 76.3924C62.0445 76.5424 61.9487 76.6778 61.8296 76.7908C61.7104 76.9038 61.5702 76.9922 61.4168 77.051C61.3147 77.0896 61.2081 77.115 61.0996 77.1267C60.8256 77.1555 60.5499 77.093 60.3151 76.9489C60.0803 76.8048 59.8997 76.5872 59.8014 76.3299C59.1132 74.5002 57.9496 72.887 56.4303 71.6567C54.9111 70.4265 53.0912 69.6236 51.1584 69.331C50.9961 69.3055 50.8403 69.2484 50.7001 69.1627C50.5599 69.077 50.438 68.9645 50.3413 68.8317C50.2446 68.6989 50.175 68.5483 50.1366 68.3885C50.0981 68.2288 50.0916 68.063 50.1172 67.9007ZM50.4379 74.4342C52.6409 74.7809 54.1624 76.013 54.9594 78.0957C55.0578 78.353 55.2384 78.5706 55.4732 78.7147C55.7079 78.8588 55.9837 78.9213 56.2576 78.8925C56.3662 78.8808 56.4728 78.8554 56.5749 78.8168C56.7282 78.758 56.8685 78.6696 56.9876 78.5566C57.1068 78.4436 57.2025 78.3082 57.2693 78.1582C57.3361 78.0082 57.3727 77.8465 57.377 77.6823C57.3813 77.5182 57.3532 77.3548 57.2944 77.2015C56.1858 74.3077 53.8881 72.4471 50.8271 71.9644C50.665 71.9388 50.4994 71.9455 50.3397 71.9839C50.1801 72.0224 50.0297 72.0919 49.8969 72.1885C49.7642 72.2851 49.6517 72.4069 49.5661 72.5469C49.4804 72.687 49.4231 72.8425 49.3976 73.0047C49.372 73.1669 49.3787 73.3325 49.4171 73.4921C49.4555 73.6517 49.5251 73.8022 49.6217 73.9349C49.7183 74.0677 49.8401 74.1801 49.9801 74.2658C50.1201 74.3514 50.2757 74.4087 50.4379 74.4342ZM64.7282 87.9128C64.6724 90.0475 63.8415 92.089 62.3905 93.6559C60.9396 95.2228 58.9679 96.2079 56.8437 96.4273C44.5055 97.7241 33.4119 88.7408 32.1151 76.4025C31.8881 74.2791 32.4418 72.1457 33.6727 70.4007C34.9037 68.6557 36.7278 67.4184 38.8043 66.9201C39.3299 66.7991 39.8806 66.8513 40.3741 67.069C40.8676 67.2867 41.2774 67.6582 41.5425 68.128L45.5945 75.1098L45.5964 75.1285C45.7993 75.4881 45.91 75.8923 45.9186 76.3051C45.9271 76.7179 45.8333 77.1264 45.6455 77.4941C45.622 77.539 45.5965 77.581 45.5695 77.6231L42.7373 81.7983C44.1498 84.041 46.8814 86.2331 49.4002 87.1483L52.8443 83.5325C52.8781 83.4974 52.914 83.4643 52.9517 83.4333C53.2714 83.1678 53.6524 82.9862 54.06 82.9049C54.4676 82.8237 54.889 82.8454 55.2861 82.968L55.3073 82.9752L62.9727 85.4861C63.4881 85.6468 63.9376 85.97 64.2541 86.4075C64.5705 86.8449 64.7368 87.373 64.7282 87.9128ZM62.2278 87.8613C62.2278 87.8613 62.217 87.8625 62.2108 87.8631L54.5634 85.3597L51.1178 88.9756C51.0844 89.0106 51.0491 89.0437 51.012 89.0747C50.6793 89.351 50.2806 89.5363 49.8549 89.6125C49.4292 89.6886 48.991 89.653 48.5832 89.5091C45.5248 88.4087 42.321 85.8342 40.6104 83.1027C40.3835 82.7367 40.2549 82.3183 40.2372 81.888C40.2195 81.4577 40.3133 81.0301 40.5094 80.6467C40.5314 80.6018 40.5568 80.5587 40.5854 80.5177L43.4203 76.3376L39.3893 69.3771C39.3881 69.3709 39.3874 69.3647 39.3874 69.3584C37.9011 69.7134 36.5952 70.5979 35.7142 71.8465C34.8333 73.095 34.4376 74.6219 34.6014 76.1411C35.1614 81.414 37.7903 86.2495 41.9111 89.5865C46.032 92.9235 51.3083 94.4895 56.5824 93.941C58.1017 93.7866 59.5128 93.0841 60.5518 91.9649C61.5907 90.8457 62.1865 89.3864 62.2277 87.8598L62.2278 87.8613Z" fill="#B1280F"/>
<path d="M50.1172 67.9007C50.1429 67.7385 50.2002 67.5829 50.2859 67.4429C50.3717 67.3029 50.4842 67.1811 50.6171 67.0846C50.7499 66.988 50.9004 66.9186 51.0601 66.8802C51.2198 66.8419 51.3855 66.8354 51.5477 66.8611C53.9154 67.2202 56.1447 68.204 58.0059 69.7111C59.867 71.2182 61.2928 73.1943 62.1363 75.4357C62.1952 75.589 62.2233 75.7524 62.219 75.9165C62.2147 76.0807 62.1781 76.2424 62.1113 76.3924C62.0445 76.5424 61.9487 76.6778 61.8296 76.7908C61.7104 76.9038 61.5702 76.9922 61.4168 77.051C61.3147 77.0896 61.2081 77.115 61.0996 77.1267C60.8256 77.1555 60.5499 77.093 60.3151 76.9489C60.0803 76.8048 59.8997 76.5872 59.8014 76.3299C59.1132 74.5002 57.9496 72.887 56.4303 71.6567C54.9111 70.4265 53.0912 69.6236 51.1584 69.331C50.9961 69.3055 50.8403 69.2484 50.7001 69.1627C50.5599 69.077 50.438 68.9645 50.3413 68.8317C50.2446 68.6989 50.175 68.5483 50.1366 68.3885C50.0981 68.2288 50.0916 68.063 50.1172 67.9007ZM50.4379 74.4342C52.6409 74.7809 54.1624 76.013 54.9594 78.0957C55.0578 78.353 55.2384 78.5706 55.4732 78.7147C55.7079 78.8588 55.9837 78.9213 56.2576 78.8925C56.3662 78.8808 56.4728 78.8554 56.5749 78.8168C56.7282 78.758 56.8685 78.6696 56.9876 78.5566C57.1068 78.4436 57.2025 78.3082 57.2693 78.1582C57.3361 78.0082 57.3727 77.8465 57.377 77.6823C57.3813 77.5182 57.3532 77.3548 57.2944 77.2015C56.1858 74.3077 53.8881 72.4471 50.8271 71.9644C50.665 71.9388 50.4994 71.9455 50.3397 71.9839C50.1801 72.0224 50.0297 72.0919 49.8969 72.1885C49.7642 72.2851 49.6517 72.4069 49.5661 72.5469C49.4804 72.687 49.4231 72.8425 49.3976 73.0047C49.372 73.1669 49.3787 73.3325 49.4171 73.4921C49.4555 73.6517 49.5251 73.8022 49.6217 73.9349C49.7183 74.0677 49.8401 74.1801 49.9801 74.2658C50.1201 74.3514 50.2757 74.4087 50.4379 74.4342ZM64.7282 87.9128C64.6724 90.0475 63.8415 92.089 62.3905 93.6559C60.9396 95.2228 58.9679 96.2079 56.8437 96.4273C44.5055 97.7241 33.4119 88.7408 32.1151 76.4025C31.8881 74.2791 32.4418 72.1457 33.6727 70.4007C34.9037 68.6557 36.7278 67.4184 38.8043 66.9201C39.3299 66.7991 39.8806 66.8513 40.3741 67.069C40.8676 67.2867 41.2774 67.6582 41.5425 68.128L45.5945 75.1098L45.5964 75.1285C45.7993 75.4881 45.91 75.8923 45.9186 76.3051C45.9271 76.7179 45.8333 77.1264 45.6455 77.4941C45.622 77.539 45.5965 77.581 45.5695 77.6231L42.7373 81.7983C44.1498 84.041 46.8814 86.2331 49.4002 87.1483L52.8443 83.5325C52.8781 83.4974 52.914 83.4643 52.9517 83.4333C53.2714 83.1678 53.6524 82.9862 54.06 82.9049C54.4676 82.8237 54.889 82.8454 55.2861 82.968L55.3073 82.9752L62.9727 85.4861C63.4881 85.6468 63.9376 85.97 64.2541 86.4075C64.5705 86.8449 64.7368 87.373 64.7282 87.9128ZM62.2278 87.8613C62.2278 87.8613 62.217 87.8625 62.2108 87.8631L54.5634 85.3597L51.1178 88.9756C51.0844 89.0106 51.0491 89.0437 51.012 89.0747C50.6793 89.351 50.2806 89.5363 49.8549 89.6125C49.4292 89.6886 48.991 89.653 48.5832 89.5091C45.5248 88.4087 42.321 85.8342 40.6104 83.1027C40.3835 82.7367 40.2549 82.3183 40.2372 81.888C40.2195 81.4577 40.3133 81.0301 40.5094 80.6467C40.5314 80.6018 40.5568 80.5587 40.5854 80.5177L43.4203 76.3376L39.3893 69.3771C39.3881 69.3709 39.3874 69.3647 39.3874 69.3584C37.9011 69.7134 36.5952 70.5979 35.7142 71.8465C34.8333 73.095 34.4376 74.6219 34.6014 76.1411C35.1614 81.414 37.7903 86.2495 41.9111 89.5865C46.032 92.9235 51.3083 94.4895 56.5824 93.941C58.1017 93.7866 59.5128 93.0841 60.5518 91.9649C61.5907 90.8457 62.1865 89.3864 62.2277 87.8598L62.2278 87.8613Z" stroke="#B1280F" stroke-width="11.8086" stroke-linecap="round" stroke-linejoin="round"/>
</g>
<g style="mix-blend-mode:multiply" opacity="0.2" filter="url(#filter2_f_942_3736)">
<path d="M50.1172 67.9007C50.1429 67.7385 50.2002 67.5829 50.2859 67.4429C50.3717 67.3029 50.4842 67.1811 50.6171 67.0846C50.7499 66.988 50.9004 66.9186 51.0601 66.8802C51.2198 66.8419 51.3855 66.8354 51.5477 66.8611C53.9154 67.2202 56.1447 68.204 58.0059 69.7111C59.867 71.2182 61.2928 73.1943 62.1363 75.4357C62.1952 75.589 62.2233 75.7524 62.219 75.9165C62.2147 76.0807 62.1781 76.2424 62.1113 76.3924C62.0444 76.5424 61.9487 76.6778 61.8296 76.7908C61.7104 76.9038 61.5702 76.9922 61.4168 77.051C61.3147 77.0896 61.2081 77.115 61.0996 77.1267C60.8256 77.1555 60.5499 77.093 60.3151 76.9489C60.0803 76.8048 59.8997 76.5872 59.8014 76.3299C59.1132 74.5002 57.9496 72.887 56.4303 71.6567C54.9111 70.4265 53.0912 69.6236 51.1584 69.331C50.9961 69.3055 50.8403 69.2484 50.7001 69.1627C50.5599 69.077 50.438 68.9645 50.3413 68.8317C50.2446 68.6989 50.175 68.5483 50.1366 68.3885C50.0981 68.2288 50.0916 68.063 50.1172 67.9007ZM50.4379 74.4342C52.6409 74.7809 54.1624 76.013 54.9594 78.0957C55.0578 78.353 55.2384 78.5706 55.4732 78.7147C55.7079 78.8588 55.9837 78.9213 56.2576 78.8925C56.3662 78.8808 56.4728 78.8554 56.5749 78.8168C56.7282 78.758 56.8685 78.6696 56.9876 78.5566C57.1068 78.4436 57.2025 78.3082 57.2693 78.1582C57.3361 78.0082 57.3727 77.8465 57.377 77.6823C57.3813 77.5182 57.3532 77.3548 57.2944 77.2015C56.1858 74.3077 53.8881 72.4471 50.8271 71.9644C50.665 71.9388 50.4994 71.9455 50.3397 71.9839C50.1801 72.0224 50.0297 72.0919 49.8969 72.1885C49.7642 72.2851 49.6517 72.4069 49.5661 72.5469C49.4804 72.687 49.4231 72.8425 49.3976 73.0047C49.372 73.1669 49.3787 73.3325 49.4171 73.4921C49.4555 73.6517 49.5251 73.8022 49.6217 73.9349C49.7183 74.0677 49.8401 74.1801 49.9801 74.2658C50.1201 74.3514 50.2757 74.4087 50.4379 74.4342ZM64.7282 87.9128C64.6724 90.0475 63.8415 92.089 62.3905 93.6559C60.9396 95.2228 58.9679 96.2079 56.8437 96.4273C44.5055 97.7241 33.4119 88.7408 32.1151 76.4025C31.8881 74.2791 32.4418 72.1457 33.6727 70.4007C34.9037 68.6557 36.7278 67.4184 38.8043 66.9201C39.3299 66.7991 39.8806 66.8513 40.3741 67.069C40.8676 67.2867 41.2774 67.6582 41.5425 68.128L45.5945 75.1098L45.5964 75.1285C45.7993 75.4881 45.91 75.8923 45.9186 76.3051C45.9271 76.7179 45.8333 77.1264 45.6455 77.4941C45.622 77.539 45.5965 77.581 45.5695 77.6231L42.7373 81.7983C44.1498 84.041 46.8814 86.2331 49.4002 87.1483L52.8443 83.5325C52.8781 83.4974 52.914 83.4643 52.9517 83.4333C53.2714 83.1678 53.6524 82.9862 54.06 82.9049C54.4676 82.8237 54.889 82.8454 55.2861 82.968L55.3073 82.9752L62.9727 85.4861C63.4881 85.6468 63.9376 85.97 64.2541 86.4075C64.5705 86.8449 64.7368 87.373 64.7282 87.9128ZM62.2278 87.8613C62.2278 87.8613 62.217 87.8625 62.2108 87.8631L54.5634 85.3597L51.1178 88.9756C51.0844 89.0106 51.0491 89.0437 51.012 89.0747C50.6793 89.351 50.2806 89.5363 49.8549 89.6125C49.4292 89.6886 48.991 89.653 48.5832 89.5091C45.5248 88.4087 42.321 85.8342 40.6104 83.1027C40.3835 82.7367 40.2549 82.3183 40.2372 81.888C40.2195 81.4577 40.3133 81.0301 40.5094 80.6467C40.5314 80.6018 40.5568 80.5587 40.5854 80.5177L43.4203 76.3376L39.3893 69.3771C39.3881 69.3709 39.3874 69.3647 39.3874 69.3584C37.9011 69.7134 36.5952 70.5979 35.7142 71.8465C34.8333 73.095 34.4376 74.6219 34.6014 76.1411C35.1614 81.414 37.7903 86.2495 41.9111 89.5865C46.032 92.9235 51.3083 94.4895 56.5824 93.941C58.1017 93.7866 59.5128 93.0841 60.5518 91.9649C61.5907 90.8457 62.1865 89.3864 62.2277 87.8598L62.2278 87.8613Z" stroke="#ED2A07" stroke-width="2.69248" stroke-linecap="round" stroke-linejoin="round"/>
</g>
<g style="mix-blend-mode:hard-light" filter="url(#filter3_dddii_942_3736)">
<path d="M50.1172 67.9007C50.1429 67.7385 50.2002 67.5829 50.2859 67.4429C50.3717 67.3029 50.4842 67.1811 50.6171 67.0846C50.7499 66.988 50.9004 66.9186 51.0601 66.8802C51.2198 66.8419 51.3855 66.8354 51.5477 66.8611C53.9154 67.2202 56.1447 68.204 58.0059 69.7111C59.867 71.2182 61.2928 73.1943 62.1363 75.4357C62.1952 75.589 62.2233 75.7524 62.219 75.9165C62.2147 76.0807 62.1781 76.2424 62.1113 76.3924C62.0444 76.5424 61.9487 76.6778 61.8296 76.7908C61.7104 76.9038 61.5702 76.9922 61.4168 77.051C61.3147 77.0896 61.2081 77.115 61.0996 77.1267C60.8256 77.1555 60.5499 77.093 60.3151 76.9489C60.0803 76.8048 59.8997 76.5872 59.8014 76.3299C59.1132 74.5002 57.9496 72.887 56.4303 71.6567C54.9111 70.4265 53.0912 69.6236 51.1584 69.331C50.9961 69.3055 50.8403 69.2484 50.7001 69.1627C50.5599 69.077 50.438 68.9645 50.3413 68.8317C50.2446 68.6989 50.175 68.5483 50.1366 68.3885C50.0981 68.2288 50.0916 68.063 50.1172 67.9007ZM50.4379 74.4342C52.6409 74.7809 54.1624 76.013 54.9594 78.0957C55.0578 78.353 55.2384 78.5706 55.4732 78.7147C55.7079 78.8588 55.9837 78.9213 56.2576 78.8925C56.3662 78.8808 56.4728 78.8554 56.5749 78.8168C56.7282 78.758 56.8685 78.6696 56.9876 78.5566C57.1068 78.4436 57.2025 78.3082 57.2693 78.1582C57.3361 78.0082 57.3727 77.8465 57.377 77.6823C57.3813 77.5182 57.3532 77.3548 57.2944 77.2015C56.1858 74.3077 53.8881 72.4471 50.8271 71.9644C50.665 71.9388 50.4994 71.9455 50.3397 71.9839C50.1801 72.0224 50.0297 72.0919 49.8969 72.1885C49.7642 72.2851 49.6517 72.4069 49.5661 72.5469C49.4804 72.687 49.4231 72.8425 49.3976 73.0047C49.372 73.1669 49.3787 73.3325 49.4171 73.4921C49.4555 73.6517 49.5251 73.8022 49.6217 73.9349C49.7183 74.0677 49.8401 74.1801 49.9801 74.2658C50.1201 74.3514 50.2757 74.4087 50.4379 74.4342ZM64.7282 87.9128C64.6724 90.0475 63.8415 92.089 62.3905 93.6559C60.9396 95.2228 58.9679 96.2079 56.8437 96.4273C44.5055 97.7241 33.4119 88.7408 32.1151 76.4025C31.8881 74.2791 32.4418 72.1457 33.6727 70.4007C34.9037 68.6557 36.7278 67.4184 38.8043 66.9201C39.3299 66.7991 39.8806 66.8513 40.3741 67.069C40.8676 67.2867 41.2774 67.6582 41.5425 68.128L45.5945 75.1098L45.5964 75.1285C45.7993 75.4881 45.91 75.8923 45.9186 76.3051C45.9271 76.7179 45.8333 77.1264 45.6455 77.4941C45.622 77.539 45.5965 77.581 45.5695 77.6231L42.7373 81.7983C44.1498 84.041 46.8814 86.2331 49.4002 87.1483L52.8443 83.5325C52.8781 83.4974 52.914 83.4643 52.9517 83.4333C53.2714 83.1678 53.6524 82.9862 54.06 82.9049C54.4676 82.8237 54.889 82.8454 55.2861 82.968L55.3073 82.9752L62.9727 85.4861C63.4881 85.6468 63.9376 85.97 64.2541 86.4075C64.5705 86.8449 64.7368 87.373 64.7282 87.9128ZM62.2278 87.8613C62.2278 87.8613 62.217 87.8625 62.2108 87.8631L54.5634 85.3597L51.1178 88.9756C51.0844 89.0106 51.0491 89.0437 51.012 89.0747C50.6793 89.351 50.2806 89.5363 49.8549 89.6125C49.4292 89.6886 48.991 89.653 48.5832 89.5091C45.5248 88.4087 42.321 85.8342 40.6104 83.1027C40.3835 82.7367 40.2549 82.3183 40.2372 81.888C40.2195 81.4577 40.3133 81.0301 40.5094 80.6467C40.5314 80.6018 40.5568 80.5587 40.5854 80.5177L43.4203 76.3376L39.3893 69.3771C39.3881 69.3709 39.3874 69.3647 39.3874 69.3584C37.9011 69.7134 36.5952 70.5979 35.7142 71.8465C34.8333 73.095 34.4376 74.6219 34.6014 76.1411C35.1614 81.414 37.7903 86.2495 41.9111 89.5865C46.032 92.9235 51.3083 94.4895 56.5824 93.941C58.1017 93.7866 59.5128 93.0841 60.5518 91.9649C61.5907 90.8457 62.1865 89.3864 62.2277 87.8598L62.2278 87.8613Z" stroke="#ED2A07" stroke-opacity="0.2" stroke-width="8.97493" stroke-linecap="round" stroke-linejoin="round"/>
</g>
<g filter="url(#filter4_f_942_3736)">
<path d="M50.1172 67.9007C50.1429 67.7385 50.2002 67.5829 50.2859 67.4429C50.3717 67.3029 50.4842 67.1811 50.6171 67.0846C50.7499 66.988 50.9004 66.9186 51.0601 66.8802C51.2198 66.8419 51.3855 66.8354 51.5477 66.8611C53.9154 67.2202 56.1447 68.204 58.0059 69.7111C59.867 71.2182 61.2928 73.1943 62.1363 75.4357C62.1952 75.589 62.2233 75.7524 62.219 75.9165C62.2147 76.0807 62.1781 76.2424 62.1113 76.3924C62.0444 76.5424 61.9487 76.6778 61.8296 76.7908C61.7104 76.9038 61.5702 76.9922 61.4168 77.051C61.3147 77.0896 61.2081 77.115 61.0996 77.1267C60.8256 77.1555 60.5499 77.093 60.3151 76.9489C60.0803 76.8048 59.8997 76.5872 59.8014 76.3299C59.1132 74.5002 57.9496 72.887 56.4303 71.6567C54.9111 70.4265 53.0912 69.6236 51.1584 69.331C50.9961 69.3055 50.8403 69.2484 50.7001 69.1627C50.5599 69.077 50.438 68.9645 50.3413 68.8317C50.2446 68.6989 50.175 68.5483 50.1366 68.3885C50.0981 68.2288 50.0916 68.063 50.1172 67.9007ZM50.4379 74.4342C52.6409 74.7809 54.1624 76.013 54.9594 78.0957C55.0578 78.353 55.2384 78.5706 55.4732 78.7147C55.7079 78.8588 55.9837 78.9213 56.2576 78.8925C56.3662 78.8808 56.4728 78.8554 56.5749 78.8168C56.7282 78.758 56.8685 78.6696 56.9876 78.5566C57.1068 78.4436 57.2025 78.3082 57.2693 78.1582C57.3361 78.0082 57.3727 77.8465 57.377 77.6823C57.3813 77.5182 57.3532 77.3548 57.2944 77.2015C56.1858 74.3077 53.8881 72.4471 50.8271 71.9644C50.665 71.9388 50.4994 71.9455 50.3397 71.9839C50.1801 72.0224 50.0297 72.0919 49.8969 72.1885C49.7642 72.2851 49.6517 72.4069 49.5661 72.5469C49.4804 72.687 49.4231 72.8425 49.3976 73.0047C49.372 73.1669 49.3787 73.3325 49.4171 73.4921C49.4555 73.6517 49.5251 73.8022 49.6217 73.9349C49.7183 74.0677 49.8401 74.1801 49.9801 74.2658C50.1201 74.3514 50.2757 74.4087 50.4379 74.4342ZM64.7282 87.9128C64.6724 90.0475 63.8415 92.089 62.3905 93.6559C60.9396 95.2228 58.9679 96.2079 56.8437 96.4273C44.5055 97.7241 33.4119 88.7408 32.1151 76.4025C31.8881 74.2791 32.4418 72.1457 33.6727 70.4007C34.9037 68.6557 36.7278 67.4184 38.8043 66.9201C39.3299 66.7991 39.8806 66.8513 40.3741 67.069C40.8676 67.2867 41.2774 67.6582 41.5425 68.128L45.5945 75.1098L45.5964 75.1285C45.7993 75.4881 45.91 75.8923 45.9186 76.3051C45.9271 76.7179 45.8333 77.1264 45.6455 77.4941C45.622 77.539 45.5965 77.581 45.5695 77.6231L42.7373 81.7983C44.1498 84.041 46.8814 86.2331 49.4002 87.1483L52.8443 83.5325C52.8781 83.4974 52.914 83.4643 52.9517 83.4333C53.2714 83.1678 53.6524 82.9862 54.06 82.9049C54.4676 82.8237 54.889 82.8454 55.2861 82.968L55.3073 82.9752L62.9727 85.4861C63.4881 85.6468 63.9376 85.97 64.2541 86.4075C64.5705 86.8449 64.7368 87.373 64.7282 87.9128ZM62.2278 87.8613C62.2278 87.8613 62.217 87.8625 62.2108 87.8631L54.5634 85.3597L51.1178 88.9756C51.0844 89.0106 51.0491 89.0437 51.012 89.0747C50.6793 89.351 50.2806 89.5363 49.8549 89.6125C49.4292 89.6886 48.991 89.653 48.5832 89.5091C45.5248 88.4087 42.321 85.8342 40.6104 83.1027C40.3835 82.7367 40.2549 82.3183 40.2372 81.888C40.2195 81.4577 40.3133 81.0301 40.5094 80.6467C40.5314 80.6018 40.5568 80.5587 40.5854 80.5177L43.4203 76.3376L39.3893 69.3771C39.3881 69.3709 39.3874 69.3647 39.3874 69.3584C37.9011 69.7134 36.5952 70.5979 35.7142 71.8465C34.8333 73.095 34.4376 74.6219 34.6014 76.1411C35.1614 81.414 37.7903 86.2495 41.9111 89.5865C46.032 92.9235 51.3083 94.4895 56.5824 93.941C58.1017 93.7866 59.5128 93.0841 60.5518 91.9649C61.5907 90.8457 62.1865 89.3864 62.2277 87.8598L62.2278 87.8613Z" stroke="#F78672" stroke-width="5.38496" stroke-linecap="round" stroke-linejoin="round"/>
</g>
<g filter="url(#filter5_f_942_3736)">
<path d="M50.1172 67.9007C50.1429 67.7385 50.2002 67.5829 50.2859 67.4429C50.3717 67.3029 50.4842 67.1811 50.6171 67.0846C50.7499 66.988 50.9004 66.9186 51.0601 66.8802C51.2198 66.8419 51.3855 66.8354 51.5477 66.8611C53.9154 67.2202 56.1447 68.204 58.0059 69.7111C59.867 71.2182 61.2928 73.1943 62.1363 75.4357C62.1952 75.589 62.2233 75.7524 62.219 75.9165C62.2147 76.0807 62.1781 76.2424 62.1113 76.3924C62.0445 76.5424 61.9487 76.6778 61.8296 76.7908C61.7104 76.9038 61.5702 76.9922 61.4168 77.051C61.3147 77.0896 61.2081 77.115 61.0996 77.1267C60.8256 77.1555 60.5499 77.093 60.3151 76.9489C60.0803 76.8048 59.8997 76.5872 59.8014 76.3299C59.1132 74.5002 57.9496 72.887 56.4303 71.6567C54.9111 70.4265 53.0912 69.6236 51.1584 69.331C50.9961 69.3055 50.8403 69.2484 50.7001 69.1627C50.5599 69.077 50.438 68.9645 50.3413 68.8317C50.2446 68.6989 50.175 68.5483 50.1366 68.3885C50.0981 68.2288 50.0916 68.063 50.1172 67.9007ZM50.4379 74.4342C52.6409 74.7809 54.1624 76.013 54.9594 78.0957C55.0578 78.353 55.2384 78.5706 55.4732 78.7147C55.7079 78.8588 55.9837 78.9213 56.2576 78.8925C56.3662 78.8808 56.4728 78.8554 56.5749 78.8168C56.7282 78.758 56.8685 78.6696 56.9876 78.5566C57.1068 78.4436 57.2025 78.3082 57.2693 78.1582C57.3361 78.0082 57.3727 77.8465 57.377 77.6823C57.3813 77.5182 57.3532 77.3548 57.2944 77.2015C56.1858 74.3077 53.8881 72.4471 50.8271 71.9644C50.665 71.9388 50.4994 71.9455 50.3397 71.9839C50.1801 72.0224 50.0297 72.0919 49.8969 72.1885C49.7642 72.2851 49.6517 72.4069 49.5661 72.5469C49.4804 72.687 49.4231 72.8425 49.3976 73.0047C49.372 73.1669 49.3787 73.3325 49.4171 73.4921C49.4555 73.6517 49.5251 73.8022 49.6217 73.9349C49.7183 74.0677 49.8401 74.1801 49.9801 74.2658C50.1201 74.3514 50.2757 74.4087 50.4379 74.4342ZM64.7282 87.9128C64.6724 90.0475 63.8415 92.089 62.3905 93.6559C60.9396 95.2228 58.9679 96.2079 56.8437 96.4273C44.5055 97.7241 33.4119 88.7408 32.1151 76.4025C31.8881 74.2791 32.4418 72.1457 33.6727 70.4007C34.9037 68.6557 36.7278 67.4184 38.8043 66.9201C39.3299 66.7991 39.8806 66.8513 40.3741 67.069C40.8676 67.2867 41.2774 67.6582 41.5425 68.128L45.5945 75.1098L45.5964 75.1285C45.7993 75.4881 45.91 75.8923 45.9186 76.3051C45.9271 76.7179 45.8333 77.1264 45.6455 77.4941C45.622 77.539 45.5965 77.581 45.5695 77.6231L42.7373 81.7983C44.1498 84.041 46.8814 86.2331 49.4002 87.1483L52.8443 83.5325C52.8781 83.4974 52.914 83.4643 52.9517 83.4333C53.2714 83.1678 53.6524 82.9862 54.06 82.9049C54.4676 82.8237 54.889 82.8454 55.2861 82.968L55.3073 82.9752L62.9727 85.4861C63.4881 85.6468 63.9376 85.97 64.2541 86.4075C64.5705 86.8449 64.7368 87.373 64.7282 87.9128ZM62.2278 87.8613C62.2278 87.8613 62.217 87.8625 62.2108 87.8631L54.5634 85.3597L51.1178 88.9756C51.0844 89.0106 51.0491 89.0437 51.012 89.0747C50.6793 89.351 50.2806 89.5363 49.8549 89.6125C49.4292 89.6886 48.991 89.653 48.5832 89.5091C45.5248 88.4087 42.321 85.8342 40.6104 83.1027C40.3835 82.7367 40.2549 82.3183 40.2372 81.888C40.2195 81.4577 40.3133 81.0301 40.5094 80.6467C40.5314 80.6018 40.5568 80.5587 40.5854 80.5177L43.4203 76.3376L39.3893 69.3771C39.3881 69.3709 39.3874 69.3647 39.3874 69.3584C37.9011 69.7134 36.5952 70.5979 35.7142 71.8465C34.8333 73.095 34.4376 74.6219 34.6014 76.1411C35.1614 81.414 37.7903 86.2495 41.9111 89.5865C46.032 92.9235 51.3083 94.4895 56.5824 93.941C58.1017 93.7866 59.5128 93.0841 60.5518 91.9649C61.5907 90.8457 62.1865 89.3864 62.2277 87.8598L62.2278 87.8613Z" fill="white"/>
<path d="M50.1172 67.9007C50.1429 67.7385 50.2002 67.5829 50.2859 67.4429C50.3717 67.3029 50.4842 67.1811 50.6171 67.0846C50.7499 66.988 50.9004 66.9186 51.0601 66.8802C51.2198 66.8419 51.3855 66.8354 51.5477 66.8611C53.9154 67.2202 56.1447 68.204 58.0059 69.7111C59.867 71.2182 61.2928 73.1943 62.1363 75.4357C62.1952 75.589 62.2233 75.7524 62.219 75.9165C62.2147 76.0807 62.1781 76.2424 62.1113 76.3924C62.0445 76.5424 61.9487 76.6778 61.8296 76.7908C61.7104 76.9038 61.5702 76.9922 61.4168 77.051C61.3147 77.0896 61.2081 77.115 61.0996 77.1267C60.8256 77.1555 60.5499 77.093 60.3151 76.9489C60.0803 76.8048 59.8997 76.5872 59.8014 76.3299C59.1132 74.5002 57.9496 72.887 56.4303 71.6567C54.9111 70.4265 53.0912 69.6236 51.1584 69.331C50.9961 69.3055 50.8403 69.2484 50.7001 69.1627C50.5599 69.077 50.438 68.9645 50.3413 68.8317C50.2446 68.6989 50.175 68.5483 50.1366 68.3885C50.0981 68.2288 50.0916 68.063 50.1172 67.9007ZM50.4379 74.4342C52.6409 74.7809 54.1624 76.013 54.9594 78.0957C55.0578 78.353 55.2384 78.5706 55.4732 78.7147C55.7079 78.8588 55.9837 78.9213 56.2576 78.8925C56.3662 78.8808 56.4728 78.8554 56.5749 78.8168C56.7282 78.758 56.8685 78.6696 56.9876 78.5566C57.1068 78.4436 57.2025 78.3082 57.2693 78.1582C57.3361 78.0082 57.3727 77.8465 57.377 77.6823C57.3813 77.5182 57.3532 77.3548 57.2944 77.2015C56.1858 74.3077 53.8881 72.4471 50.8271 71.9644C50.665 71.9388 50.4994 71.9455 50.3397 71.9839C50.1801 72.0224 50.0297 72.0919 49.8969 72.1885C49.7642 72.2851 49.6517 72.4069 49.5661 72.5469C49.4804 72.687 49.4231 72.8425 49.3976 73.0047C49.372 73.1669 49.3787 73.3325 49.4171 73.4921C49.4555 73.6517 49.5251 73.8022 49.6217 73.9349C49.7183 74.0677 49.8401 74.1801 49.9801 74.2658C50.1201 74.3514 50.2757 74.4087 50.4379 74.4342ZM64.7282 87.9128C64.6724 90.0475 63.8415 92.089 62.3905 93.6559C60.9396 95.2228 58.9679 96.2079 56.8437 96.4273C44.5055 97.7241 33.4119 88.7408 32.1151 76.4025C31.8881 74.2791 32.4418 72.1457 33.6727 70.4007C34.9037 68.6557 36.7278 67.4184 38.8043 66.9201C39.3299 66.7991 39.8806 66.8513 40.3741 67.069C40.8676 67.2867 41.2774 67.6582 41.5425 68.128L45.5945 75.1098L45.5964 75.1285C45.7993 75.4881 45.91 75.8923 45.9186 76.3051C45.9271 76.7179 45.8333 77.1264 45.6455 77.4941C45.622 77.539 45.5965 77.581 45.5695 77.6231L42.7373 81.7983C44.1498 84.041 46.8814 86.2331 49.4002 87.1483L52.8443 83.5325C52.8781 83.4974 52.914 83.4643 52.9517 83.4333C53.2714 83.1678 53.6524 82.9862 54.06 82.9049C54.4676 82.8237 54.889 82.8454 55.2861 82.968L55.3073 82.9752L62.9727 85.4861C63.4881 85.6468 63.9376 85.97 64.2541 86.4075C64.5705 86.8449 64.7368 87.373 64.7282 87.9128ZM62.2278 87.8613C62.2278 87.8613 62.217 87.8625 62.2108 87.8631L54.5634 85.3597L51.1178 88.9756C51.0844 89.0106 51.0491 89.0437 51.012 89.0747C50.6793 89.351 50.2806 89.5363 49.8549 89.6125C49.4292 89.6886 48.991 89.653 48.5832 89.5091C45.5248 88.4087 42.321 85.8342 40.6104 83.1027C40.3835 82.7367 40.2549 82.3183 40.2372 81.888C40.2195 81.4577 40.3133 81.0301 40.5094 80.6467C40.5314 80.6018 40.5568 80.5587 40.5854 80.5177L43.4203 76.3376L39.3893 69.3771C39.3881 69.3709 39.3874 69.3647 39.3874 69.3584C37.9011 69.7134 36.5952 70.5979 35.7142 71.8465C34.8333 73.095 34.4376 74.6219 34.6014 76.1411C35.1614 81.414 37.7903 86.2495 41.9111 89.5865C46.032 92.9235 51.3083 94.4895 56.5824 93.941C58.1017 93.7866 59.5128 93.0841 60.5518 91.9649C61.5907 90.8457 62.1865 89.3864 62.2277 87.8598L62.2278 87.8613Z" stroke="#EEEEEE" stroke-linecap="round" stroke-linejoin="round"/>
</g>
</g>
<rect x="5.70684" y="35.5255" width="89" height="89" rx="19.5" transform="rotate(3 5.70684 35.5255)" stroke="#252525"/>
<defs>
<filter id="filter0_f_942_3736" x="-17.2968" y="17.4836" width="131.387" height="128.431" filterUnits="userSpaceOnUse" color-interpolation-filters="sRGB">
<feFlood flood-opacity="0" result="BackgroundImageFix"/>
<feBlend mode="normal" in="SourceGraphic" in2="BackgroundImageFix" result="shape"/>
<feGaussianBlur stdDeviation="22.4373" result="effect1_foregroundBlur_942_3736"/>
</filter>
<filter id="filter1_f_942_3736" x="12.6986" y="47.479" width="71.3966" height="68.4399" filterUnits="userSpaceOnUse" color-interpolation-filters="sRGB">
<feFlood flood-opacity="0" result="BackgroundImageFix"/>
<feBlend mode="normal" in="SourceGraphic" in2="BackgroundImageFix" result="shape"/>
<feGaussianBlur stdDeviation="6.73119" result="effect1_foregroundBlur_942_3736"/>
</filter>
<filter id="filter2_f_942_3736" x="28.924" y="63.7045" width="38.9457" height="35.9887" filterUnits="userSpaceOnUse" color-interpolation-filters="sRGB">
<feFlood flood-opacity="0" result="BackgroundImageFix"/>
<feBlend mode="normal" in="SourceGraphic" in2="BackgroundImageFix" result="shape"/>
<feGaussianBlur stdDeviation="0.897493" result="effect1_foregroundBlur_942_3736"/>
</filter>
<filter id="filter3_dddii_942_3736" x="-2.42221" y="42.3582" width="101.638" height="98.6814" filterUnits="userSpaceOnUse" color-interpolation-filters="sRGB">
<feFlood flood-opacity="0" result="BackgroundImageFix"/>
<feColorMatrix in="SourceAlpha" type="matrix" values="0 0 0 0 0 0 0 0 0 0 0 0 0 0 0 0 0 0 127 0" result="hardAlpha"/>
<feOffset dy="8.97493"/>
<feGaussianBlur stdDeviation="3.58997"/>
<feColorMatrix type="matrix" values="0 0 0 0 0.0833333 0 0 0 0 0.02 0 0 0 0 0 0 0 0 0.7 0"/>
<feBlend mode="multiply" in2="BackgroundImageFix" result="effect1_dropShadow_942_3736"/>
<feColorMatrix in="SourceAlpha" type="matrix" values="0 0 0 0 0 0 0 0 0 0 0 0 0 0 0 0 0 0 127 0" result="hardAlpha"/>
<feOffset dy="17.9499"/>
<feGaussianBlur stdDeviation="8.97493"/>
<feColorMatrix type="matrix" values="0 0 0 0 0.175 0 0 0 0 0.0965125 0 0 0 0 0.004375 0 0 0 0.8 0"/>
<feBlend mode="multiply" in2="effect1_dropShadow_942_3736" result="effect2_dropShadow_942_3736"/>
<feColorMatrix in="SourceAlpha" type="matrix" values="0 0 0 0 0 0 0 0 0 0 0 0 0 0 0 0 0 0 127 0" result="hardAlpha"/>
<feOffset dy="10"/>
<feGaussianBlur stdDeviation="15"/>
<feColorMatrix type="matrix" values="0 0 0 0 1 0 0 0 0 0.289333 0 0 0 0 0.133333 0 0 0 1 0"/>
<feBlend mode="color-dodge" in2="effect2_dropShadow_942_3736" result="effect3_dropShadow_942_3736"/>
<feBlend mode="normal" in="SourceGraphic" in2="effect3_dropShadow_942_3736" result="shape"/>
<feColorMatrix in="SourceAlpha" type="matrix" values="0 0 0 0 0 0 0 0 0 0 0 0 0 0 0 0 0 0 127 0" result="hardAlpha"/>
<feOffset dx="-0.897493" dy="1.79499"/>
<feGaussianBlur stdDeviation="0.448746"/>
<feComposite in2="hardAlpha" operator="arithmetic" k2="-1" k3="1"/>
<feColorMatrix type="matrix" values="0 0 0 0 1 0 0 0 0 1 0 0 0 0 1 0 0 0 0.5 0"/>
<feBlend mode="normal" in2="shape" result="effect4_innerShadow_942_3736"/>
<feColorMatrix in="SourceAlpha" type="matrix" values="0 0 0 0 0 0 0 0 0 0 0 0 0 0 0 0 0 0 127 0" result="hardAlpha"/>
<feOffset dx="-0.897493" dy="-1.79499"/>
<feGaussianBlur stdDeviation="0.448746"/>
<feComposite in2="hardAlpha" operator="arithmetic" k2="-1" k3="1"/>
<feColorMatrix type="matrix" values="0 0 0 0 1 0 0 0 0 1 0 0 0 0 1 0 0 0 0.4 0"/>
<feBlend mode="normal" in2="effect4_innerShadow_942_3736" result="effect5_innerShadow_942_3736"/>
</filter>
<filter id="filter4_f_942_3736" x="28.1919" y="62.9724" width="40.4099" height="37.453" filterUnits="userSpaceOnUse" color-interpolation-filters="sRGB">
<feFlood flood-opacity="0" result="BackgroundImageFix"/>
<feBlend mode="normal" in="SourceGraphic" in2="BackgroundImageFix" result="shape"/>
<feGaussianBlur stdDeviation="0.59043" result="effect1_foregroundBlur_942_3736"/>
</filter>
<filter id="filter5_f_942_3736" x="30.6678" y="65.4482" width="35.4582" height="32.5011" filterUnits="userSpaceOnUse" color-interpolation-filters="sRGB">
<feFlood flood-opacity="0" result="BackgroundImageFix"/>
<feBlend mode="normal" in="SourceGraphic" in2="BackgroundImageFix" result="shape"/>
<feGaussianBlur stdDeviation="0.448746" result="effect1_foregroundBlur_942_3736"/>
</filter>
<clipPath id="clip0_942_3736">
<rect x="5.23369" y="35" width="90" height="90" rx="20" transform="rotate(3 5.23369 35)" fill="white"/>
</clipPath>
</defs>
</svg>
