<svg width="13" height="55" viewBox="0 0 13 55" fill="none" xmlns="http://www.w3.org/2000/svg">
<path id="Union" d="M4.43095 3.1455C4.86849 2.08545 5.3267 1.0324 5.84728 0.0138203L5.91642 0.055338C5.40283 1.08077 4.95844 2.13384 4.5417 3.20074C4.12496 4.26764 3.74286 5.34142 3.38848 6.42897C2.67957 8.60422 2.10229 10.8277 1.64956 13.0649C1.18993 15.3091 0.861821 17.5738 0.686041 19.8523C0.59473 20.9949 0.544892 22.1376 0.529737 23.2733C0.51458 24.4089 0.540971 25.5584 0.608892 26.694L0.67021 27.5457L0.745422 28.3973C0.800147 28.9651 0.861777 29.5259 0.944215 30.0937C0.993609 30.5026 1.06094 30.9079 1.12817 31.3121C1.15429 31.4692 1.18039 31.6261 1.20541 31.783C1.30864 32.3438 1.41187 32.9045 1.53583 33.4584L1.6254 33.8807C1.63922 33.9499 1.65645 34.0191 1.67368 34.0883C1.69091 34.1575 1.70814 34.2268 1.72188 34.296L1.92866 35.1267C2.07342 35.6737 2.21817 36.2206 2.39071 36.7674C2.51417 37.1932 2.65449 37.6105 2.79526 38.0293C2.83528 38.1484 2.87532 38.2677 2.91508 38.3872L3.20497 39.1901C3.27489 39.4006 3.35328 39.6026 3.43352 39.8093C3.45621 39.8677 3.47903 39.9266 3.50184 39.9861C3.55709 40.1176 3.60885 40.2491 3.66068 40.3805C3.71246 40.5121 3.76424 40.6436 3.81944 40.7752L4.15783 41.5573C4.23164 41.7494 4.31939 41.9347 4.40626 42.1178C4.44134 42.1919 4.47632 42.2656 4.51011 42.3393C4.62753 42.5954 4.74495 42.8515 4.8762 43.1076L5.25618 43.8758C5.32675 44.017 5.40171 44.1583 5.47737 44.3009C5.53511 44.4097 5.59322 44.5192 5.65004 44.6301C5.81085 44.948 5.99089 45.2576 6.17116 45.5676C6.27739 45.7503 6.38365 45.9332 6.48619 46.1179C7.40396 47.6751 8.41801 49.1797 9.5181 50.6212C9.84593 50.287 10.0954 49.8737 10.2356 49.4091L10.3189 49.1327L10.3813 49.1534C11.0976 51.0703 11.9789 52.9436 12.9854 54.7248C11.3215 53.5333 9.54756 52.48 7.71246 51.5732L7.69865 51.504L7.97309 51.451C8.47592 51.354 8.93434 51.1301 9.31219 50.812C8.15383 49.3918 7.07769 47.9035 6.11201 46.34C6.01526 46.1739 5.91618 46.0086 5.81709 45.8433C5.619 45.5126 5.42085 45.1821 5.24123 44.8452C5.17755 44.7241 5.11243 44.6074 5.04789 44.4917C4.97226 44.3562 4.89745 44.2221 4.82663 44.084L4.43283 43.3158C3.91461 42.2847 3.44497 41.2326 3.02382 40.1598C1.32533 35.8684 0.437332 31.2922 0.214142 26.7014C0.160111 25.5519 0.133719 24.4025 0.162754 23.2529C0.191782 22.1034 0.248533 20.9538 0.353734 19.8111C0.557204 17.5188 0.906114 15.247 1.39339 13.0029C1.88074 10.7587 2.49272 8.54207 3.22927 6.36685C3.59754 5.27924 4.00039 4.21239 4.43095 3.1455Z" fill="#666666"/>
</svg>
