<svg width="176" height="169" viewBox="0 0 176 169" fill="none" xmlns="http://www.w3.org/2000/svg">
<rect x="21.5495" y="14.8072" width="79" height="79" rx="19.5" transform="rotate(-6 21.5495 14.8072)" fill="#151515" stroke="#252525"/>
<rect width="4.29943" height="20.6117" rx="2.14971" transform="matrix(0.866025 0.5 0.5 -0.866025 86 27.8503)" fill="#888888"/>
<rect width="8.76549" height="22" rx="4.38274" transform="matrix(0.46932 -0.883028 -0.883028 -0.46932 86.4266 158.065)" fill="#888888"/>
<rect x="-0.549525" y="0.444997" width="79" height="79" rx="19.5" transform="matrix(-0.994522 -0.104528 -0.104528 0.994522 174.875 79.3072)" fill="#151515" stroke="#252525"/>
<g clip-path="url(#clip0_959_3741)">
<rect x="34.8851" y="26.7358" width="120" height="120" rx="20" transform="rotate(-3 34.8851 26.7358)" fill="#151515"/>
<g style="mix-blend-mode:color-dodge" filter="url(#filter0_f_959_3741)">
<path d="M122.212 79.0707L87.4089 60.2086C86.8221 59.8902 86.1609 59.7343 85.4937 59.7569C84.8265 59.7795 84.1774 59.9798 83.6135 60.3371C83.0549 60.689 82.6001 61.1834 82.2958 61.7694C81.9916 62.3554 81.8489 63.0119 81.8825 63.6713L84.0446 104.926C84.1008 105.914 84.5473 106.841 85.286 107.5C86.0248 108.16 86.9952 108.499 87.9841 108.444C88.6744 108.407 89.3414 108.182 89.912 107.791L122.544 85.3949C123.069 85.0362 123.492 84.5486 123.774 83.979C124.056 83.4093 124.186 82.7768 124.153 82.1422C124.12 81.5075 123.924 80.8921 123.584 80.355C123.244 79.818 122.772 79.3773 122.213 79.0754L122.212 79.0707ZM87.7871 104.685L85.629 63.5055L120.372 82.3379L87.7871 104.685Z" stroke="#FF9E9E" stroke-width="8.97493" stroke-linecap="round" stroke-linejoin="round"/>
</g>
<g style="mix-blend-mode:color-dodge" filter="url(#filter1_f_959_3741)">
<path d="M122.212 79.0708L87.4089 60.2086C86.8221 59.8902 86.1609 59.7343 85.4937 59.7569C84.8265 59.7795 84.1774 59.9798 83.6135 60.3371C83.0549 60.689 82.6001 61.1834 82.2958 61.7694C81.9916 62.3554 81.8489 63.0119 81.8825 63.6713L84.0446 104.926C84.1008 105.914 84.5473 106.841 85.286 107.5C86.0248 108.16 86.9952 108.499 87.9841 108.444C88.6744 108.407 89.3414 108.182 89.912 107.791L122.544 85.3949C123.069 85.0362 123.492 84.5486 123.774 83.979C124.056 83.4094 124.186 82.7768 124.153 82.1422C124.12 81.5075 123.924 80.8921 123.584 80.3551C123.244 79.818 122.772 79.3774 122.213 79.0755L122.212 79.0708ZM87.7871 104.685L85.629 63.5055L120.372 82.338L87.7871 104.685Z" fill="#B1280F"/>
<path d="M122.212 79.0708L87.4089 60.2086C86.8221 59.8902 86.1609 59.7343 85.4937 59.7569C84.8265 59.7795 84.1774 59.9798 83.6135 60.3371C83.0549 60.689 82.6001 61.1834 82.2958 61.7694C81.9916 62.3554 81.8489 63.0119 81.8825 63.6713L84.0446 104.926C84.1008 105.914 84.5473 106.841 85.286 107.5C86.0248 108.16 86.9952 108.499 87.9841 108.444C88.6744 108.407 89.3414 108.182 89.912 107.791L122.544 85.3949C123.069 85.0362 123.492 84.5486 123.774 83.979C124.056 83.4094 124.186 82.7768 124.153 82.1422C124.12 81.5075 123.924 80.8921 123.584 80.3551C123.244 79.818 122.772 79.3774 122.213 79.0755L122.212 79.0708ZM87.7871 104.685L85.629 63.5055L120.372 82.338L87.7871 104.685Z" stroke="#B1280F" stroke-width="11.8086" stroke-linecap="round" stroke-linejoin="round"/>
</g>
<g style="mix-blend-mode:multiply" opacity="0.2" filter="url(#filter2_f_959_3741)">
<path d="M122.212 79.0708L87.4089 60.2086C86.8221 59.8902 86.1609 59.7343 85.4937 59.7569C84.8265 59.7795 84.1774 59.9798 83.6135 60.3371C83.0549 60.689 82.6001 61.1834 82.2958 61.7694C81.9916 62.3554 81.8489 63.0119 81.8825 63.6713L84.0446 104.926C84.1008 105.914 84.5473 106.841 85.286 107.5C86.0248 108.16 86.9952 108.499 87.9841 108.444C88.6744 108.407 89.3414 108.182 89.912 107.791L122.544 85.3949C123.069 85.0362 123.492 84.5486 123.774 83.979C124.056 83.4094 124.186 82.7768 124.153 82.1422C124.12 81.5075 123.924 80.8921 123.584 80.3551C123.244 79.818 122.772 79.3774 122.213 79.0755L122.212 79.0708ZM87.7871 104.685L85.629 63.5055L120.372 82.338L87.7871 104.685Z" stroke="#ED2A07" stroke-width="2.69248" stroke-linecap="round" stroke-linejoin="round"/>
</g>
<g style="mix-blend-mode:hard-light" filter="url(#filter3_dddii_959_3741)">
<path d="M122.212 79.0708L87.4089 60.2086C86.8221 59.8902 86.1609 59.7343 85.4937 59.7569C84.8265 59.7795 84.1774 59.9798 83.6135 60.3371C83.0549 60.689 82.6001 61.1834 82.2958 61.7694C81.9916 62.3554 81.8489 63.0119 81.8825 63.6713L84.0446 104.926C84.1008 105.914 84.5473 106.841 85.286 107.5C86.0248 108.16 86.9952 108.499 87.9841 108.444C88.6744 108.407 89.3414 108.182 89.912 107.791L122.544 85.3949C123.069 85.0362 123.492 84.5486 123.774 83.979C124.056 83.4094 124.186 82.7768 124.153 82.1422C124.12 81.5075 123.924 80.8921 123.584 80.3551C123.244 79.818 122.772 79.3774 122.213 79.0755L122.212 79.0708ZM87.7871 104.685L85.629 63.5055L120.372 82.338L87.7871 104.685Z" stroke="#ED2A07" stroke-opacity="0.2" stroke-width="8.97493" stroke-linecap="round" stroke-linejoin="round"/>
</g>
<g filter="url(#filter4_f_959_3741)">
<path d="M122.212 79.0708L87.4089 60.2086C86.8221 59.8902 86.1609 59.7343 85.4937 59.7569C84.8265 59.7795 84.1774 59.9798 83.6135 60.3371C83.0549 60.689 82.6001 61.1834 82.2958 61.7694C81.9916 62.3554 81.8489 63.0119 81.8825 63.6713L84.0446 104.926C84.1008 105.914 84.5473 106.841 85.286 107.5C86.0248 108.16 86.9952 108.499 87.9841 108.444C88.6744 108.407 89.3414 108.182 89.912 107.791L122.544 85.3949C123.069 85.0362 123.492 84.5486 123.774 83.979C124.056 83.4094 124.186 82.7768 124.153 82.1422C124.12 81.5075 123.924 80.8921 123.584 80.3551C123.244 79.818 122.772 79.3774 122.213 79.0755L122.212 79.0708ZM87.7871 104.685L85.629 63.5055L120.372 82.338L87.7871 104.685Z" stroke="#F78672" stroke-width="5.38496" stroke-linecap="round" stroke-linejoin="round"/>
</g>
<g filter="url(#filter5_f_959_3741)">
<path d="M122.212 79.0708L87.4089 60.2086C86.8221 59.8902 86.1609 59.7343 85.4937 59.7569C84.8265 59.7795 84.1774 59.9798 83.6135 60.3371C83.0549 60.689 82.6001 61.1834 82.2958 61.7694C81.9916 62.3554 81.8489 63.0119 81.8825 63.6713L84.0446 104.926C84.1008 105.914 84.5473 106.841 85.286 107.5C86.0248 108.16 86.9952 108.499 87.9841 108.444C88.6744 108.407 89.3414 108.182 89.912 107.791L122.544 85.3949C123.069 85.0362 123.492 84.5486 123.774 83.979C124.056 83.4094 124.186 82.7768 124.153 82.1422C124.12 81.5075 123.924 80.8921 123.584 80.3551C123.244 79.818 122.772 79.3774 122.213 79.0755L122.212 79.0708ZM87.7871 104.685L85.629 63.5055L120.372 82.338L87.7871 104.685Z" fill="white"/>
<path d="M122.212 79.0708L87.4089 60.2086C86.8221 59.8902 86.1609 59.7343 85.4937 59.7569C84.8265 59.7795 84.1774 59.9798 83.6135 60.3371C83.0549 60.689 82.6001 61.1834 82.2958 61.7694C81.9916 62.3554 81.8489 63.0119 81.8825 63.6713L84.0446 104.926C84.1008 105.914 84.5473 106.841 85.286 107.5C86.0248 108.16 86.9952 108.499 87.9841 108.444C88.6744 108.407 89.3414 108.182 89.912 107.791L122.544 85.3949C123.069 85.0362 123.492 84.5486 123.774 83.979C124.056 83.4094 124.186 82.7768 124.153 82.1422C124.12 81.5075 123.924 80.8921 123.584 80.3551C123.244 79.818 122.772 79.3774 122.213 79.0755L122.212 79.0708ZM87.7871 104.685L85.629 63.5055L120.372 82.338L87.7871 104.685Z" stroke="#EEEEEE" stroke-linecap="round" stroke-linejoin="round"/>
</g>
</g>
<rect x="35.4106" y="27.2089" width="119" height="119" rx="19.5" transform="rotate(-3 35.4106 27.2089)" stroke="#252525"/>
<rect width="15.5298" height="15.5298" rx="7.76492" transform="matrix(0.958355 -0.28558 -0.28558 -0.958355 21.435 140.318)" fill="#ED2A07"/>
<rect width="8" height="8" rx="4" transform="matrix(0.958355 -0.28558 -0.28558 -0.958355 129.285 9.95135)" fill="#ED2A07"/>
<rect width="10.1588" height="10.1588" rx="5.0794" transform="matrix(0.939651 0.342133 0.342133 -0.939651 151 83.5457)" fill="#888888"/>
<rect width="14.066" height="14.066" rx="2.29213" transform="matrix(0.965193 -0.261538 -0.261538 -0.965193 3.67877 88.2551)" fill="#151515"/>
<rect width="5.0302" height="5.0302" rx="2.5151" transform="matrix(0.958355 -0.28558 -0.28558 -0.958355 119.437 168.257)" fill="#ED2A07"/>
<rect x="161.558" y="37.9999" width="9.7821" height="9.7821" rx="1.59404" transform="rotate(15.1613 161.558 37.9999)" fill="#151515"/>
<defs>
<filter id="filter0_f_959_3741" x="32.5156" y="10.3926" width="141.004" height="147.419" filterUnits="userSpaceOnUse" color-interpolation-filters="sRGB">
<feFlood flood-opacity="0" result="BackgroundImageFix"/>
<feBlend mode="normal" in="SourceGraphic" in2="BackgroundImageFix" result="shape"/>
<feGaussianBlur stdDeviation="22.4373" result="effect1_foregroundBlur_959_3741"/>
</filter>
<filter id="filter1_f_959_3741" x="62.511" y="40.3881" width="81.0136" height="87.4283" filterUnits="userSpaceOnUse" color-interpolation-filters="sRGB">
<feFlood flood-opacity="0" result="BackgroundImageFix"/>
<feBlend mode="normal" in="SourceGraphic" in2="BackgroundImageFix" result="shape"/>
<feGaussianBlur stdDeviation="6.73119" result="effect1_foregroundBlur_959_3741"/>
</filter>
<filter id="filter2_f_959_3741" x="78.7365" y="56.6135" width="48.5626" height="54.9774" filterUnits="userSpaceOnUse" color-interpolation-filters="sRGB">
<feFlood flood-opacity="0" result="BackgroundImageFix"/>
<feBlend mode="normal" in="SourceGraphic" in2="BackgroundImageFix" result="shape"/>
<feGaussianBlur stdDeviation="0.897493" result="effect1_foregroundBlur_959_3741"/>
</filter>
<filter id="filter3_dddii_959_3741" x="47.3903" y="35.2673" width="111.255" height="117.67" filterUnits="userSpaceOnUse" color-interpolation-filters="sRGB">
<feFlood flood-opacity="0" result="BackgroundImageFix"/>
<feColorMatrix in="SourceAlpha" type="matrix" values="0 0 0 0 0 0 0 0 0 0 0 0 0 0 0 0 0 0 127 0" result="hardAlpha"/>
<feOffset dy="8.97493"/>
<feGaussianBlur stdDeviation="3.58997"/>
<feColorMatrix type="matrix" values="0 0 0 0 0.0833333 0 0 0 0 0.02 0 0 0 0 0 0 0 0 0.7 0"/>
<feBlend mode="multiply" in2="BackgroundImageFix" result="effect1_dropShadow_959_3741"/>
<feColorMatrix in="SourceAlpha" type="matrix" values="0 0 0 0 0 0 0 0 0 0 0 0 0 0 0 0 0 0 127 0" result="hardAlpha"/>
<feOffset dy="17.9499"/>
<feGaussianBlur stdDeviation="8.97493"/>
<feColorMatrix type="matrix" values="0 0 0 0 0.175 0 0 0 0 0.0965125 0 0 0 0 0.004375 0 0 0 0.8 0"/>
<feBlend mode="multiply" in2="effect1_dropShadow_959_3741" result="effect2_dropShadow_959_3741"/>
<feColorMatrix in="SourceAlpha" type="matrix" values="0 0 0 0 0 0 0 0 0 0 0 0 0 0 0 0 0 0 127 0" result="hardAlpha"/>
<feOffset dy="10"/>
<feGaussianBlur stdDeviation="15"/>
<feColorMatrix type="matrix" values="0 0 0 0 1 0 0 0 0 0.289333 0 0 0 0 0.133333 0 0 0 1 0"/>
<feBlend mode="color-dodge" in2="effect2_dropShadow_959_3741" result="effect3_dropShadow_959_3741"/>
<feBlend mode="normal" in="SourceGraphic" in2="effect3_dropShadow_959_3741" result="shape"/>
<feColorMatrix in="SourceAlpha" type="matrix" values="0 0 0 0 0 0 0 0 0 0 0 0 0 0 0 0 0 0 127 0" result="hardAlpha"/>
<feOffset dx="-0.897493" dy="1.79499"/>
<feGaussianBlur stdDeviation="0.448746"/>
<feComposite in2="hardAlpha" operator="arithmetic" k2="-1" k3="1"/>
<feColorMatrix type="matrix" values="0 0 0 0 1 0 0 0 0 1 0 0 0 0 1 0 0 0 0.5 0"/>
<feBlend mode="normal" in2="shape" result="effect4_innerShadow_959_3741"/>
<feColorMatrix in="SourceAlpha" type="matrix" values="0 0 0 0 0 0 0 0 0 0 0 0 0 0 0 0 0 0 127 0" result="hardAlpha"/>
<feOffset dx="-0.897493" dy="-1.79499"/>
<feGaussianBlur stdDeviation="0.448746"/>
<feComposite in2="hardAlpha" operator="arithmetic" k2="-1" k3="1"/>
<feColorMatrix type="matrix" values="0 0 0 0 1 0 0 0 0 1 0 0 0 0 1 0 0 0 0.4 0"/>
<feBlend mode="normal" in2="effect4_innerShadow_959_3741" result="effect5_innerShadow_959_3741"/>
</filter>
<filter id="filter4_f_959_3741" x="78.0044" y="55.8814" width="50.0269" height="56.4416" filterUnits="userSpaceOnUse" color-interpolation-filters="sRGB">
<feFlood flood-opacity="0" result="BackgroundImageFix"/>
<feBlend mode="normal" in="SourceGraphic" in2="BackgroundImageFix" result="shape"/>
<feGaussianBlur stdDeviation="0.59043" result="effect1_foregroundBlur_959_3741"/>
</filter>
<filter id="filter5_f_959_3741" x="80.4803" y="58.3573" width="45.0751" height="51.4899" filterUnits="userSpaceOnUse" color-interpolation-filters="sRGB">
<feFlood flood-opacity="0" result="BackgroundImageFix"/>
<feBlend mode="normal" in="SourceGraphic" in2="BackgroundImageFix" result="shape"/>
<feGaussianBlur stdDeviation="0.448746" result="effect1_foregroundBlur_959_3741"/>
</filter>
<clipPath id="clip0_959_3741">
<rect x="34.8851" y="26.7358" width="120" height="120" rx="20" transform="rotate(-3 34.8851 26.7358)" fill="white"/>
</clipPath>
</defs>
</svg>
